<?xml version="1.0" encoding="utf-8" standalone="no"?>
<!DOCTYPE svg PUBLIC "-//W3C//DTD SVG 1.1//EN"
  "http://www.w3.org/Graphics/SVG/1.1/DTD/svg11.dtd">
<svg height="288pt" version="1.1" viewBox="0 0 432 288" width="432pt" xmlns="http://www.w3.org/2000/svg" xmlns:xlink="http://www.w3.org/1999/xlink">
 <metadata>
  <rdf:RDF xmlns:cc="http://creativecommons.org/ns#" xmlns:dc="http://purl.org/dc/elements/1.1/" xmlns:rdf="http://www.w3.org/1999/02/22-rdf-syntax-ns#">
   <cc:Work>
    <dc:type rdf:resource="http://purl.org/dc/dcmitype/StillImage"/>
    <dc:date>2022-09-22T18:19:47.805400</dc:date>
    <dc:format>image/svg+xml</dc:format>
    <dc:creator>
     <cc:Agent>
      <dc:title>Matplotlib v3.4.1, https://matplotlib.org/</dc:title>
     </cc:Agent>
    </dc:creator>
   </cc:Work>
  </rdf:RDF>
 </metadata>
 <defs>
  <style type="text/css">*{stroke-linecap:butt;stroke-linejoin:round;}</style>
 </defs>
 <g id="figure_1">
  <g id="patch_1">
   <path d="M 0 288 
L 432 288 
L 432 0 
L 0 0 
z
" style="fill:none;"/>
  </g>
  <g id="axes_1">
   <g id="patch_2">
    <path d="M 68.425 226.2 
L 421.2 226.2 
L 421.2 10.8 
L 68.425 10.8 
z
" style="fill:#ffffff;"/>
   </g>
   <g id="matplotlib.axis_1">
    <g id="xtick_1">
     <g id="line2d_1">
      <defs>
       <path d="M 0 0 
L 0 3.5 
" id="me5ea93c758" style="stroke:#000000;stroke-width:0.8;"/>
      </defs>
      <g>
       <use style="stroke:#000000;stroke-width:0.8;" x="84.460227" xlink:href="#me5ea93c758" y="226.2"/>
      </g>
     </g>
     <g id="text_1">
      <!-- 1 -->
      <g transform="translate(78.097727 248.396875)scale(0.2 -0.2)">
       <defs>
        <path d="M 794 531 
L 1825 531 
L 1825 4091 
L 703 3866 
L 703 4441 
L 1819 4666 
L 2450 4666 
L 2450 531 
L 3481 531 
L 3481 0 
L 794 0 
L 794 531 
z
" id="DejaVuSans-31" transform="scale(0.015625)"/>
       </defs>
       <use xlink:href="#DejaVuSans-31"/>
      </g>
     </g>
    </g>
    <g id="xtick_2">
     <g id="line2d_2">
      <g>
       <use style="stroke:#000000;stroke-width:0.8;" x="143.365144" xlink:href="#me5ea93c758" y="226.2"/>
      </g>
     </g>
     <g id="text_2">
      <!-- 10 -->
      <g transform="translate(130.640144 248.396875)scale(0.2 -0.2)">
       <defs>
        <path d="M 2034 4250 
Q 1547 4250 1301 3770 
Q 1056 3291 1056 2328 
Q 1056 1369 1301 889 
Q 1547 409 2034 409 
Q 2525 409 2770 889 
Q 3016 1369 3016 2328 
Q 3016 3291 2770 3770 
Q 2525 4250 2034 4250 
z
M 2034 4750 
Q 2819 4750 3233 4129 
Q 3647 3509 3647 2328 
Q 3647 1150 3233 529 
Q 2819 -91 2034 -91 
Q 1250 -91 836 529 
Q 422 1150 422 2328 
Q 422 3509 836 4129 
Q 1250 4750 2034 4750 
z
" id="DejaVuSans-30" transform="scale(0.015625)"/>
       </defs>
       <use xlink:href="#DejaVuSans-31"/>
       <use x="63.623047" xlink:href="#DejaVuSans-30"/>
      </g>
     </g>
    </g>
    <g id="xtick_3">
     <g id="line2d_3">
      <g>
       <use style="stroke:#000000;stroke-width:0.8;" x="208.815051" xlink:href="#me5ea93c758" y="226.2"/>
      </g>
     </g>
     <g id="text_3">
      <!-- 20 -->
      <g transform="translate(196.090051 248.396875)scale(0.2 -0.2)">
       <defs>
        <path d="M 1228 531 
L 3431 531 
L 3431 0 
L 469 0 
L 469 531 
Q 828 903 1448 1529 
Q 2069 2156 2228 2338 
Q 2531 2678 2651 2914 
Q 2772 3150 2772 3378 
Q 2772 3750 2511 3984 
Q 2250 4219 1831 4219 
Q 1534 4219 1204 4116 
Q 875 4013 500 3803 
L 500 4441 
Q 881 4594 1212 4672 
Q 1544 4750 1819 4750 
Q 2544 4750 2975 4387 
Q 3406 4025 3406 3419 
Q 3406 3131 3298 2873 
Q 3191 2616 2906 2266 
Q 2828 2175 2409 1742 
Q 1991 1309 1228 531 
z
" id="DejaVuSans-32" transform="scale(0.015625)"/>
       </defs>
       <use xlink:href="#DejaVuSans-32"/>
       <use x="63.623047" xlink:href="#DejaVuSans-30"/>
      </g>
     </g>
    </g>
    <g id="xtick_4">
     <g id="line2d_4">
      <g>
       <use style="stroke:#000000;stroke-width:0.8;" x="274.264958" xlink:href="#me5ea93c758" y="226.2"/>
      </g>
     </g>
     <g id="text_4">
      <!-- 30 -->
      <g transform="translate(261.539958 248.396875)scale(0.2 -0.2)">
       <defs>
        <path d="M 2597 2516 
Q 3050 2419 3304 2112 
Q 3559 1806 3559 1356 
Q 3559 666 3084 287 
Q 2609 -91 1734 -91 
Q 1441 -91 1130 -33 
Q 819 25 488 141 
L 488 750 
Q 750 597 1062 519 
Q 1375 441 1716 441 
Q 2309 441 2620 675 
Q 2931 909 2931 1356 
Q 2931 1769 2642 2001 
Q 2353 2234 1838 2234 
L 1294 2234 
L 1294 2753 
L 1863 2753 
Q 2328 2753 2575 2939 
Q 2822 3125 2822 3475 
Q 2822 3834 2567 4026 
Q 2313 4219 1838 4219 
Q 1578 4219 1281 4162 
Q 984 4106 628 3988 
L 628 4550 
Q 988 4650 1302 4700 
Q 1616 4750 1894 4750 
Q 2613 4750 3031 4423 
Q 3450 4097 3450 3541 
Q 3450 3153 3228 2886 
Q 3006 2619 2597 2516 
z
" id="DejaVuSans-33" transform="scale(0.015625)"/>
       </defs>
       <use xlink:href="#DejaVuSans-33"/>
       <use x="63.623047" xlink:href="#DejaVuSans-30"/>
      </g>
     </g>
    </g>
    <g id="xtick_5">
     <g id="line2d_5">
      <g>
       <use style="stroke:#000000;stroke-width:0.8;" x="339.714865" xlink:href="#me5ea93c758" y="226.2"/>
      </g>
     </g>
     <g id="text_5">
      <!-- 40 -->
      <g transform="translate(326.989865 248.396875)scale(0.2 -0.2)">
       <defs>
        <path d="M 2419 4116 
L 825 1625 
L 2419 1625 
L 2419 4116 
z
M 2253 4666 
L 3047 4666 
L 3047 1625 
L 3713 1625 
L 3713 1100 
L 3047 1100 
L 3047 0 
L 2419 0 
L 2419 1100 
L 313 1100 
L 313 1709 
L 2253 4666 
z
" id="DejaVuSans-34" transform="scale(0.015625)"/>
       </defs>
       <use xlink:href="#DejaVuSans-34"/>
       <use x="63.623047" xlink:href="#DejaVuSans-30"/>
      </g>
     </g>
    </g>
    <g id="xtick_6">
     <g id="line2d_6">
      <g>
       <use style="stroke:#000000;stroke-width:0.8;" x="405.164773" xlink:href="#me5ea93c758" y="226.2"/>
      </g>
     </g>
     <g id="text_6">
      <!-- 50 -->
      <g transform="translate(392.439773 248.396875)scale(0.2 -0.2)">
       <defs>
        <path d="M 691 4666 
L 3169 4666 
L 3169 4134 
L 1269 4134 
L 1269 2991 
Q 1406 3038 1543 3061 
Q 1681 3084 1819 3084 
Q 2600 3084 3056 2656 
Q 3513 2228 3513 1497 
Q 3513 744 3044 326 
Q 2575 -91 1722 -91 
Q 1428 -91 1123 -41 
Q 819 9 494 109 
L 494 744 
Q 775 591 1075 516 
Q 1375 441 1709 441 
Q 2250 441 2565 725 
Q 2881 1009 2881 1497 
Q 2881 1984 2565 2268 
Q 2250 2553 1709 2553 
Q 1456 2553 1204 2497 
Q 953 2441 691 2322 
L 691 4666 
z
" id="DejaVuSans-35" transform="scale(0.015625)"/>
       </defs>
       <use xlink:href="#DejaVuSans-35"/>
       <use x="63.623047" xlink:href="#DejaVuSans-30"/>
      </g>
     </g>
    </g>
    <g id="text_7">
     <!-- $f$ (Hz) -->
     <g transform="translate(217.5125 271.753125)scale(0.2 -0.2)">
      <defs>
       <path d="M 3059 4863 
L 2969 4384 
L 2419 4384 
Q 2106 4384 1964 4261 
Q 1822 4138 1753 3809 
L 1691 3500 
L 2638 3500 
L 2553 3053 
L 1606 3053 
L 1013 0 
L 434 0 
L 1031 3053 
L 481 3053 
L 563 3500 
L 1113 3500 
L 1159 3744 
Q 1278 4363 1576 4613 
Q 1875 4863 2516 4863 
L 3059 4863 
z
" id="DejaVuSans-Oblique-66" transform="scale(0.015625)"/>
       <path id="DejaVuSans-20" transform="scale(0.015625)"/>
       <path d="M 1984 4856 
Q 1566 4138 1362 3434 
Q 1159 2731 1159 2009 
Q 1159 1288 1364 580 
Q 1569 -128 1984 -844 
L 1484 -844 
Q 1016 -109 783 600 
Q 550 1309 550 2009 
Q 550 2706 781 3412 
Q 1013 4119 1484 4856 
L 1984 4856 
z
" id="DejaVuSans-28" transform="scale(0.015625)"/>
       <path d="M 628 4666 
L 1259 4666 
L 1259 2753 
L 3553 2753 
L 3553 4666 
L 4184 4666 
L 4184 0 
L 3553 0 
L 3553 2222 
L 1259 2222 
L 1259 0 
L 628 0 
L 628 4666 
z
" id="DejaVuSans-48" transform="scale(0.015625)"/>
       <path d="M 353 3500 
L 3084 3500 
L 3084 2975 
L 922 459 
L 3084 459 
L 3084 0 
L 275 0 
L 275 525 
L 2438 3041 
L 353 3041 
L 353 3500 
z
" id="DejaVuSans-7a" transform="scale(0.015625)"/>
       <path d="M 513 4856 
L 1013 4856 
Q 1481 4119 1714 3412 
Q 1947 2706 1947 2009 
Q 1947 1309 1714 600 
Q 1481 -109 1013 -844 
L 513 -844 
Q 928 -128 1133 580 
Q 1338 1288 1338 2009 
Q 1338 2731 1133 3434 
Q 928 4138 513 4856 
z
" id="DejaVuSans-29" transform="scale(0.015625)"/>
      </defs>
      <use transform="translate(0 0.015625)" xlink:href="#DejaVuSans-Oblique-66"/>
      <use transform="translate(35.205078 0.015625)" xlink:href="#DejaVuSans-20"/>
      <use transform="translate(66.992188 0.015625)" xlink:href="#DejaVuSans-28"/>
      <use transform="translate(106.005859 0.015625)" xlink:href="#DejaVuSans-48"/>
      <use transform="translate(181.201172 0.015625)" xlink:href="#DejaVuSans-7a"/>
      <use transform="translate(233.691406 0.015625)" xlink:href="#DejaVuSans-29"/>
     </g>
    </g>
   </g>
   <g id="matplotlib.axis_2">
    <g id="ytick_1">
     <g id="line2d_7">
      <defs>
       <path d="M 0 0 
L -3.5 0 
" id="m00d4879d43" style="stroke:#000000;stroke-width:0.8;"/>
      </defs>
      <g>
       <use style="stroke:#000000;stroke-width:0.8;" x="68.425" xlink:href="#m00d4879d43" y="216.409091"/>
      </g>
     </g>
     <g id="text_8">
      <!-- 0 -->
      <g transform="translate(48.7 224.007528)scale(0.2 -0.2)">
       <use xlink:href="#DejaVuSans-30"/>
      </g>
     </g>
    </g>
    <g id="ytick_2">
     <g id="line2d_8">
      <g>
       <use style="stroke:#000000;stroke-width:0.8;" x="68.425" xlink:href="#m00d4879d43" y="184.374374"/>
      </g>
     </g>
     <g id="text_9">
      <!-- 5 -->
      <g transform="translate(48.7 191.972811)scale(0.2 -0.2)">
       <use xlink:href="#DejaVuSans-35"/>
      </g>
     </g>
    </g>
    <g id="ytick_3">
     <g id="line2d_9">
      <g>
       <use style="stroke:#000000;stroke-width:0.8;" x="68.425" xlink:href="#m00d4879d43" y="152.339656"/>
      </g>
     </g>
     <g id="text_10">
      <!-- 10 -->
      <g transform="translate(35.975 159.938094)scale(0.2 -0.2)">
       <use xlink:href="#DejaVuSans-31"/>
       <use x="63.623047" xlink:href="#DejaVuSans-30"/>
      </g>
     </g>
    </g>
    <g id="ytick_4">
     <g id="line2d_10">
      <g>
       <use style="stroke:#000000;stroke-width:0.8;" x="68.425" xlink:href="#m00d4879d43" y="120.304939"/>
      </g>
     </g>
     <g id="text_11">
      <!-- 15 -->
      <g transform="translate(35.975 127.903377)scale(0.2 -0.2)">
       <use xlink:href="#DejaVuSans-31"/>
       <use x="63.623047" xlink:href="#DejaVuSans-35"/>
      </g>
     </g>
    </g>
    <g id="ytick_5">
     <g id="line2d_11">
      <g>
       <use style="stroke:#000000;stroke-width:0.8;" x="68.425" xlink:href="#m00d4879d43" y="88.270222"/>
      </g>
     </g>
     <g id="text_12">
      <!-- 20 -->
      <g transform="translate(35.975 95.86866)scale(0.2 -0.2)">
       <use xlink:href="#DejaVuSans-32"/>
       <use x="63.623047" xlink:href="#DejaVuSans-30"/>
      </g>
     </g>
    </g>
    <g id="ytick_6">
     <g id="line2d_12">
      <g>
       <use style="stroke:#000000;stroke-width:0.8;" x="68.425" xlink:href="#m00d4879d43" y="56.235505"/>
      </g>
     </g>
     <g id="text_13">
      <!-- 25 -->
      <g transform="translate(35.975 63.833942)scale(0.2 -0.2)">
       <use xlink:href="#DejaVuSans-32"/>
       <use x="63.623047" xlink:href="#DejaVuSans-35"/>
      </g>
     </g>
    </g>
    <g id="text_14">
     <!-- $R$ (bit/s) -->
     <g transform="translate(27.815625 158.1)rotate(-90)scale(0.2 -0.2)">
      <defs>
       <path d="M 1613 4147 
L 1294 2491 
L 2106 2491 
Q 2584 2491 2879 2755 
Q 3175 3019 3175 3444 
Q 3175 3784 2976 3965 
Q 2778 4147 2406 4147 
L 1613 4147 
z
M 2772 2241 
Q 2972 2194 3105 2009 
Q 3238 1825 3413 1275 
L 3809 0 
L 3144 0 
L 2778 1197 
Q 2638 1659 2453 1815 
Q 2269 1972 1888 1972 
L 1191 1972 
L 806 0 
L 172 0 
L 1081 4666 
L 2503 4666 
Q 3150 4666 3495 4373 
Q 3841 4081 3841 3531 
Q 3841 3044 3547 2687 
Q 3253 2331 2772 2241 
z
" id="DejaVuSans-Oblique-52" transform="scale(0.015625)"/>
       <path d="M 3116 1747 
Q 3116 2381 2855 2742 
Q 2594 3103 2138 3103 
Q 1681 3103 1420 2742 
Q 1159 2381 1159 1747 
Q 1159 1113 1420 752 
Q 1681 391 2138 391 
Q 2594 391 2855 752 
Q 3116 1113 3116 1747 
z
M 1159 2969 
Q 1341 3281 1617 3432 
Q 1894 3584 2278 3584 
Q 2916 3584 3314 3078 
Q 3713 2572 3713 1747 
Q 3713 922 3314 415 
Q 2916 -91 2278 -91 
Q 1894 -91 1617 61 
Q 1341 213 1159 525 
L 1159 0 
L 581 0 
L 581 4863 
L 1159 4863 
L 1159 2969 
z
" id="DejaVuSans-62" transform="scale(0.015625)"/>
       <path d="M 603 3500 
L 1178 3500 
L 1178 0 
L 603 0 
L 603 3500 
z
M 603 4863 
L 1178 4863 
L 1178 4134 
L 603 4134 
L 603 4863 
z
" id="DejaVuSans-69" transform="scale(0.015625)"/>
       <path d="M 1172 4494 
L 1172 3500 
L 2356 3500 
L 2356 3053 
L 1172 3053 
L 1172 1153 
Q 1172 725 1289 603 
Q 1406 481 1766 481 
L 2356 481 
L 2356 0 
L 1766 0 
Q 1100 0 847 248 
Q 594 497 594 1153 
L 594 3053 
L 172 3053 
L 172 3500 
L 594 3500 
L 594 4494 
L 1172 4494 
z
" id="DejaVuSans-74" transform="scale(0.015625)"/>
       <path d="M 1625 4666 
L 2156 4666 
L 531 -594 
L 0 -594 
L 1625 4666 
z
" id="DejaVuSans-2f" transform="scale(0.015625)"/>
       <path d="M 2834 3397 
L 2834 2853 
Q 2591 2978 2328 3040 
Q 2066 3103 1784 3103 
Q 1356 3103 1142 2972 
Q 928 2841 928 2578 
Q 928 2378 1081 2264 
Q 1234 2150 1697 2047 
L 1894 2003 
Q 2506 1872 2764 1633 
Q 3022 1394 3022 966 
Q 3022 478 2636 193 
Q 2250 -91 1575 -91 
Q 1294 -91 989 -36 
Q 684 19 347 128 
L 347 722 
Q 666 556 975 473 
Q 1284 391 1588 391 
Q 1994 391 2212 530 
Q 2431 669 2431 922 
Q 2431 1156 2273 1281 
Q 2116 1406 1581 1522 
L 1381 1569 
Q 847 1681 609 1914 
Q 372 2147 372 2553 
Q 372 3047 722 3315 
Q 1072 3584 1716 3584 
Q 2034 3584 2315 3537 
Q 2597 3491 2834 3397 
z
" id="DejaVuSans-73" transform="scale(0.015625)"/>
      </defs>
      <use transform="translate(0 0.015625)" xlink:href="#DejaVuSans-Oblique-52"/>
      <use transform="translate(69.482422 0.015625)" xlink:href="#DejaVuSans-20"/>
      <use transform="translate(101.269531 0.015625)" xlink:href="#DejaVuSans-28"/>
      <use transform="translate(140.283203 0.015625)" xlink:href="#DejaVuSans-62"/>
      <use transform="translate(203.759766 0.015625)" xlink:href="#DejaVuSans-69"/>
      <use transform="translate(231.542969 0.015625)" xlink:href="#DejaVuSans-74"/>
      <use transform="translate(270.751953 0.015625)" xlink:href="#DejaVuSans-2f"/>
      <use transform="translate(304.443359 0.015625)" xlink:href="#DejaVuSans-73"/>
      <use transform="translate(356.542969 0.015625)" xlink:href="#DejaVuSans-29"/>
     </g>
    </g>
   </g>
   <g id="line2d_13">
    <path clip-path="url(#p9ee21f0413)" d="M 84.460227 202.880699 
L 87.699667 197.01243 
L 90.939107 192.086211 
L 94.178547 186.698601 
L 97.417987 181.537113 
L 100.657427 177.310807 
L 103.896866 172.637584 
L 107.136306 168.598847 
L 110.375746 164.5862 
L 113.615186 160.01973 
L 116.854626 156.785539 
L 120.094066 154.285133 
L 123.333506 149.869295 
L 126.572945 147.564756 
L 129.812385 144.811859 
L 133.051825 147.89564 
L 136.291265 144.641052 
L 139.530705 141.687141 
L 142.770145 140.250712 
L 146.009584 135.329004 
L 149.249024 142.357271 
L 152.488464 143.226527 
L 155.727904 144.321202 
L 158.967344 147.323863 
L 162.206784 148.436602 
L 165.446224 148.183599 
L 168.685663 145.437537 
L 171.925103 145.487489 
L 175.164543 140.725432 
L 178.403983 139.0924 
L 181.643423 137.836335 
L 184.882863 136.36585 
L 188.122303 133.495696 
L 191.361742 130.484058 
L 194.601182 127.573995 
L 197.840622 128.201511 
L 201.080062 124.417907 
L 204.319502 120.406892 
L 207.558942 116.662507 
L 210.798382 115.748468 
L 214.037821 112.743179 
L 217.277261 112.006222 
L 220.516701 108.933652 
L 223.756141 106.198367 
L 226.995581 104.01284 
L 230.235021 101.55566 
L 233.474461 97.995606 
L 236.7139 99.58496 
L 239.95334 94.131035 
L 243.19278 95.684619 
L 246.43222 92.565207 
L 249.67166 90.300428 
L 252.9111 89.270833 
L 256.150539 87.972756 
L 259.389979 85.458181 
L 262.629419 81.840826 
L 265.868859 77.308077 
L 269.108299 78.958714 
L 272.347739 75.194562 
L 275.587179 76.103996 
L 278.826618 73.717651 
L 282.066058 72.185369 
L 285.305498 67.755411 
L 288.544938 71.201992 
L 291.784378 64.511356 
L 295.023818 66.046454 
L 298.263258 63.468928 
L 301.502697 64.598 
L 304.742137 64.027655 
L 307.981577 59.087987 
L 311.221017 59.823874 
L 314.460457 62.551378 
L 317.699897 56.419517 
L 320.939337 56.334339 
L 324.178776 54.900959 
L 327.418216 52.201344 
L 330.657656 52.122856 
L 333.897096 49.073903 
L 337.136536 45.97032 
L 340.375976 45.046258 
L 343.615416 51.014914 
L 346.854855 45.978799 
L 350.094295 42.861249 
L 353.333735 42.246972 
L 356.573175 38.74322 
L 359.812615 39.7242 
L 363.052055 40.369435 
L 366.291494 42.685619 
L 369.530934 35.619576 
L 372.770374 33.023547 
L 376.009814 33.469663 
L 379.249254 33.557737 
L 382.488694 30.649241 
L 385.728134 30.611117 
L 388.967573 31.498096 
L 392.207013 31.924848 
L 395.446453 26.488766 
L 398.685893 23.947148 
L 401.925333 27.583617 
L 405.164773 20.590909 
" style="fill:none;stroke:#c6dbef;stroke-linecap:square;stroke-width:3;"/>
   </g>
   <g id="line2d_14">
    <path clip-path="url(#p9ee21f0413)" d="M 84.460227 206.51144 
L 87.699667 202.557928 
L 90.939107 198.758905 
L 94.178547 195.317236 
L 97.417987 192.059451 
L 100.657427 189.203139 
L 103.896866 186.569595 
L 107.136306 184.054242 
L 110.375746 182.182491 
L 113.615186 180.947176 
L 116.854626 178.609392 
L 120.094066 177.527561 
L 123.333506 176.598305 
L 126.572945 176.453986 
L 129.812385 177.0414 
L 133.051825 176.557683 
L 136.291265 177.024259 
L 139.530705 175.549794 
L 142.770145 177.149429 
L 146.009584 177.934489 
L 149.249024 180.101175 
L 152.488464 181.134136 
L 155.727904 182.100578 
L 158.967344 184.639078 
L 162.206784 184.698972 
L 165.446224 186.582226 
L 168.685663 187.308433 
L 171.925103 187.351068 
L 175.164543 188.31657 
L 178.403983 187.569539 
L 181.643423 187.658313 
L 184.882863 187.61898 
L 188.122303 189.109931 
L 191.361742 189.083323 
L 194.601182 188.672345 
L 197.840622 190.252495 
L 201.080062 190.263973 
L 204.319502 189.200336 
L 207.558942 188.804731 
L 210.798382 190.130414 
L 214.037821 189.729156 
L 217.277261 190.607611 
L 220.516701 192.259805 
L 223.756141 188.804219 
L 226.995581 190.226776 
L 230.235021 190.267389 
L 233.474461 190.143903 
L 236.7139 191.282216 
L 239.95334 191.583405 
L 243.19278 190.507683 
L 246.43222 189.448213 
L 249.67166 189.963259 
L 252.9111 190.537344 
L 256.150539 192.488114 
L 259.389979 189.989939 
L 262.629419 192.068128 
L 265.868859 188.867843 
L 269.108299 191.673871 
L 272.347739 192.896292 
L 275.587179 190.451267 
L 278.826618 191.700763 
L 282.066058 191.6733 
L 285.305498 193.371225 
L 288.544938 191.383326 
L 291.784378 190.318349 
L 295.023818 190.158242 
L 298.263258 192.634992 
L 301.502697 191.3634 
L 304.742137 191.914788 
L 307.981577 190.647758 
L 311.221017 191.370567 
L 314.460457 192.851342 
L 317.699897 192.305299 
L 320.939337 189.674194 
L 324.178776 189.811807 
L 327.418216 190.060278 
L 330.657656 191.281061 
L 333.897096 192.205481 
L 337.136536 191.879784 
L 340.375976 193.598717 
L 343.615416 192.921845 
L 346.854855 193.607007 
L 350.094295 190.16616 
L 353.333735 193.549001 
L 356.573175 192.157609 
L 359.812615 192.621957 
L 363.052055 193.402106 
L 366.291494 191.503979 
L 369.530934 193.015498 
L 372.770374 188.993544 
L 376.009814 193.304616 
L 379.249254 194.12216 
L 382.488694 192.727859 
L 385.728134 192.539153 
L 388.967573 187.992244 
L 392.207013 194.54873 
L 395.446453 194.485367 
L 398.685893 193.069677 
L 401.925333 191.83497 
L 405.164773 192.271834 
" style="fill:none;stroke:#6aaed6;stroke-linecap:square;stroke-width:3;"/>
   </g>
   <g id="line2d_15">
    <path clip-path="url(#p9ee21f0413)" d="M 84.460227 209.822846 
L 87.699667 207.342436 
L 90.939107 205.138703 
L 94.178547 202.896391 
L 97.417987 201.363193 
L 100.657427 199.760732 
L 103.896866 198.775238 
L 107.136306 197.921758 
L 110.375746 197.136323 
L 113.615186 196.817177 
L 116.854626 196.061542 
L 120.094066 196.049075 
L 123.333506 196.399484 
L 126.572945 197.219928 
L 129.812385 197.651088 
L 133.051825 197.900059 
L 136.291265 198.14615 
L 139.530705 198.623982 
L 142.770145 200.23332 
L 146.009584 199.955812 
L 149.249024 201.280351 
L 152.488464 201.981296 
L 155.727904 202.766806 
L 158.967344 203.825824 
L 162.206784 203.956267 
L 165.446224 205.385455 
L 168.685663 206.078775 
L 171.925103 206.536657 
L 175.164543 207.079099 
L 178.403983 207.415258 
L 181.643423 207.802758 
L 184.882863 208.274057 
L 188.122303 208.631652 
L 191.361742 208.781081 
L 194.601182 210.189144 
L 197.840622 210.31108 
L 201.080062 210.037646 
L 204.319502 210.58891 
L 207.558942 210.628301 
L 210.798382 211.119229 
L 214.037821 211.367243 
L 217.277261 212.141502 
L 220.516701 212.284463 
L 223.756141 211.476495 
L 226.995581 212.310848 
L 230.235021 212.032922 
L 233.474461 212.596867 
L 236.7139 213.233732 
L 239.95334 212.954946 
L 243.19278 213.080962 
L 246.43222 213.586277 
L 249.67166 213.366364 
L 252.9111 214.226164 
L 256.150539 213.595657 
L 259.389979 214.066878 
L 262.629419 213.881312 
L 265.868859 214.322812 
L 269.108299 214.159658 
L 272.347739 213.851598 
L 275.587179 213.868739 
L 278.826618 214.301397 
L 282.066058 214.164597 
L 285.305498 214.84792 
L 288.544938 213.616253 
L 291.784378 214.545472 
L 295.023818 214.640075 
L 298.263258 214.806018 
L 301.502697 214.814994 
L 304.742137 214.735987 
L 307.981577 213.999563 
L 311.221017 214.875503 
L 314.460457 214.905845 
L 317.699897 214.316407 
L 320.939337 214.423214 
L 324.178776 214.795966 
L 327.418216 215.055709 
L 330.657656 215.589754 
L 333.897096 213.940501 
L 337.136536 214.185465 
L 340.375976 215.051869 
L 343.615416 215.064783 
L 346.854855 214.923026 
L 350.094295 214.610287 
L 353.333735 214.644472 
L 356.573175 214.933805 
L 359.812615 215.156991 
L 363.052055 214.89861 
L 366.291494 215.071068 
L 369.530934 214.402995 
L 372.770374 214.547334 
L 376.009814 215.727595 
L 379.249254 215.454481 
L 382.488694 215.276784 
L 385.728134 214.679712 
L 388.967573 215.122724 
L 392.207013 215.130697 
L 395.446453 214.812203 
L 398.685893 214.986615 
L 401.925333 214.712832 
L 405.164773 214.20269 
" style="fill:none;stroke:#2070b4;stroke-linecap:square;stroke-width:3;"/>
   </g>
   <g id="line2d_16">
    <path clip-path="url(#p9ee21f0413)" d="M 84.460227 213.879388 
L 87.699667 212.877676 
L 90.939107 212.066808 
L 94.178547 211.437238 
L 97.417987 211.000533 
L 100.657427 210.398359 
L 103.896866 210.273498 
L 107.136306 210.183288 
L 110.375746 209.837992 
L 113.615186 209.684964 
L 116.854626 209.817912 
L 120.094066 210.105978 
L 123.333506 210.284446 
L 126.572945 210.796639 
L 129.812385 211.141946 
L 133.051825 210.883186 
L 136.291265 211.151068 
L 139.530705 211.429999 
L 142.770145 212.056935 
L 146.009584 212.244916 
L 149.249024 212.573997 
L 152.488464 212.60656 
L 155.727904 212.999441 
L 158.967344 213.195887 
L 162.206784 213.160754 
L 165.446224 213.539174 
L 168.685663 213.634734 
L 171.925103 213.81166 
L 175.164543 214.123952 
L 178.403983 214.476063 
L 181.643423 213.928023 
L 184.882863 214.54967 
L 188.122303 214.617245 
L 191.361742 214.375284 
L 194.601182 214.835404 
L 197.840622 215.173806 
L 201.080062 215.108345 
L 204.319502 215.319086 
L 207.558942 215.047094 
L 210.798382 215.18528 
L 214.037821 215.305949 
L 217.277261 215.433583 
L 220.516701 215.60673 
L 223.756141 215.487165 
L 226.995581 215.57166 
L 230.235021 215.070437 
L 233.474461 215.629711 
L 236.7139 215.736386 
L 239.95334 215.681931 
L 243.19278 215.644397 
L 246.43222 215.633707 
L 249.67166 215.956649 
L 252.9111 215.960563 
L 256.150539 216.000944 
L 259.389979 215.662055 
L 262.629419 215.864513 
L 265.868859 215.918317 
L 269.108299 215.837652 
L 272.347739 215.798959 
L 275.587179 215.791011 
L 278.826618 215.820447 
L 282.066058 216.176472 
L 285.305498 215.80127 
L 288.544938 215.980526 
L 291.784378 216.173749 
L 295.023818 215.907559 
L 298.263258 216.012853 
L 301.502697 216.131921 
L 304.742137 216.119271 
L 307.981577 215.724297 
L 311.221017 216.409091 
L 314.460457 216.409091 
L 317.699897 216.161255 
L 320.939337 215.593141 
L 324.178776 215.807661 
L 327.418216 216.114264 
L 330.657656 216.229586 
L 333.897096 216.394681 
L 337.136536 215.581593 
L 340.375976 215.868765 
L 343.615416 216.135303 
L 346.854855 216.15836 
L 350.094295 216.054948 
L 353.333735 216.211932 
L 356.573175 215.742801 
L 359.812615 216.122171 
L 363.052055 216.284839 
L 366.291494 216.208192 
L 369.530934 215.815463 
L 372.770374 216.27903 
L 376.009814 215.485492 
L 379.249254 215.876802 
L 382.488694 215.957987 
L 385.728134 216.366896 
L 388.967573 215.870261 
L 392.207013 215.960939 
L 395.446453 216.165226 
L 398.685893 215.585998 
L 401.925333 216.409091 
L 405.164773 215.90488 
" style="fill:none;stroke:#08306b;stroke-linecap:square;stroke-width:3;"/>
   </g>
   <g id="patch_3">
    <path d="M 68.425 226.2 
L 68.425 10.8 
" style="fill:none;stroke:#000000;stroke-linecap:square;stroke-linejoin:miter;stroke-width:0.8;"/>
   </g>
   <g id="patch_4">
    <path d="M 68.425 226.2 
L 421.2 226.2 
" style="fill:none;stroke:#000000;stroke-linecap:square;stroke-linejoin:miter;stroke-width:0.8;"/>
   </g>
   <g id="legend_1">
    <g id="line2d_17">
     <path d="M 77.425 25.020312 
L 97.425 25.020312 
" style="fill:none;stroke:#c6dbef;stroke-linecap:square;stroke-width:3;"/>
    </g>
    <g id="line2d_18"/>
    <g id="text_15">
     <!-- $\sigma_W = $0.005 V路s$^{-1/2}$ -->
     <g transform="translate(105.425 28.520312)scale(0.1 -0.1)">
      <defs>
       <path d="M 2219 3044 
Q 1744 3044 1422 2700 
Q 1081 2341 969 1747 
Q 844 1119 1044 756 
Q 1241 397 1706 397 
Q 2166 397 2503 759 
Q 2844 1122 2966 1747 
Q 3075 2319 2881 2700 
Q 2700 3044 2219 3044 
z
M 2309 3503 
L 4219 3500 
L 4106 2925 
L 3463 2925 
Q 3706 2438 3575 1747 
Q 3406 888 2884 400 
Q 2359 -91 1609 -91 
Q 856 -91 525 400 
Q 194 888 363 1747 
Q 528 2609 1050 3097 
Q 1484 3503 2309 3503 
z
" id="DejaVuSans-Oblique-3c3" transform="scale(0.015625)"/>
       <path d="M 616 4666 
L 1228 4666 
L 1453 697 
L 3213 4666 
L 3916 4666 
L 4147 697 
L 5888 4666 
L 6528 4666 
L 4453 0 
L 3659 0 
L 3444 3891 
L 1697 0 
L 903 0 
L 616 4666 
z
" id="DejaVuSans-Oblique-57" transform="scale(0.015625)"/>
       <path d="M 678 2906 
L 4684 2906 
L 4684 2381 
L 678 2381 
L 678 2906 
z
M 678 1631 
L 4684 1631 
L 4684 1100 
L 678 1100 
L 678 1631 
z
" id="DejaVuSans-3d" transform="scale(0.015625)"/>
       <path d="M 684 794 
L 1344 794 
L 1344 0 
L 684 0 
L 684 794 
z
" id="DejaVuSans-2e" transform="scale(0.015625)"/>
       <path d="M 1831 0 
L 50 4666 
L 709 4666 
L 2188 738 
L 3669 4666 
L 4325 4666 
L 2547 0 
L 1831 0 
z
" id="DejaVuSans-56" transform="scale(0.015625)"/>
       <path d="M 684 2619 
L 1344 2619 
L 1344 1825 
L 684 1825 
L 684 2619 
z
" id="DejaVuSans-b7" transform="scale(0.015625)"/>
       <path d="M 678 2272 
L 4684 2272 
L 4684 1741 
L 678 1741 
L 678 2272 
z
" id="DejaVuSans-2212" transform="scale(0.015625)"/>
      </defs>
      <use transform="translate(0 0.765625)" xlink:href="#DejaVuSans-Oblique-3c3"/>
      <use transform="translate(63.378906 -15.640625)scale(0.7)" xlink:href="#DejaVuSans-Oblique-57"/>
      <use transform="translate(154.80957 0.765625)" xlink:href="#DejaVuSans-3d"/>
      <use transform="translate(258.081055 0.765625)" xlink:href="#DejaVuSans-30"/>
      <use transform="translate(321.704102 0.765625)" xlink:href="#DejaVuSans-2e"/>
      <use transform="translate(353.491211 0.765625)" xlink:href="#DejaVuSans-30"/>
      <use transform="translate(417.114258 0.765625)" xlink:href="#DejaVuSans-30"/>
      <use transform="translate(480.737305 0.765625)" xlink:href="#DejaVuSans-35"/>
      <use transform="translate(544.360352 0.765625)" xlink:href="#DejaVuSans-20"/>
      <use transform="translate(576.147461 0.765625)" xlink:href="#DejaVuSans-56"/>
      <use transform="translate(644.555664 0.765625)" xlink:href="#DejaVuSans-b7"/>
      <use transform="translate(676.342773 0.765625)" xlink:href="#DejaVuSans-73"/>
      <use transform="translate(729.399414 39.046875)scale(0.7)" xlink:href="#DejaVuSans-2212"/>
      <use transform="translate(788.051758 39.046875)scale(0.7)" xlink:href="#DejaVuSans-31"/>
      <use transform="translate(832.587891 39.046875)scale(0.7)" xlink:href="#DejaVuSans-2f"/>
      <use transform="translate(853.634375 39.046875)scale(0.7)" xlink:href="#DejaVuSans-32"/>
     </g>
    </g>
    <g id="line2d_19">
     <path d="M 77.425 40.820312 
L 97.425 40.820312 
" style="fill:none;stroke:#6aaed6;stroke-linecap:square;stroke-width:3;"/>
    </g>
    <g id="line2d_20"/>
    <g id="text_16">
     <!-- $\sigma_W = $0.01 V路s$^{-1/2}$ -->
     <g transform="translate(105.425 44.320312)scale(0.1 -0.1)">
      <use transform="translate(0 0.765625)" xlink:href="#DejaVuSans-Oblique-3c3"/>
      <use transform="translate(63.378906 -15.640625)scale(0.7)" xlink:href="#DejaVuSans-Oblique-57"/>
      <use transform="translate(154.80957 0.765625)" xlink:href="#DejaVuSans-3d"/>
      <use transform="translate(258.081055 0.765625)" xlink:href="#DejaVuSans-30"/>
      <use transform="translate(321.704102 0.765625)" xlink:href="#DejaVuSans-2e"/>
      <use transform="translate(353.491211 0.765625)" xlink:href="#DejaVuSans-30"/>
      <use transform="translate(417.114258 0.765625)" xlink:href="#DejaVuSans-31"/>
      <use transform="translate(480.737305 0.765625)" xlink:href="#DejaVuSans-20"/>
      <use transform="translate(512.524414 0.765625)" xlink:href="#DejaVuSans-56"/>
      <use transform="translate(580.932617 0.765625)" xlink:href="#DejaVuSans-b7"/>
      <use transform="translate(612.719727 0.765625)" xlink:href="#DejaVuSans-73"/>
      <use transform="translate(665.776367 39.046875)scale(0.7)" xlink:href="#DejaVuSans-2212"/>
      <use transform="translate(724.428711 39.046875)scale(0.7)" xlink:href="#DejaVuSans-31"/>
      <use transform="translate(768.964844 39.046875)scale(0.7)" xlink:href="#DejaVuSans-2f"/>
      <use transform="translate(790.011328 39.046875)scale(0.7)" xlink:href="#DejaVuSans-32"/>
     </g>
    </g>
    <g id="line2d_21">
     <path d="M 77.425 56.620312 
L 97.425 56.620312 
" style="fill:none;stroke:#2070b4;stroke-linecap:square;stroke-width:3;"/>
    </g>
    <g id="line2d_22"/>
    <g id="text_17">
     <!-- $\sigma_W = $0.02 V路s$^{-1/2}$ -->
     <g transform="translate(105.425 60.120312)scale(0.1 -0.1)">
      <use transform="translate(0 0.765625)" xlink:href="#DejaVuSans-Oblique-3c3"/>
      <use transform="translate(63.378906 -15.640625)scale(0.7)" xlink:href="#DejaVuSans-Oblique-57"/>
      <use transform="translate(154.80957 0.765625)" xlink:href="#DejaVuSans-3d"/>
      <use transform="translate(258.081055 0.765625)" xlink:href="#DejaVuSans-30"/>
      <use transform="translate(321.704102 0.765625)" xlink:href="#DejaVuSans-2e"/>
      <use transform="translate(353.491211 0.765625)" xlink:href="#DejaVuSans-30"/>
      <use transform="translate(417.114258 0.765625)" xlink:href="#DejaVuSans-32"/>
      <use transform="translate(480.737305 0.765625)" xlink:href="#DejaVuSans-20"/>
      <use transform="translate(512.524414 0.765625)" xlink:href="#DejaVuSans-56"/>
      <use transform="translate(580.932617 0.765625)" xlink:href="#DejaVuSans-b7"/>
      <use transform="translate(612.719727 0.765625)" xlink:href="#DejaVuSans-73"/>
      <use transform="translate(665.776367 39.046875)scale(0.7)" xlink:href="#DejaVuSans-2212"/>
      <use transform="translate(724.428711 39.046875)scale(0.7)" xlink:href="#DejaVuSans-31"/>
      <use transform="translate(768.964844 39.046875)scale(0.7)" xlink:href="#DejaVuSans-2f"/>
      <use transform="translate(790.011328 39.046875)scale(0.7)" xlink:href="#DejaVuSans-32"/>
     </g>
    </g>
    <g id="line2d_23">
     <path d="M 77.425 72.420312 
L 97.425 72.420312 
" style="fill:none;stroke:#08306b;stroke-linecap:square;stroke-width:3;"/>
    </g>
    <g id="line2d_24"/>
    <g id="text_18">
     <!-- $\sigma_W = $0.04 V路s$^{-1/2}$ -->
     <g transform="translate(105.425 75.920312)scale(0.1 -0.1)">
      <use transform="translate(0 0.765625)" xlink:href="#DejaVuSans-Oblique-3c3"/>
      <use transform="translate(63.378906 -15.640625)scale(0.7)" xlink:href="#DejaVuSans-Oblique-57"/>
      <use transform="translate(154.80957 0.765625)" xlink:href="#DejaVuSans-3d"/>
      <use transform="translate(258.081055 0.765625)" xlink:href="#DejaVuSans-30"/>
      <use transform="translate(321.704102 0.765625)" xlink:href="#DejaVuSans-2e"/>
      <use transform="translate(353.491211 0.765625)" xlink:href="#DejaVuSans-30"/>
      <use transform="translate(417.114258 0.765625)" xlink:href="#DejaVuSans-34"/>
      <use transform="translate(480.737305 0.765625)" xlink:href="#DejaVuSans-20"/>
      <use transform="translate(512.524414 0.765625)" xlink:href="#DejaVuSans-56"/>
      <use transform="translate(580.932617 0.765625)" xlink:href="#DejaVuSans-b7"/>
      <use transform="translate(612.719727 0.765625)" xlink:href="#DejaVuSans-73"/>
      <use transform="translate(665.776367 39.046875)scale(0.7)" xlink:href="#DejaVuSans-2212"/>
      <use transform="translate(724.428711 39.046875)scale(0.7)" xlink:href="#DejaVuSans-31"/>
      <use transform="translate(768.964844 39.046875)scale(0.7)" xlink:href="#DejaVuSans-2f"/>
      <use transform="translate(790.011328 39.046875)scale(0.7)" xlink:href="#DejaVuSans-32"/>
     </g>
    </g>
   </g>
  </g>
 </g>
 <defs>
  <clipPath id="p9ee21f0413">
   <rect height="215.4" width="352.775" x="68.425" y="10.8"/>
  </clipPath>
 </defs>
</svg>
