<?xml version="1.0" encoding="utf-8" standalone="no"?>
<!DOCTYPE svg PUBLIC "-//W3C//DTD SVG 1.1//EN"
  "http://www.w3.org/Graphics/SVG/1.1/DTD/svg11.dtd">
<svg height="288pt" version="1.1" viewBox="0 0 432 288" width="432pt" xmlns="http://www.w3.org/2000/svg" xmlns:xlink="http://www.w3.org/1999/xlink">
 <metadata>
  <rdf:RDF xmlns:cc="http://creativecommons.org/ns#" xmlns:dc="http://purl.org/dc/elements/1.1/" xmlns:rdf="http://www.w3.org/1999/02/22-rdf-syntax-ns#">
   <cc:Work>
    <dc:type rdf:resource="http://purl.org/dc/dcmitype/StillImage"/>
    <dc:date>2022-09-22T12:21:53.830829</dc:date>
    <dc:format>image/svg+xml</dc:format>
    <dc:creator>
     <cc:Agent>
      <dc:title>Matplotlib v3.4.1, https://matplotlib.org/</dc:title>
     </cc:Agent>
    </dc:creator>
   </cc:Work>
  </rdf:RDF>
 </metadata>
 <defs>
  <style type="text/css">*{stroke-linecap:butt;stroke-linejoin:round;}</style>
 </defs>
 <g id="figure_1">
  <g id="patch_1">
   <path d="M 0 288 
L 432 288 
L 432 0 
L 0 0 
z
" style="fill:none;"/>
  </g>
  <g id="axes_1">
   <g id="patch_2">
    <path d="M 57.675 226.2 
L 421.2 226.2 
L 421.2 10.8 
L 57.675 10.8 
z
" style="fill:#ffffff;"/>
   </g>
   <g id="matplotlib.axis_1">
    <g id="xtick_1">
     <g id="line2d_1">
      <defs>
       <path d="M 0 0 
L 0 3.5 
" id="m5e9fc4f28f" style="stroke:#000000;stroke-width:0.8;"/>
      </defs>
      <g>
       <use style="stroke:#000000;stroke-width:0.8;" x="74.198864" xlink:href="#m5e9fc4f28f" y="226.2"/>
      </g>
     </g>
     <g id="text_1">
      <!-- 1 -->
      <g transform="translate(67.836364 248.396875)scale(0.2 -0.2)">
       <defs>
        <path d="M 794 531 
L 1825 531 
L 1825 4091 
L 703 3866 
L 703 4441 
L 1819 4666 
L 2450 4666 
L 2450 531 
L 3481 531 
L 3481 0 
L 794 0 
L 794 531 
z
" id="DejaVuSans-31" transform="scale(0.015625)"/>
       </defs>
       <use xlink:href="#DejaVuSans-31"/>
      </g>
     </g>
    </g>
    <g id="xtick_2">
     <g id="line2d_2">
      <g>
       <use style="stroke:#000000;stroke-width:0.8;" x="134.898771" xlink:href="#m5e9fc4f28f" y="226.2"/>
      </g>
     </g>
     <g id="text_2">
      <!-- 10 -->
      <g transform="translate(122.173771 248.396875)scale(0.2 -0.2)">
       <defs>
        <path d="M 2034 4250 
Q 1547 4250 1301 3770 
Q 1056 3291 1056 2328 
Q 1056 1369 1301 889 
Q 1547 409 2034 409 
Q 2525 409 2770 889 
Q 3016 1369 3016 2328 
Q 3016 3291 2770 3770 
Q 2525 4250 2034 4250 
z
M 2034 4750 
Q 2819 4750 3233 4129 
Q 3647 3509 3647 2328 
Q 3647 1150 3233 529 
Q 2819 -91 2034 -91 
Q 1250 -91 836 529 
Q 422 1150 422 2328 
Q 422 3509 836 4129 
Q 1250 4750 2034 4750 
z
" id="DejaVuSans-30" transform="scale(0.015625)"/>
       </defs>
       <use xlink:href="#DejaVuSans-31"/>
       <use x="63.623047" xlink:href="#DejaVuSans-30"/>
      </g>
     </g>
    </g>
    <g id="xtick_3">
     <g id="line2d_3">
      <g>
       <use style="stroke:#000000;stroke-width:0.8;" x="202.343112" xlink:href="#m5e9fc4f28f" y="226.2"/>
      </g>
     </g>
     <g id="text_3">
      <!-- 20 -->
      <g transform="translate(189.618112 248.396875)scale(0.2 -0.2)">
       <defs>
        <path d="M 1228 531 
L 3431 531 
L 3431 0 
L 469 0 
L 469 531 
Q 828 903 1448 1529 
Q 2069 2156 2228 2338 
Q 2531 2678 2651 2914 
Q 2772 3150 2772 3378 
Q 2772 3750 2511 3984 
Q 2250 4219 1831 4219 
Q 1534 4219 1204 4116 
Q 875 4013 500 3803 
L 500 4441 
Q 881 4594 1212 4672 
Q 1544 4750 1819 4750 
Q 2544 4750 2975 4387 
Q 3406 4025 3406 3419 
Q 3406 3131 3298 2873 
Q 3191 2616 2906 2266 
Q 2828 2175 2409 1742 
Q 1991 1309 1228 531 
z
" id="DejaVuSans-32" transform="scale(0.015625)"/>
       </defs>
       <use xlink:href="#DejaVuSans-32"/>
       <use x="63.623047" xlink:href="#DejaVuSans-30"/>
      </g>
     </g>
    </g>
    <g id="xtick_4">
     <g id="line2d_4">
      <g>
       <use style="stroke:#000000;stroke-width:0.8;" x="269.787454" xlink:href="#m5e9fc4f28f" y="226.2"/>
      </g>
     </g>
     <g id="text_4">
      <!-- 30 -->
      <g transform="translate(257.062454 248.396875)scale(0.2 -0.2)">
       <defs>
        <path d="M 2597 2516 
Q 3050 2419 3304 2112 
Q 3559 1806 3559 1356 
Q 3559 666 3084 287 
Q 2609 -91 1734 -91 
Q 1441 -91 1130 -33 
Q 819 25 488 141 
L 488 750 
Q 750 597 1062 519 
Q 1375 441 1716 441 
Q 2309 441 2620 675 
Q 2931 909 2931 1356 
Q 2931 1769 2642 2001 
Q 2353 2234 1838 2234 
L 1294 2234 
L 1294 2753 
L 1863 2753 
Q 2328 2753 2575 2939 
Q 2822 3125 2822 3475 
Q 2822 3834 2567 4026 
Q 2313 4219 1838 4219 
Q 1578 4219 1281 4162 
Q 984 4106 628 3988 
L 628 4550 
Q 988 4650 1302 4700 
Q 1616 4750 1894 4750 
Q 2613 4750 3031 4423 
Q 3450 4097 3450 3541 
Q 3450 3153 3228 2886 
Q 3006 2619 2597 2516 
z
" id="DejaVuSans-33" transform="scale(0.015625)"/>
       </defs>
       <use xlink:href="#DejaVuSans-33"/>
       <use x="63.623047" xlink:href="#DejaVuSans-30"/>
      </g>
     </g>
    </g>
    <g id="xtick_5">
     <g id="line2d_5">
      <g>
       <use style="stroke:#000000;stroke-width:0.8;" x="337.231795" xlink:href="#m5e9fc4f28f" y="226.2"/>
      </g>
     </g>
     <g id="text_5">
      <!-- 40 -->
      <g transform="translate(324.506795 248.396875)scale(0.2 -0.2)">
       <defs>
        <path d="M 2419 4116 
L 825 1625 
L 2419 1625 
L 2419 4116 
z
M 2253 4666 
L 3047 4666 
L 3047 1625 
L 3713 1625 
L 3713 1100 
L 3047 1100 
L 3047 0 
L 2419 0 
L 2419 1100 
L 313 1100 
L 313 1709 
L 2253 4666 
z
" id="DejaVuSans-34" transform="scale(0.015625)"/>
       </defs>
       <use xlink:href="#DejaVuSans-34"/>
       <use x="63.623047" xlink:href="#DejaVuSans-30"/>
      </g>
     </g>
    </g>
    <g id="xtick_6">
     <g id="line2d_6">
      <g>
       <use style="stroke:#000000;stroke-width:0.8;" x="404.676136" xlink:href="#m5e9fc4f28f" y="226.2"/>
      </g>
     </g>
     <g id="text_6">
      <!-- 50 -->
      <g transform="translate(391.951136 248.396875)scale(0.2 -0.2)">
       <defs>
        <path d="M 691 4666 
L 3169 4666 
L 3169 4134 
L 1269 4134 
L 1269 2991 
Q 1406 3038 1543 3061 
Q 1681 3084 1819 3084 
Q 2600 3084 3056 2656 
Q 3513 2228 3513 1497 
Q 3513 744 3044 326 
Q 2575 -91 1722 -91 
Q 1428 -91 1123 -41 
Q 819 9 494 109 
L 494 744 
Q 775 591 1075 516 
Q 1375 441 1709 441 
Q 2250 441 2565 725 
Q 2881 1009 2881 1497 
Q 2881 1984 2565 2268 
Q 2250 2553 1709 2553 
Q 1456 2553 1204 2497 
Q 953 2441 691 2322 
L 691 4666 
z
" id="DejaVuSans-35" transform="scale(0.015625)"/>
       </defs>
       <use xlink:href="#DejaVuSans-35"/>
       <use x="63.623047" xlink:href="#DejaVuSans-30"/>
      </g>
     </g>
    </g>
    <g id="text_7">
     <!-- $f$ (Hz) -->
     <g transform="translate(212.1375 271.753125)scale(0.2 -0.2)">
      <defs>
       <path d="M 3059 4863 
L 2969 4384 
L 2419 4384 
Q 2106 4384 1964 4261 
Q 1822 4138 1753 3809 
L 1691 3500 
L 2638 3500 
L 2553 3053 
L 1606 3053 
L 1013 0 
L 434 0 
L 1031 3053 
L 481 3053 
L 563 3500 
L 1113 3500 
L 1159 3744 
Q 1278 4363 1576 4613 
Q 1875 4863 2516 4863 
L 3059 4863 
z
" id="DejaVuSans-Oblique-66" transform="scale(0.015625)"/>
       <path id="DejaVuSans-20" transform="scale(0.015625)"/>
       <path d="M 1984 4856 
Q 1566 4138 1362 3434 
Q 1159 2731 1159 2009 
Q 1159 1288 1364 580 
Q 1569 -128 1984 -844 
L 1484 -844 
Q 1016 -109 783 600 
Q 550 1309 550 2009 
Q 550 2706 781 3412 
Q 1013 4119 1484 4856 
L 1984 4856 
z
" id="DejaVuSans-28" transform="scale(0.015625)"/>
       <path d="M 628 4666 
L 1259 4666 
L 1259 2753 
L 3553 2753 
L 3553 4666 
L 4184 4666 
L 4184 0 
L 3553 0 
L 3553 2222 
L 1259 2222 
L 1259 0 
L 628 0 
L 628 4666 
z
" id="DejaVuSans-48" transform="scale(0.015625)"/>
       <path d="M 353 3500 
L 3084 3500 
L 3084 2975 
L 922 459 
L 3084 459 
L 3084 0 
L 275 0 
L 275 525 
L 2438 3041 
L 353 3041 
L 353 3500 
z
" id="DejaVuSans-7a" transform="scale(0.015625)"/>
       <path d="M 513 4856 
L 1013 4856 
Q 1481 4119 1714 3412 
Q 1947 2706 1947 2009 
Q 1947 1309 1714 600 
Q 1481 -109 1013 -844 
L 513 -844 
Q 928 -128 1133 580 
Q 1338 1288 1338 2009 
Q 1338 2731 1133 3434 
Q 928 4138 513 4856 
z
" id="DejaVuSans-29" transform="scale(0.015625)"/>
      </defs>
      <use transform="translate(0 0.015625)" xlink:href="#DejaVuSans-Oblique-66"/>
      <use transform="translate(35.205078 0.015625)" xlink:href="#DejaVuSans-20"/>
      <use transform="translate(66.992188 0.015625)" xlink:href="#DejaVuSans-28"/>
      <use transform="translate(106.005859 0.015625)" xlink:href="#DejaVuSans-48"/>
      <use transform="translate(181.201172 0.015625)" xlink:href="#DejaVuSans-7a"/>
      <use transform="translate(233.691406 0.015625)" xlink:href="#DejaVuSans-29"/>
     </g>
    </g>
   </g>
   <g id="matplotlib.axis_2">
    <g id="ytick_1">
     <g id="line2d_7">
      <defs>
       <path d="M 0 0 
L -3.5 0 
" id="m1428f4ec91" style="stroke:#000000;stroke-width:0.8;"/>
      </defs>
      <g>
       <use style="stroke:#000000;stroke-width:0.8;" x="57.675" xlink:href="#m1428f4ec91" y="216.284017"/>
      </g>
     </g>
     <g id="text_8">
      <!-- 0 -->
      <g transform="translate(37.95 223.882455)scale(0.2 -0.2)">
       <use xlink:href="#DejaVuSans-30"/>
      </g>
     </g>
    </g>
    <g id="ytick_2">
     <g id="line2d_8">
      <g>
       <use style="stroke:#000000;stroke-width:0.8;" x="57.675" xlink:href="#m1428f4ec91" y="126.065512"/>
      </g>
     </g>
     <g id="text_9">
      <!-- 1 -->
      <g transform="translate(37.95 133.663949)scale(0.2 -0.2)">
       <use xlink:href="#DejaVuSans-31"/>
      </g>
     </g>
    </g>
    <g id="ytick_3">
     <g id="line2d_9">
      <g>
       <use style="stroke:#000000;stroke-width:0.8;" x="57.675" xlink:href="#m1428f4ec91" y="126.065512"/>
      </g>
     </g>
     <g id="text_10">
      <!-- 1 -->
      <g transform="translate(37.95 133.663949)scale(0.2 -0.2)">
       <use xlink:href="#DejaVuSans-31"/>
      </g>
     </g>
    </g>
    <g id="ytick_4">
     <g id="line2d_10">
      <g>
       <use style="stroke:#000000;stroke-width:0.8;" x="57.675" xlink:href="#m1428f4ec91" y="35.847006"/>
      </g>
     </g>
     <g id="text_11">
      <!-- 2 -->
      <g transform="translate(37.95 43.445444)scale(0.2 -0.2)">
       <use xlink:href="#DejaVuSans-32"/>
      </g>
     </g>
    </g>
    <g id="text_12">
     <!-- $I_m$ (bit/cycle) -->
     <g transform="translate(29.75 181.8)rotate(-90)scale(0.2 -0.2)">
      <defs>
       <path d="M 1081 4666 
L 1716 4666 
L 806 0 
L 172 0 
L 1081 4666 
z
" id="DejaVuSans-Oblique-49" transform="scale(0.015625)"/>
       <path d="M 5747 2113 
L 5338 0 
L 4763 0 
L 5166 2094 
Q 5191 2228 5203 2325 
Q 5216 2422 5216 2491 
Q 5216 2772 5059 2928 
Q 4903 3084 4622 3084 
Q 4203 3084 3875 2770 
Q 3547 2456 3450 1953 
L 3066 0 
L 2491 0 
L 2900 2094 
Q 2925 2209 2937 2307 
Q 2950 2406 2950 2484 
Q 2950 2769 2794 2926 
Q 2638 3084 2363 3084 
Q 1938 3084 1609 2770 
Q 1281 2456 1184 1953 
L 800 0 
L 225 0 
L 909 3500 
L 1484 3500 
L 1375 2956 
Q 1609 3263 1923 3423 
Q 2238 3584 2597 3584 
Q 2978 3584 3223 3384 
Q 3469 3184 3519 2828 
Q 3781 3197 4126 3390 
Q 4472 3584 4856 3584 
Q 5306 3584 5551 3325 
Q 5797 3066 5797 2591 
Q 5797 2488 5784 2364 
Q 5772 2241 5747 2113 
z
" id="DejaVuSans-Oblique-6d" transform="scale(0.015625)"/>
       <path d="M 3116 1747 
Q 3116 2381 2855 2742 
Q 2594 3103 2138 3103 
Q 1681 3103 1420 2742 
Q 1159 2381 1159 1747 
Q 1159 1113 1420 752 
Q 1681 391 2138 391 
Q 2594 391 2855 752 
Q 3116 1113 3116 1747 
z
M 1159 2969 
Q 1341 3281 1617 3432 
Q 1894 3584 2278 3584 
Q 2916 3584 3314 3078 
Q 3713 2572 3713 1747 
Q 3713 922 3314 415 
Q 2916 -91 2278 -91 
Q 1894 -91 1617 61 
Q 1341 213 1159 525 
L 1159 0 
L 581 0 
L 581 4863 
L 1159 4863 
L 1159 2969 
z
" id="DejaVuSans-62" transform="scale(0.015625)"/>
       <path d="M 603 3500 
L 1178 3500 
L 1178 0 
L 603 0 
L 603 3500 
z
M 603 4863 
L 1178 4863 
L 1178 4134 
L 603 4134 
L 603 4863 
z
" id="DejaVuSans-69" transform="scale(0.015625)"/>
       <path d="M 1172 4494 
L 1172 3500 
L 2356 3500 
L 2356 3053 
L 1172 3053 
L 1172 1153 
Q 1172 725 1289 603 
Q 1406 481 1766 481 
L 2356 481 
L 2356 0 
L 1766 0 
Q 1100 0 847 248 
Q 594 497 594 1153 
L 594 3053 
L 172 3053 
L 172 3500 
L 594 3500 
L 594 4494 
L 1172 4494 
z
" id="DejaVuSans-74" transform="scale(0.015625)"/>
       <path d="M 1625 4666 
L 2156 4666 
L 531 -594 
L 0 -594 
L 1625 4666 
z
" id="DejaVuSans-2f" transform="scale(0.015625)"/>
       <path d="M 3122 3366 
L 3122 2828 
Q 2878 2963 2633 3030 
Q 2388 3097 2138 3097 
Q 1578 3097 1268 2742 
Q 959 2388 959 1747 
Q 959 1106 1268 751 
Q 1578 397 2138 397 
Q 2388 397 2633 464 
Q 2878 531 3122 666 
L 3122 134 
Q 2881 22 2623 -34 
Q 2366 -91 2075 -91 
Q 1284 -91 818 406 
Q 353 903 353 1747 
Q 353 2603 823 3093 
Q 1294 3584 2113 3584 
Q 2378 3584 2631 3529 
Q 2884 3475 3122 3366 
z
" id="DejaVuSans-63" transform="scale(0.015625)"/>
       <path d="M 2059 -325 
Q 1816 -950 1584 -1140 
Q 1353 -1331 966 -1331 
L 506 -1331 
L 506 -850 
L 844 -850 
Q 1081 -850 1212 -737 
Q 1344 -625 1503 -206 
L 1606 56 
L 191 3500 
L 800 3500 
L 1894 763 
L 2988 3500 
L 3597 3500 
L 2059 -325 
z
" id="DejaVuSans-79" transform="scale(0.015625)"/>
       <path d="M 603 4863 
L 1178 4863 
L 1178 0 
L 603 0 
L 603 4863 
z
" id="DejaVuSans-6c" transform="scale(0.015625)"/>
       <path d="M 3597 1894 
L 3597 1613 
L 953 1613 
Q 991 1019 1311 708 
Q 1631 397 2203 397 
Q 2534 397 2845 478 
Q 3156 559 3463 722 
L 3463 178 
Q 3153 47 2828 -22 
Q 2503 -91 2169 -91 
Q 1331 -91 842 396 
Q 353 884 353 1716 
Q 353 2575 817 3079 
Q 1281 3584 2069 3584 
Q 2775 3584 3186 3129 
Q 3597 2675 3597 1894 
z
M 3022 2063 
Q 3016 2534 2758 2815 
Q 2500 3097 2075 3097 
Q 1594 3097 1305 2825 
Q 1016 2553 972 2059 
L 3022 2063 
z
" id="DejaVuSans-65" transform="scale(0.015625)"/>
      </defs>
      <use transform="translate(0 0.015625)" xlink:href="#DejaVuSans-Oblique-49"/>
      <use transform="translate(29.492188 -16.390625)scale(0.7)" xlink:href="#DejaVuSans-Oblique-6d"/>
      <use transform="translate(100.415039 0.015625)" xlink:href="#DejaVuSans-20"/>
      <use transform="translate(132.202148 0.015625)" xlink:href="#DejaVuSans-28"/>
      <use transform="translate(171.21582 0.015625)" xlink:href="#DejaVuSans-62"/>
      <use transform="translate(234.692383 0.015625)" xlink:href="#DejaVuSans-69"/>
      <use transform="translate(262.475586 0.015625)" xlink:href="#DejaVuSans-74"/>
      <use transform="translate(301.68457 0.015625)" xlink:href="#DejaVuSans-2f"/>
      <use transform="translate(335.375977 0.015625)" xlink:href="#DejaVuSans-63"/>
      <use transform="translate(390.356445 0.015625)" xlink:href="#DejaVuSans-79"/>
      <use transform="translate(449.536133 0.015625)" xlink:href="#DejaVuSans-63"/>
      <use transform="translate(504.516602 0.015625)" xlink:href="#DejaVuSans-6c"/>
      <use transform="translate(532.299805 0.015625)" xlink:href="#DejaVuSans-65"/>
      <use transform="translate(593.823242 0.015625)" xlink:href="#DejaVuSans-29"/>
     </g>
    </g>
   </g>
   <g id="line2d_11">
    <path clip-path="url(#p35996956ea)" d="M 74.198864 20.590909 
L 77.537018 28.279535 
L 80.875172 36.283817 
L 84.213326 43.689765 
L 87.551481 47.287474 
L 90.889635 53.801121 
L 94.227789 53.584229 
L 97.565944 61.513367 
L 100.904098 60.754413 
L 104.242252 65.865096 
L 107.580406 68.753649 
L 110.918561 75.026442 
L 114.256715 76.445617 
L 117.594869 77.485158 
L 120.933023 83.820146 
L 124.271178 96.584583 
L 127.609332 97.751042 
L 130.947486 99.304413 
L 134.28564 96.473148 
L 137.623795 100.374783 
L 140.961949 115.971014 
L 144.300103 120.523003 
L 147.638258 126.484264 
L 150.976412 132.809618 
L 154.314566 136.726353 
L 157.65272 139.330638 
L 160.990875 138.682306 
L 164.329029 138.95514 
L 167.667183 138.681164 
L 171.005337 140.113767 
L 174.343492 140.776549 
L 177.681646 141.885623 
L 181.0198 141.263705 
L 184.357955 140.068235 
L 187.696109 139.683748 
L 191.034263 141.819501 
L 194.372417 141.181282 
L 197.710572 138.938634 
L 201.048726 138.589023 
L 204.38688 139.960277 
L 207.725034 138.570853 
L 211.063189 138.675369 
L 214.401343 140.235238 
L 217.739497 138.777086 
L 221.077652 139.398539 
L 224.415806 139.407506 
L 227.75396 139.228078 
L 231.092114 141.190018 
L 234.430269 140.139362 
L 237.768423 141.423686 
L 241.106577 140.953853 
L 244.444731 141.626374 
L 247.782886 141.693401 
L 251.12104 142.051059 
L 254.459194 142.522335 
L 257.797348 140.923979 
L 261.135503 141.061638 
L 264.473657 142.28908 
L 267.811811 141.818277 
L 271.149966 143.4704 
L 274.48812 143.629231 
L 277.826274 144.747001 
L 281.164428 143.150042 
L 284.502583 144.963166 
L 287.840737 144.299625 
L 291.178891 143.849502 
L 294.517045 146.051103 
L 297.8552 147.963946 
L 301.193354 146.075289 
L 304.531508 145.510253 
L 307.869663 146.627681 
L 311.207817 148.286757 
L 314.545971 146.974289 
L 317.884125 149.013489 
L 321.22228 147.740828 
L 324.560434 148.974149 
L 327.898588 148.663135 
L 331.236742 150.224308 
L 334.574897 149.930926 
L 337.913051 149.06699 
L 341.251205 151.495411 
L 344.58936 150.251408 
L 347.927514 151.141666 
L 351.265668 151.71187 
L 354.603822 150.015503 
L 357.941977 151.262939 
L 361.280131 152.106759 
L 364.618285 153.111265 
L 367.956439 151.830747 
L 371.294594 151.484262 
L 374.632748 152.475869 
L 377.970902 154.09132 
L 381.309056 152.628672 
L 384.647211 154.188522 
L 387.985365 152.937911 
L 391.323519 155.130522 
L 394.661674 153.052028 
L 397.999828 153.118664 
L 401.337982 155.352666 
L 404.676136 155.809679 
" style="fill:none;stroke:#c6dbef;stroke-linecap:square;stroke-width:3;"/>
   </g>
   <g id="line2d_12">
    <path clip-path="url(#p35996956ea)" d="M 74.198864 70.78437 
L 77.537018 80.282323 
L 80.875172 86.410039 
L 84.213326 91.248387 
L 87.551481 95.607217 
L 90.889635 99.699132 
L 94.227789 104.748141 
L 97.565944 108.807874 
L 100.904098 113.866416 
L 104.242252 118.356639 
L 107.580406 120.874882 
L 110.918561 126.387462 
L 114.256715 129.976699 
L 117.594869 135.378006 
L 120.933023 140.292484 
L 124.271178 145.163247 
L 127.609332 148.093018 
L 130.947486 150.300412 
L 134.28564 154.948666 
L 137.623795 158.631575 
L 140.961949 163.245067 
L 144.300103 168.281934 
L 147.638258 171.786346 
L 150.976412 176.647685 
L 154.314566 177.678125 
L 157.65272 181.745176 
L 160.990875 181.959652 
L 164.329029 183.903164 
L 167.667183 185.781195 
L 171.005337 186.19176 
L 174.343492 187.284014 
L 177.681646 188.117369 
L 181.0198 190.1912 
L 184.357955 190.239375 
L 187.696109 190.46809 
L 191.034263 192.288283 
L 194.372417 193.312799 
L 197.710572 193.225169 
L 201.048726 193.032655 
L 204.38688 194.485386 
L 207.725034 194.286064 
L 211.063189 195.525052 
L 214.401343 196.456937 
L 217.739497 195.398897 
L 221.077652 196.008669 
L 224.415806 196.665903 
L 227.75396 197.71047 
L 231.092114 197.813956 
L 234.430269 198.76267 
L 237.768423 197.542735 
L 241.106577 197.927404 
L 244.444731 198.809605 
L 247.782886 198.932154 
L 251.12104 200.3267 
L 254.459194 199.087054 
L 257.797348 200.721802 
L 261.135503 199.232899 
L 264.473657 200.77402 
L 267.811811 201.297795 
L 271.149966 200.817596 
L 274.48812 201.495712 
L 277.826274 202.222522 
L 281.164428 201.630794 
L 284.502583 201.56509 
L 287.840737 201.367428 
L 291.178891 202.734088 
L 294.517045 203.024541 
L 297.8552 202.532651 
L 301.193354 202.876024 
L 304.531508 202.863229 
L 307.869663 202.60841 
L 311.207817 203.143364 
L 314.545971 203.489276 
L 317.884125 203.197057 
L 321.22228 203.340538 
L 324.560434 202.911728 
L 327.898588 203.995764 
L 331.236742 204.254413 
L 334.574897 204.453296 
L 337.913051 204.925383 
L 341.251205 205.081984 
L 344.58936 204.982097 
L 347.927514 204.422795 
L 351.265668 206.222152 
L 354.603822 205.093837 
L 357.941977 205.908077 
L 361.280131 206.441745 
L 364.618285 205.023302 
L 367.956439 205.97487 
L 371.294594 204.855778 
L 374.632748 205.613773 
L 377.970902 206.358886 
L 381.309056 206.000256 
L 384.647211 205.923727 
L 387.985365 205.275797 
L 391.323519 207.507438 
L 394.661674 206.786034 
L 397.999828 205.913676 
L 401.337982 206.834832 
L 404.676136 206.64708 
" style="fill:none;stroke:#6aaed6;stroke-linecap:square;stroke-width:3;"/>
   </g>
   <g id="line2d_13">
    <path clip-path="url(#p35996956ea)" d="M 74.198864 126.235879 
L 77.537018 133.997002 
L 80.875172 139.002972 
L 84.213326 142.722454 
L 87.551481 148.303753 
L 90.889635 151.426508 
L 94.227789 156.302548 
L 97.565944 160.883022 
L 100.904098 163.508828 
L 104.242252 168.676583 
L 107.580406 170.989507 
L 110.918561 174.106822 
L 114.256715 178.147986 
L 117.594869 182.301934 
L 120.933023 184.887722 
L 124.271178 187.046081 
L 127.609332 188.992954 
L 130.947486 191.293257 
L 134.28564 194.665938 
L 137.623795 195.516067 
L 140.961949 198.580649 
L 144.300103 199.585384 
L 147.638258 201.371263 
L 150.976412 203.049932 
L 154.314566 203.458378 
L 157.65272 205.552859 
L 160.990875 206.731545 
L 164.329029 207.254439 
L 167.667183 208.069689 
L 171.005337 208.727487 
L 174.343492 209.217906 
L 177.681646 209.789418 
L 181.0198 210.632257 
L 184.357955 210.683305 
L 187.696109 211.890242 
L 191.034263 211.986618 
L 194.372417 211.833309 
L 197.710572 212.359175 
L 201.048726 212.584648 
L 204.38688 212.928356 
L 207.725034 213.253867 
L 211.063189 213.648806 
L 214.401343 213.955797 
L 217.739497 213.76586 
L 221.077652 214.145459 
L 224.415806 214.09978 
L 227.75396 214.42326 
L 231.092114 214.631608 
L 234.430269 214.742002 
L 237.768423 214.542166 
L 241.106577 215.046066 
L 244.444731 214.878278 
L 247.782886 215.19081 
L 251.12104 215.143163 
L 254.459194 215.252542 
L 257.797348 215.314379 
L 261.135503 215.237009 
L 264.473657 215.324026 
L 267.811811 215.313197 
L 271.149966 215.139874 
L 274.48812 215.476818 
L 277.826274 215.572274 
L 281.164428 215.433667 
L 284.502583 215.272483 
L 287.840737 215.656129 
L 291.178891 215.793928 
L 294.517045 215.604679 
L 297.8552 215.744213 
L 301.193354 215.85085 
L 304.531508 215.559125 
L 307.869663 215.757071 
L 311.207817 215.982059 
L 314.545971 215.58 
L 317.884125 215.674007 
L 321.22228 215.84409 
L 324.560434 215.775095 
L 327.898588 215.926683 
L 331.236742 215.678184 
L 334.574897 215.693471 
L 337.913051 215.841493 
L 341.251205 215.739513 
L 344.58936 215.730083 
L 347.927514 215.625133 
L 351.265668 215.862952 
L 354.603822 215.87901 
L 357.941977 215.879637 
L 361.280131 215.792199 
L 364.618285 215.857562 
L 367.956439 215.753735 
L 371.294594 215.82036 
L 374.632748 216.082092 
L 377.970902 216.039494 
L 381.309056 216.046864 
L 384.647211 215.643291 
L 387.985365 215.816899 
L 391.323519 216.092718 
L 394.661674 215.830563 
L 397.999828 216.02571 
L 401.337982 215.923891 
L 404.676136 215.865277 
" style="fill:none;stroke:#2070b4;stroke-linecap:square;stroke-width:3;"/>
   </g>
   <g id="line2d_14">
    <path clip-path="url(#p35996956ea)" d="M 74.198864 180.662343 
L 77.537018 183.020588 
L 80.875172 185.55619 
L 84.213326 188.10907 
L 87.551481 190.725281 
L 90.889635 191.925611 
L 94.227789 194.519757 
L 97.565944 196.648018 
L 100.904098 197.627246 
L 104.242252 198.925122 
L 107.580406 200.683905 
L 110.918561 202.511467 
L 114.256715 203.855935 
L 117.594869 205.653491 
L 120.933023 206.930272 
L 124.271178 207.047307 
L 127.609332 207.982802 
L 130.947486 208.836454 
L 134.28564 210.099364 
L 137.623795 210.648009 
L 140.961949 211.329122 
L 144.300103 211.584604 
L 147.638258 212.245581 
L 150.976412 212.63036 
L 154.314566 212.732362 
L 157.65272 213.262248 
L 160.990875 213.467115 
L 164.329029 213.73763 
L 167.667183 214.118409 
L 171.005337 214.511157 
L 174.343492 214.07959 
L 177.681646 214.681956 
L 181.0198 214.785557 
L 184.357955 214.63178 
L 187.696109 215.041067 
L 191.034263 215.334704 
L 194.372417 215.310688 
L 197.710572 215.489286 
L 201.048726 215.315787 
L 204.38688 215.435231 
L 207.725034 215.53713 
L 211.063189 215.638898 
L 214.401343 215.765457 
L 217.739497 215.701417 
L 221.077652 215.766312 
L 224.415806 215.474053 
L 227.75396 215.822267 
L 231.092114 215.893597 
L 234.430269 215.87043 
L 237.768423 215.857607 
L 241.106577 215.859957 
L 244.444731 216.041243 
L 247.782886 216.047798 
L 251.12104 216.072972 
L 254.459194 215.904633 
L 257.797348 216.012302 
L 261.135503 216.043368 
L 264.473657 216.008562 
L 267.811811 215.99481 
L 271.149966 215.995844 
L 274.48812 216.013993 
L 277.826274 216.179003 
L 281.164428 216.013907 
L 284.502583 216.096496 
L 287.840737 216.182601 
L 291.178891 216.071117 
L 294.517045 216.118287 
L 297.8552 216.169768 
L 301.193354 216.16626 
L 304.531508 216.009695 
L 307.869663 216.284447 
L 311.207817 216.332961 
L 314.545971 216.18876 
L 317.884125 215.974583 
L 321.22228 216.058936 
L 324.560434 216.175113 
L 327.898588 216.218561 
L 331.236742 216.278829 
L 334.574897 215.989812 
L 337.913051 216.094283 
L 341.251205 216.189049 
L 344.58936 216.198095 
L 347.927514 216.164101 
L 351.265668 216.218043 
L 354.603822 216.063651 
L 357.941977 216.190213 
L 361.280131 216.243856 
L 364.618285 216.219812 
L 367.956439 216.096407 
L 371.294594 216.243364 
L 374.632748 215.998467 
L 377.970902 216.121218 
L 381.309056 216.147515 
L 384.647211 216.271384 
L 387.985365 216.124366 
L 391.323519 216.152602 
L 394.661674 216.213236 
L 397.999828 216.04753 
L 401.337982 216.409091 
L 404.676136 216.142017 
" style="fill:none;stroke:#08306b;stroke-linecap:square;stroke-width:3;"/>
   </g>
   <g id="patch_3">
    <path d="M 57.675 226.2 
L 57.675 10.8 
" style="fill:none;stroke:#000000;stroke-linecap:square;stroke-linejoin:miter;stroke-width:0.8;"/>
   </g>
   <g id="patch_4">
    <path d="M 57.675 226.2 
L 421.2 226.2 
" style="fill:none;stroke:#000000;stroke-linecap:square;stroke-linejoin:miter;stroke-width:0.8;"/>
   </g>
  </g>
  <g id="legend_1">
   <g id="line2d_15">
    <path d="M 279.48 17.064375 
L 303.48 17.064375 
" style="fill:none;stroke:#c6dbef;stroke-linecap:square;stroke-width:3;"/>
   </g>
   <g id="line2d_16"/>
   <g id="text_13">
    <!-- $\sigma_W = $0.005 V路s$^{-1/2}$ -->
    <g transform="translate(313.08 21.264375)scale(0.12 -0.12)">
     <defs>
      <path d="M 2219 3044 
Q 1744 3044 1422 2700 
Q 1081 2341 969 1747 
Q 844 1119 1044 756 
Q 1241 397 1706 397 
Q 2166 397 2503 759 
Q 2844 1122 2966 1747 
Q 3075 2319 2881 2700 
Q 2700 3044 2219 3044 
z
M 2309 3503 
L 4219 3500 
L 4106 2925 
L 3463 2925 
Q 3706 2438 3575 1747 
Q 3406 888 2884 400 
Q 2359 -91 1609 -91 
Q 856 -91 525 400 
Q 194 888 363 1747 
Q 528 2609 1050 3097 
Q 1484 3503 2309 3503 
z
" id="DejaVuSans-Oblique-3c3" transform="scale(0.015625)"/>
      <path d="M 616 4666 
L 1228 4666 
L 1453 697 
L 3213 4666 
L 3916 4666 
L 4147 697 
L 5888 4666 
L 6528 4666 
L 4453 0 
L 3659 0 
L 3444 3891 
L 1697 0 
L 903 0 
L 616 4666 
z
" id="DejaVuSans-Oblique-57" transform="scale(0.015625)"/>
      <path d="M 678 2906 
L 4684 2906 
L 4684 2381 
L 678 2381 
L 678 2906 
z
M 678 1631 
L 4684 1631 
L 4684 1100 
L 678 1100 
L 678 1631 
z
" id="DejaVuSans-3d" transform="scale(0.015625)"/>
      <path d="M 684 794 
L 1344 794 
L 1344 0 
L 684 0 
L 684 794 
z
" id="DejaVuSans-2e" transform="scale(0.015625)"/>
      <path d="M 1831 0 
L 50 4666 
L 709 4666 
L 2188 738 
L 3669 4666 
L 4325 4666 
L 2547 0 
L 1831 0 
z
" id="DejaVuSans-56" transform="scale(0.015625)"/>
      <path d="M 684 2619 
L 1344 2619 
L 1344 1825 
L 684 1825 
L 684 2619 
z
" id="DejaVuSans-b7" transform="scale(0.015625)"/>
      <path d="M 2834 3397 
L 2834 2853 
Q 2591 2978 2328 3040 
Q 2066 3103 1784 3103 
Q 1356 3103 1142 2972 
Q 928 2841 928 2578 
Q 928 2378 1081 2264 
Q 1234 2150 1697 2047 
L 1894 2003 
Q 2506 1872 2764 1633 
Q 3022 1394 3022 966 
Q 3022 478 2636 193 
Q 2250 -91 1575 -91 
Q 1294 -91 989 -36 
Q 684 19 347 128 
L 347 722 
Q 666 556 975 473 
Q 1284 391 1588 391 
Q 1994 391 2212 530 
Q 2431 669 2431 922 
Q 2431 1156 2273 1281 
Q 2116 1406 1581 1522 
L 1381 1569 
Q 847 1681 609 1914 
Q 372 2147 372 2553 
Q 372 3047 722 3315 
Q 1072 3584 1716 3584 
Q 2034 3584 2315 3537 
Q 2597 3491 2834 3397 
z
" id="DejaVuSans-73" transform="scale(0.015625)"/>
      <path d="M 678 2272 
L 4684 2272 
L 4684 1741 
L 678 1741 
L 678 2272 
z
" id="DejaVuSans-2212" transform="scale(0.015625)"/>
     </defs>
     <use transform="translate(0 0.765625)" xlink:href="#DejaVuSans-Oblique-3c3"/>
     <use transform="translate(63.378906 -15.640625)scale(0.7)" xlink:href="#DejaVuSans-Oblique-57"/>
     <use transform="translate(154.80957 0.765625)" xlink:href="#DejaVuSans-3d"/>
     <use transform="translate(258.081055 0.765625)" xlink:href="#DejaVuSans-30"/>
     <use transform="translate(321.704102 0.765625)" xlink:href="#DejaVuSans-2e"/>
     <use transform="translate(353.491211 0.765625)" xlink:href="#DejaVuSans-30"/>
     <use transform="translate(417.114258 0.765625)" xlink:href="#DejaVuSans-30"/>
     <use transform="translate(480.737305 0.765625)" xlink:href="#DejaVuSans-35"/>
     <use transform="translate(544.360352 0.765625)" xlink:href="#DejaVuSans-20"/>
     <use transform="translate(576.147461 0.765625)" xlink:href="#DejaVuSans-56"/>
     <use transform="translate(644.555664 0.765625)" xlink:href="#DejaVuSans-b7"/>
     <use transform="translate(676.342773 0.765625)" xlink:href="#DejaVuSans-73"/>
     <use transform="translate(729.399414 39.046875)scale(0.7)" xlink:href="#DejaVuSans-2212"/>
     <use transform="translate(788.051758 39.046875)scale(0.7)" xlink:href="#DejaVuSans-31"/>
     <use transform="translate(832.587891 39.046875)scale(0.7)" xlink:href="#DejaVuSans-2f"/>
     <use transform="translate(853.634375 39.046875)scale(0.7)" xlink:href="#DejaVuSans-32"/>
    </g>
   </g>
   <g id="line2d_17">
    <path d="M 279.48 36.024375 
L 303.48 36.024375 
" style="fill:none;stroke:#6aaed6;stroke-linecap:square;stroke-width:3;"/>
   </g>
   <g id="line2d_18"/>
   <g id="text_14">
    <!-- $\sigma_W = $0.01 V路s$^{-1/2}$ -->
    <g transform="translate(313.08 40.224375)scale(0.12 -0.12)">
     <use transform="translate(0 0.765625)" xlink:href="#DejaVuSans-Oblique-3c3"/>
     <use transform="translate(63.378906 -15.640625)scale(0.7)" xlink:href="#DejaVuSans-Oblique-57"/>
     <use transform="translate(154.80957 0.765625)" xlink:href="#DejaVuSans-3d"/>
     <use transform="translate(258.081055 0.765625)" xlink:href="#DejaVuSans-30"/>
     <use transform="translate(321.704102 0.765625)" xlink:href="#DejaVuSans-2e"/>
     <use transform="translate(353.491211 0.765625)" xlink:href="#DejaVuSans-30"/>
     <use transform="translate(417.114258 0.765625)" xlink:href="#DejaVuSans-31"/>
     <use transform="translate(480.737305 0.765625)" xlink:href="#DejaVuSans-20"/>
     <use transform="translate(512.524414 0.765625)" xlink:href="#DejaVuSans-56"/>
     <use transform="translate(580.932617 0.765625)" xlink:href="#DejaVuSans-b7"/>
     <use transform="translate(612.719727 0.765625)" xlink:href="#DejaVuSans-73"/>
     <use transform="translate(665.776367 39.046875)scale(0.7)" xlink:href="#DejaVuSans-2212"/>
     <use transform="translate(724.428711 39.046875)scale(0.7)" xlink:href="#DejaVuSans-31"/>
     <use transform="translate(768.964844 39.046875)scale(0.7)" xlink:href="#DejaVuSans-2f"/>
     <use transform="translate(790.011328 39.046875)scale(0.7)" xlink:href="#DejaVuSans-32"/>
    </g>
   </g>
   <g id="line2d_19">
    <path d="M 279.48 54.984375 
L 303.48 54.984375 
" style="fill:none;stroke:#2070b4;stroke-linecap:square;stroke-width:3;"/>
   </g>
   <g id="line2d_20"/>
   <g id="text_15">
    <!-- $\sigma_W = $0.02 V路s$^{-1/2}$ -->
    <g transform="translate(313.08 59.184375)scale(0.12 -0.12)">
     <use transform="translate(0 0.765625)" xlink:href="#DejaVuSans-Oblique-3c3"/>
     <use transform="translate(63.378906 -15.640625)scale(0.7)" xlink:href="#DejaVuSans-Oblique-57"/>
     <use transform="translate(154.80957 0.765625)" xlink:href="#DejaVuSans-3d"/>
     <use transform="translate(258.081055 0.765625)" xlink:href="#DejaVuSans-30"/>
     <use transform="translate(321.704102 0.765625)" xlink:href="#DejaVuSans-2e"/>
     <use transform="translate(353.491211 0.765625)" xlink:href="#DejaVuSans-30"/>
     <use transform="translate(417.114258 0.765625)" xlink:href="#DejaVuSans-32"/>
     <use transform="translate(480.737305 0.765625)" xlink:href="#DejaVuSans-20"/>
     <use transform="translate(512.524414 0.765625)" xlink:href="#DejaVuSans-56"/>
     <use transform="translate(580.932617 0.765625)" xlink:href="#DejaVuSans-b7"/>
     <use transform="translate(612.719727 0.765625)" xlink:href="#DejaVuSans-73"/>
     <use transform="translate(665.776367 39.046875)scale(0.7)" xlink:href="#DejaVuSans-2212"/>
     <use transform="translate(724.428711 39.046875)scale(0.7)" xlink:href="#DejaVuSans-31"/>
     <use transform="translate(768.964844 39.046875)scale(0.7)" xlink:href="#DejaVuSans-2f"/>
     <use transform="translate(790.011328 39.046875)scale(0.7)" xlink:href="#DejaVuSans-32"/>
    </g>
   </g>
   <g id="line2d_21">
    <path d="M 279.48 73.944375 
L 303.48 73.944375 
" style="fill:none;stroke:#08306b;stroke-linecap:square;stroke-width:3;"/>
   </g>
   <g id="line2d_22"/>
   <g id="text_16">
    <!-- $\sigma_W = $0.04 V路s$^{-1/2}$ -->
    <g transform="translate(313.08 78.144375)scale(0.12 -0.12)">
     <use transform="translate(0 0.765625)" xlink:href="#DejaVuSans-Oblique-3c3"/>
     <use transform="translate(63.378906 -15.640625)scale(0.7)" xlink:href="#DejaVuSans-Oblique-57"/>
     <use transform="translate(154.80957 0.765625)" xlink:href="#DejaVuSans-3d"/>
     <use transform="translate(258.081055 0.765625)" xlink:href="#DejaVuSans-30"/>
     <use transform="translate(321.704102 0.765625)" xlink:href="#DejaVuSans-2e"/>
     <use transform="translate(353.491211 0.765625)" xlink:href="#DejaVuSans-30"/>
     <use transform="translate(417.114258 0.765625)" xlink:href="#DejaVuSans-34"/>
     <use transform="translate(480.737305 0.765625)" xlink:href="#DejaVuSans-20"/>
     <use transform="translate(512.524414 0.765625)" xlink:href="#DejaVuSans-56"/>
     <use transform="translate(580.932617 0.765625)" xlink:href="#DejaVuSans-b7"/>
     <use transform="translate(612.719727 0.765625)" xlink:href="#DejaVuSans-73"/>
     <use transform="translate(665.776367 39.046875)scale(0.7)" xlink:href="#DejaVuSans-2212"/>
     <use transform="translate(724.428711 39.046875)scale(0.7)" xlink:href="#DejaVuSans-31"/>
     <use transform="translate(768.964844 39.046875)scale(0.7)" xlink:href="#DejaVuSans-2f"/>
     <use transform="translate(790.011328 39.046875)scale(0.7)" xlink:href="#DejaVuSans-32"/>
    </g>
   </g>
  </g>
 </g>
 <defs>
  <clipPath id="p35996956ea">
   <rect height="215.4" width="363.525" x="57.675" y="10.8"/>
  </clipPath>
 </defs>
</svg>
