<?xml version="1.0" encoding="utf-8" standalone="no"?>
<!DOCTYPE svg PUBLIC "-//W3C//DTD SVG 1.1//EN"
  "http://www.w3.org/Graphics/SVG/1.1/DTD/svg11.dtd">
<svg xmlns:xlink="http://www.w3.org/1999/xlink" width="432pt" height="288pt" viewBox="0 0 432 288" xmlns="http://www.w3.org/2000/svg" version="1.1">
 <metadata>
  <rdf:RDF xmlns:dc="http://purl.org/dc/elements/1.1/" xmlns:cc="http://creativecommons.org/ns#" xmlns:rdf="http://www.w3.org/1999/02/22-rdf-syntax-ns#">
   <cc:Work>
    <dc:type rdf:resource="http://purl.org/dc/dcmitype/StillImage"/>
    <dc:date>2023-09-27T16:36:13.117193</dc:date>
    <dc:format>image/svg+xml</dc:format>
    <dc:creator>
     <cc:Agent>
      <dc:title>Matplotlib v3.7.0, https://matplotlib.org/</dc:title>
     </cc:Agent>
    </dc:creator>
   </cc:Work>
  </rdf:RDF>
 </metadata>
 <defs>
  <style type="text/css">*{stroke-linejoin: round; stroke-linecap: butt}</style>
 </defs>
 <g id="figure_1">
  <g id="patch_1">
   <path d="M 0 288 
L 432 288 
L 432 0 
L 0 0 
z
" style="fill: #ffffff"/>
  </g>
  <g id="axes_1">
   <g id="patch_2">
    <path d="M 68.06 225.16 
L 421.2 225.16 
L 421.2 10.8 
L 68.06 10.8 
z
" style="fill: #ffffff"/>
   </g>
   <g id="matplotlib.axis_1">
    <g id="xtick_1">
     <g id="line2d_1">
      <defs>
       <path id="m160f9ef5df" d="M 0 0 
L 0 3.5 
" style="stroke: #000000; stroke-width: 0.8"/>
      </defs>
      <g>
       <use xlink:href="#m160f9ef5df" x="84.111818" y="225.16" style="stroke: #000000; stroke-width: 0.8"/>
      </g>
     </g>
     <g id="text_1">
      <!-- 1 -->
      <g transform="translate(77.749318 247.356875) scale(0.2 -0.2)">
       <defs>
        <path id="DejaVuSans-31" d="M 794 531 
L 1825 531 
L 1825 4091 
L 703 3866 
L 703 4441 
L 1819 4666 
L 2450 4666 
L 2450 531 
L 3481 531 
L 3481 0 
L 794 0 
L 794 531 
z
" transform="scale(0.015625)"/>
       </defs>
       <use xlink:href="#DejaVuSans-31"/>
      </g>
     </g>
    </g>
    <g id="xtick_2">
     <g id="line2d_2">
      <g>
       <use xlink:href="#m160f9ef5df" x="143.077681" y="225.16" style="stroke: #000000; stroke-width: 0.8"/>
      </g>
     </g>
     <g id="text_2">
      <!-- 10 -->
      <g transform="translate(130.352681 247.356875) scale(0.2 -0.2)">
       <defs>
        <path id="DejaVuSans-30" d="M 2034 4250 
Q 1547 4250 1301 3770 
Q 1056 3291 1056 2328 
Q 1056 1369 1301 889 
Q 1547 409 2034 409 
Q 2525 409 2770 889 
Q 3016 1369 3016 2328 
Q 3016 3291 2770 3770 
Q 2525 4250 2034 4250 
z
M 2034 4750 
Q 2819 4750 3233 4129 
Q 3647 3509 3647 2328 
Q 3647 1150 3233 529 
Q 2819 -91 2034 -91 
Q 1250 -91 836 529 
Q 422 1150 422 2328 
Q 422 3509 836 4129 
Q 1250 4750 2034 4750 
z
" transform="scale(0.015625)"/>
       </defs>
       <use xlink:href="#DejaVuSans-31"/>
       <use xlink:href="#DejaVuSans-30" x="63.623047"/>
      </g>
     </g>
    </g>
    <g id="xtick_3">
     <g id="line2d_3">
      <g>
       <use xlink:href="#m160f9ef5df" x="208.595306" y="225.16" style="stroke: #000000; stroke-width: 0.8"/>
      </g>
     </g>
     <g id="text_3">
      <!-- 20 -->
      <g transform="translate(195.870306 247.356875) scale(0.2 -0.2)">
       <defs>
        <path id="DejaVuSans-32" d="M 1228 531 
L 3431 531 
L 3431 0 
L 469 0 
L 469 531 
Q 828 903 1448 1529 
Q 2069 2156 2228 2338 
Q 2531 2678 2651 2914 
Q 2772 3150 2772 3378 
Q 2772 3750 2511 3984 
Q 2250 4219 1831 4219 
Q 1534 4219 1204 4116 
Q 875 4013 500 3803 
L 500 4441 
Q 881 4594 1212 4672 
Q 1544 4750 1819 4750 
Q 2544 4750 2975 4387 
Q 3406 4025 3406 3419 
Q 3406 3131 3298 2873 
Q 3191 2616 2906 2266 
Q 2828 2175 2409 1742 
Q 1991 1309 1228 531 
z
" transform="scale(0.015625)"/>
       </defs>
       <use xlink:href="#DejaVuSans-32"/>
       <use xlink:href="#DejaVuSans-30" x="63.623047"/>
      </g>
     </g>
    </g>
    <g id="xtick_4">
     <g id="line2d_4">
      <g>
       <use xlink:href="#m160f9ef5df" x="274.112931" y="225.16" style="stroke: #000000; stroke-width: 0.8"/>
      </g>
     </g>
     <g id="text_4">
      <!-- 30 -->
      <g transform="translate(261.387931 247.356875) scale(0.2 -0.2)">
       <defs>
        <path id="DejaVuSans-33" d="M 2597 2516 
Q 3050 2419 3304 2112 
Q 3559 1806 3559 1356 
Q 3559 666 3084 287 
Q 2609 -91 1734 -91 
Q 1441 -91 1130 -33 
Q 819 25 488 141 
L 488 750 
Q 750 597 1062 519 
Q 1375 441 1716 441 
Q 2309 441 2620 675 
Q 2931 909 2931 1356 
Q 2931 1769 2642 2001 
Q 2353 2234 1838 2234 
L 1294 2234 
L 1294 2753 
L 1863 2753 
Q 2328 2753 2575 2939 
Q 2822 3125 2822 3475 
Q 2822 3834 2567 4026 
Q 2313 4219 1838 4219 
Q 1578 4219 1281 4162 
Q 984 4106 628 3988 
L 628 4550 
Q 988 4650 1302 4700 
Q 1616 4750 1894 4750 
Q 2613 4750 3031 4423 
Q 3450 4097 3450 3541 
Q 3450 3153 3228 2886 
Q 3006 2619 2597 2516 
z
" transform="scale(0.015625)"/>
       </defs>
       <use xlink:href="#DejaVuSans-33"/>
       <use xlink:href="#DejaVuSans-30" x="63.623047"/>
      </g>
     </g>
    </g>
    <g id="xtick_5">
     <g id="line2d_5">
      <g>
       <use xlink:href="#m160f9ef5df" x="339.630557" y="225.16" style="stroke: #000000; stroke-width: 0.8"/>
      </g>
     </g>
     <g id="text_5">
      <!-- 40 -->
      <g transform="translate(326.905557 247.356875) scale(0.2 -0.2)">
       <defs>
        <path id="DejaVuSans-34" d="M 2419 4116 
L 825 1625 
L 2419 1625 
L 2419 4116 
z
M 2253 4666 
L 3047 4666 
L 3047 1625 
L 3713 1625 
L 3713 1100 
L 3047 1100 
L 3047 0 
L 2419 0 
L 2419 1100 
L 313 1100 
L 313 1709 
L 2253 4666 
z
" transform="scale(0.015625)"/>
       </defs>
       <use xlink:href="#DejaVuSans-34"/>
       <use xlink:href="#DejaVuSans-30" x="63.623047"/>
      </g>
     </g>
    </g>
    <g id="xtick_6">
     <g id="line2d_6">
      <g>
       <use xlink:href="#m160f9ef5df" x="405.148182" y="225.16" style="stroke: #000000; stroke-width: 0.8"/>
      </g>
     </g>
     <g id="text_6">
      <!-- 50 -->
      <g transform="translate(392.423182 247.356875) scale(0.2 -0.2)">
       <defs>
        <path id="DejaVuSans-35" d="M 691 4666 
L 3169 4666 
L 3169 4134 
L 1269 4134 
L 1269 2991 
Q 1406 3038 1543 3061 
Q 1681 3084 1819 3084 
Q 2600 3084 3056 2656 
Q 3513 2228 3513 1497 
Q 3513 744 3044 326 
Q 2575 -91 1722 -91 
Q 1428 -91 1123 -41 
Q 819 9 494 109 
L 494 744 
Q 775 591 1075 516 
Q 1375 441 1709 441 
Q 2250 441 2565 725 
Q 2881 1009 2881 1497 
Q 2881 1984 2565 2268 
Q 2250 2553 1709 2553 
Q 1456 2553 1204 2497 
Q 953 2441 691 2322 
L 691 4666 
z
" transform="scale(0.015625)"/>
       </defs>
       <use xlink:href="#DejaVuSans-35"/>
       <use xlink:href="#DejaVuSans-30" x="63.623047"/>
      </g>
     </g>
    </g>
    <g id="text_7">
     <!-- $f$ (Hz) -->
     <g transform="translate(217.33 270.713125) scale(0.2 -0.2)">
      <defs>
       <path id="DejaVuSans-Oblique-66" d="M 3059 4863 
L 2969 4384 
L 2419 4384 
Q 2106 4384 1964 4261 
Q 1822 4138 1753 3809 
L 1691 3500 
L 2638 3500 
L 2553 3053 
L 1606 3053 
L 1013 0 
L 434 0 
L 1031 3053 
L 481 3053 
L 563 3500 
L 1113 3500 
L 1159 3744 
Q 1278 4363 1576 4613 
Q 1875 4863 2516 4863 
L 3059 4863 
z
" transform="scale(0.015625)"/>
       <path id="DejaVuSans-20" transform="scale(0.015625)"/>
       <path id="DejaVuSans-28" d="M 1984 4856 
Q 1566 4138 1362 3434 
Q 1159 2731 1159 2009 
Q 1159 1288 1364 580 
Q 1569 -128 1984 -844 
L 1484 -844 
Q 1016 -109 783 600 
Q 550 1309 550 2009 
Q 550 2706 781 3412 
Q 1013 4119 1484 4856 
L 1984 4856 
z
" transform="scale(0.015625)"/>
       <path id="DejaVuSans-48" d="M 628 4666 
L 1259 4666 
L 1259 2753 
L 3553 2753 
L 3553 4666 
L 4184 4666 
L 4184 0 
L 3553 0 
L 3553 2222 
L 1259 2222 
L 1259 0 
L 628 0 
L 628 4666 
z
" transform="scale(0.015625)"/>
       <path id="DejaVuSans-7a" d="M 353 3500 
L 3084 3500 
L 3084 2975 
L 922 459 
L 3084 459 
L 3084 0 
L 275 0 
L 275 525 
L 2438 3041 
L 353 3041 
L 353 3500 
z
" transform="scale(0.015625)"/>
       <path id="DejaVuSans-29" d="M 513 4856 
L 1013 4856 
Q 1481 4119 1714 3412 
Q 1947 2706 1947 2009 
Q 1947 1309 1714 600 
Q 1481 -109 1013 -844 
L 513 -844 
Q 928 -128 1133 580 
Q 1338 1288 1338 2009 
Q 1338 2731 1133 3434 
Q 928 4138 513 4856 
z
" transform="scale(0.015625)"/>
      </defs>
      <use xlink:href="#DejaVuSans-Oblique-66" transform="translate(0 0.015625)"/>
      <use xlink:href="#DejaVuSans-20" transform="translate(35.205078 0.015625)"/>
      <use xlink:href="#DejaVuSans-28" transform="translate(66.992188 0.015625)"/>
      <use xlink:href="#DejaVuSans-48" transform="translate(106.005859 0.015625)"/>
      <use xlink:href="#DejaVuSans-7a" transform="translate(181.201172 0.015625)"/>
      <use xlink:href="#DejaVuSans-29" transform="translate(233.691406 0.015625)"/>
     </g>
    </g>
   </g>
   <g id="matplotlib.axis_2">
    <g id="ytick_1">
     <g id="line2d_7">
      <defs>
       <path id="m4473f2099c" d="M 0 0 
L -3.5 0 
" style="stroke: #000000; stroke-width: 0.8"/>
      </defs>
      <g>
       <use xlink:href="#m4473f2099c" x="68.06" y="218.346091" style="stroke: #000000; stroke-width: 0.8"/>
      </g>
     </g>
     <g id="text_8">
      <!-- 0 -->
      <g transform="translate(48.335 225.944528) scale(0.2 -0.2)">
       <use xlink:href="#DejaVuSans-30"/>
      </g>
     </g>
    </g>
    <g id="ytick_2">
     <g id="line2d_8">
      <g>
       <use xlink:href="#m4473f2099c" x="68.06" y="208.753292" style="stroke: #000000; stroke-width: 0.8"/>
      </g>
     </g>
     <g id="text_9">
      <!-- 5 -->
      <g transform="translate(48.335 216.351729) scale(0.2 -0.2)">
       <use xlink:href="#DejaVuSans-35"/>
      </g>
     </g>
    </g>
    <g id="ytick_3">
     <g id="line2d_9">
      <g>
       <use xlink:href="#m4473f2099c" x="68.06" y="199.160493" style="stroke: #000000; stroke-width: 0.8"/>
      </g>
     </g>
     <g id="text_10">
      <!-- 10 -->
      <g transform="translate(35.61 206.75893) scale(0.2 -0.2)">
       <use xlink:href="#DejaVuSans-31"/>
       <use xlink:href="#DejaVuSans-30" x="63.623047"/>
      </g>
     </g>
    </g>
    <g id="ytick_4">
     <g id="line2d_10">
      <g>
       <use xlink:href="#m4473f2099c" x="68.06" y="189.567693" style="stroke: #000000; stroke-width: 0.8"/>
      </g>
     </g>
     <g id="text_11">
      <!-- 15 -->
      <g transform="translate(35.61 197.166131) scale(0.2 -0.2)">
       <use xlink:href="#DejaVuSans-31"/>
       <use xlink:href="#DejaVuSans-35" x="63.623047"/>
      </g>
     </g>
    </g>
    <g id="ytick_5">
     <g id="line2d_11">
      <g>
       <use xlink:href="#m4473f2099c" x="68.06" y="179.974894" style="stroke: #000000; stroke-width: 0.8"/>
      </g>
     </g>
     <g id="text_12">
      <!-- 20 -->
      <g transform="translate(35.61 187.573332) scale(0.2 -0.2)">
       <use xlink:href="#DejaVuSans-32"/>
       <use xlink:href="#DejaVuSans-30" x="63.623047"/>
      </g>
     </g>
    </g>
    <g id="ytick_6">
     <g id="line2d_12">
      <g>
       <use xlink:href="#m4473f2099c" x="68.06" y="170.382095" style="stroke: #000000; stroke-width: 0.8"/>
      </g>
     </g>
     <g id="text_13">
      <!-- 25 -->
      <g transform="translate(35.61 177.980533) scale(0.2 -0.2)">
       <use xlink:href="#DejaVuSans-32"/>
       <use xlink:href="#DejaVuSans-35" x="63.623047"/>
      </g>
     </g>
    </g>
    <g id="text_14">
     <!-- $R$ (bit/s) -->
     <g transform="translate(27.450625 157.58) rotate(-90) scale(0.2 -0.2)">
      <defs>
       <path id="DejaVuSans-Oblique-52" d="M 1613 4147 
L 1294 2491 
L 2106 2491 
Q 2584 2491 2879 2755 
Q 3175 3019 3175 3444 
Q 3175 3784 2976 3965 
Q 2778 4147 2406 4147 
L 1613 4147 
z
M 2772 2241 
Q 2972 2194 3105 2009 
Q 3238 1825 3413 1275 
L 3809 0 
L 3144 0 
L 2778 1197 
Q 2638 1659 2453 1815 
Q 2269 1972 1888 1972 
L 1191 1972 
L 806 0 
L 172 0 
L 1081 4666 
L 2503 4666 
Q 3150 4666 3495 4373 
Q 3841 4081 3841 3531 
Q 3841 3044 3547 2687 
Q 3253 2331 2772 2241 
z
" transform="scale(0.015625)"/>
       <path id="DejaVuSans-62" d="M 3116 1747 
Q 3116 2381 2855 2742 
Q 2594 3103 2138 3103 
Q 1681 3103 1420 2742 
Q 1159 2381 1159 1747 
Q 1159 1113 1420 752 
Q 1681 391 2138 391 
Q 2594 391 2855 752 
Q 3116 1113 3116 1747 
z
M 1159 2969 
Q 1341 3281 1617 3432 
Q 1894 3584 2278 3584 
Q 2916 3584 3314 3078 
Q 3713 2572 3713 1747 
Q 3713 922 3314 415 
Q 2916 -91 2278 -91 
Q 1894 -91 1617 61 
Q 1341 213 1159 525 
L 1159 0 
L 581 0 
L 581 4863 
L 1159 4863 
L 1159 2969 
z
" transform="scale(0.015625)"/>
       <path id="DejaVuSans-69" d="M 603 3500 
L 1178 3500 
L 1178 0 
L 603 0 
L 603 3500 
z
M 603 4863 
L 1178 4863 
L 1178 4134 
L 603 4134 
L 603 4863 
z
" transform="scale(0.015625)"/>
       <path id="DejaVuSans-74" d="M 1172 4494 
L 1172 3500 
L 2356 3500 
L 2356 3053 
L 1172 3053 
L 1172 1153 
Q 1172 725 1289 603 
Q 1406 481 1766 481 
L 2356 481 
L 2356 0 
L 1766 0 
Q 1100 0 847 248 
Q 594 497 594 1153 
L 594 3053 
L 172 3053 
L 172 3500 
L 594 3500 
L 594 4494 
L 1172 4494 
z
" transform="scale(0.015625)"/>
       <path id="DejaVuSans-2f" d="M 1625 4666 
L 2156 4666 
L 531 -594 
L 0 -594 
L 1625 4666 
z
" transform="scale(0.015625)"/>
       <path id="DejaVuSans-73" d="M 2834 3397 
L 2834 2853 
Q 2591 2978 2328 3040 
Q 2066 3103 1784 3103 
Q 1356 3103 1142 2972 
Q 928 2841 928 2578 
Q 928 2378 1081 2264 
Q 1234 2150 1697 2047 
L 1894 2003 
Q 2506 1872 2764 1633 
Q 3022 1394 3022 966 
Q 3022 478 2636 193 
Q 2250 -91 1575 -91 
Q 1294 -91 989 -36 
Q 684 19 347 128 
L 347 722 
Q 666 556 975 473 
Q 1284 391 1588 391 
Q 1994 391 2212 530 
Q 2431 669 2431 922 
Q 2431 1156 2273 1281 
Q 2116 1406 1581 1522 
L 1381 1569 
Q 847 1681 609 1914 
Q 372 2147 372 2553 
Q 372 3047 722 3315 
Q 1072 3584 1716 3584 
Q 2034 3584 2315 3537 
Q 2597 3491 2834 3397 
z
" transform="scale(0.015625)"/>
      </defs>
      <use xlink:href="#DejaVuSans-Oblique-52" transform="translate(0 0.015625)"/>
      <use xlink:href="#DejaVuSans-20" transform="translate(69.482422 0.015625)"/>
      <use xlink:href="#DejaVuSans-28" transform="translate(101.269531 0.015625)"/>
      <use xlink:href="#DejaVuSans-62" transform="translate(140.283203 0.015625)"/>
      <use xlink:href="#DejaVuSans-69" transform="translate(203.759766 0.015625)"/>
      <use xlink:href="#DejaVuSans-74" transform="translate(231.542969 0.015625)"/>
      <use xlink:href="#DejaVuSans-2f" transform="translate(270.751953 0.015625)"/>
      <use xlink:href="#DejaVuSans-73" transform="translate(304.443359 0.015625)"/>
      <use xlink:href="#DejaVuSans-29" transform="translate(356.542969 0.015625)"/>
     </g>
    </g>
   </g>
   <g id="line2d_13">
    <path d="M 84.111818 212.310373 
L 87.35461 209.182479 
L 90.597401 206.015661 
L 93.840193 202.918166 
L 97.082984 199.779214 
L 100.325776 196.742992 
L 103.568567 193.622672 
L 106.811359 190.675374 
L 110.054151 187.471649 
L 113.296942 185.134882 
L 116.539734 182.257255 
L 119.782525 180.867628 
L 123.025317 177.158435 
L 126.268108 175.543938 
L 129.5109 174.642174 
L 132.753691 172.616047 
L 135.996483 169.640554 
L 139.239275 166.579959 
L 142.482066 164.839047 
L 145.724858 163.063768 
L 148.967649 163.750795 
L 152.210441 164.15438 
L 155.453232 164.096277 
L 158.696024 162.634307 
L 161.938815 160.274404 
L 165.181607 157.118362 
L 168.424399 153.905692 
L 171.66719 150.054749 
L 174.909982 148.346177 
L 178.152773 146.724508 
L 181.395565 144.748853 
L 184.638356 140.593273 
L 187.881148 137.76548 
L 191.123939 133.971435 
L 194.366731 131.290726 
L 197.609522 128.621482 
L 200.852314 126.023306 
L 204.095106 122.333369 
L 207.337897 119.670972 
L 210.580689 116.846707 
L 213.82348 113.491607 
L 217.066272 110.678491 
L 220.309063 108.265587 
L 223.551855 105.957251 
L 226.794646 103.762639 
L 230.037438 101.362464 
L 233.28023 98.98846 
L 236.523021 96.582767 
L 239.765813 94.925953 
L 243.008604 93.066502 
L 246.251396 90.852834 
L 249.494187 89.545007 
L 252.736979 87.022005 
L 255.97977 86.549893 
L 259.222562 84.127908 
L 262.465354 82.983049 
L 265.708145 80.65106 
L 268.950937 79.58666 
L 272.193728 77.472388 
L 275.43652 75.958407 
L 278.679311 73.441655 
L 281.922103 71.75688 
L 285.164894 72.451521 
L 288.407686 70.449401 
L 291.650478 67.6446 
L 294.893269 64.800037 
L 298.136061 66.72343 
L 301.378852 64.955227 
L 304.621644 61.773919 
L 307.864435 60.685708 
L 311.107227 58.120071 
L 314.350018 58.1072 
L 317.59281 56.016455 
L 320.835601 56.075144 
L 324.078393 53.690239 
L 327.321185 52.891376 
L 330.563976 50.887511 
L 333.806768 49.244083 
L 337.049559 46.705903 
L 340.292351 47.211934 
L 343.535142 44.141572 
L 346.777934 42.625055 
L 350.020725 41.415476 
L 353.263517 41.153602 
L 356.506309 38.860823 
L 359.7491 37.923763 
L 362.991892 37.558639 
L 366.234683 35.165634 
L 369.477475 33.813256 
L 372.720266 32.298839 
L 375.963058 31.750655 
L 379.205849 28.748344 
L 382.448641 27.642202 
L 385.691433 26.056486 
L 388.934224 23.867779 
L 392.177016 26.101474 
L 395.419807 24.706822 
L 398.662599 23.564749 
L 401.90539 21.749196 
L 405.148182 20.543636 
" clip-path="url(#p09f3deee90)" style="fill: none; stroke: #c6dbef; stroke-width: 3; stroke-linecap: square"/>
   </g>
   <g id="line2d_14">
    <path d="M 84.111818 212.907104 
L 87.35461 210.123614 
L 90.597401 207.317652 
L 93.840193 204.716554 
L 97.082984 202.02272 
L 100.325776 199.70073 
L 103.568567 197.366393 
L 106.811359 195.147954 
L 110.054151 192.79025 
L 113.296942 191.17089 
L 116.539734 189.07554 
L 119.782525 188.028466 
L 123.025317 185.86139 
L 126.268108 184.237984 
L 129.5109 184.023457 
L 132.753691 183.486096 
L 135.996483 181.325885 
L 139.239275 179.585512 
L 142.482066 178.329014 
L 145.724858 178.344304 
L 148.967649 179.159031 
L 152.210441 180.196074 
L 155.453232 181.280361 
L 158.696024 181.083565 
L 161.938815 179.575486 
L 165.181607 177.893528 
L 168.424399 176.050125 
L 171.66719 174.105614 
L 174.909982 172.739259 
L 178.152773 171.078022 
L 181.395565 170.088208 
L 184.638356 167.946613 
L 187.881148 166.246991 
L 191.123939 164.177605 
L 194.366731 162.202589 
L 197.609522 160.672421 
L 200.852314 158.465777 
L 204.095106 156.240809 
L 207.337897 155.307538 
L 210.580689 152.390054 
L 213.82348 150.694504 
L 217.066272 148.839109 
L 220.309063 148.073055 
L 223.551855 146.244359 
L 226.794646 145.36768 
L 230.037438 143.030171 
L 233.28023 141.359759 
L 236.523021 140.185551 
L 239.765813 138.673544 
L 243.008604 137.404642 
L 246.251396 136.052243 
L 249.494187 135.573042 
L 252.736979 133.908553 
L 255.97977 134.010285 
L 259.222562 131.843069 
L 262.465354 130.456157 
L 265.708145 129.63617 
L 268.950937 128.848006 
L 272.193728 127.068284 
L 275.43652 126.475006 
L 278.679311 125.289669 
L 281.922103 124.108715 
L 285.164894 122.910936 
L 288.407686 122.394123 
L 291.650478 121.63845 
L 294.893269 120.055334 
L 298.136061 120.020039 
L 301.378852 118.811271 
L 304.621644 118.337021 
L 307.864435 117.527851 
L 311.107227 116.669133 
L 314.350018 114.62023 
L 317.59281 113.650782 
L 320.835601 113.903925 
L 324.078393 112.057609 
L 327.321185 112.373519 
L 330.563976 111.564954 
L 333.806768 109.978105 
L 337.049559 109.022838 
L 340.292351 109.524427 
L 343.535142 108.65119 
L 346.777934 106.303679 
L 350.020725 104.625662 
L 353.263517 104.026111 
L 356.506309 103.806786 
L 359.7491 102.263801 
L 362.991892 102.374256 
L 366.234683 101.896645 
L 369.477475 100.601747 
L 372.720266 99.495406 
L 375.963058 99.839749 
L 379.205849 98.161317 
L 382.448641 97.333188 
L 385.691433 96.283779 
L 388.934224 94.49369 
L 392.177016 95.341225 
L 395.419807 94.288501 
L 398.662599 92.973102 
L 401.90539 93.109329 
L 405.148182 90.853219 
" clip-path="url(#p09f3deee90)" style="fill: none; stroke: #6aaed6; stroke-width: 3; stroke-linecap: square"/>
   </g>
   <g id="line2d_15">
    <path d="M 84.111818 214.055735 
L 87.35461 212.041824 
L 90.597401 210.002406 
L 93.840193 208.139306 
L 97.082984 206.170912 
L 100.325776 204.414295 
L 103.568567 202.803597 
L 106.811359 201.225607 
L 110.054151 199.759199 
L 113.296942 198.553065 
L 116.539734 197.19477 
L 119.782525 196.428894 
L 123.025317 195.195311 
L 126.268108 194.283842 
L 129.5109 194.01655 
L 132.753691 193.788678 
L 135.996483 192.878463 
L 139.239275 191.981099 
L 142.482066 191.571871 
L 145.724858 191.44364 
L 148.967649 192.112753 
L 152.210441 193.186777 
L 155.453232 194.343885 
L 158.696024 194.127777 
L 161.938815 194.267162 
L 165.181607 193.78907 
L 168.424399 193.071267 
L 171.66719 192.320118 
L 174.909982 191.962018 
L 178.152773 191.173397 
L 181.395565 190.696735 
L 184.638356 190.090837 
L 187.881148 189.664173 
L 191.123939 188.423256 
L 194.366731 187.730652 
L 197.609522 186.748561 
L 200.852314 186.213676 
L 204.095106 184.929975 
L 207.337897 184.680683 
L 210.580689 183.732498 
L 213.82348 182.945278 
L 217.066272 182.782592 
L 220.309063 182.243211 
L 223.551855 181.572943 
L 226.794646 180.345748 
L 230.037438 179.043138 
L 233.28023 179.063753 
L 236.523021 177.26559 
L 239.765813 176.891468 
L 243.008604 176.249592 
L 246.251396 175.673105 
L 249.494187 175.96348 
L 252.736979 174.970814 
L 255.97977 175.101218 
L 259.222562 173.786759 
L 262.465354 173.571182 
L 265.708145 173.182463 
L 268.950937 172.728107 
L 272.193728 172.159074 
L 275.43652 171.508286 
L 278.679311 170.890685 
L 281.922103 169.450268 
L 285.164894 169.371883 
L 288.407686 168.722789 
L 291.650478 168.605308 
L 294.893269 168.89972 
L 298.136061 167.374459 
L 301.378852 168.064923 
L 304.621644 167.734576 
L 307.864435 166.657406 
L 311.107227 166.713138 
L 314.350018 165.937574 
L 317.59281 165.891983 
L 320.835601 166.297575 
L 324.078393 164.835883 
L 327.321185 164.945317 
L 330.563976 163.443366 
L 333.806768 164.375362 
L 337.049559 164.645753 
L 340.292351 163.061647 
L 343.535142 163.941272 
L 346.777934 163.15558 
L 350.020725 161.452883 
L 353.263517 161.631936 
L 356.506309 162.661977 
L 359.7491 161.057895 
L 362.991892 161.952122 
L 366.234683 161.495676 
L 369.477475 161.372154 
L 372.720266 160.707553 
L 375.963058 161.035651 
L 379.205849 159.683068 
L 382.448641 158.505151 
L 385.691433 160.238088 
L 388.934224 160.259674 
L 392.177016 159.240627 
L 395.419807 157.799653 
L 398.662599 157.605356 
L 401.90539 157.792052 
L 405.148182 157.51627 
" clip-path="url(#p09f3deee90)" style="fill: none; stroke: #2070b4; stroke-width: 3; stroke-linecap: square"/>
   </g>
   <g id="line2d_16">
    <path d="M 84.111818 215.416364 
L 87.35461 214.121807 
L 90.597401 212.816206 
L 93.840193 211.699213 
L 97.082984 210.611602 
L 100.325776 209.59835 
L 103.568567 208.738805 
L 106.811359 207.824048 
L 110.054151 207.251645 
L 113.296942 206.619147 
L 116.539734 206.051315 
L 119.782525 205.832754 
L 123.025317 205.234789 
L 126.268108 205.261679 
L 129.5109 205.035261 
L 132.753691 205.159419 
L 135.996483 205.255263 
L 139.239275 204.948006 
L 142.482066 205.267434 
L 145.724858 205.2972 
L 148.967649 205.682314 
L 152.210441 206.159703 
L 155.453232 206.821484 
L 158.696024 206.901774 
L 161.938815 207.69028 
L 165.181607 207.821957 
L 168.424399 208.082525 
L 171.66719 208.161782 
L 174.909982 208.368205 
L 178.152773 208.260945 
L 181.395565 208.604267 
L 184.638356 208.547261 
L 187.881148 208.795343 
L 191.123939 208.958256 
L 194.366731 208.970517 
L 197.609522 208.701052 
L 200.852314 208.917354 
L 204.095106 209.229558 
L 207.337897 209.094368 
L 210.580689 209.032247 
L 213.82348 209.34625 
L 217.066272 209.79128 
L 220.309063 209.902516 
L 223.551855 209.479407 
L 226.794646 209.030678 
L 230.037438 209.790037 
L 233.28023 210.339576 
L 236.523021 209.599148 
L 239.765813 209.301771 
L 243.008604 210.17689 
L 246.251396 209.878622 
L 249.494187 209.635279 
L 252.736979 210.242898 
L 255.97977 210.25109 
L 259.222562 210.271447 
L 262.465354 209.759881 
L 265.708145 210.163832 
L 268.950937 210.032897 
L 272.193728 209.902032 
L 275.43652 209.483379 
L 278.679311 209.81373 
L 281.922103 209.59715 
L 285.164894 209.691672 
L 288.407686 209.991876 
L 291.650478 209.476056 
L 294.893269 210.055818 
L 298.136061 209.244685 
L 301.378852 209.379074 
L 304.621644 209.34736 
L 307.864435 209.709447 
L 311.107227 210.416729 
L 314.350018 210.111713 
L 317.59281 209.421061 
L 320.835601 209.18001 
L 324.078393 209.647562 
L 327.321185 209.334672 
L 330.563976 209.560791 
L 333.806768 209.218863 
L 337.049559 210.13448 
L 340.292351 209.707813 
L 343.535142 209.041583 
L 346.777934 209.767323 
L 350.020725 209.993733 
L 353.263517 208.914666 
L 356.506309 209.266671 
L 359.7491 209.402306 
L 362.991892 209.776257 
L 366.234683 209.421115 
L 369.477475 208.937336 
L 372.720266 208.269615 
L 375.963058 209.673495 
L 379.205849 209.772197 
L 382.448641 208.886938 
L 385.691433 208.248974 
L 388.934224 208.02507 
L 392.177016 209.174824 
L 395.419807 209.036189 
L 398.662599 208.241089 
L 401.90539 208.952537 
L 405.148182 209.424526 
" clip-path="url(#p09f3deee90)" style="fill: none; stroke: #08306b; stroke-width: 3; stroke-linecap: square"/>
   </g>
   <g id="patch_3">
    <path d="M 68.06 225.16 
L 68.06 10.8 
" style="fill: none; stroke: #000000; stroke-width: 0.8; stroke-linejoin: miter; stroke-linecap: square"/>
   </g>
   <g id="patch_4">
    <path d="M 68.06 225.16 
L 421.2 225.16 
" style="fill: none; stroke: #000000; stroke-width: 0.8; stroke-linejoin: miter; stroke-linecap: square"/>
   </g>
   <g id="legend_1">
    <g id="line2d_17">
     <path d="M 77.06 25.020313 
L 87.06 25.020313 
L 97.06 25.020313 
" style="fill: none; stroke: #c6dbef; stroke-width: 3; stroke-linecap: square"/>
    </g>
    <g id="text_15">
     <!-- $\sigma_W = $0.005 V路s$^{-1/2}$ -->
     <g transform="translate(105.06 28.520313) scale(0.1 -0.1)">
      <defs>
       <path id="DejaVuSans-Oblique-3c3" d="M 2219 3044 
Q 1744 3044 1422 2700 
Q 1081 2341 969 1747 
Q 844 1119 1044 756 
Q 1241 397 1706 397 
Q 2166 397 2503 759 
Q 2844 1122 2966 1747 
Q 3075 2319 2881 2700 
Q 2700 3044 2219 3044 
z
M 2309 3503 
L 4219 3500 
L 4106 2925 
L 3463 2925 
Q 3706 2438 3575 1747 
Q 3406 888 2884 400 
Q 2359 -91 1609 -91 
Q 856 -91 525 400 
Q 194 888 363 1747 
Q 528 2609 1050 3097 
Q 1484 3503 2309 3503 
z
" transform="scale(0.015625)"/>
       <path id="DejaVuSans-Oblique-57" d="M 616 4666 
L 1228 4666 
L 1453 697 
L 3213 4666 
L 3916 4666 
L 4147 697 
L 5888 4666 
L 6528 4666 
L 4453 0 
L 3659 0 
L 3444 3891 
L 1697 0 
L 903 0 
L 616 4666 
z
" transform="scale(0.015625)"/>
       <path id="DejaVuSans-3d" d="M 678 2906 
L 4684 2906 
L 4684 2381 
L 678 2381 
L 678 2906 
z
M 678 1631 
L 4684 1631 
L 4684 1100 
L 678 1100 
L 678 1631 
z
" transform="scale(0.015625)"/>
       <path id="DejaVuSans-2e" d="M 684 794 
L 1344 794 
L 1344 0 
L 684 0 
L 684 794 
z
" transform="scale(0.015625)"/>
       <path id="DejaVuSans-56" d="M 1831 0 
L 50 4666 
L 709 4666 
L 2188 738 
L 3669 4666 
L 4325 4666 
L 2547 0 
L 1831 0 
z
" transform="scale(0.015625)"/>
       <path id="DejaVuSans-b7" d="M 684 2619 
L 1344 2619 
L 1344 1825 
L 684 1825 
L 684 2619 
z
" transform="scale(0.015625)"/>
       <path id="DejaVuSans-2212" d="M 678 2272 
L 4684 2272 
L 4684 1741 
L 678 1741 
L 678 2272 
z
" transform="scale(0.015625)"/>
      </defs>
      <use xlink:href="#DejaVuSans-Oblique-3c3" transform="translate(0 0.765625)"/>
      <use xlink:href="#DejaVuSans-Oblique-57" transform="translate(63.378906 -15.640625) scale(0.7)"/>
      <use xlink:href="#DejaVuSans-3d" transform="translate(154.80957 0.765625)"/>
      <use xlink:href="#DejaVuSans-30" transform="translate(258.081055 0.765625)"/>
      <use xlink:href="#DejaVuSans-2e" transform="translate(321.704102 0.765625)"/>
      <use xlink:href="#DejaVuSans-30" transform="translate(353.491211 0.765625)"/>
      <use xlink:href="#DejaVuSans-30" transform="translate(417.114258 0.765625)"/>
      <use xlink:href="#DejaVuSans-35" transform="translate(480.737305 0.765625)"/>
      <use xlink:href="#DejaVuSans-20" transform="translate(544.360352 0.765625)"/>
      <use xlink:href="#DejaVuSans-56" transform="translate(576.147461 0.765625)"/>
      <use xlink:href="#DejaVuSans-b7" transform="translate(644.555664 0.765625)"/>
      <use xlink:href="#DejaVuSans-73" transform="translate(676.342773 0.765625)"/>
      <use xlink:href="#DejaVuSans-2212" transform="translate(729.399414 39.046875) scale(0.7)"/>
      <use xlink:href="#DejaVuSans-31" transform="translate(788.051758 39.046875) scale(0.7)"/>
      <use xlink:href="#DejaVuSans-2f" transform="translate(832.587891 39.046875) scale(0.7)"/>
      <use xlink:href="#DejaVuSans-32" transform="translate(853.634375 39.046875) scale(0.7)"/>
     </g>
    </g>
    <g id="line2d_18">
     <path d="M 77.06 40.820313 
L 87.06 40.820313 
L 97.06 40.820313 
" style="fill: none; stroke: #6aaed6; stroke-width: 3; stroke-linecap: square"/>
    </g>
    <g id="text_16">
     <!-- $\sigma_W = $0.01 V路s$^{-1/2}$ -->
     <g transform="translate(105.06 44.320313) scale(0.1 -0.1)">
      <use xlink:href="#DejaVuSans-Oblique-3c3" transform="translate(0 0.765625)"/>
      <use xlink:href="#DejaVuSans-Oblique-57" transform="translate(63.378906 -15.640625) scale(0.7)"/>
      <use xlink:href="#DejaVuSans-3d" transform="translate(154.80957 0.765625)"/>
      <use xlink:href="#DejaVuSans-30" transform="translate(258.081055 0.765625)"/>
      <use xlink:href="#DejaVuSans-2e" transform="translate(321.704102 0.765625)"/>
      <use xlink:href="#DejaVuSans-30" transform="translate(353.491211 0.765625)"/>
      <use xlink:href="#DejaVuSans-31" transform="translate(417.114258 0.765625)"/>
      <use xlink:href="#DejaVuSans-20" transform="translate(480.737305 0.765625)"/>
      <use xlink:href="#DejaVuSans-56" transform="translate(512.524414 0.765625)"/>
      <use xlink:href="#DejaVuSans-b7" transform="translate(580.932617 0.765625)"/>
      <use xlink:href="#DejaVuSans-73" transform="translate(612.719727 0.765625)"/>
      <use xlink:href="#DejaVuSans-2212" transform="translate(665.776367 39.046875) scale(0.7)"/>
      <use xlink:href="#DejaVuSans-31" transform="translate(724.428711 39.046875) scale(0.7)"/>
      <use xlink:href="#DejaVuSans-2f" transform="translate(768.964844 39.046875) scale(0.7)"/>
      <use xlink:href="#DejaVuSans-32" transform="translate(790.011328 39.046875) scale(0.7)"/>
     </g>
    </g>
    <g id="line2d_19">
     <path d="M 77.06 56.620313 
L 87.06 56.620313 
L 97.06 56.620313 
" style="fill: none; stroke: #2070b4; stroke-width: 3; stroke-linecap: square"/>
    </g>
    <g id="text_17">
     <!-- $\sigma_W = $0.02 V路s$^{-1/2}$ -->
     <g transform="translate(105.06 60.120313) scale(0.1 -0.1)">
      <use xlink:href="#DejaVuSans-Oblique-3c3" transform="translate(0 0.765625)"/>
      <use xlink:href="#DejaVuSans-Oblique-57" transform="translate(63.378906 -15.640625) scale(0.7)"/>
      <use xlink:href="#DejaVuSans-3d" transform="translate(154.80957 0.765625)"/>
      <use xlink:href="#DejaVuSans-30" transform="translate(258.081055 0.765625)"/>
      <use xlink:href="#DejaVuSans-2e" transform="translate(321.704102 0.765625)"/>
      <use xlink:href="#DejaVuSans-30" transform="translate(353.491211 0.765625)"/>
      <use xlink:href="#DejaVuSans-32" transform="translate(417.114258 0.765625)"/>
      <use xlink:href="#DejaVuSans-20" transform="translate(480.737305 0.765625)"/>
      <use xlink:href="#DejaVuSans-56" transform="translate(512.524414 0.765625)"/>
      <use xlink:href="#DejaVuSans-b7" transform="translate(580.932617 0.765625)"/>
      <use xlink:href="#DejaVuSans-73" transform="translate(612.719727 0.765625)"/>
      <use xlink:href="#DejaVuSans-2212" transform="translate(665.776367 39.046875) scale(0.7)"/>
      <use xlink:href="#DejaVuSans-31" transform="translate(724.428711 39.046875) scale(0.7)"/>
      <use xlink:href="#DejaVuSans-2f" transform="translate(768.964844 39.046875) scale(0.7)"/>
      <use xlink:href="#DejaVuSans-32" transform="translate(790.011328 39.046875) scale(0.7)"/>
     </g>
    </g>
    <g id="line2d_20">
     <path d="M 77.06 72.420313 
L 87.06 72.420313 
L 97.06 72.420313 
" style="fill: none; stroke: #08306b; stroke-width: 3; stroke-linecap: square"/>
    </g>
    <g id="text_18">
     <!-- $\sigma_W = $0.04 V路s$^{-1/2}$ -->
     <g transform="translate(105.06 75.920313) scale(0.1 -0.1)">
      <use xlink:href="#DejaVuSans-Oblique-3c3" transform="translate(0 0.765625)"/>
      <use xlink:href="#DejaVuSans-Oblique-57" transform="translate(63.378906 -15.640625) scale(0.7)"/>
      <use xlink:href="#DejaVuSans-3d" transform="translate(154.80957 0.765625)"/>
      <use xlink:href="#DejaVuSans-30" transform="translate(258.081055 0.765625)"/>
      <use xlink:href="#DejaVuSans-2e" transform="translate(321.704102 0.765625)"/>
      <use xlink:href="#DejaVuSans-30" transform="translate(353.491211 0.765625)"/>
      <use xlink:href="#DejaVuSans-34" transform="translate(417.114258 0.765625)"/>
      <use xlink:href="#DejaVuSans-20" transform="translate(480.737305 0.765625)"/>
      <use xlink:href="#DejaVuSans-56" transform="translate(512.524414 0.765625)"/>
      <use xlink:href="#DejaVuSans-b7" transform="translate(580.932617 0.765625)"/>
      <use xlink:href="#DejaVuSans-73" transform="translate(612.719727 0.765625)"/>
      <use xlink:href="#DejaVuSans-2212" transform="translate(665.776367 39.046875) scale(0.7)"/>
      <use xlink:href="#DejaVuSans-31" transform="translate(724.428711 39.046875) scale(0.7)"/>
      <use xlink:href="#DejaVuSans-2f" transform="translate(768.964844 39.046875) scale(0.7)"/>
      <use xlink:href="#DejaVuSans-32" transform="translate(790.011328 39.046875) scale(0.7)"/>
     </g>
    </g>
   </g>
  </g>
 </g>
 <defs>
  <clipPath id="p09f3deee90">
   <rect x="68.06" y="10.8" width="353.14" height="214.36"/>
  </clipPath>
 </defs>
</svg>
