<?xml version="1.0" encoding="utf-8" standalone="no"?>
<!DOCTYPE svg PUBLIC "-//W3C//DTD SVG 1.1//EN"
  "http://www.w3.org/Graphics/SVG/1.1/DTD/svg11.dtd">
<svg height="288pt" version="1.1" viewBox="0 0 432 288" width="432pt" xmlns="http://www.w3.org/2000/svg" xmlns:xlink="http://www.w3.org/1999/xlink">
 <metadata>
  <rdf:RDF xmlns:cc="http://creativecommons.org/ns#" xmlns:dc="http://purl.org/dc/elements/1.1/" xmlns:rdf="http://www.w3.org/1999/02/22-rdf-syntax-ns#">
   <cc:Work>
    <dc:type rdf:resource="http://purl.org/dc/dcmitype/StillImage"/>
    <dc:date>2022-09-22T12:27:03.861074</dc:date>
    <dc:format>image/svg+xml</dc:format>
    <dc:creator>
     <cc:Agent>
      <dc:title>Matplotlib v3.4.1, https://matplotlib.org/</dc:title>
     </cc:Agent>
    </dc:creator>
   </cc:Work>
  </rdf:RDF>
 </metadata>
 <defs>
  <style type="text/css">*{stroke-linecap:butt;stroke-linejoin:round;}</style>
 </defs>
 <g id="figure_1">
  <g id="patch_1">
   <path d="M 0 288 
L 432 288 
L 432 0 
L 0 0 
z
" style="fill:none;"/>
  </g>
  <g id="axes_1">
   <g id="patch_2">
    <path d="M 68.425 226.2 
L 421.2 226.2 
L 421.2 18.3 
L 68.425 18.3 
z
" style="fill:#ffffff;"/>
   </g>
   <g id="matplotlib.axis_1">
    <g id="xtick_1">
     <g id="line2d_1">
      <defs>
       <path d="M 0 0 
L 0 3.5 
" id="m6198cc5742" style="stroke:#000000;stroke-width:0.8;"/>
      </defs>
      <g>
       <use style="stroke:#000000;stroke-width:0.8;" x="84.460227" xlink:href="#m6198cc5742" y="226.2"/>
      </g>
     </g>
     <g id="text_1">
      <!-- 1 -->
      <g transform="translate(78.097727 248.396875)scale(0.2 -0.2)">
       <defs>
        <path d="M 794 531 
L 1825 531 
L 1825 4091 
L 703 3866 
L 703 4441 
L 1819 4666 
L 2450 4666 
L 2450 531 
L 3481 531 
L 3481 0 
L 794 0 
L 794 531 
z
" id="DejaVuSans-31" transform="scale(0.015625)"/>
       </defs>
       <use xlink:href="#DejaVuSans-31"/>
      </g>
     </g>
    </g>
    <g id="xtick_2">
     <g id="line2d_2">
      <g>
       <use style="stroke:#000000;stroke-width:0.8;" x="176.090097" xlink:href="#m6198cc5742" y="226.2"/>
      </g>
     </g>
     <g id="text_2">
      <!-- 15 -->
      <g transform="translate(163.365097 248.396875)scale(0.2 -0.2)">
       <defs>
        <path d="M 691 4666 
L 3169 4666 
L 3169 4134 
L 1269 4134 
L 1269 2991 
Q 1406 3038 1543 3061 
Q 1681 3084 1819 3084 
Q 2600 3084 3056 2656 
Q 3513 2228 3513 1497 
Q 3513 744 3044 326 
Q 2575 -91 1722 -91 
Q 1428 -91 1123 -41 
Q 819 9 494 109 
L 494 744 
Q 775 591 1075 516 
Q 1375 441 1709 441 
Q 2250 441 2565 725 
Q 2881 1009 2881 1497 
Q 2881 1984 2565 2268 
Q 2250 2553 1709 2553 
Q 1456 2553 1204 2497 
Q 953 2441 691 2322 
L 691 4666 
z
" id="DejaVuSans-35" transform="scale(0.015625)"/>
       </defs>
       <use xlink:href="#DejaVuSans-31"/>
       <use x="63.623047" xlink:href="#DejaVuSans-35"/>
      </g>
     </g>
    </g>
    <g id="xtick_3">
     <g id="line2d_3">
      <g>
       <use style="stroke:#000000;stroke-width:0.8;" x="306.989912" xlink:href="#m6198cc5742" y="226.2"/>
      </g>
     </g>
     <g id="text_3">
      <!-- 35 -->
      <g transform="translate(294.264912 248.396875)scale(0.2 -0.2)">
       <defs>
        <path d="M 2597 2516 
Q 3050 2419 3304 2112 
Q 3559 1806 3559 1356 
Q 3559 666 3084 287 
Q 2609 -91 1734 -91 
Q 1441 -91 1130 -33 
Q 819 25 488 141 
L 488 750 
Q 750 597 1062 519 
Q 1375 441 1716 441 
Q 2309 441 2620 675 
Q 2931 909 2931 1356 
Q 2931 1769 2642 2001 
Q 2353 2234 1838 2234 
L 1294 2234 
L 1294 2753 
L 1863 2753 
Q 2328 2753 2575 2939 
Q 2822 3125 2822 3475 
Q 2822 3834 2567 4026 
Q 2313 4219 1838 4219 
Q 1578 4219 1281 4162 
Q 984 4106 628 3988 
L 628 4550 
Q 988 4650 1302 4700 
Q 1616 4750 1894 4750 
Q 2613 4750 3031 4423 
Q 3450 4097 3450 3541 
Q 3450 3153 3228 2886 
Q 3006 2619 2597 2516 
z
" id="DejaVuSans-33" transform="scale(0.015625)"/>
       </defs>
       <use xlink:href="#DejaVuSans-33"/>
       <use x="63.623047" xlink:href="#DejaVuSans-35"/>
      </g>
     </g>
    </g>
    <g id="xtick_4">
     <g id="line2d_4">
      <g>
       <use style="stroke:#000000;stroke-width:0.8;" x="405.164773" xlink:href="#m6198cc5742" y="226.2"/>
      </g>
     </g>
     <g id="text_4">
      <!-- 50 -->
      <g transform="translate(392.439773 248.396875)scale(0.2 -0.2)">
       <defs>
        <path d="M 2034 4250 
Q 1547 4250 1301 3770 
Q 1056 3291 1056 2328 
Q 1056 1369 1301 889 
Q 1547 409 2034 409 
Q 2525 409 2770 889 
Q 3016 1369 3016 2328 
Q 3016 3291 2770 3770 
Q 2525 4250 2034 4250 
z
M 2034 4750 
Q 2819 4750 3233 4129 
Q 3647 3509 3647 2328 
Q 3647 1150 3233 529 
Q 2819 -91 2034 -91 
Q 1250 -91 836 529 
Q 422 1150 422 2328 
Q 422 3509 836 4129 
Q 1250 4750 2034 4750 
z
" id="DejaVuSans-30" transform="scale(0.015625)"/>
       </defs>
       <use xlink:href="#DejaVuSans-35"/>
       <use x="63.623047" xlink:href="#DejaVuSans-30"/>
      </g>
     </g>
    </g>
    <g id="text_5">
     <!-- $f$ (Hz) -->
     <g transform="translate(217.5125 271.753125)scale(0.2 -0.2)">
      <defs>
       <path d="M 3059 4863 
L 2969 4384 
L 2419 4384 
Q 2106 4384 1964 4261 
Q 1822 4138 1753 3809 
L 1691 3500 
L 2638 3500 
L 2553 3053 
L 1606 3053 
L 1013 0 
L 434 0 
L 1031 3053 
L 481 3053 
L 563 3500 
L 1113 3500 
L 1159 3744 
Q 1278 4363 1576 4613 
Q 1875 4863 2516 4863 
L 3059 4863 
z
" id="DejaVuSans-Oblique-66" transform="scale(0.015625)"/>
       <path id="DejaVuSans-20" transform="scale(0.015625)"/>
       <path d="M 1984 4856 
Q 1566 4138 1362 3434 
Q 1159 2731 1159 2009 
Q 1159 1288 1364 580 
Q 1569 -128 1984 -844 
L 1484 -844 
Q 1016 -109 783 600 
Q 550 1309 550 2009 
Q 550 2706 781 3412 
Q 1013 4119 1484 4856 
L 1984 4856 
z
" id="DejaVuSans-28" transform="scale(0.015625)"/>
       <path d="M 628 4666 
L 1259 4666 
L 1259 2753 
L 3553 2753 
L 3553 4666 
L 4184 4666 
L 4184 0 
L 3553 0 
L 3553 2222 
L 1259 2222 
L 1259 0 
L 628 0 
L 628 4666 
z
" id="DejaVuSans-48" transform="scale(0.015625)"/>
       <path d="M 353 3500 
L 3084 3500 
L 3084 2975 
L 922 459 
L 3084 459 
L 3084 0 
L 275 0 
L 275 525 
L 2438 3041 
L 353 3041 
L 353 3500 
z
" id="DejaVuSans-7a" transform="scale(0.015625)"/>
       <path d="M 513 4856 
L 1013 4856 
Q 1481 4119 1714 3412 
Q 1947 2706 1947 2009 
Q 1947 1309 1714 600 
Q 1481 -109 1013 -844 
L 513 -844 
Q 928 -128 1133 580 
Q 1338 1288 1338 2009 
Q 1338 2731 1133 3434 
Q 928 4138 513 4856 
z
" id="DejaVuSans-29" transform="scale(0.015625)"/>
      </defs>
      <use transform="translate(0 0.015625)" xlink:href="#DejaVuSans-Oblique-66"/>
      <use transform="translate(35.205078 0.015625)" xlink:href="#DejaVuSans-20"/>
      <use transform="translate(66.992188 0.015625)" xlink:href="#DejaVuSans-28"/>
      <use transform="translate(106.005859 0.015625)" xlink:href="#DejaVuSans-48"/>
      <use transform="translate(181.201172 0.015625)" xlink:href="#DejaVuSans-7a"/>
      <use transform="translate(233.691406 0.015625)" xlink:href="#DejaVuSans-29"/>
     </g>
    </g>
   </g>
   <g id="matplotlib.axis_2">
    <g id="ytick_1">
     <g id="line2d_5">
      <defs>
       <path d="M 0 0 
L -3.5 0 
" id="m8ea256c093" style="stroke:#000000;stroke-width:0.8;"/>
      </defs>
      <g>
       <use style="stroke:#000000;stroke-width:0.8;" x="68.425" xlink:href="#m8ea256c093" y="224.108386"/>
      </g>
     </g>
     <g id="text_6">
      <!-- 0 -->
      <g transform="translate(48.7 231.706823)scale(0.2 -0.2)">
       <use xlink:href="#DejaVuSans-30"/>
      </g>
     </g>
    </g>
    <g id="ytick_2">
     <g id="line2d_6">
      <g>
       <use style="stroke:#000000;stroke-width:0.8;" x="68.425" xlink:href="#m8ea256c093" y="121.204193"/>
      </g>
     </g>
     <g id="text_7">
      <!-- 5 -->
      <g transform="translate(48.7 128.80263)scale(0.2 -0.2)">
       <use xlink:href="#DejaVuSans-35"/>
      </g>
     </g>
    </g>
    <g id="ytick_3">
     <g id="line2d_7">
      <g>
       <use style="stroke:#000000;stroke-width:0.8;" x="68.425" xlink:href="#m8ea256c093" y="18.3"/>
      </g>
     </g>
     <g id="text_8">
      <!-- 10 -->
      <g transform="translate(35.975 25.898438)scale(0.2 -0.2)">
       <use xlink:href="#DejaVuSans-31"/>
       <use x="63.623047" xlink:href="#DejaVuSans-30"/>
      </g>
     </g>
    </g>
    <g id="text_9">
     <!-- $R$ (bit/s) -->
     <g transform="translate(27.815625 161.85)rotate(-90)scale(0.2 -0.2)">
      <defs>
       <path d="M 1613 4147 
L 1294 2491 
L 2106 2491 
Q 2584 2491 2879 2755 
Q 3175 3019 3175 3444 
Q 3175 3784 2976 3965 
Q 2778 4147 2406 4147 
L 1613 4147 
z
M 2772 2241 
Q 2972 2194 3105 2009 
Q 3238 1825 3413 1275 
L 3809 0 
L 3144 0 
L 2778 1197 
Q 2638 1659 2453 1815 
Q 2269 1972 1888 1972 
L 1191 1972 
L 806 0 
L 172 0 
L 1081 4666 
L 2503 4666 
Q 3150 4666 3495 4373 
Q 3841 4081 3841 3531 
Q 3841 3044 3547 2687 
Q 3253 2331 2772 2241 
z
" id="DejaVuSans-Oblique-52" transform="scale(0.015625)"/>
       <path d="M 3116 1747 
Q 3116 2381 2855 2742 
Q 2594 3103 2138 3103 
Q 1681 3103 1420 2742 
Q 1159 2381 1159 1747 
Q 1159 1113 1420 752 
Q 1681 391 2138 391 
Q 2594 391 2855 752 
Q 3116 1113 3116 1747 
z
M 1159 2969 
Q 1341 3281 1617 3432 
Q 1894 3584 2278 3584 
Q 2916 3584 3314 3078 
Q 3713 2572 3713 1747 
Q 3713 922 3314 415 
Q 2916 -91 2278 -91 
Q 1894 -91 1617 61 
Q 1341 213 1159 525 
L 1159 0 
L 581 0 
L 581 4863 
L 1159 4863 
L 1159 2969 
z
" id="DejaVuSans-62" transform="scale(0.015625)"/>
       <path d="M 603 3500 
L 1178 3500 
L 1178 0 
L 603 0 
L 603 3500 
z
M 603 4863 
L 1178 4863 
L 1178 4134 
L 603 4134 
L 603 4863 
z
" id="DejaVuSans-69" transform="scale(0.015625)"/>
       <path d="M 1172 4494 
L 1172 3500 
L 2356 3500 
L 2356 3053 
L 1172 3053 
L 1172 1153 
Q 1172 725 1289 603 
Q 1406 481 1766 481 
L 2356 481 
L 2356 0 
L 1766 0 
Q 1100 0 847 248 
Q 594 497 594 1153 
L 594 3053 
L 172 3053 
L 172 3500 
L 594 3500 
L 594 4494 
L 1172 4494 
z
" id="DejaVuSans-74" transform="scale(0.015625)"/>
       <path d="M 1625 4666 
L 2156 4666 
L 531 -594 
L 0 -594 
L 1625 4666 
z
" id="DejaVuSans-2f" transform="scale(0.015625)"/>
       <path d="M 2834 3397 
L 2834 2853 
Q 2591 2978 2328 3040 
Q 2066 3103 1784 3103 
Q 1356 3103 1142 2972 
Q 928 2841 928 2578 
Q 928 2378 1081 2264 
Q 1234 2150 1697 2047 
L 1894 2003 
Q 2506 1872 2764 1633 
Q 3022 1394 3022 966 
Q 3022 478 2636 193 
Q 2250 -91 1575 -91 
Q 1294 -91 989 -36 
Q 684 19 347 128 
L 347 722 
Q 666 556 975 473 
Q 1284 391 1588 391 
Q 1994 391 2212 530 
Q 2431 669 2431 922 
Q 2431 1156 2273 1281 
Q 2116 1406 1581 1522 
L 1381 1569 
Q 847 1681 609 1914 
Q 372 2147 372 2553 
Q 372 3047 722 3315 
Q 1072 3584 1716 3584 
Q 2034 3584 2315 3537 
Q 2597 3491 2834 3397 
z
" id="DejaVuSans-73" transform="scale(0.015625)"/>
      </defs>
      <use transform="translate(0 0.015625)" xlink:href="#DejaVuSans-Oblique-52"/>
      <use transform="translate(69.482422 0.015625)" xlink:href="#DejaVuSans-20"/>
      <use transform="translate(101.269531 0.015625)" xlink:href="#DejaVuSans-28"/>
      <use transform="translate(140.283203 0.015625)" xlink:href="#DejaVuSans-62"/>
      <use transform="translate(203.759766 0.015625)" xlink:href="#DejaVuSans-69"/>
      <use transform="translate(231.542969 0.015625)" xlink:href="#DejaVuSans-74"/>
      <use transform="translate(270.751953 0.015625)" xlink:href="#DejaVuSans-2f"/>
      <use transform="translate(304.443359 0.015625)" xlink:href="#DejaVuSans-73"/>
      <use transform="translate(356.542969 0.015625)" xlink:href="#DejaVuSans-29"/>
     </g>
    </g>
   </g>
   <g id="line2d_8">
    <path clip-path="url(#p7b17667d17)" d="M 84.460227 204.080267 
L 87.699667 196.159431 
L 90.939107 188.934395 
L 94.178547 185.97406 
L 97.417987 178.769422 
L 100.657427 175.356683 
L 103.896866 171.856615 
L 107.136306 169.803954 
L 110.375746 168.205073 
L 113.615186 167.395278 
L 116.854626 166.143332 
L 120.094066 165.47273 
L 123.333506 167.606363 
L 126.572945 169.302948 
L 129.812385 170.069251 
L 133.051825 172.290191 
L 136.291265 172.545974 
L 139.530705 175.197777 
L 142.770145 177.733981 
L 146.009584 180.991862 
L 149.249024 183.34302 
L 152.488464 183.646353 
L 155.727904 188.171536 
L 158.967344 190.793185 
L 162.206784 193.115651 
L 165.446224 194.90371 
L 168.685663 196.035121 
L 171.925103 196.388709 
L 175.164543 199.038842 
L 178.403983 199.655245 
L 181.643423 202.920667 
L 184.882863 201.435733 
L 188.122303 203.714516 
L 191.361742 204.524793 
L 194.601182 203.652572 
L 197.840622 205.890866 
L 201.080062 204.665357 
L 204.319502 206.316057 
L 207.558942 207.893523 
L 210.798382 206.562773 
L 214.037821 206.740203 
L 217.277261 210.547675 
L 220.516701 209.370406 
L 223.756141 210.978397 
L 226.995581 211.838402 
L 230.235021 210.642418 
L 233.474461 210.977618 
L 236.7139 210.867703 
L 239.95334 209.846352 
L 243.19278 211.643783 
L 246.43222 213.380242 
L 249.67166 214.77485 
L 252.9111 211.686262 
L 256.150539 213.113788 
L 259.389979 213.600994 
L 262.629419 212.245519 
L 265.868859 214.524787 
L 269.108299 212.960352 
L 272.347739 213.70207 
L 275.587179 214.622879 
L 278.826618 216.822271 
L 282.066058 213.666863 
L 285.305498 215.519369 
L 288.544938 217.006311 
L 291.784378 214.781329 
L 295.023818 214.897014 
L 298.263258 215.948237 
L 301.502697 216.595981 
L 304.742137 216.314737 
L 307.981577 217.789204 
L 311.221017 216.652951 
L 314.460457 215.636441 
L 317.699897 217.677188 
L 320.939337 217.341249 
L 324.178776 216.070024 
L 327.418216 216.631292 
L 330.657656 216.878287 
L 333.897096 215.071569 
L 337.136536 218.136807 
L 340.375976 215.862242 
L 343.615416 215.810243 
L 346.854855 216.918869 
L 350.094295 214.245322 
L 353.333735 214.156964 
L 356.573175 217.486655 
L 359.812615 217.743376 
L 363.052055 216.354735 
L 366.291494 216.941909 
L 369.530934 217.468191 
L 372.770374 216.386039 
L 376.009814 218.08234 
L 379.249254 214.390883 
L 382.488694 214.4302 
L 385.728134 213.296323 
L 388.967573 217.698199 
L 392.207013 214.588044 
L 395.446453 215.634146 
L 398.685893 214.212446 
L 401.925333 216.862644 
L 405.164773 214.534717 
" style="fill:none;stroke:#c6c6c6;stroke-linecap:square;stroke-width:3;"/>
   </g>
   <g id="line2d_9">
    <path clip-path="url(#p7b17667d17)" d="M 84.460227 196.100356 
L 87.699667 185.423129 
L 90.939107 174.681367 
L 94.178547 170.467521 
L 97.417987 157.298885 
L 100.657427 149.662907 
L 103.896866 143.927364 
L 107.136306 138.436144 
L 110.375746 133.956978 
L 113.615186 128.899747 
L 116.854626 126.082897 
L 120.094066 122.483054 
L 123.333506 122.79129 
L 126.572945 124.370397 
L 129.812385 125.683498 
L 133.051825 123.024872 
L 136.291265 126.709092 
L 139.530705 127.988629 
L 142.770145 129.931218 
L 146.009584 131.691282 
L 149.249024 131.255022 
L 152.488464 135.57594 
L 155.727904 139.043918 
L 158.967344 146.112464 
L 162.206784 150.357805 
L 165.446224 148.892045 
L 168.685663 154.961941 
L 171.925103 161.810619 
L 175.164543 162.366267 
L 178.403983 163.365917 
L 181.643423 170.024194 
L 184.882863 167.892909 
L 188.122303 170.437291 
L 191.361742 173.572108 
L 194.601182 173.737547 
L 197.840622 174.575396 
L 201.080062 175.275281 
L 204.319502 178.821459 
L 207.558942 179.10485 
L 210.798382 180.306132 
L 214.037821 177.084853 
L 217.277261 182.539686 
L 220.516701 182.050613 
L 223.756141 187.145793 
L 226.995581 186.988466 
L 230.235021 182.831218 
L 233.474461 185.912729 
L 236.7139 185.432311 
L 239.95334 185.888227 
L 243.19278 190.80646 
L 246.43222 188.156446 
L 249.67166 194.370604 
L 252.9111 194.053972 
L 256.150539 188.082203 
L 259.389979 195.692678 
L 262.629419 193.505817 
L 265.868859 195.265962 
L 269.108299 194.839699 
L 272.347739 195.094913 
L 275.587179 194.079818 
L 278.826618 194.550179 
L 282.066058 196.052846 
L 285.305498 198.883259 
L 288.544938 200.821862 
L 291.784378 197.338067 
L 295.023818 204.995885 
L 298.263258 197.628531 
L 301.502697 200.29777 
L 304.742137 200.351835 
L 307.981577 200.151905 
L 311.221017 201.004629 
L 314.460457 195.040234 
L 317.699897 199.149965 
L 320.939337 200.621584 
L 324.178776 200.979607 
L 327.418216 200.925001 
L 330.657656 204.250342 
L 333.897096 205.269638 
L 337.136536 199.950646 
L 340.375976 202.399995 
L 343.615416 197.961173 
L 346.854855 203.682089 
L 350.094295 197.754154 
L 353.333735 198.352715 
L 356.573175 202.350361 
L 359.812615 200.713277 
L 363.052055 203.494669 
L 366.291494 203.034134 
L 369.530934 201.798038 
L 372.770374 205.853599 
L 376.009814 205.096477 
L 379.249254 201.571653 
L 382.488694 195.352677 
L 385.728134 204.464463 
L 388.967573 205.27579 
L 392.207013 201.584121 
L 395.446453 202.567377 
L 398.685893 199.828881 
L 401.925333 204.984436 
L 405.164773 204.363305 
" style="fill:none;stroke:#686868;stroke-linecap:square;stroke-width:3;"/>
   </g>
   <g id="line2d_10">
    <path clip-path="url(#p7b17667d17)" d="M 84.460227 188.271078 
L 87.699667 174.033304 
L 90.939107 158.365741 
L 94.178547 146.148956 
L 97.417987 133.579288 
L 100.657427 122.076539 
L 103.896866 111.354336 
L 107.136306 102.920834 
L 110.375746 94.20147 
L 113.615186 85.175953 
L 116.854626 79.788412 
L 120.094066 71.700755 
L 123.333506 68.204967 
L 126.572945 67.125294 
L 129.812385 61.695462 
L 133.051825 57.161627 
L 136.291265 58.972361 
L 139.530705 59.998495 
L 142.770145 58.154329 
L 146.009584 61.868227 
L 149.249024 56.872943 
L 152.488464 60.710079 
L 155.727904 63.317652 
L 158.967344 63.816397 
L 162.206784 66.075601 
L 165.446224 67.734663 
L 168.685663 71.213945 
L 171.925103 81.020512 
L 175.164543 86.868871 
L 178.403983 88.103831 
L 181.643423 98.442951 
L 184.882863 100.363414 
L 188.122303 106.92334 
L 191.361742 106.034272 
L 194.601182 111.870675 
L 197.840622 112.154108 
L 201.080062 118.43607 
L 204.319502 118.088424 
L 207.558942 117.878756 
L 210.798382 119.140217 
L 214.037821 120.028222 
L 217.277261 123.428279 
L 220.516701 123.395438 
L 223.756141 130.965615 
L 226.995581 129.76879 
L 230.235021 130.224899 
L 233.474461 129.783697 
L 236.7139 131.476575 
L 239.95334 132.681955 
L 243.19278 133.769465 
L 246.43222 135.173007 
L 249.67166 140.653677 
L 252.9111 137.217656 
L 256.150539 140.318743 
L 259.389979 143.456295 
L 262.629419 140.228485 
L 265.868859 140.582098 
L 269.108299 141.350616 
L 272.347739 148.571232 
L 275.587179 147.785887 
L 278.826618 142.299888 
L 282.066058 150.344791 
L 285.305498 151.671599 
L 288.544938 151.178574 
L 291.784378 147.806753 
L 295.023818 153.832969 
L 298.263258 149.756154 
L 301.502697 156.511906 
L 304.742137 150.975062 
L 307.981577 158.046252 
L 311.221017 153.315058 
L 314.460457 150.959868 
L 317.699897 152.306898 
L 320.939337 156.860715 
L 324.178776 160.040179 
L 327.418216 158.899991 
L 330.657656 155.438373 
L 333.897096 160.027453 
L 337.136536 159.244824 
L 340.375976 157.800298 
L 343.615416 150.160002 
L 346.854855 160.779464 
L 350.094295 163.526625 
L 353.333735 155.255992 
L 356.573175 171.279806 
L 359.812615 159.848963 
L 363.052055 165.325747 
L 366.291494 165.496566 
L 369.530934 165.558633 
L 372.770374 165.2465 
L 376.009814 167.362706 
L 379.249254 163.013772 
L 382.488694 164.484126 
L 385.728134 167.351945 
L 388.967573 165.20872 
L 392.207013 161.745056 
L 395.446453 168.437166 
L 398.685893 170.593958 
L 401.925333 167.29885 
L 405.164773 167.666173 
" style="fill:none;stroke:#000000;stroke-linecap:square;stroke-width:3;"/>
   </g>
   <g id="patch_3">
    <path d="M 68.425 226.2 
L 68.425 18.3 
" style="fill:none;stroke:#000000;stroke-linecap:square;stroke-linejoin:miter;stroke-width:0.8;"/>
   </g>
   <g id="patch_4">
    <path d="M 68.425 226.2 
L 421.2 226.2 
" style="fill:none;stroke:#000000;stroke-linecap:square;stroke-linejoin:miter;stroke-width:0.8;"/>
   </g>
   <g id="legend_1">
    <g id="line2d_11">
     <path d="M 327.8 31.398438 
L 347.8 31.398438 
" style="fill:none;stroke:#c6c6c6;stroke-linecap:square;stroke-width:3;"/>
    </g>
    <g id="line2d_12"/>
    <g id="text_10">
     <!-- $I_{osc} = $30 pA -->
     <g transform="translate(355.8 34.898438)scale(0.1 -0.1)">
      <defs>
       <path d="M 1081 4666 
L 1716 4666 
L 806 0 
L 172 0 
L 1081 4666 
z
" id="DejaVuSans-Oblique-49" transform="scale(0.015625)"/>
       <path d="M 1625 -91 
Q 1009 -91 651 289 
Q 294 669 294 1325 
Q 294 1706 417 2101 
Q 541 2497 738 2766 
Q 1047 3184 1428 3384 
Q 1809 3584 2291 3584 
Q 2888 3584 3255 3212 
Q 3622 2841 3622 2241 
Q 3622 1825 3500 1412 
Q 3378 1000 3181 728 
Q 2875 309 2494 109 
Q 2113 -91 1625 -91 
z
M 891 1344 
Q 891 869 1089 633 
Q 1288 397 1691 397 
Q 2269 397 2648 901 
Q 3028 1406 3028 2181 
Q 3028 2634 2825 2865 
Q 2622 3097 2228 3097 
Q 1903 3097 1650 2945 
Q 1397 2794 1197 2484 
Q 1050 2253 970 1956 
Q 891 1659 891 1344 
z
" id="DejaVuSans-Oblique-6f" transform="scale(0.015625)"/>
       <path d="M 3200 3397 
L 3091 2853 
Q 2863 2978 2609 3040 
Q 2356 3103 2088 3103 
Q 1634 3103 1373 2948 
Q 1113 2794 1113 2528 
Q 1113 2219 1719 2053 
Q 1766 2041 1788 2034 
L 1972 1978 
Q 2547 1819 2739 1644 
Q 2931 1469 2931 1166 
Q 2931 609 2489 259 
Q 2047 -91 1331 -91 
Q 1053 -91 747 -37 
Q 441 16 72 128 
L 184 722 
Q 500 559 806 475 
Q 1113 391 1394 391 
Q 1816 391 2080 572 
Q 2344 753 2344 1031 
Q 2344 1331 1650 1516 
L 1591 1531 
L 1394 1581 
Q 956 1697 753 1886 
Q 550 2075 550 2369 
Q 550 2928 970 3256 
Q 1391 3584 2113 3584 
Q 2397 3584 2667 3537 
Q 2938 3491 3200 3397 
z
" id="DejaVuSans-Oblique-73" transform="scale(0.015625)"/>
       <path d="M 3431 3366 
L 3316 2797 
Q 3109 2947 2876 3022 
Q 2644 3097 2394 3097 
Q 2119 3097 1870 3000 
Q 1622 2903 1453 2725 
Q 1184 2453 1037 2087 
Q 891 1722 891 1331 
Q 891 859 1127 628 
Q 1363 397 1844 397 
Q 2081 397 2348 469 
Q 2616 541 2906 684 
L 2797 116 
Q 2547 13 2283 -39 
Q 2019 -91 1741 -91 
Q 1044 -91 669 257 
Q 294 606 294 1253 
Q 294 1797 489 2255 
Q 684 2713 1069 3078 
Q 1331 3328 1684 3456 
Q 2038 3584 2456 3584 
Q 2700 3584 2940 3529 
Q 3181 3475 3431 3366 
z
" id="DejaVuSans-Oblique-63" transform="scale(0.015625)"/>
       <path d="M 678 2906 
L 4684 2906 
L 4684 2381 
L 678 2381 
L 678 2906 
z
M 678 1631 
L 4684 1631 
L 4684 1100 
L 678 1100 
L 678 1631 
z
" id="DejaVuSans-3d" transform="scale(0.015625)"/>
       <path d="M 1159 525 
L 1159 -1331 
L 581 -1331 
L 581 3500 
L 1159 3500 
L 1159 2969 
Q 1341 3281 1617 3432 
Q 1894 3584 2278 3584 
Q 2916 3584 3314 3078 
Q 3713 2572 3713 1747 
Q 3713 922 3314 415 
Q 2916 -91 2278 -91 
Q 1894 -91 1617 61 
Q 1341 213 1159 525 
z
M 3116 1747 
Q 3116 2381 2855 2742 
Q 2594 3103 2138 3103 
Q 1681 3103 1420 2742 
Q 1159 2381 1159 1747 
Q 1159 1113 1420 752 
Q 1681 391 2138 391 
Q 2594 391 2855 752 
Q 3116 1113 3116 1747 
z
" id="DejaVuSans-70" transform="scale(0.015625)"/>
       <path d="M 2188 4044 
L 1331 1722 
L 3047 1722 
L 2188 4044 
z
M 1831 4666 
L 2547 4666 
L 4325 0 
L 3669 0 
L 3244 1197 
L 1141 1197 
L 716 0 
L 50 0 
L 1831 4666 
z
" id="DejaVuSans-41" transform="scale(0.015625)"/>
      </defs>
      <use transform="translate(0 0.78125)" xlink:href="#DejaVuSans-Oblique-49"/>
      <use transform="translate(29.492188 -15.625)scale(0.7)" xlink:href="#DejaVuSans-Oblique-6f"/>
      <use transform="translate(72.319336 -15.625)scale(0.7)" xlink:href="#DejaVuSans-Oblique-73"/>
      <use transform="translate(108.789062 -15.625)scale(0.7)" xlink:href="#DejaVuSans-Oblique-63"/>
      <use transform="translate(169.492188 0.78125)" xlink:href="#DejaVuSans-3d"/>
      <use transform="translate(272.763672 0.78125)" xlink:href="#DejaVuSans-33"/>
      <use transform="translate(336.386719 0.78125)" xlink:href="#DejaVuSans-30"/>
      <use transform="translate(400.009766 0.78125)" xlink:href="#DejaVuSans-20"/>
      <use transform="translate(431.796875 0.78125)" xlink:href="#DejaVuSans-70"/>
      <use transform="translate(495.273438 0.78125)" xlink:href="#DejaVuSans-41"/>
     </g>
    </g>
    <g id="line2d_13">
     <path d="M 327.8 46.096875 
L 347.8 46.096875 
" style="fill:none;stroke:#686868;stroke-linecap:square;stroke-width:3;"/>
    </g>
    <g id="line2d_14"/>
    <g id="text_11">
     <!-- $I_{osc} = $45 pA -->
     <g transform="translate(355.8 49.596875)scale(0.1 -0.1)">
      <defs>
       <path d="M 2419 4116 
L 825 1625 
L 2419 1625 
L 2419 4116 
z
M 2253 4666 
L 3047 4666 
L 3047 1625 
L 3713 1625 
L 3713 1100 
L 3047 1100 
L 3047 0 
L 2419 0 
L 2419 1100 
L 313 1100 
L 313 1709 
L 2253 4666 
z
" id="DejaVuSans-34" transform="scale(0.015625)"/>
      </defs>
      <use transform="translate(0 0.09375)" xlink:href="#DejaVuSans-Oblique-49"/>
      <use transform="translate(29.492188 -16.3125)scale(0.7)" xlink:href="#DejaVuSans-Oblique-6f"/>
      <use transform="translate(72.319336 -16.3125)scale(0.7)" xlink:href="#DejaVuSans-Oblique-73"/>
      <use transform="translate(108.789062 -16.3125)scale(0.7)" xlink:href="#DejaVuSans-Oblique-63"/>
      <use transform="translate(169.492188 0.09375)" xlink:href="#DejaVuSans-3d"/>
      <use transform="translate(272.763672 0.09375)" xlink:href="#DejaVuSans-34"/>
      <use transform="translate(336.386719 0.09375)" xlink:href="#DejaVuSans-35"/>
      <use transform="translate(400.009766 0.09375)" xlink:href="#DejaVuSans-20"/>
      <use transform="translate(431.796875 0.09375)" xlink:href="#DejaVuSans-70"/>
      <use transform="translate(495.273438 0.09375)" xlink:href="#DejaVuSans-41"/>
     </g>
    </g>
    <g id="line2d_15">
     <path d="M 327.8 60.795313 
L 347.8 60.795313 
" style="fill:none;stroke:#000000;stroke-linecap:square;stroke-width:3;"/>
    </g>
    <g id="line2d_16"/>
    <g id="text_12">
     <!-- $I_{osc} = $70 pA -->
     <g transform="translate(355.8 64.295313)scale(0.1 -0.1)">
      <defs>
       <path d="M 525 4666 
L 3525 4666 
L 3525 4397 
L 1831 0 
L 1172 0 
L 2766 4134 
L 525 4134 
L 525 4666 
z
" id="DejaVuSans-37" transform="scale(0.015625)"/>
      </defs>
      <use transform="translate(0 0.78125)" xlink:href="#DejaVuSans-Oblique-49"/>
      <use transform="translate(29.492188 -15.625)scale(0.7)" xlink:href="#DejaVuSans-Oblique-6f"/>
      <use transform="translate(72.319336 -15.625)scale(0.7)" xlink:href="#DejaVuSans-Oblique-73"/>
      <use transform="translate(108.789062 -15.625)scale(0.7)" xlink:href="#DejaVuSans-Oblique-63"/>
      <use transform="translate(169.492188 0.78125)" xlink:href="#DejaVuSans-3d"/>
      <use transform="translate(272.763672 0.78125)" xlink:href="#DejaVuSans-37"/>
      <use transform="translate(336.386719 0.78125)" xlink:href="#DejaVuSans-30"/>
      <use transform="translate(400.009766 0.78125)" xlink:href="#DejaVuSans-20"/>
      <use transform="translate(431.796875 0.78125)" xlink:href="#DejaVuSans-70"/>
      <use transform="translate(495.273438 0.78125)" xlink:href="#DejaVuSans-41"/>
     </g>
    </g>
   </g>
  </g>
 </g>
 <defs>
  <clipPath id="p7b17667d17">
   <rect height="207.9" width="352.775" x="68.425" y="18.3"/>
  </clipPath>
 </defs>
</svg>
