<?xml version="1.0" encoding="utf-8" standalone="no"?>
<!DOCTYPE svg PUBLIC "-//W3C//DTD SVG 1.1//EN"
  "http://www.w3.org/Graphics/SVG/1.1/DTD/svg11.dtd">
<svg height="288pt" version="1.1" viewBox="0 0 432 288" width="432pt" xmlns="http://www.w3.org/2000/svg" xmlns:xlink="http://www.w3.org/1999/xlink">
 <metadata>
  <rdf:RDF xmlns:cc="http://creativecommons.org/ns#" xmlns:dc="http://purl.org/dc/elements/1.1/" xmlns:rdf="http://www.w3.org/1999/02/22-rdf-syntax-ns#">
   <cc:Work>
    <dc:type rdf:resource="http://purl.org/dc/dcmitype/StillImage"/>
    <dc:date>2022-09-22T12:21:42.573010</dc:date>
    <dc:format>image/svg+xml</dc:format>
    <dc:creator>
     <cc:Agent>
      <dc:title>Matplotlib v3.4.1, https://matplotlib.org/</dc:title>
     </cc:Agent>
    </dc:creator>
   </cc:Work>
  </rdf:RDF>
 </metadata>
 <defs>
  <style type="text/css">*{stroke-linecap:butt;stroke-linejoin:round;}</style>
 </defs>
 <g id="figure_1">
  <g id="patch_1">
   <path d="M 0 288 
L 432 288 
L 432 0 
L 0 0 
z
" style="fill:none;"/>
  </g>
  <g id="axes_1">
   <g id="patch_2">
    <path d="M 79.3 222 
L 414.105682 222 
L 414.105682 18.3 
L 79.3 18.3 
z
" style="fill:#ffffff;"/>
   </g>
   <g id="matplotlib.axis_1">
    <g id="xtick_1">
     <g id="line2d_1">
      <defs>
       <path d="M 0 0 
L 0 3.5 
" id="maaf4571326" style="stroke:#000000;stroke-width:0.8;"/>
      </defs>
      <g>
       <use style="stroke:#000000;stroke-width:0.8;" x="94.51844" xlink:href="#maaf4571326" y="222"/>
      </g>
     </g>
     <g id="text_1">
      <!-- 0.0 -->
      <g transform="translate(78.615315 244.196875)scale(0.2 -0.2)">
       <defs>
        <path d="M 2034 4250 
Q 1547 4250 1301 3770 
Q 1056 3291 1056 2328 
Q 1056 1369 1301 889 
Q 1547 409 2034 409 
Q 2525 409 2770 889 
Q 3016 1369 3016 2328 
Q 3016 3291 2770 3770 
Q 2525 4250 2034 4250 
z
M 2034 4750 
Q 2819 4750 3233 4129 
Q 3647 3509 3647 2328 
Q 3647 1150 3233 529 
Q 2819 -91 2034 -91 
Q 1250 -91 836 529 
Q 422 1150 422 2328 
Q 422 3509 836 4129 
Q 1250 4750 2034 4750 
z
" id="DejaVuSans-30" transform="scale(0.015625)"/>
        <path d="M 684 794 
L 1344 794 
L 1344 0 
L 684 0 
L 684 794 
z
" id="DejaVuSans-2e" transform="scale(0.015625)"/>
       </defs>
       <use xlink:href="#DejaVuSans-30"/>
       <use x="63.623047" xlink:href="#DejaVuSans-2e"/>
       <use x="95.410156" xlink:href="#DejaVuSans-30"/>
      </g>
     </g>
    </g>
    <g id="xtick_2">
     <g id="line2d_2">
      <g>
       <use style="stroke:#000000;stroke-width:0.8;" x="195.974707" xlink:href="#maaf4571326" y="222"/>
      </g>
     </g>
     <g id="text_2">
      <!-- 0.01 -->
      <g transform="translate(173.709082 244.196875)scale(0.2 -0.2)">
       <defs>
        <path d="M 794 531 
L 1825 531 
L 1825 4091 
L 703 3866 
L 703 4441 
L 1819 4666 
L 2450 4666 
L 2450 531 
L 3481 531 
L 3481 0 
L 794 0 
L 794 531 
z
" id="DejaVuSans-31" transform="scale(0.015625)"/>
       </defs>
       <use xlink:href="#DejaVuSans-30"/>
       <use x="63.623047" xlink:href="#DejaVuSans-2e"/>
       <use x="95.410156" xlink:href="#DejaVuSans-30"/>
       <use x="159.033203" xlink:href="#DejaVuSans-31"/>
      </g>
     </g>
    </g>
    <g id="xtick_3">
     <g id="line2d_3">
      <g>
       <use style="stroke:#000000;stroke-width:0.8;" x="297.430975" xlink:href="#maaf4571326" y="222"/>
      </g>
     </g>
     <g id="text_3">
      <!-- 0.03 -->
      <g transform="translate(275.16535 244.196875)scale(0.2 -0.2)">
       <defs>
        <path d="M 2597 2516 
Q 3050 2419 3304 2112 
Q 3559 1806 3559 1356 
Q 3559 666 3084 287 
Q 2609 -91 1734 -91 
Q 1441 -91 1130 -33 
Q 819 25 488 141 
L 488 750 
Q 750 597 1062 519 
Q 1375 441 1716 441 
Q 2309 441 2620 675 
Q 2931 909 2931 1356 
Q 2931 1769 2642 2001 
Q 2353 2234 1838 2234 
L 1294 2234 
L 1294 2753 
L 1863 2753 
Q 2328 2753 2575 2939 
Q 2822 3125 2822 3475 
Q 2822 3834 2567 4026 
Q 2313 4219 1838 4219 
Q 1578 4219 1281 4162 
Q 984 4106 628 3988 
L 628 4550 
Q 988 4650 1302 4700 
Q 1616 4750 1894 4750 
Q 2613 4750 3031 4423 
Q 3450 4097 3450 3541 
Q 3450 3153 3228 2886 
Q 3006 2619 2597 2516 
z
" id="DejaVuSans-33" transform="scale(0.015625)"/>
       </defs>
       <use xlink:href="#DejaVuSans-30"/>
       <use x="63.623047" xlink:href="#DejaVuSans-2e"/>
       <use x="95.410156" xlink:href="#DejaVuSans-30"/>
       <use x="159.033203" xlink:href="#DejaVuSans-33"/>
      </g>
     </g>
    </g>
    <g id="xtick_4">
     <g id="line2d_4">
      <g>
       <use style="stroke:#000000;stroke-width:0.8;" x="398.887242" xlink:href="#maaf4571326" y="222"/>
      </g>
     </g>
     <g id="text_4">
      <!-- 0.04 -->
      <g transform="translate(376.621617 244.196875)scale(0.2 -0.2)">
       <defs>
        <path d="M 2419 4116 
L 825 1625 
L 2419 1625 
L 2419 4116 
z
M 2253 4666 
L 3047 4666 
L 3047 1625 
L 3713 1625 
L 3713 1100 
L 3047 1100 
L 3047 0 
L 2419 0 
L 2419 1100 
L 313 1100 
L 313 1709 
L 2253 4666 
z
" id="DejaVuSans-34" transform="scale(0.015625)"/>
       </defs>
       <use xlink:href="#DejaVuSans-30"/>
       <use x="63.623047" xlink:href="#DejaVuSans-2e"/>
       <use x="95.410156" xlink:href="#DejaVuSans-30"/>
       <use x="159.033203" xlink:href="#DejaVuSans-34"/>
      </g>
     </g>
    </g>
    <g id="text_5">
     <!-- $\sigma_W$ (V·s$^{-1/2}$) -->
     <g transform="translate(189.702841 269.796875)scale(0.2 -0.2)">
      <defs>
       <path d="M 2219 3044 
Q 1744 3044 1422 2700 
Q 1081 2341 969 1747 
Q 844 1119 1044 756 
Q 1241 397 1706 397 
Q 2166 397 2503 759 
Q 2844 1122 2966 1747 
Q 3075 2319 2881 2700 
Q 2700 3044 2219 3044 
z
M 2309 3503 
L 4219 3500 
L 4106 2925 
L 3463 2925 
Q 3706 2438 3575 1747 
Q 3406 888 2884 400 
Q 2359 -91 1609 -91 
Q 856 -91 525 400 
Q 194 888 363 1747 
Q 528 2609 1050 3097 
Q 1484 3503 2309 3503 
z
" id="DejaVuSans-Oblique-3c3" transform="scale(0.015625)"/>
       <path d="M 616 4666 
L 1228 4666 
L 1453 697 
L 3213 4666 
L 3916 4666 
L 4147 697 
L 5888 4666 
L 6528 4666 
L 4453 0 
L 3659 0 
L 3444 3891 
L 1697 0 
L 903 0 
L 616 4666 
z
" id="DejaVuSans-Oblique-57" transform="scale(0.015625)"/>
       <path id="DejaVuSans-20" transform="scale(0.015625)"/>
       <path d="M 1984 4856 
Q 1566 4138 1362 3434 
Q 1159 2731 1159 2009 
Q 1159 1288 1364 580 
Q 1569 -128 1984 -844 
L 1484 -844 
Q 1016 -109 783 600 
Q 550 1309 550 2009 
Q 550 2706 781 3412 
Q 1013 4119 1484 4856 
L 1984 4856 
z
" id="DejaVuSans-28" transform="scale(0.015625)"/>
       <path d="M 1831 0 
L 50 4666 
L 709 4666 
L 2188 738 
L 3669 4666 
L 4325 4666 
L 2547 0 
L 1831 0 
z
" id="DejaVuSans-56" transform="scale(0.015625)"/>
       <path d="M 684 2619 
L 1344 2619 
L 1344 1825 
L 684 1825 
L 684 2619 
z
" id="DejaVuSans-b7" transform="scale(0.015625)"/>
       <path d="M 2834 3397 
L 2834 2853 
Q 2591 2978 2328 3040 
Q 2066 3103 1784 3103 
Q 1356 3103 1142 2972 
Q 928 2841 928 2578 
Q 928 2378 1081 2264 
Q 1234 2150 1697 2047 
L 1894 2003 
Q 2506 1872 2764 1633 
Q 3022 1394 3022 966 
Q 3022 478 2636 193 
Q 2250 -91 1575 -91 
Q 1294 -91 989 -36 
Q 684 19 347 128 
L 347 722 
Q 666 556 975 473 
Q 1284 391 1588 391 
Q 1994 391 2212 530 
Q 2431 669 2431 922 
Q 2431 1156 2273 1281 
Q 2116 1406 1581 1522 
L 1381 1569 
Q 847 1681 609 1914 
Q 372 2147 372 2553 
Q 372 3047 722 3315 
Q 1072 3584 1716 3584 
Q 2034 3584 2315 3537 
Q 2597 3491 2834 3397 
z
" id="DejaVuSans-73" transform="scale(0.015625)"/>
       <path d="M 678 2272 
L 4684 2272 
L 4684 1741 
L 678 1741 
L 678 2272 
z
" id="DejaVuSans-2212" transform="scale(0.015625)"/>
       <path d="M 1625 4666 
L 2156 4666 
L 531 -594 
L 0 -594 
L 1625 4666 
z
" id="DejaVuSans-2f" transform="scale(0.015625)"/>
       <path d="M 1228 531 
L 3431 531 
L 3431 0 
L 469 0 
L 469 531 
Q 828 903 1448 1529 
Q 2069 2156 2228 2338 
Q 2531 2678 2651 2914 
Q 2772 3150 2772 3378 
Q 2772 3750 2511 3984 
Q 2250 4219 1831 4219 
Q 1534 4219 1204 4116 
Q 875 4013 500 3803 
L 500 4441 
Q 881 4594 1212 4672 
Q 1544 4750 1819 4750 
Q 2544 4750 2975 4387 
Q 3406 4025 3406 3419 
Q 3406 3131 3298 2873 
Q 3191 2616 2906 2266 
Q 2828 2175 2409 1742 
Q 1991 1309 1228 531 
z
" id="DejaVuSans-32" transform="scale(0.015625)"/>
       <path d="M 513 4856 
L 1013 4856 
Q 1481 4119 1714 3412 
Q 1947 2706 1947 2009 
Q 1947 1309 1714 600 
Q 1481 -109 1013 -844 
L 513 -844 
Q 928 -128 1133 580 
Q 1338 1288 1338 2009 
Q 1338 2731 1133 3434 
Q 928 4138 513 4856 
z
" id="DejaVuSans-29" transform="scale(0.015625)"/>
      </defs>
      <use transform="translate(0 0.765625)" xlink:href="#DejaVuSans-Oblique-3c3"/>
      <use transform="translate(63.378906 -15.640625)scale(0.7)" xlink:href="#DejaVuSans-Oblique-57"/>
      <use transform="translate(135.327148 0.765625)" xlink:href="#DejaVuSans-20"/>
      <use transform="translate(167.114258 0.765625)" xlink:href="#DejaVuSans-28"/>
      <use transform="translate(206.12793 0.765625)" xlink:href="#DejaVuSans-56"/>
      <use transform="translate(274.536133 0.765625)" xlink:href="#DejaVuSans-b7"/>
      <use transform="translate(306.323242 0.765625)" xlink:href="#DejaVuSans-73"/>
      <use transform="translate(359.379883 39.046875)scale(0.7)" xlink:href="#DejaVuSans-2212"/>
      <use transform="translate(418.032227 39.046875)scale(0.7)" xlink:href="#DejaVuSans-31"/>
      <use transform="translate(462.568359 39.046875)scale(0.7)" xlink:href="#DejaVuSans-2f"/>
      <use transform="translate(483.614844 39.046875)scale(0.7)" xlink:href="#DejaVuSans-32"/>
      <use transform="translate(530.885352 0.765625)" xlink:href="#DejaVuSans-29"/>
     </g>
    </g>
   </g>
   <g id="matplotlib.axis_2">
    <g id="ytick_1">
     <g id="line2d_5">
      <defs>
       <path d="M 0 0 
L -3.5 0 
" id="m71609f53b5" style="stroke:#000000;stroke-width:0.8;"/>
      </defs>
      <g>
       <use style="stroke:#000000;stroke-width:0.8;" x="79.3" xlink:href="#m71609f53b5" y="212.914597"/>
      </g>
     </g>
     <g id="text_6">
      <!-- 0.0 -->
      <g transform="translate(40.49375 220.513035)scale(0.2 -0.2)">
       <use xlink:href="#DejaVuSans-30"/>
       <use x="63.623047" xlink:href="#DejaVuSans-2e"/>
       <use x="95.410156" xlink:href="#DejaVuSans-30"/>
      </g>
     </g>
    </g>
    <g id="ytick_2">
     <g id="line2d_6">
      <g>
       <use style="stroke:#000000;stroke-width:0.8;" x="79.3" xlink:href="#m71609f53b5" y="148.043065"/>
      </g>
     </g>
     <g id="text_7">
      <!-- 0.5 -->
      <g transform="translate(40.49375 155.641502)scale(0.2 -0.2)">
       <defs>
        <path d="M 691 4666 
L 3169 4666 
L 3169 4134 
L 1269 4134 
L 1269 2991 
Q 1406 3038 1543 3061 
Q 1681 3084 1819 3084 
Q 2600 3084 3056 2656 
Q 3513 2228 3513 1497 
Q 3513 744 3044 326 
Q 2575 -91 1722 -91 
Q 1428 -91 1123 -41 
Q 819 9 494 109 
L 494 744 
Q 775 591 1075 516 
Q 1375 441 1709 441 
Q 2250 441 2565 725 
Q 2881 1009 2881 1497 
Q 2881 1984 2565 2268 
Q 2250 2553 1709 2553 
Q 1456 2553 1204 2497 
Q 953 2441 691 2322 
L 691 4666 
z
" id="DejaVuSans-35" transform="scale(0.015625)"/>
       </defs>
       <use xlink:href="#DejaVuSans-30"/>
       <use x="63.623047" xlink:href="#DejaVuSans-2e"/>
       <use x="95.410156" xlink:href="#DejaVuSans-35"/>
      </g>
     </g>
    </g>
    <g id="ytick_3">
     <g id="line2d_7">
      <g>
       <use style="stroke:#000000;stroke-width:0.8;" x="79.3" xlink:href="#m71609f53b5" y="83.171532"/>
      </g>
     </g>
     <g id="text_8">
      <!-- 1.0 -->
      <g transform="translate(40.49375 90.76997)scale(0.2 -0.2)">
       <use xlink:href="#DejaVuSans-31"/>
       <use x="63.623047" xlink:href="#DejaVuSans-2e"/>
       <use x="95.410156" xlink:href="#DejaVuSans-30"/>
      </g>
     </g>
    </g>
    <g id="ytick_4">
     <g id="line2d_8">
      <g>
       <use style="stroke:#000000;stroke-width:0.8;" x="79.3" xlink:href="#m71609f53b5" y="18.3"/>
      </g>
     </g>
     <g id="text_9">
      <!-- 1.5 -->
      <g transform="translate(40.49375 25.898437)scale(0.2 -0.2)">
       <use xlink:href="#DejaVuSans-31"/>
       <use x="63.623047" xlink:href="#DejaVuSans-2e"/>
       <use x="95.410156" xlink:href="#DejaVuSans-35"/>
      </g>
     </g>
    </g>
    <g id="text_10">
     <!-- $\langle\sigma_{\phi}\rangle_s$ -->
     <g transform="translate(30.29375 143.25)rotate(-90)scale(0.2 -0.2)">
      <defs>
       <path d="M 572 2006 
L 1453 4856 
L 1984 4856 
L 1103 2006 
L 1984 -844 
L 1453 -844 
L 572 2006 
z
" id="DejaVuSans-27e8" transform="scale(0.015625)"/>
       <path d="M 2991 4863 
L 2738 3572 
Q 3363 3572 3684 3094 
Q 4016 2606 3850 1747 
Q 3681 888 3159 400 
Q 2653 -78 2028 -78 
L 1784 -1331 
L 1213 -1331 
L 1456 -78 
Q 834 -78 509 400 
Q 178 888 347 1747 
Q 513 2606 1034 3094 
Q 1544 3572 2166 3572 
L 2419 4863 
L 2991 4863 
z
M 2128 434 
Q 2481 434 2784 756 
Q 3116 1116 3244 1747 
Q 3369 2372 3169 2738 
Q 2991 3059 2638 3059 
L 2128 434 
z
M 1556 434 
L 2066 3059 
Q 1716 3059 1413 2738 
Q 1072 2372 953 1747 
Q 834 1116 1028 756 
Q 1203 434 1556 434 
z
" id="DejaVuSans-Oblique-3d5" transform="scale(0.015625)"/>
       <path d="M 1925 2006 
L 1044 -844 
L 513 -844 
L 1394 2006 
L 513 4856 
L 1044 4856 
L 1925 2006 
z
" id="DejaVuSans-27e9" transform="scale(0.015625)"/>
       <path d="M 3200 3397 
L 3091 2853 
Q 2863 2978 2609 3040 
Q 2356 3103 2088 3103 
Q 1634 3103 1373 2948 
Q 1113 2794 1113 2528 
Q 1113 2219 1719 2053 
Q 1766 2041 1788 2034 
L 1972 1978 
Q 2547 1819 2739 1644 
Q 2931 1469 2931 1166 
Q 2931 609 2489 259 
Q 2047 -91 1331 -91 
Q 1053 -91 747 -37 
Q 441 16 72 128 
L 184 722 
Q 500 559 806 475 
Q 1113 391 1394 391 
Q 1816 391 2080 572 
Q 2344 753 2344 1031 
Q 2344 1331 1650 1516 
L 1591 1531 
L 1394 1581 
Q 956 1697 753 1886 
Q 550 2075 550 2369 
Q 550 2928 970 3256 
Q 1391 3584 2113 3584 
Q 2397 3584 2667 3537 
Q 2938 3491 3200 3397 
z
" id="DejaVuSans-Oblique-73" transform="scale(0.015625)"/>
      </defs>
      <use transform="translate(0 0.125)" xlink:href="#DejaVuSans-27e8"/>
      <use transform="translate(39.013672 0.125)" xlink:href="#DejaVuSans-Oblique-3c3"/>
      <use transform="translate(102.392578 -16.28125)scale(0.7)" xlink:href="#DejaVuSans-Oblique-3d5"/>
      <use transform="translate(151.303711 0.125)" xlink:href="#DejaVuSans-27e9"/>
      <use transform="translate(191.274414 -16.28125)scale(0.7)" xlink:href="#DejaVuSans-Oblique-73"/>
     </g>
    </g>
   </g>
   <g id="line2d_9">
    <path clip-path="url(#p653749ff4c)" d="M 94.51844 212.914597 
L 100.730048 209.823182 
L 106.941656 206.498143 
L 113.153265 203.0259 
L 119.364873 201.006188 
L 125.576481 198.840159 
L 131.788089 196.984592 
L 137.999697 195.850747 
L 144.211306 194.447699 
L 150.422914 192.815474 
L 156.634522 191.071125 
L 162.84613 189.136248 
L 169.057738 187.255411 
L 175.269347 185.744018 
L 181.480955 183.992665 
L 187.692563 182.363574 
L 193.904171 181.418039 
L 200.115779 179.670362 
L 206.327388 178.163457 
L 212.538996 177.010158 
L 218.750604 175.792467 
L 224.962212 175.032189 
L 231.17382 173.941277 
L 237.385429 173.029295 
L 243.597037 172.246415 
L 249.808645 171.831059 
L 256.020253 171.207241 
L 262.231861 170.007162 
L 268.44347 168.988059 
L 274.655078 168.42774 
L 280.866686 167.138207 
L 287.078294 166.33879 
L 293.289902 166.335741 
L 299.501511 165.169026 
L 305.713119 165.415612 
L 311.924727 164.677828 
L 318.136335 164.130824 
L 324.347943 163.72814 
L 330.559552 163.108176 
L 336.77116 162.921695 
L 342.982768 163.316605 
L 349.194376 163.200757 
L 355.405984 162.9915 
L 361.617593 163.39099 
L 367.829201 162.886523 
L 374.040809 163.096539 
L 380.252417 163.119952 
L 386.464025 163.208868 
L 392.675634 162.953877 
L 398.887242 162.118084 
" style="fill:none;stroke:#c7e9c0;stroke-linecap:square;stroke-width:3;"/>
   </g>
   <g id="line2d_10">
    <path clip-path="url(#p653749ff4c)" d="M 94.51844 212.580387 
L 100.730048 209.426945 
L 106.941656 205.968984 
L 113.153265 202.531367 
L 119.364873 199.513151 
L 125.576481 195.945219 
L 131.788089 192.311954 
L 137.999697 188.788278 
L 144.211306 185.884566 
L 150.422914 182.558175 
L 156.634522 179.629732 
L 162.84613 176.692821 
L 169.057738 173.592859 
L 175.269347 170.509509 
L 181.480955 168.530779 
L 187.692563 165.936083 
L 193.904171 164.086818 
L 200.115779 162.140354 
L 206.327388 159.854074 
L 212.538996 158.226042 
L 218.750604 155.957302 
L 224.962212 154.21109 
L 231.17382 152.328295 
L 237.385429 149.405131 
L 243.597037 146.754438 
L 249.808645 143.46358 
L 256.020253 141.783563 
L 262.231861 140.567687 
L 268.44347 138.487784 
L 274.655078 136.679457 
L 280.866686 134.507153 
L 287.078294 132.953604 
L 293.289902 131.583409 
L 299.501511 129.94346 
L 305.713119 129.062308 
L 311.924727 127.406153 
L 318.136335 126.701786 
L 324.347943 124.702198 
L 330.559552 124.372815 
L 336.77116 123.126186 
L 342.982768 121.432065 
L 349.194376 119.885243 
L 355.405984 118.800359 
L 361.617593 117.96546 
L 367.829201 116.985906 
L 374.040809 116.126027 
L 380.252417 115.644492 
L 386.464025 114.154588 
L 392.675634 112.715303 
L 398.887242 112.252938 
" style="fill:none;stroke:#73c476;stroke-linecap:square;stroke-width:3;"/>
   </g>
   <g id="line2d_11">
    <path clip-path="url(#p653749ff4c)" d="M 94.51844 204.011556 
L 100.730048 199.483436 
L 106.941656 194.358998 
L 113.153265 188.365951 
L 119.364873 182.571135 
L 125.576481 178.490129 
L 131.788089 174.529011 
L 137.999697 170.506831 
L 144.211306 165.855206 
L 150.422914 161.291598 
L 156.634522 157.051456 
L 162.84613 154.407616 
L 169.057738 147.67384 
L 175.269347 145.266439 
L 181.480955 140.459412 
L 187.692563 137.294167 
L 193.904171 133.575631 
L 200.115779 131.266396 
L 206.327388 126.242162 
L 212.538996 122.332889 
L 218.750604 118.724104 
L 224.962212 115.117439 
L 231.17382 111.986848 
L 237.385429 109.368965 
L 243.597037 105.123757 
L 249.808645 100.677513 
L 256.020253 98.075409 
L 262.231861 94.605855 
L 268.44347 93.35321 
L 274.655078 91.208579 
L 280.866686 87.656201 
L 287.078294 85.295393 
L 293.289902 82.980246 
L 299.501511 80.267356 
L 305.713119 77.89096 
L 311.924727 76.210965 
L 318.136335 71.455822 
L 324.347943 69.959309 
L 330.559552 67.058611 
L 336.77116 65.968084 
L 342.982768 63.293588 
L 349.194376 63.10239 
L 355.405984 60.964963 
L 361.617593 61.070553 
L 367.829201 61.614681 
L 374.040809 58.175284 
L 380.252417 54.539895 
L 386.464025 53.619302 
L 392.675634 53.405118 
L 398.887242 52.359876 
" style="fill:none;stroke:#228a44;stroke-linecap:square;stroke-width:3;"/>
   </g>
   <g id="line2d_12">
    <path clip-path="url(#p653749ff4c)" d="M 94.51844 212.545581 
L 100.730048 205.069377 
L 106.941656 194.718726 
L 113.153265 181.543828 
L 119.364873 170.202492 
L 125.576481 158.734829 
L 131.788089 149.133072 
L 137.999697 142.994016 
L 144.211306 134.816024 
L 150.422914 126.546097 
L 156.634522 119.879918 
L 162.84613 112.226714 
L 169.057738 109.28735 
L 175.269347 105.158912 
L 181.480955 101.926487 
L 187.692563 96.218544 
L 193.904171 92.485483 
L 200.115779 85.460818 
L 206.327388 81.649338 
L 212.538996 78.828223 
L 218.750604 74.091061 
L 224.962212 70.228944 
L 231.17382 68.838836 
L 237.385429 66.57655 
L 243.597037 62.635528 
L 249.808645 59.094884 
L 256.020253 58.556737 
L 262.231861 57.097358 
L 268.44347 54.601736 
L 274.655078 51.729415 
L 280.866686 49.651012 
L 287.078294 48.601332 
L 293.289902 46.064772 
L 299.501511 46.405254 
L 305.713119 46.409293 
L 311.924727 44.889624 
L 318.136335 43.869111 
L 324.347943 40.504387 
L 330.559552 38.690781 
L 336.77116 38.043925 
L 342.982768 36.200834 
L 349.194376 36.559837 
L 355.405984 36.067566 
L 361.617593 35.466329 
L 367.829201 33.315698 
L 374.040809 31.965693 
L 380.252417 31.48644 
L 386.464025 31.249303 
L 392.675634 31.206543 
L 398.887242 31.761794 
" style="fill:none;stroke:#00441b;stroke-linecap:square;stroke-width:3;"/>
   </g>
   <g id="patch_3">
    <path d="M 79.3 222 
L 79.3 18.3 
" style="fill:none;stroke:#000000;stroke-linecap:square;stroke-linejoin:miter;stroke-width:0.8;"/>
   </g>
   <g id="patch_4">
    <path d="M 79.3 222 
L 414.105682 222 
" style="fill:none;stroke:#000000;stroke-linecap:square;stroke-linejoin:miter;stroke-width:0.8;"/>
   </g>
   <g id="legend_1">
    <g id="line2d_13">
     <path d="M 90.1 34.018125 
L 114.1 34.018125 
" style="fill:none;stroke:#c7e9c0;stroke-linecap:square;stroke-width:3;"/>
    </g>
    <g id="line2d_14"/>
    <g id="text_11">
     <!-- f = 1 Hz -->
     <g transform="translate(123.7 38.218125)scale(0.12 -0.12)">
      <defs>
       <path d="M 2375 4863 
L 2375 4384 
L 1825 4384 
Q 1516 4384 1395 4259 
Q 1275 4134 1275 3809 
L 1275 3500 
L 2222 3500 
L 2222 3053 
L 1275 3053 
L 1275 0 
L 697 0 
L 697 3053 
L 147 3053 
L 147 3500 
L 697 3500 
L 697 3744 
Q 697 4328 969 4595 
Q 1241 4863 1831 4863 
L 2375 4863 
z
" id="DejaVuSans-66" transform="scale(0.015625)"/>
       <path d="M 678 2906 
L 4684 2906 
L 4684 2381 
L 678 2381 
L 678 2906 
z
M 678 1631 
L 4684 1631 
L 4684 1100 
L 678 1100 
L 678 1631 
z
" id="DejaVuSans-3d" transform="scale(0.015625)"/>
       <path d="M 628 4666 
L 1259 4666 
L 1259 2753 
L 3553 2753 
L 3553 4666 
L 4184 4666 
L 4184 0 
L 3553 0 
L 3553 2222 
L 1259 2222 
L 1259 0 
L 628 0 
L 628 4666 
z
" id="DejaVuSans-48" transform="scale(0.015625)"/>
       <path d="M 353 3500 
L 3084 3500 
L 3084 2975 
L 922 459 
L 3084 459 
L 3084 0 
L 275 0 
L 275 525 
L 2438 3041 
L 353 3041 
L 353 3500 
z
" id="DejaVuSans-7a" transform="scale(0.015625)"/>
      </defs>
      <use xlink:href="#DejaVuSans-66"/>
      <use x="35.205078" xlink:href="#DejaVuSans-20"/>
      <use x="66.992188" xlink:href="#DejaVuSans-3d"/>
      <use x="150.78125" xlink:href="#DejaVuSans-20"/>
      <use x="182.568359" xlink:href="#DejaVuSans-31"/>
      <use x="246.191406" xlink:href="#DejaVuSans-20"/>
      <use x="277.978516" xlink:href="#DejaVuSans-48"/>
      <use x="353.173828" xlink:href="#DejaVuSans-7a"/>
     </g>
    </g>
    <g id="line2d_15">
     <path d="M 90.1 51.631875 
L 114.1 51.631875 
" style="fill:none;stroke:#73c476;stroke-linecap:square;stroke-width:3;"/>
    </g>
    <g id="line2d_16"/>
    <g id="text_12">
     <!-- f = 5 Hz -->
     <g transform="translate(123.7 55.831875)scale(0.12 -0.12)">
      <use xlink:href="#DejaVuSans-66"/>
      <use x="35.205078" xlink:href="#DejaVuSans-20"/>
      <use x="66.992188" xlink:href="#DejaVuSans-3d"/>
      <use x="150.78125" xlink:href="#DejaVuSans-20"/>
      <use x="182.568359" xlink:href="#DejaVuSans-35"/>
      <use x="246.191406" xlink:href="#DejaVuSans-20"/>
      <use x="277.978516" xlink:href="#DejaVuSans-48"/>
      <use x="353.173828" xlink:href="#DejaVuSans-7a"/>
     </g>
    </g>
    <g id="line2d_17">
     <path d="M 90.1 69.245625 
L 114.1 69.245625 
" style="fill:none;stroke:#228a44;stroke-linecap:square;stroke-width:3;"/>
    </g>
    <g id="line2d_18"/>
    <g id="text_13">
     <!-- f = 15 Hz -->
     <g transform="translate(123.7 73.445625)scale(0.12 -0.12)">
      <use xlink:href="#DejaVuSans-66"/>
      <use x="35.205078" xlink:href="#DejaVuSans-20"/>
      <use x="66.992188" xlink:href="#DejaVuSans-3d"/>
      <use x="150.78125" xlink:href="#DejaVuSans-20"/>
      <use x="182.568359" xlink:href="#DejaVuSans-31"/>
      <use x="246.191406" xlink:href="#DejaVuSans-35"/>
      <use x="309.814453" xlink:href="#DejaVuSans-20"/>
      <use x="341.601562" xlink:href="#DejaVuSans-48"/>
      <use x="416.796875" xlink:href="#DejaVuSans-7a"/>
     </g>
    </g>
    <g id="line2d_19">
     <path d="M 90.1 86.859375 
L 114.1 86.859375 
" style="fill:none;stroke:#00441b;stroke-linecap:square;stroke-width:3;"/>
    </g>
    <g id="line2d_20"/>
    <g id="text_14">
     <!-- f = 30 Hz -->
     <g transform="translate(123.7 91.059375)scale(0.12 -0.12)">
      <use xlink:href="#DejaVuSans-66"/>
      <use x="35.205078" xlink:href="#DejaVuSans-20"/>
      <use x="66.992188" xlink:href="#DejaVuSans-3d"/>
      <use x="150.78125" xlink:href="#DejaVuSans-20"/>
      <use x="182.568359" xlink:href="#DejaVuSans-33"/>
      <use x="246.191406" xlink:href="#DejaVuSans-30"/>
      <use x="309.814453" xlink:href="#DejaVuSans-20"/>
      <use x="341.601562" xlink:href="#DejaVuSans-48"/>
      <use x="416.796875" xlink:href="#DejaVuSans-7a"/>
     </g>
    </g>
   </g>
  </g>
 </g>
 <defs>
  <clipPath id="p653749ff4c">
   <rect height="203.7" width="334.805682" x="79.3" y="18.3"/>
  </clipPath>
 </defs>
</svg>
