<?xml version="1.0" encoding="utf-8" standalone="no"?>
<!DOCTYPE svg PUBLIC "-//W3C//DTD SVG 1.1//EN"
  "http://www.w3.org/Graphics/SVG/1.1/DTD/svg11.dtd">
<svg height="288pt" version="1.1" viewBox="0 0 432 288" width="432pt" xmlns="http://www.w3.org/2000/svg" xmlns:xlink="http://www.w3.org/1999/xlink">
 <metadata>
  <rdf:RDF xmlns:cc="http://creativecommons.org/ns#" xmlns:dc="http://purl.org/dc/elements/1.1/" xmlns:rdf="http://www.w3.org/1999/02/22-rdf-syntax-ns#">
   <cc:Work>
    <dc:type rdf:resource="http://purl.org/dc/dcmitype/StillImage"/>
    <dc:date>2022-09-22T12:22:14.986603</dc:date>
    <dc:format>image/svg+xml</dc:format>
    <dc:creator>
     <cc:Agent>
      <dc:title>Matplotlib v3.4.1, https://matplotlib.org/</dc:title>
     </cc:Agent>
    </dc:creator>
   </cc:Work>
  </rdf:RDF>
 </metadata>
 <defs>
  <style type="text/css">*{stroke-linecap:butt;stroke-linejoin:round;}</style>
 </defs>
 <g id="figure_1">
  <g id="patch_1">
   <path d="M 0 288 
L 432 288 
L 432 0 
L 0 0 
z
" style="fill:none;"/>
  </g>
  <g id="axes_1">
   <g id="patch_2">
    <path d="M 70.425 226.2 
L 421.2 226.2 
L 421.2 18.3 
L 70.425 18.3 
z
" style="fill:#ffffff;"/>
   </g>
   <g id="matplotlib.axis_1">
    <g id="xtick_1">
     <g id="line2d_1">
      <defs>
       <path d="M 0 0 
L 0 3.5 
" id="m0ad6b8aec5" style="stroke:#000000;stroke-width:0.8;"/>
      </defs>
      <g>
       <use style="stroke:#000000;stroke-width:0.8;" x="79.861433" xlink:href="#m0ad6b8aec5" y="226.2"/>
      </g>
     </g>
     <g id="text_1">
      <!-- 0 -->
      <g transform="translate(73.498933 248.396875)scale(0.2 -0.2)">
       <defs>
        <path d="M 2034 4250 
Q 1547 4250 1301 3770 
Q 1056 3291 1056 2328 
Q 1056 1369 1301 889 
Q 1547 409 2034 409 
Q 2525 409 2770 889 
Q 3016 1369 3016 2328 
Q 3016 3291 2770 3770 
Q 2525 4250 2034 4250 
z
M 2034 4750 
Q 2819 4750 3233 4129 
Q 3647 3509 3647 2328 
Q 3647 1150 3233 529 
Q 2819 -91 2034 -91 
Q 1250 -91 836 529 
Q 422 1150 422 2328 
Q 422 3509 836 4129 
Q 1250 4750 2034 4750 
z
" id="DejaVuSans-30" transform="scale(0.015625)"/>
       </defs>
       <use xlink:href="#DejaVuSans-30"/>
      </g>
     </g>
    </g>
    <g id="xtick_2">
     <g id="line2d_2">
      <g>
       <use style="stroke:#000000;stroke-width:0.8;" x="144.940283" xlink:href="#m0ad6b8aec5" y="226.2"/>
      </g>
     </g>
     <g id="text_2">
      <!-- 10 -->
      <g transform="translate(132.215283 248.396875)scale(0.2 -0.2)">
       <defs>
        <path d="M 794 531 
L 1825 531 
L 1825 4091 
L 703 3866 
L 703 4441 
L 1819 4666 
L 2450 4666 
L 2450 531 
L 3481 531 
L 3481 0 
L 794 0 
L 794 531 
z
" id="DejaVuSans-31" transform="scale(0.015625)"/>
       </defs>
       <use xlink:href="#DejaVuSans-31"/>
       <use x="63.623047" xlink:href="#DejaVuSans-30"/>
      </g>
     </g>
    </g>
    <g id="xtick_3">
     <g id="line2d_3">
      <g>
       <use style="stroke:#000000;stroke-width:0.8;" x="210.019133" xlink:href="#m0ad6b8aec5" y="226.2"/>
      </g>
     </g>
     <g id="text_3">
      <!-- 20 -->
      <g transform="translate(197.294133 248.396875)scale(0.2 -0.2)">
       <defs>
        <path d="M 1228 531 
L 3431 531 
L 3431 0 
L 469 0 
L 469 531 
Q 828 903 1448 1529 
Q 2069 2156 2228 2338 
Q 2531 2678 2651 2914 
Q 2772 3150 2772 3378 
Q 2772 3750 2511 3984 
Q 2250 4219 1831 4219 
Q 1534 4219 1204 4116 
Q 875 4013 500 3803 
L 500 4441 
Q 881 4594 1212 4672 
Q 1544 4750 1819 4750 
Q 2544 4750 2975 4387 
Q 3406 4025 3406 3419 
Q 3406 3131 3298 2873 
Q 3191 2616 2906 2266 
Q 2828 2175 2409 1742 
Q 1991 1309 1228 531 
z
" id="DejaVuSans-32" transform="scale(0.015625)"/>
       </defs>
       <use xlink:href="#DejaVuSans-32"/>
       <use x="63.623047" xlink:href="#DejaVuSans-30"/>
      </g>
     </g>
    </g>
    <g id="xtick_4">
     <g id="line2d_4">
      <g>
       <use style="stroke:#000000;stroke-width:0.8;" x="275.097982" xlink:href="#m0ad6b8aec5" y="226.2"/>
      </g>
     </g>
     <g id="text_4">
      <!-- 30 -->
      <g transform="translate(262.372982 248.396875)scale(0.2 -0.2)">
       <defs>
        <path d="M 2597 2516 
Q 3050 2419 3304 2112 
Q 3559 1806 3559 1356 
Q 3559 666 3084 287 
Q 2609 -91 1734 -91 
Q 1441 -91 1130 -33 
Q 819 25 488 141 
L 488 750 
Q 750 597 1062 519 
Q 1375 441 1716 441 
Q 2309 441 2620 675 
Q 2931 909 2931 1356 
Q 2931 1769 2642 2001 
Q 2353 2234 1838 2234 
L 1294 2234 
L 1294 2753 
L 1863 2753 
Q 2328 2753 2575 2939 
Q 2822 3125 2822 3475 
Q 2822 3834 2567 4026 
Q 2313 4219 1838 4219 
Q 1578 4219 1281 4162 
Q 984 4106 628 3988 
L 628 4550 
Q 988 4650 1302 4700 
Q 1616 4750 1894 4750 
Q 2613 4750 3031 4423 
Q 3450 4097 3450 3541 
Q 3450 3153 3228 2886 
Q 3006 2619 2597 2516 
z
" id="DejaVuSans-33" transform="scale(0.015625)"/>
       </defs>
       <use xlink:href="#DejaVuSans-33"/>
       <use x="63.623047" xlink:href="#DejaVuSans-30"/>
      </g>
     </g>
    </g>
    <g id="xtick_5">
     <g id="line2d_5">
      <g>
       <use style="stroke:#000000;stroke-width:0.8;" x="340.176832" xlink:href="#m0ad6b8aec5" y="226.2"/>
      </g>
     </g>
     <g id="text_5">
      <!-- 40 -->
      <g transform="translate(327.451832 248.396875)scale(0.2 -0.2)">
       <defs>
        <path d="M 2419 4116 
L 825 1625 
L 2419 1625 
L 2419 4116 
z
M 2253 4666 
L 3047 4666 
L 3047 1625 
L 3713 1625 
L 3713 1100 
L 3047 1100 
L 3047 0 
L 2419 0 
L 2419 1100 
L 313 1100 
L 313 1709 
L 2253 4666 
z
" id="DejaVuSans-34" transform="scale(0.015625)"/>
       </defs>
       <use xlink:href="#DejaVuSans-34"/>
       <use x="63.623047" xlink:href="#DejaVuSans-30"/>
      </g>
     </g>
    </g>
    <g id="xtick_6">
     <g id="line2d_6">
      <g>
       <use style="stroke:#000000;stroke-width:0.8;" x="405.255682" xlink:href="#m0ad6b8aec5" y="226.2"/>
      </g>
     </g>
     <g id="text_6">
      <!-- 50 -->
      <g transform="translate(392.530682 248.396875)scale(0.2 -0.2)">
       <defs>
        <path d="M 691 4666 
L 3169 4666 
L 3169 4134 
L 1269 4134 
L 1269 2991 
Q 1406 3038 1543 3061 
Q 1681 3084 1819 3084 
Q 2600 3084 3056 2656 
Q 3513 2228 3513 1497 
Q 3513 744 3044 326 
Q 2575 -91 1722 -91 
Q 1428 -91 1123 -41 
Q 819 9 494 109 
L 494 744 
Q 775 591 1075 516 
Q 1375 441 1709 441 
Q 2250 441 2565 725 
Q 2881 1009 2881 1497 
Q 2881 1984 2565 2268 
Q 2250 2553 1709 2553 
Q 1456 2553 1204 2497 
Q 953 2441 691 2322 
L 691 4666 
z
" id="DejaVuSans-35" transform="scale(0.015625)"/>
       </defs>
       <use xlink:href="#DejaVuSans-35"/>
       <use x="63.623047" xlink:href="#DejaVuSans-30"/>
      </g>
     </g>
    </g>
    <g id="text_7">
     <!-- $f$ (Hz) -->
     <g transform="translate(218.5125 271.753125)scale(0.2 -0.2)">
      <defs>
       <path d="M 3059 4863 
L 2969 4384 
L 2419 4384 
Q 2106 4384 1964 4261 
Q 1822 4138 1753 3809 
L 1691 3500 
L 2638 3500 
L 2553 3053 
L 1606 3053 
L 1013 0 
L 434 0 
L 1031 3053 
L 481 3053 
L 563 3500 
L 1113 3500 
L 1159 3744 
Q 1278 4363 1576 4613 
Q 1875 4863 2516 4863 
L 3059 4863 
z
" id="DejaVuSans-Oblique-66" transform="scale(0.015625)"/>
       <path id="DejaVuSans-20" transform="scale(0.015625)"/>
       <path d="M 1984 4856 
Q 1566 4138 1362 3434 
Q 1159 2731 1159 2009 
Q 1159 1288 1364 580 
Q 1569 -128 1984 -844 
L 1484 -844 
Q 1016 -109 783 600 
Q 550 1309 550 2009 
Q 550 2706 781 3412 
Q 1013 4119 1484 4856 
L 1984 4856 
z
" id="DejaVuSans-28" transform="scale(0.015625)"/>
       <path d="M 628 4666 
L 1259 4666 
L 1259 2753 
L 3553 2753 
L 3553 4666 
L 4184 4666 
L 4184 0 
L 3553 0 
L 3553 2222 
L 1259 2222 
L 1259 0 
L 628 0 
L 628 4666 
z
" id="DejaVuSans-48" transform="scale(0.015625)"/>
       <path d="M 353 3500 
L 3084 3500 
L 3084 2975 
L 922 459 
L 3084 459 
L 3084 0 
L 275 0 
L 275 525 
L 2438 3041 
L 353 3041 
L 353 3500 
z
" id="DejaVuSans-7a" transform="scale(0.015625)"/>
       <path d="M 513 4856 
L 1013 4856 
Q 1481 4119 1714 3412 
Q 1947 2706 1947 2009 
Q 1947 1309 1714 600 
Q 1481 -109 1013 -844 
L 513 -844 
Q 928 -128 1133 580 
Q 1338 1288 1338 2009 
Q 1338 2731 1133 3434 
Q 928 4138 513 4856 
z
" id="DejaVuSans-29" transform="scale(0.015625)"/>
      </defs>
      <use transform="translate(0 0.015625)" xlink:href="#DejaVuSans-Oblique-66"/>
      <use transform="translate(35.205078 0.015625)" xlink:href="#DejaVuSans-20"/>
      <use transform="translate(66.992188 0.015625)" xlink:href="#DejaVuSans-28"/>
      <use transform="translate(106.005859 0.015625)" xlink:href="#DejaVuSans-48"/>
      <use transform="translate(181.201172 0.015625)" xlink:href="#DejaVuSans-7a"/>
      <use transform="translate(233.691406 0.015625)" xlink:href="#DejaVuSans-29"/>
     </g>
    </g>
   </g>
   <g id="matplotlib.axis_2">
    <g id="ytick_1">
     <g id="line2d_7">
      <defs>
       <path d="M 0 0 
L -3.5 0 
" id="ma3b7a30ecf" style="stroke:#000000;stroke-width:0.8;"/>
      </defs>
      <g>
       <use style="stroke:#000000;stroke-width:0.8;" x="70.425" xlink:href="#ma3b7a30ecf" y="217.783779"/>
      </g>
     </g>
     <g id="text_8">
      <!-- 0 -->
      <g transform="translate(50.7 225.382217)scale(0.2 -0.2)">
       <use xlink:href="#DejaVuSans-30"/>
      </g>
     </g>
    </g>
    <g id="ytick_2">
     <g id="line2d_8">
      <g>
       <use style="stroke:#000000;stroke-width:0.8;" x="70.425" xlink:href="#ma3b7a30ecf" y="177.887023"/>
      </g>
     </g>
     <g id="text_9">
      <!-- 2 -->
      <g transform="translate(50.7 185.485461)scale(0.2 -0.2)">
       <use xlink:href="#DejaVuSans-32"/>
      </g>
     </g>
    </g>
    <g id="ytick_3">
     <g id="line2d_9">
      <g>
       <use style="stroke:#000000;stroke-width:0.8;" x="70.425" xlink:href="#ma3b7a30ecf" y="137.990268"/>
      </g>
     </g>
     <g id="text_10">
      <!-- 4 -->
      <g transform="translate(50.7 145.588705)scale(0.2 -0.2)">
       <use xlink:href="#DejaVuSans-34"/>
      </g>
     </g>
    </g>
    <g id="ytick_4">
     <g id="line2d_10">
      <g>
       <use style="stroke:#000000;stroke-width:0.8;" x="70.425" xlink:href="#ma3b7a30ecf" y="98.093512"/>
      </g>
     </g>
     <g id="text_11">
      <!-- 6 -->
      <g transform="translate(50.7 105.691949)scale(0.2 -0.2)">
       <defs>
        <path d="M 2113 2584 
Q 1688 2584 1439 2293 
Q 1191 2003 1191 1497 
Q 1191 994 1439 701 
Q 1688 409 2113 409 
Q 2538 409 2786 701 
Q 3034 994 3034 1497 
Q 3034 2003 2786 2293 
Q 2538 2584 2113 2584 
z
M 3366 4563 
L 3366 3988 
Q 3128 4100 2886 4159 
Q 2644 4219 2406 4219 
Q 1781 4219 1451 3797 
Q 1122 3375 1075 2522 
Q 1259 2794 1537 2939 
Q 1816 3084 2150 3084 
Q 2853 3084 3261 2657 
Q 3669 2231 3669 1497 
Q 3669 778 3244 343 
Q 2819 -91 2113 -91 
Q 1303 -91 875 529 
Q 447 1150 447 2328 
Q 447 3434 972 4092 
Q 1497 4750 2381 4750 
Q 2619 4750 2861 4703 
Q 3103 4656 3366 4563 
z
" id="DejaVuSans-36" transform="scale(0.015625)"/>
       </defs>
       <use xlink:href="#DejaVuSans-36"/>
      </g>
     </g>
    </g>
    <g id="ytick_5">
     <g id="line2d_11">
      <g>
       <use style="stroke:#000000;stroke-width:0.8;" x="70.425" xlink:href="#ma3b7a30ecf" y="58.196756"/>
      </g>
     </g>
     <g id="text_12">
      <!-- 8 -->
      <g transform="translate(50.7 65.795193)scale(0.2 -0.2)">
       <defs>
        <path d="M 2034 2216 
Q 1584 2216 1326 1975 
Q 1069 1734 1069 1313 
Q 1069 891 1326 650 
Q 1584 409 2034 409 
Q 2484 409 2743 651 
Q 3003 894 3003 1313 
Q 3003 1734 2745 1975 
Q 2488 2216 2034 2216 
z
M 1403 2484 
Q 997 2584 770 2862 
Q 544 3141 544 3541 
Q 544 4100 942 4425 
Q 1341 4750 2034 4750 
Q 2731 4750 3128 4425 
Q 3525 4100 3525 3541 
Q 3525 3141 3298 2862 
Q 3072 2584 2669 2484 
Q 3125 2378 3379 2068 
Q 3634 1759 3634 1313 
Q 3634 634 3220 271 
Q 2806 -91 2034 -91 
Q 1263 -91 848 271 
Q 434 634 434 1313 
Q 434 1759 690 2068 
Q 947 2378 1403 2484 
z
M 1172 3481 
Q 1172 3119 1398 2916 
Q 1625 2713 2034 2713 
Q 2441 2713 2670 2916 
Q 2900 3119 2900 3481 
Q 2900 3844 2670 4047 
Q 2441 4250 2034 4250 
Q 1625 4250 1398 4047 
Q 1172 3844 1172 3481 
z
" id="DejaVuSans-38" transform="scale(0.015625)"/>
       </defs>
       <use xlink:href="#DejaVuSans-38"/>
      </g>
     </g>
    </g>
    <g id="ytick_6">
     <g id="line2d_12">
      <g>
       <use style="stroke:#000000;stroke-width:0.8;" x="70.425" xlink:href="#ma3b7a30ecf" y="18.3"/>
      </g>
     </g>
     <g id="text_13">
      <!-- 10 -->
      <g transform="translate(37.975 25.898437)scale(0.2 -0.2)">
       <use xlink:href="#DejaVuSans-31"/>
       <use x="63.623047" xlink:href="#DejaVuSans-30"/>
      </g>
     </g>
    </g>
    <g id="text_14">
     <!-- $\Delta$ spikes/cycle -->
     <g transform="translate(29.775 193.05)rotate(-90)scale(0.2 -0.2)">
      <defs>
       <path d="M 2188 4044 
L 906 525 
L 3472 525 
L 2188 4044 
z
M 50 0 
L 1831 4666 
L 2547 4666 
L 4325 0 
L 50 0 
z
" id="DejaVuSans-394" transform="scale(0.015625)"/>
       <path d="M 2834 3397 
L 2834 2853 
Q 2591 2978 2328 3040 
Q 2066 3103 1784 3103 
Q 1356 3103 1142 2972 
Q 928 2841 928 2578 
Q 928 2378 1081 2264 
Q 1234 2150 1697 2047 
L 1894 2003 
Q 2506 1872 2764 1633 
Q 3022 1394 3022 966 
Q 3022 478 2636 193 
Q 2250 -91 1575 -91 
Q 1294 -91 989 -36 
Q 684 19 347 128 
L 347 722 
Q 666 556 975 473 
Q 1284 391 1588 391 
Q 1994 391 2212 530 
Q 2431 669 2431 922 
Q 2431 1156 2273 1281 
Q 2116 1406 1581 1522 
L 1381 1569 
Q 847 1681 609 1914 
Q 372 2147 372 2553 
Q 372 3047 722 3315 
Q 1072 3584 1716 3584 
Q 2034 3584 2315 3537 
Q 2597 3491 2834 3397 
z
" id="DejaVuSans-73" transform="scale(0.015625)"/>
       <path d="M 1159 525 
L 1159 -1331 
L 581 -1331 
L 581 3500 
L 1159 3500 
L 1159 2969 
Q 1341 3281 1617 3432 
Q 1894 3584 2278 3584 
Q 2916 3584 3314 3078 
Q 3713 2572 3713 1747 
Q 3713 922 3314 415 
Q 2916 -91 2278 -91 
Q 1894 -91 1617 61 
Q 1341 213 1159 525 
z
M 3116 1747 
Q 3116 2381 2855 2742 
Q 2594 3103 2138 3103 
Q 1681 3103 1420 2742 
Q 1159 2381 1159 1747 
Q 1159 1113 1420 752 
Q 1681 391 2138 391 
Q 2594 391 2855 752 
Q 3116 1113 3116 1747 
z
" id="DejaVuSans-70" transform="scale(0.015625)"/>
       <path d="M 603 3500 
L 1178 3500 
L 1178 0 
L 603 0 
L 603 3500 
z
M 603 4863 
L 1178 4863 
L 1178 4134 
L 603 4134 
L 603 4863 
z
" id="DejaVuSans-69" transform="scale(0.015625)"/>
       <path d="M 581 4863 
L 1159 4863 
L 1159 1991 
L 2875 3500 
L 3609 3500 
L 1753 1863 
L 3688 0 
L 2938 0 
L 1159 1709 
L 1159 0 
L 581 0 
L 581 4863 
z
" id="DejaVuSans-6b" transform="scale(0.015625)"/>
       <path d="M 3597 1894 
L 3597 1613 
L 953 1613 
Q 991 1019 1311 708 
Q 1631 397 2203 397 
Q 2534 397 2845 478 
Q 3156 559 3463 722 
L 3463 178 
Q 3153 47 2828 -22 
Q 2503 -91 2169 -91 
Q 1331 -91 842 396 
Q 353 884 353 1716 
Q 353 2575 817 3079 
Q 1281 3584 2069 3584 
Q 2775 3584 3186 3129 
Q 3597 2675 3597 1894 
z
M 3022 2063 
Q 3016 2534 2758 2815 
Q 2500 3097 2075 3097 
Q 1594 3097 1305 2825 
Q 1016 2553 972 2059 
L 3022 2063 
z
" id="DejaVuSans-65" transform="scale(0.015625)"/>
       <path d="M 1625 4666 
L 2156 4666 
L 531 -594 
L 0 -594 
L 1625 4666 
z
" id="DejaVuSans-2f" transform="scale(0.015625)"/>
       <path d="M 3122 3366 
L 3122 2828 
Q 2878 2963 2633 3030 
Q 2388 3097 2138 3097 
Q 1578 3097 1268 2742 
Q 959 2388 959 1747 
Q 959 1106 1268 751 
Q 1578 397 2138 397 
Q 2388 397 2633 464 
Q 2878 531 3122 666 
L 3122 134 
Q 2881 22 2623 -34 
Q 2366 -91 2075 -91 
Q 1284 -91 818 406 
Q 353 903 353 1747 
Q 353 2603 823 3093 
Q 1294 3584 2113 3584 
Q 2378 3584 2631 3529 
Q 2884 3475 3122 3366 
z
" id="DejaVuSans-63" transform="scale(0.015625)"/>
       <path d="M 2059 -325 
Q 1816 -950 1584 -1140 
Q 1353 -1331 966 -1331 
L 506 -1331 
L 506 -850 
L 844 -850 
Q 1081 -850 1212 -737 
Q 1344 -625 1503 -206 
L 1606 56 
L 191 3500 
L 800 3500 
L 1894 763 
L 2988 3500 
L 3597 3500 
L 2059 -325 
z
" id="DejaVuSans-79" transform="scale(0.015625)"/>
       <path d="M 603 4863 
L 1178 4863 
L 1178 0 
L 603 0 
L 603 4863 
z
" id="DejaVuSans-6c" transform="scale(0.015625)"/>
      </defs>
      <use transform="translate(0 0.015625)" xlink:href="#DejaVuSans-394"/>
      <use transform="translate(68.408203 0.015625)" xlink:href="#DejaVuSans-20"/>
      <use transform="translate(100.195312 0.015625)" xlink:href="#DejaVuSans-73"/>
      <use transform="translate(152.294922 0.015625)" xlink:href="#DejaVuSans-70"/>
      <use transform="translate(215.771484 0.015625)" xlink:href="#DejaVuSans-69"/>
      <use transform="translate(243.554688 0.015625)" xlink:href="#DejaVuSans-6b"/>
      <use transform="translate(301.464844 0.015625)" xlink:href="#DejaVuSans-65"/>
      <use transform="translate(362.988281 0.015625)" xlink:href="#DejaVuSans-73"/>
      <use transform="translate(415.087891 0.015625)" xlink:href="#DejaVuSans-2f"/>
      <use transform="translate(448.779297 0.015625)" xlink:href="#DejaVuSans-63"/>
      <use transform="translate(503.759766 0.015625)" xlink:href="#DejaVuSans-79"/>
      <use transform="translate(562.939453 0.015625)" xlink:href="#DejaVuSans-63"/>
      <use transform="translate(617.919922 0.015625)" xlink:href="#DejaVuSans-6c"/>
      <use transform="translate(645.703125 0.015625)" xlink:href="#DejaVuSans-65"/>
     </g>
    </g>
   </g>
   <g id="line2d_13">
    <path clip-path="url(#p6ec7b2fbb1)" d="M 86.369318 206.203746 
L 92.877203 214.173123 
L 99.385088 211.659627 
L 105.892973 215.449819 
L 112.400858 217.584296 
L 118.908743 216.507083 
L 125.416628 215.978451 
L 131.924513 217.255147 
L 138.432398 216.23778 
L 144.940283 216.896077 
L 151.448168 217.604244 
L 157.956053 217.28507 
L 164.463938 216.207857 
L 170.971823 216.876128 
L 177.479708 217.733908 
L 183.987593 217.494528 
L 190.495478 217.484554 
L 197.003363 217.753857 
L 203.511248 216.876128 
L 210.019133 217.494528 
L 216.527018 217.624192 
L 223.034903 217.763831 
L 229.542788 217.733908 
L 236.050673 217.733908 
L 242.558558 217.723934 
L 249.066442 217.733908 
L 255.574327 217.674063 
L 262.082212 217.644141 
L 268.590097 217.474579 
L 275.097982 217.753857 
L 281.605867 217.644141 
L 288.113752 217.584296 
L 294.621637 217.574321 
L 301.129522 217.564347 
L 307.637407 217.564347 
L 314.145292 217.514476 
L 320.653177 217.574321 
L 327.161062 217.733908 
L 333.668947 217.474579 
L 340.176832 217.534425 
L 346.684717 217.534425 
L 353.192602 217.514476 
L 359.700487 217.574321 
L 366.208372 217.434683 
L 372.716257 217.604244 
L 379.224142 217.52445 
L 385.732027 217.554373 
L 392.239912 217.574321 
L 398.747797 217.514476 
L 405.255682 217.59427 
" style="fill:none;stroke:#c6dbef;stroke-linecap:square;stroke-width:3;"/>
   </g>
   <g id="line2d_14">
    <path clip-path="url(#p6ec7b2fbb1)" d="M 86.369318 187.721574 
L 92.877203 205.326017 
L 99.385088 204.976921 
L 105.892973 211.031253 
L 112.400858 216.108116 
L 118.908743 212.816633 
L 125.416628 213.40511 
L 131.924513 216.766412 
L 138.432398 214.442426 
L 144.940283 215.220413 
L 151.448168 216.397367 
L 157.956053 217.265122 
L 164.463938 215.120671 
L 170.971823 215.709148 
L 177.479708 216.73649 
L 183.987593 216.537006 
L 190.495478 217.155405 
L 197.003363 217.055664 
L 203.511248 216.108116 
L 210.019133 216.846206 
L 216.527018 217.055664 
L 223.034903 217.195302 
L 229.542788 217.374838 
L 236.050673 217.414734 
L 242.558558 217.424709 
L 249.066442 217.484554 
L 255.574327 217.344915 
L 262.082212 217.52445 
L 268.590097 217.16538 
L 275.097982 217.514476 
L 281.605867 217.773805 
L 288.113752 217.753857 
L 294.621637 217.783779 
L 301.129522 217.773805 
L 307.637407 217.763831 
L 314.145292 217.295044 
L 320.653177 217.743883 
L 327.161062 217.574321 
L 333.668947 217.384812 
L 340.176832 217.674063 
L 346.684717 217.414734 
L 353.192602 217.664089 
L 359.700487 217.654115 
L 366.208372 217.444657 
L 372.716257 217.743883 
L 379.224142 217.454631 
L 385.732027 217.504502 
L 392.239912 217.52445 
L 398.747797 217.614218 
L 405.255682 217.644141 
" style="fill:none;stroke:#6aaed6;stroke-linecap:square;stroke-width:3;"/>
   </g>
   <g id="line2d_15">
    <path clip-path="url(#p6ec7b2fbb1)" d="M 86.369318 144.303929 
L 92.877203 182.963886 
L 99.385088 190.065508 
L 105.892973 199.620781 
L 112.400858 207.14132 
L 118.908743 204.907101 
L 125.416628 206.891965 
L 131.924513 210.971408 
L 138.432398 209.425409 
L 144.940283 210.692131 
L 151.448168 212.038647 
L 157.956053 213.754207 
L 164.463938 212.018698 
L 170.971823 212.597201 
L 177.479708 213.59462 
L 183.987593 213.973639 
L 190.495478 214.691781 
L 197.003363 214.771574 
L 203.511248 214.033484 
L 210.019133 214.841394 
L 216.527018 215.320155 
L 223.034903 215.609406 
L 229.542788 215.898658 
L 236.050673 216.167961 
L 242.558558 216.347496 
L 249.066442 216.527032 
L 255.574327 216.42729 
L 262.082212 216.706567 
L 268.590097 216.477161 
L 275.097982 216.776386 
L 281.605867 217.005793 
L 288.113752 217.09556 
L 294.621637 217.155405 
L 301.129522 217.275096 
L 307.637407 217.295044 
L 314.145292 216.876128 
L 320.653177 217.364863 
L 327.161062 217.205276 
L 333.668947 217.025741 
L 340.176832 217.474579 
L 346.684717 217.015767 
L 353.192602 217.584296 
L 359.700487 217.624192 
L 366.208372 217.055664 
L 372.716257 217.544399 
L 379.224142 217.16538 
L 385.732027 217.175354 
L 392.239912 217.205276 
L 398.747797 217.703986 
L 405.255682 217.624192 
" style="fill:none;stroke:#2070b4;stroke-linecap:square;stroke-width:3;"/>
   </g>
   <g id="line2d_16">
    <path clip-path="url(#p6ec7b2fbb1)" d="M 86.369318 49.459366 
L 92.877203 134.848398 
L 99.385088 157.290323 
L 105.892973 174.894767 
L 112.400858 186.913664 
L 118.908743 187.811342 
L 125.416628 192.209959 
L 131.924513 198.423879 
L 138.432398 198.374008 
L 144.940283 200.438665 
L 151.448168 203.081825 
L 157.956053 205.425759 
L 164.463938 204.797385 
L 170.971823 205.834701 
L 177.479708 207.540287 
L 183.987593 208.248455 
L 190.495478 209.295745 
L 197.003363 209.78448 
L 203.511248 209.365564 
L 210.019133 210.462725 
L 216.527018 211.021279 
L 223.034903 211.908982 
L 229.542788 212.447588 
L 236.050673 212.986194 
L 242.558558 213.125833 
L 249.066442 213.484904 
L 255.574327 213.654465 
L 262.082212 214.163149 
L 268.590097 214.103304 
L 275.097982 214.631936 
L 281.605867 214.95111 
L 288.113752 215.150593 
L 294.621637 215.210439 
L 301.129522 215.529613 
L 307.637407 215.679225 
L 314.145292 215.290232 
L 320.653177 215.918606 
L 327.161062 215.768993 
L 333.668947 215.599432 
L 340.176832 216.247754 
L 346.684717 215.739071 
L 353.192602 216.337522 
L 359.700487 216.387393 
L 366.208372 215.938554 
L 372.716257 216.527032 
L 379.224142 216.128064 
L 385.732027 216.167961 
L 392.239912 216.287651 
L 398.747797 216.78636 
L 405.255682 216.746464 
" style="fill:none;stroke:#08306b;stroke-linecap:square;stroke-width:3;"/>
   </g>
   <g id="patch_3">
    <path d="M 70.425 226.2 
L 70.425 18.3 
" style="fill:none;stroke:#000000;stroke-linecap:square;stroke-linejoin:miter;stroke-width:0.8;"/>
   </g>
   <g id="patch_4">
    <path d="M 70.425 226.2 
L 421.2 226.2 
" style="fill:none;stroke:#000000;stroke-linecap:square;stroke-linejoin:miter;stroke-width:0.8;"/>
   </g>
   <g id="legend_1">
    <g id="line2d_17">
     <path d="M 217.84 41.0525 
L 249.84 41.0525 
" style="fill:none;stroke:#c6dbef;stroke-linecap:square;stroke-width:3;"/>
    </g>
    <g id="line2d_18"/>
    <g id="text_15">
     <!-- $\sigma_W = $0.005 V路s$^{-1/2}$ -->
     <g transform="translate(262.64 46.6525)scale(0.16 -0.16)">
      <defs>
       <path d="M 2219 3044 
Q 1744 3044 1422 2700 
Q 1081 2341 969 1747 
Q 844 1119 1044 756 
Q 1241 397 1706 397 
Q 2166 397 2503 759 
Q 2844 1122 2966 1747 
Q 3075 2319 2881 2700 
Q 2700 3044 2219 3044 
z
M 2309 3503 
L 4219 3500 
L 4106 2925 
L 3463 2925 
Q 3706 2438 3575 1747 
Q 3406 888 2884 400 
Q 2359 -91 1609 -91 
Q 856 -91 525 400 
Q 194 888 363 1747 
Q 528 2609 1050 3097 
Q 1484 3503 2309 3503 
z
" id="DejaVuSans-Oblique-3c3" transform="scale(0.015625)"/>
       <path d="M 616 4666 
L 1228 4666 
L 1453 697 
L 3213 4666 
L 3916 4666 
L 4147 697 
L 5888 4666 
L 6528 4666 
L 4453 0 
L 3659 0 
L 3444 3891 
L 1697 0 
L 903 0 
L 616 4666 
z
" id="DejaVuSans-Oblique-57" transform="scale(0.015625)"/>
       <path d="M 678 2906 
L 4684 2906 
L 4684 2381 
L 678 2381 
L 678 2906 
z
M 678 1631 
L 4684 1631 
L 4684 1100 
L 678 1100 
L 678 1631 
z
" id="DejaVuSans-3d" transform="scale(0.015625)"/>
       <path d="M 684 794 
L 1344 794 
L 1344 0 
L 684 0 
L 684 794 
z
" id="DejaVuSans-2e" transform="scale(0.015625)"/>
       <path d="M 1831 0 
L 50 4666 
L 709 4666 
L 2188 738 
L 3669 4666 
L 4325 4666 
L 2547 0 
L 1831 0 
z
" id="DejaVuSans-56" transform="scale(0.015625)"/>
       <path d="M 684 2619 
L 1344 2619 
L 1344 1825 
L 684 1825 
L 684 2619 
z
" id="DejaVuSans-b7" transform="scale(0.015625)"/>
       <path d="M 678 2272 
L 4684 2272 
L 4684 1741 
L 678 1741 
L 678 2272 
z
" id="DejaVuSans-2212" transform="scale(0.015625)"/>
      </defs>
      <use transform="translate(0 0.765625)" xlink:href="#DejaVuSans-Oblique-3c3"/>
      <use transform="translate(63.378906 -15.640625)scale(0.7)" xlink:href="#DejaVuSans-Oblique-57"/>
      <use transform="translate(154.80957 0.765625)" xlink:href="#DejaVuSans-3d"/>
      <use transform="translate(258.081055 0.765625)" xlink:href="#DejaVuSans-30"/>
      <use transform="translate(321.704102 0.765625)" xlink:href="#DejaVuSans-2e"/>
      <use transform="translate(353.491211 0.765625)" xlink:href="#DejaVuSans-30"/>
      <use transform="translate(417.114258 0.765625)" xlink:href="#DejaVuSans-30"/>
      <use transform="translate(480.737305 0.765625)" xlink:href="#DejaVuSans-35"/>
      <use transform="translate(544.360352 0.765625)" xlink:href="#DejaVuSans-20"/>
      <use transform="translate(576.147461 0.765625)" xlink:href="#DejaVuSans-56"/>
      <use transform="translate(644.555664 0.765625)" xlink:href="#DejaVuSans-b7"/>
      <use transform="translate(676.342773 0.765625)" xlink:href="#DejaVuSans-73"/>
      <use transform="translate(729.399414 39.046875)scale(0.7)" xlink:href="#DejaVuSans-2212"/>
      <use transform="translate(788.051758 39.046875)scale(0.7)" xlink:href="#DejaVuSans-31"/>
      <use transform="translate(832.587891 39.046875)scale(0.7)" xlink:href="#DejaVuSans-2f"/>
      <use transform="translate(853.634375 39.046875)scale(0.7)" xlink:href="#DejaVuSans-32"/>
     </g>
    </g>
    <g id="line2d_19">
     <path d="M 217.84 66.3325 
L 249.84 66.3325 
" style="fill:none;stroke:#6aaed6;stroke-linecap:square;stroke-width:3;"/>
    </g>
    <g id="line2d_20"/>
    <g id="text_16">
     <!-- $\sigma_W = $0.01 V路s$^{-1/2}$ -->
     <g transform="translate(262.64 71.9325)scale(0.16 -0.16)">
      <use transform="translate(0 0.765625)" xlink:href="#DejaVuSans-Oblique-3c3"/>
      <use transform="translate(63.378906 -15.640625)scale(0.7)" xlink:href="#DejaVuSans-Oblique-57"/>
      <use transform="translate(154.80957 0.765625)" xlink:href="#DejaVuSans-3d"/>
      <use transform="translate(258.081055 0.765625)" xlink:href="#DejaVuSans-30"/>
      <use transform="translate(321.704102 0.765625)" xlink:href="#DejaVuSans-2e"/>
      <use transform="translate(353.491211 0.765625)" xlink:href="#DejaVuSans-30"/>
      <use transform="translate(417.114258 0.765625)" xlink:href="#DejaVuSans-31"/>
      <use transform="translate(480.737305 0.765625)" xlink:href="#DejaVuSans-20"/>
      <use transform="translate(512.524414 0.765625)" xlink:href="#DejaVuSans-56"/>
      <use transform="translate(580.932617 0.765625)" xlink:href="#DejaVuSans-b7"/>
      <use transform="translate(612.719727 0.765625)" xlink:href="#DejaVuSans-73"/>
      <use transform="translate(665.776367 39.046875)scale(0.7)" xlink:href="#DejaVuSans-2212"/>
      <use transform="translate(724.428711 39.046875)scale(0.7)" xlink:href="#DejaVuSans-31"/>
      <use transform="translate(768.964844 39.046875)scale(0.7)" xlink:href="#DejaVuSans-2f"/>
      <use transform="translate(790.011328 39.046875)scale(0.7)" xlink:href="#DejaVuSans-32"/>
     </g>
    </g>
    <g id="line2d_21">
     <path d="M 217.84 91.6125 
L 249.84 91.6125 
" style="fill:none;stroke:#2070b4;stroke-linecap:square;stroke-width:3;"/>
    </g>
    <g id="line2d_22"/>
    <g id="text_17">
     <!-- $\sigma_W = $0.02 V路s$^{-1/2}$ -->
     <g transform="translate(262.64 97.2125)scale(0.16 -0.16)">
      <use transform="translate(0 0.765625)" xlink:href="#DejaVuSans-Oblique-3c3"/>
      <use transform="translate(63.378906 -15.640625)scale(0.7)" xlink:href="#DejaVuSans-Oblique-57"/>
      <use transform="translate(154.80957 0.765625)" xlink:href="#DejaVuSans-3d"/>
      <use transform="translate(258.081055 0.765625)" xlink:href="#DejaVuSans-30"/>
      <use transform="translate(321.704102 0.765625)" xlink:href="#DejaVuSans-2e"/>
      <use transform="translate(353.491211 0.765625)" xlink:href="#DejaVuSans-30"/>
      <use transform="translate(417.114258 0.765625)" xlink:href="#DejaVuSans-32"/>
      <use transform="translate(480.737305 0.765625)" xlink:href="#DejaVuSans-20"/>
      <use transform="translate(512.524414 0.765625)" xlink:href="#DejaVuSans-56"/>
      <use transform="translate(580.932617 0.765625)" xlink:href="#DejaVuSans-b7"/>
      <use transform="translate(612.719727 0.765625)" xlink:href="#DejaVuSans-73"/>
      <use transform="translate(665.776367 39.046875)scale(0.7)" xlink:href="#DejaVuSans-2212"/>
      <use transform="translate(724.428711 39.046875)scale(0.7)" xlink:href="#DejaVuSans-31"/>
      <use transform="translate(768.964844 39.046875)scale(0.7)" xlink:href="#DejaVuSans-2f"/>
      <use transform="translate(790.011328 39.046875)scale(0.7)" xlink:href="#DejaVuSans-32"/>
     </g>
    </g>
    <g id="line2d_23">
     <path d="M 217.84 116.8925 
L 249.84 116.8925 
" style="fill:none;stroke:#08306b;stroke-linecap:square;stroke-width:3;"/>
    </g>
    <g id="line2d_24"/>
    <g id="text_18">
     <!-- $\sigma_W = $0.04 V路s$^{-1/2}$ -->
     <g transform="translate(262.64 122.4925)scale(0.16 -0.16)">
      <use transform="translate(0 0.765625)" xlink:href="#DejaVuSans-Oblique-3c3"/>
      <use transform="translate(63.378906 -15.640625)scale(0.7)" xlink:href="#DejaVuSans-Oblique-57"/>
      <use transform="translate(154.80957 0.765625)" xlink:href="#DejaVuSans-3d"/>
      <use transform="translate(258.081055 0.765625)" xlink:href="#DejaVuSans-30"/>
      <use transform="translate(321.704102 0.765625)" xlink:href="#DejaVuSans-2e"/>
      <use transform="translate(353.491211 0.765625)" xlink:href="#DejaVuSans-30"/>
      <use transform="translate(417.114258 0.765625)" xlink:href="#DejaVuSans-34"/>
      <use transform="translate(480.737305 0.765625)" xlink:href="#DejaVuSans-20"/>
      <use transform="translate(512.524414 0.765625)" xlink:href="#DejaVuSans-56"/>
      <use transform="translate(580.932617 0.765625)" xlink:href="#DejaVuSans-b7"/>
      <use transform="translate(612.719727 0.765625)" xlink:href="#DejaVuSans-73"/>
      <use transform="translate(665.776367 39.046875)scale(0.7)" xlink:href="#DejaVuSans-2212"/>
      <use transform="translate(724.428711 39.046875)scale(0.7)" xlink:href="#DejaVuSans-31"/>
      <use transform="translate(768.964844 39.046875)scale(0.7)" xlink:href="#DejaVuSans-2f"/>
      <use transform="translate(790.011328 39.046875)scale(0.7)" xlink:href="#DejaVuSans-32"/>
     </g>
    </g>
   </g>
  </g>
 </g>
 <defs>
  <clipPath id="p6ec7b2fbb1">
   <rect height="207.9" width="350.775" x="70.425" y="18.3"/>
  </clipPath>
 </defs>
</svg>
