<?xml version="1.0" encoding="utf-8" standalone="no"?>
<!DOCTYPE svg PUBLIC "-//W3C//DTD SVG 1.1//EN"
  "http://www.w3.org/Graphics/SVG/1.1/DTD/svg11.dtd">
<svg height="288pt" version="1.1" viewBox="0 0 432 288" width="432pt" xmlns="http://www.w3.org/2000/svg" xmlns:xlink="http://www.w3.org/1999/xlink">
 <metadata>
  <rdf:RDF xmlns:cc="http://creativecommons.org/ns#" xmlns:dc="http://purl.org/dc/elements/1.1/" xmlns:rdf="http://www.w3.org/1999/02/22-rdf-syntax-ns#">
   <cc:Work>
    <dc:type rdf:resource="http://purl.org/dc/dcmitype/StillImage"/>
    <dc:date>2022-09-22T12:21:28.964116</dc:date>
    <dc:format>image/svg+xml</dc:format>
    <dc:creator>
     <cc:Agent>
      <dc:title>Matplotlib v3.4.1, https://matplotlib.org/</dc:title>
     </cc:Agent>
    </dc:creator>
   </cc:Work>
  </rdf:RDF>
 </metadata>
 <defs>
  <style type="text/css">*{stroke-linecap:butt;stroke-linejoin:round;}</style>
 </defs>
 <g id="figure_1">
  <g id="patch_1">
   <path d="M 0 288 
L 432 288 
L 432 0 
L 0 0 
z
" style="fill:none;"/>
  </g>
  <g id="axes_1">
   <g id="patch_2">
    <path d="M 66.425 226.2 
L 421.2 226.2 
L 421.2 18.3 
L 66.425 18.3 
z
" style="fill:#ffffff;"/>
   </g>
   <g id="matplotlib.axis_1">
    <g id="xtick_1">
     <g id="line2d_1">
      <defs>
       <path d="M 0 0 
L 0 3.5 
" id="m2eadff0ec6" style="stroke:#000000;stroke-width:0.8;"/>
      </defs>
      <g>
       <use style="stroke:#000000;stroke-width:0.8;" x="75.96904" xlink:href="#m2eadff0ec6" y="226.2"/>
      </g>
     </g>
     <g id="text_1">
      <!-- 0 -->
      <g transform="translate(69.60654 248.396875)scale(0.2 -0.2)">
       <defs>
        <path d="M 2034 4250 
Q 1547 4250 1301 3770 
Q 1056 3291 1056 2328 
Q 1056 1369 1301 889 
Q 1547 409 2034 409 
Q 2525 409 2770 889 
Q 3016 1369 3016 2328 
Q 3016 3291 2770 3770 
Q 2525 4250 2034 4250 
z
M 2034 4750 
Q 2819 4750 3233 4129 
Q 3647 3509 3647 2328 
Q 3647 1150 3233 529 
Q 2819 -91 2034 -91 
Q 1250 -91 836 529 
Q 422 1150 422 2328 
Q 422 3509 836 4129 
Q 1250 4750 2034 4750 
z
" id="DejaVuSans-30" transform="scale(0.015625)"/>
       </defs>
       <use xlink:href="#DejaVuSans-30"/>
      </g>
     </g>
    </g>
    <g id="xtick_2">
     <g id="line2d_2">
      <g>
       <use style="stroke:#000000;stroke-width:0.8;" x="141.790005" xlink:href="#m2eadff0ec6" y="226.2"/>
      </g>
     </g>
     <g id="text_2">
      <!-- 10 -->
      <g transform="translate(129.065005 248.396875)scale(0.2 -0.2)">
       <defs>
        <path d="M 794 531 
L 1825 531 
L 1825 4091 
L 703 3866 
L 703 4441 
L 1819 4666 
L 2450 4666 
L 2450 531 
L 3481 531 
L 3481 0 
L 794 0 
L 794 531 
z
" id="DejaVuSans-31" transform="scale(0.015625)"/>
       </defs>
       <use xlink:href="#DejaVuSans-31"/>
       <use x="63.623047" xlink:href="#DejaVuSans-30"/>
      </g>
     </g>
    </g>
    <g id="xtick_3">
     <g id="line2d_3">
      <g>
       <use style="stroke:#000000;stroke-width:0.8;" x="207.610969" xlink:href="#m2eadff0ec6" y="226.2"/>
      </g>
     </g>
     <g id="text_3">
      <!-- 20 -->
      <g transform="translate(194.885969 248.396875)scale(0.2 -0.2)">
       <defs>
        <path d="M 1228 531 
L 3431 531 
L 3431 0 
L 469 0 
L 469 531 
Q 828 903 1448 1529 
Q 2069 2156 2228 2338 
Q 2531 2678 2651 2914 
Q 2772 3150 2772 3378 
Q 2772 3750 2511 3984 
Q 2250 4219 1831 4219 
Q 1534 4219 1204 4116 
Q 875 4013 500 3803 
L 500 4441 
Q 881 4594 1212 4672 
Q 1544 4750 1819 4750 
Q 2544 4750 2975 4387 
Q 3406 4025 3406 3419 
Q 3406 3131 3298 2873 
Q 3191 2616 2906 2266 
Q 2828 2175 2409 1742 
Q 1991 1309 1228 531 
z
" id="DejaVuSans-32" transform="scale(0.015625)"/>
       </defs>
       <use xlink:href="#DejaVuSans-32"/>
       <use x="63.623047" xlink:href="#DejaVuSans-30"/>
      </g>
     </g>
    </g>
    <g id="xtick_4">
     <g id="line2d_4">
      <g>
       <use style="stroke:#000000;stroke-width:0.8;" x="273.431934" xlink:href="#m2eadff0ec6" y="226.2"/>
      </g>
     </g>
     <g id="text_4">
      <!-- 30 -->
      <g transform="translate(260.706934 248.396875)scale(0.2 -0.2)">
       <defs>
        <path d="M 2597 2516 
Q 3050 2419 3304 2112 
Q 3559 1806 3559 1356 
Q 3559 666 3084 287 
Q 2609 -91 1734 -91 
Q 1441 -91 1130 -33 
Q 819 25 488 141 
L 488 750 
Q 750 597 1062 519 
Q 1375 441 1716 441 
Q 2309 441 2620 675 
Q 2931 909 2931 1356 
Q 2931 1769 2642 2001 
Q 2353 2234 1838 2234 
L 1294 2234 
L 1294 2753 
L 1863 2753 
Q 2328 2753 2575 2939 
Q 2822 3125 2822 3475 
Q 2822 3834 2567 4026 
Q 2313 4219 1838 4219 
Q 1578 4219 1281 4162 
Q 984 4106 628 3988 
L 628 4550 
Q 988 4650 1302 4700 
Q 1616 4750 1894 4750 
Q 2613 4750 3031 4423 
Q 3450 4097 3450 3541 
Q 3450 3153 3228 2886 
Q 3006 2619 2597 2516 
z
" id="DejaVuSans-33" transform="scale(0.015625)"/>
       </defs>
       <use xlink:href="#DejaVuSans-33"/>
       <use x="63.623047" xlink:href="#DejaVuSans-30"/>
      </g>
     </g>
    </g>
    <g id="xtick_5">
     <g id="line2d_5">
      <g>
       <use style="stroke:#000000;stroke-width:0.8;" x="339.252899" xlink:href="#m2eadff0ec6" y="226.2"/>
      </g>
     </g>
     <g id="text_5">
      <!-- 40 -->
      <g transform="translate(326.527899 248.396875)scale(0.2 -0.2)">
       <defs>
        <path d="M 2419 4116 
L 825 1625 
L 2419 1625 
L 2419 4116 
z
M 2253 4666 
L 3047 4666 
L 3047 1625 
L 3713 1625 
L 3713 1100 
L 3047 1100 
L 3047 0 
L 2419 0 
L 2419 1100 
L 313 1100 
L 313 1709 
L 2253 4666 
z
" id="DejaVuSans-34" transform="scale(0.015625)"/>
       </defs>
       <use xlink:href="#DejaVuSans-34"/>
       <use x="63.623047" xlink:href="#DejaVuSans-30"/>
      </g>
     </g>
    </g>
    <g id="xtick_6">
     <g id="line2d_6">
      <g>
       <use style="stroke:#000000;stroke-width:0.8;" x="405.073864" xlink:href="#m2eadff0ec6" y="226.2"/>
      </g>
     </g>
     <g id="text_6">
      <!-- 50 -->
      <g transform="translate(392.348864 248.396875)scale(0.2 -0.2)">
       <defs>
        <path d="M 691 4666 
L 3169 4666 
L 3169 4134 
L 1269 4134 
L 1269 2991 
Q 1406 3038 1543 3061 
Q 1681 3084 1819 3084 
Q 2600 3084 3056 2656 
Q 3513 2228 3513 1497 
Q 3513 744 3044 326 
Q 2575 -91 1722 -91 
Q 1428 -91 1123 -41 
Q 819 9 494 109 
L 494 744 
Q 775 591 1075 516 
Q 1375 441 1709 441 
Q 2250 441 2565 725 
Q 2881 1009 2881 1497 
Q 2881 1984 2565 2268 
Q 2250 2553 1709 2553 
Q 1456 2553 1204 2497 
Q 953 2441 691 2322 
L 691 4666 
z
" id="DejaVuSans-35" transform="scale(0.015625)"/>
       </defs>
       <use xlink:href="#DejaVuSans-35"/>
       <use x="63.623047" xlink:href="#DejaVuSans-30"/>
      </g>
     </g>
    </g>
    <g id="text_7">
     <!-- $f$ (Hz) -->
     <g transform="translate(216.5125 271.753125)scale(0.2 -0.2)">
      <defs>
       <path d="M 3059 4863 
L 2969 4384 
L 2419 4384 
Q 2106 4384 1964 4261 
Q 1822 4138 1753 3809 
L 1691 3500 
L 2638 3500 
L 2553 3053 
L 1606 3053 
L 1013 0 
L 434 0 
L 1031 3053 
L 481 3053 
L 563 3500 
L 1113 3500 
L 1159 3744 
Q 1278 4363 1576 4613 
Q 1875 4863 2516 4863 
L 3059 4863 
z
" id="DejaVuSans-Oblique-66" transform="scale(0.015625)"/>
       <path id="DejaVuSans-20" transform="scale(0.015625)"/>
       <path d="M 1984 4856 
Q 1566 4138 1362 3434 
Q 1159 2731 1159 2009 
Q 1159 1288 1364 580 
Q 1569 -128 1984 -844 
L 1484 -844 
Q 1016 -109 783 600 
Q 550 1309 550 2009 
Q 550 2706 781 3412 
Q 1013 4119 1484 4856 
L 1984 4856 
z
" id="DejaVuSans-28" transform="scale(0.015625)"/>
       <path d="M 628 4666 
L 1259 4666 
L 1259 2753 
L 3553 2753 
L 3553 4666 
L 4184 4666 
L 4184 0 
L 3553 0 
L 3553 2222 
L 1259 2222 
L 1259 0 
L 628 0 
L 628 4666 
z
" id="DejaVuSans-48" transform="scale(0.015625)"/>
       <path d="M 353 3500 
L 3084 3500 
L 3084 2975 
L 922 459 
L 3084 459 
L 3084 0 
L 275 0 
L 275 525 
L 2438 3041 
L 353 3041 
L 353 3500 
z
" id="DejaVuSans-7a" transform="scale(0.015625)"/>
       <path d="M 513 4856 
L 1013 4856 
Q 1481 4119 1714 3412 
Q 1947 2706 1947 2009 
Q 1947 1309 1714 600 
Q 1481 -109 1013 -844 
L 513 -844 
Q 928 -128 1133 580 
Q 1338 1288 1338 2009 
Q 1338 2731 1133 3434 
Q 928 4138 513 4856 
z
" id="DejaVuSans-29" transform="scale(0.015625)"/>
      </defs>
      <use transform="translate(0 0.015625)" xlink:href="#DejaVuSans-Oblique-66"/>
      <use transform="translate(35.205078 0.015625)" xlink:href="#DejaVuSans-20"/>
      <use transform="translate(66.992188 0.015625)" xlink:href="#DejaVuSans-28"/>
      <use transform="translate(106.005859 0.015625)" xlink:href="#DejaVuSans-48"/>
      <use transform="translate(181.201172 0.015625)" xlink:href="#DejaVuSans-7a"/>
      <use transform="translate(233.691406 0.015625)" xlink:href="#DejaVuSans-29"/>
     </g>
    </g>
   </g>
   <g id="matplotlib.axis_2">
    <g id="ytick_1">
     <g id="line2d_7">
      <defs>
       <path d="M 0 0 
L -3.5 0 
" id="m2d45f8e786" style="stroke:#000000;stroke-width:0.8;"/>
      </defs>
      <g>
       <use style="stroke:#000000;stroke-width:0.8;" x="66.425" xlink:href="#m2d45f8e786" y="226.2"/>
      </g>
     </g>
     <g id="text_8">
      <!-- 0 -->
      <g transform="translate(46.7 233.798438)scale(0.2 -0.2)">
       <use xlink:href="#DejaVuSans-30"/>
      </g>
     </g>
    </g>
    <g id="ytick_2">
     <g id="line2d_8">
      <g>
       <use style="stroke:#000000;stroke-width:0.8;" x="66.425" xlink:href="#m2d45f8e786" y="174.225"/>
      </g>
     </g>
     <g id="text_9">
      <!-- 5 -->
      <g transform="translate(46.7 181.823437)scale(0.2 -0.2)">
       <use xlink:href="#DejaVuSans-35"/>
      </g>
     </g>
    </g>
    <g id="ytick_3">
     <g id="line2d_9">
      <g>
       <use style="stroke:#000000;stroke-width:0.8;" x="66.425" xlink:href="#m2d45f8e786" y="122.25"/>
      </g>
     </g>
     <g id="text_10">
      <!-- 10 -->
      <g transform="translate(33.975 129.848437)scale(0.2 -0.2)">
       <use xlink:href="#DejaVuSans-31"/>
       <use x="63.623047" xlink:href="#DejaVuSans-30"/>
      </g>
     </g>
    </g>
    <g id="ytick_4">
     <g id="line2d_10">
      <g>
       <use style="stroke:#000000;stroke-width:0.8;" x="66.425" xlink:href="#m2d45f8e786" y="70.275"/>
      </g>
     </g>
     <g id="text_11">
      <!-- 15 -->
      <g transform="translate(33.975 77.873437)scale(0.2 -0.2)">
       <use xlink:href="#DejaVuSans-31"/>
       <use x="63.623047" xlink:href="#DejaVuSans-35"/>
      </g>
     </g>
    </g>
    <g id="ytick_5">
     <g id="line2d_11">
      <g>
       <use style="stroke:#000000;stroke-width:0.8;" x="66.425" xlink:href="#m2d45f8e786" y="18.3"/>
      </g>
     </g>
     <g id="text_12">
      <!-- 20 -->
      <g transform="translate(33.975 25.898437)scale(0.2 -0.2)">
       <use xlink:href="#DejaVuSans-32"/>
       <use x="63.623047" xlink:href="#DejaVuSans-30"/>
      </g>
     </g>
    </g>
    <g id="text_13">
     <!-- $\sigma_I$ -->
     <g transform="translate(25.815625 130.95)rotate(-90)scale(0.2 -0.2)">
      <defs>
       <path d="M 2219 3044 
Q 1744 3044 1422 2700 
Q 1081 2341 969 1747 
Q 844 1119 1044 756 
Q 1241 397 1706 397 
Q 2166 397 2503 759 
Q 2844 1122 2966 1747 
Q 3075 2319 2881 2700 
Q 2700 3044 2219 3044 
z
M 2309 3503 
L 4219 3500 
L 4106 2925 
L 3463 2925 
Q 3706 2438 3575 1747 
Q 3406 888 2884 400 
Q 2359 -91 1609 -91 
Q 856 -91 525 400 
Q 194 888 363 1747 
Q 528 2609 1050 3097 
Q 1484 3503 2309 3503 
z
" id="DejaVuSans-Oblique-3c3" transform="scale(0.015625)"/>
       <path d="M 1081 4666 
L 1716 4666 
L 806 0 
L 172 0 
L 1081 4666 
z
" id="DejaVuSans-Oblique-49" transform="scale(0.015625)"/>
      </defs>
      <use transform="translate(0 0.265625)" xlink:href="#DejaVuSans-Oblique-3c3"/>
      <use transform="translate(63.378906 -16.140625)scale(0.7)" xlink:href="#DejaVuSans-Oblique-49"/>
     </g>
    </g>
   </g>
   <g id="line2d_12">
    <path clip-path="url(#p26cc1ed9f2)" d="M 82.551136 192.618673 
L 89.133233 188.377699 
L 95.715329 188.882919 
L 102.297426 189.921566 
L 108.879522 190.575689 
L 115.461619 192.49493 
L 122.043715 191.89654 
L 128.625812 194.454027 
L 135.207908 192.855776 
L 141.790005 193.72937 
L 148.372101 193.659309 
L 154.954198 193.659294 
L 161.536294 191.869638 
L 168.118391 190.539848 
L 174.700487 192.045182 
L 181.282583 192.541358 
L 187.86468 193.043637 
L 194.446776 194.219659 
L 201.028873 193.369153 
L 207.610969 195.216439 
L 214.193066 195.010634 
L 220.775162 196.018257 
L 227.357259 196.426051 
L 233.939355 197.738329 
L 240.521452 196.515738 
L 247.103548 198.247887 
L 253.685645 198.257966 
L 260.267741 198.086236 
L 266.849838 198.553697 
L 273.431934 199.020013 
L 280.014031 199.643708 
L 286.596127 200.813439 
L 293.178224 200.768482 
L 299.76032 200.255108 
L 306.342417 201.482547 
L 312.924513 201.036213 
L 319.506609 201.828274 
L 326.088706 202.266605 
L 332.670802 201.89824 
L 339.252899 201.845442 
L 345.834995 203.475582 
L 352.417092 202.652575 
L 358.999188 203.87326 
L 365.581285 205.146536 
L 372.163381 202.641723 
L 378.745478 204.409028 
L 385.327574 203.907145 
L 391.909671 205.852076 
L 398.491767 205.285894 
L 405.073864 205.129719 
" style="fill:none;stroke:#c6dbef;stroke-linecap:square;stroke-width:3;"/>
   </g>
   <g id="line2d_13">
    <path clip-path="url(#p26cc1ed9f2)" d="M 82.551136 166.087118 
L 89.133233 159.400697 
L 95.715329 157.156546 
L 102.297426 156.258554 
L 108.879522 155.777515 
L 115.461619 160.065682 
L 122.043715 163.250004 
L 128.625812 162.287526 
L 135.207908 165.018311 
L 141.790005 165.285497 
L 148.372101 167.420586 
L 154.954198 166.145249 
L 161.536294 168.483297 
L 168.118391 166.178326 
L 174.700487 164.200552 
L 181.282583 165.694989 
L 187.86468 166.429218 
L 194.446776 169.175306 
L 201.028873 168.676035 
L 207.610969 168.663818 
L 214.193066 171.346407 
L 220.775162 171.585643 
L 227.357259 171.513504 
L 233.939355 173.569574 
L 240.521452 171.51982 
L 247.103548 173.457686 
L 253.685645 173.503438 
L 260.267741 174.130267 
L 266.849838 175.12698 
L 273.431934 176.655541 
L 280.014031 174.579729 
L 286.596127 179.281523 
L 293.178224 179.899793 
L 299.76032 178.003179 
L 306.342417 180.612443 
L 312.924513 182.558829 
L 319.506609 177.544635 
L 326.088706 181.225072 
L 332.670802 181.651538 
L 339.252899 181.546988 
L 345.834995 182.473756 
L 352.417092 183.209561 
L 358.999188 184.780997 
L 365.581285 182.835542 
L 372.163381 183.116041 
L 378.745478 184.609157 
L 385.327574 185.818134 
L 391.909671 185.394588 
L 398.491767 188.481525 
L 405.073864 188.126266 
" style="fill:none;stroke:#6aaed6;stroke-linecap:square;stroke-width:3;"/>
   </g>
   <g id="line2d_14">
    <path clip-path="url(#p26cc1ed9f2)" d="M 82.551136 126.492571 
L 89.133233 109.059644 
L 95.715329 99.69723 
L 102.297426 99.79441 
L 108.879522 99.098012 
L 115.461619 96.805258 
L 122.043715 106.040657 
L 128.625812 105.025313 
L 135.207908 107.281497 
L 141.790005 110.095194 
L 148.372101 109.643112 
L 154.954198 116.440074 
L 161.536294 120.809292 
L 168.118391 119.027598 
L 174.700487 122.453073 
L 181.282583 121.587967 
L 187.86468 125.535103 
L 194.446776 126.705914 
L 201.028873 127.043034 
L 207.610969 133.182386 
L 214.193066 135.684665 
L 220.775162 135.887933 
L 227.357259 135.456723 
L 233.939355 138.845644 
L 240.521452 139.776362 
L 247.103548 138.832095 
L 253.685645 144.368049 
L 260.267741 143.524765 
L 266.849838 147.541293 
L 273.431934 150.291363 
L 280.014031 149.346277 
L 286.596127 153.015004 
L 293.178224 154.301494 
L 299.76032 155.353232 
L 306.342417 158.246327 
L 312.924513 158.61721 
L 319.506609 158.950925 
L 326.088706 159.745505 
L 332.670802 162.528355 
L 339.252899 163.350018 
L 345.834995 163.814186 
L 352.417092 163.798185 
L 358.999188 165.75175 
L 365.581285 167.635121 
L 372.163381 168.602289 
L 378.745478 167.835173 
L 385.327574 169.317907 
L 391.909671 169.560555 
L 398.491767 169.70368 
L 405.073864 170.448084 
" style="fill:none;stroke:#2070b4;stroke-linecap:square;stroke-width:3;"/>
   </g>
   <g id="line2d_15">
    <path clip-path="url(#p26cc1ed9f2)" d="M 82.551136 108.248171 
L 89.133233 68.951266 
L 95.715329 49.34388 
L 102.297426 40.506521 
L 108.879522 36.43568 
L 115.461619 28.886152 
L 122.043715 37.244029 
L 128.625812 39.845301 
L 135.207908 42.131848 
L 141.790005 53.528155 
L 148.372101 54.861003 
L 154.954198 56.259932 
L 161.536294 70.266514 
L 168.118391 72.408028 
L 174.700487 74.558218 
L 181.282583 81.89428 
L 187.86468 86.889534 
L 194.446776 87.630186 
L 201.028873 92.598055 
L 207.610969 101.100649 
L 214.193066 102.087754 
L 220.775162 110.971394 
L 227.357259 111.618523 
L 233.939355 116.14627 
L 240.521452 116.743639 
L 247.103548 119.756955 
L 253.685645 124.850208 
L 260.267741 126.264718 
L 266.849838 130.795151 
L 273.431934 133.541097 
L 280.014031 136.775816 
L 286.596127 138.602999 
L 293.178224 140.689056 
L 299.76032 141.530092 
L 306.342417 144.483865 
L 312.924513 146.359667 
L 319.506609 147.570409 
L 326.088706 149.650683 
L 332.670802 151.111375 
L 339.252899 153.702992 
L 345.834995 154.475054 
L 352.417092 156.872654 
L 358.999188 157.381842 
L 365.581285 158.878453 
L 372.163381 162.823601 
L 378.745478 160.858893 
L 385.327574 162.570504 
L 391.909671 163.382068 
L 398.491767 166.175746 
L 405.073864 166.249322 
" style="fill:none;stroke:#08306b;stroke-linecap:square;stroke-width:3;"/>
   </g>
   <g id="patch_3">
    <path d="M 66.425 226.2 
L 66.425 18.3 
" style="fill:none;stroke:#000000;stroke-linecap:square;stroke-linejoin:miter;stroke-width:0.8;"/>
   </g>
   <g id="patch_4">
    <path d="M 66.425 226.2 
L 421.2 226.2 
" style="fill:none;stroke:#000000;stroke-linecap:square;stroke-linejoin:miter;stroke-width:0.8;"/>
   </g>
   <g id="legend_1">
    <g id="line2d_16">
     <path d="M 268.68 35.364375 
L 292.68 35.364375 
" style="fill:none;stroke:#c6dbef;stroke-linecap:square;stroke-width:3;"/>
    </g>
    <g id="line2d_17"/>
    <g id="text_14">
     <!-- $\sigma_W = $0.005 V路s$^{-1/2}$ -->
     <g transform="translate(302.28 39.564375)scale(0.12 -0.12)">
      <defs>
       <path d="M 616 4666 
L 1228 4666 
L 1453 697 
L 3213 4666 
L 3916 4666 
L 4147 697 
L 5888 4666 
L 6528 4666 
L 4453 0 
L 3659 0 
L 3444 3891 
L 1697 0 
L 903 0 
L 616 4666 
z
" id="DejaVuSans-Oblique-57" transform="scale(0.015625)"/>
       <path d="M 678 2906 
L 4684 2906 
L 4684 2381 
L 678 2381 
L 678 2906 
z
M 678 1631 
L 4684 1631 
L 4684 1100 
L 678 1100 
L 678 1631 
z
" id="DejaVuSans-3d" transform="scale(0.015625)"/>
       <path d="M 684 794 
L 1344 794 
L 1344 0 
L 684 0 
L 684 794 
z
" id="DejaVuSans-2e" transform="scale(0.015625)"/>
       <path d="M 1831 0 
L 50 4666 
L 709 4666 
L 2188 738 
L 3669 4666 
L 4325 4666 
L 2547 0 
L 1831 0 
z
" id="DejaVuSans-56" transform="scale(0.015625)"/>
       <path d="M 684 2619 
L 1344 2619 
L 1344 1825 
L 684 1825 
L 684 2619 
z
" id="DejaVuSans-b7" transform="scale(0.015625)"/>
       <path d="M 2834 3397 
L 2834 2853 
Q 2591 2978 2328 3040 
Q 2066 3103 1784 3103 
Q 1356 3103 1142 2972 
Q 928 2841 928 2578 
Q 928 2378 1081 2264 
Q 1234 2150 1697 2047 
L 1894 2003 
Q 2506 1872 2764 1633 
Q 3022 1394 3022 966 
Q 3022 478 2636 193 
Q 2250 -91 1575 -91 
Q 1294 -91 989 -36 
Q 684 19 347 128 
L 347 722 
Q 666 556 975 473 
Q 1284 391 1588 391 
Q 1994 391 2212 530 
Q 2431 669 2431 922 
Q 2431 1156 2273 1281 
Q 2116 1406 1581 1522 
L 1381 1569 
Q 847 1681 609 1914 
Q 372 2147 372 2553 
Q 372 3047 722 3315 
Q 1072 3584 1716 3584 
Q 2034 3584 2315 3537 
Q 2597 3491 2834 3397 
z
" id="DejaVuSans-73" transform="scale(0.015625)"/>
       <path d="M 678 2272 
L 4684 2272 
L 4684 1741 
L 678 1741 
L 678 2272 
z
" id="DejaVuSans-2212" transform="scale(0.015625)"/>
       <path d="M 1625 4666 
L 2156 4666 
L 531 -594 
L 0 -594 
L 1625 4666 
z
" id="DejaVuSans-2f" transform="scale(0.015625)"/>
      </defs>
      <use transform="translate(0 0.765625)" xlink:href="#DejaVuSans-Oblique-3c3"/>
      <use transform="translate(63.378906 -15.640625)scale(0.7)" xlink:href="#DejaVuSans-Oblique-57"/>
      <use transform="translate(154.80957 0.765625)" xlink:href="#DejaVuSans-3d"/>
      <use transform="translate(258.081055 0.765625)" xlink:href="#DejaVuSans-30"/>
      <use transform="translate(321.704102 0.765625)" xlink:href="#DejaVuSans-2e"/>
      <use transform="translate(353.491211 0.765625)" xlink:href="#DejaVuSans-30"/>
      <use transform="translate(417.114258 0.765625)" xlink:href="#DejaVuSans-30"/>
      <use transform="translate(480.737305 0.765625)" xlink:href="#DejaVuSans-35"/>
      <use transform="translate(544.360352 0.765625)" xlink:href="#DejaVuSans-20"/>
      <use transform="translate(576.147461 0.765625)" xlink:href="#DejaVuSans-56"/>
      <use transform="translate(644.555664 0.765625)" xlink:href="#DejaVuSans-b7"/>
      <use transform="translate(676.342773 0.765625)" xlink:href="#DejaVuSans-73"/>
      <use transform="translate(729.399414 39.046875)scale(0.7)" xlink:href="#DejaVuSans-2212"/>
      <use transform="translate(788.051758 39.046875)scale(0.7)" xlink:href="#DejaVuSans-31"/>
      <use transform="translate(832.587891 39.046875)scale(0.7)" xlink:href="#DejaVuSans-2f"/>
      <use transform="translate(853.634375 39.046875)scale(0.7)" xlink:href="#DejaVuSans-32"/>
     </g>
    </g>
    <g id="line2d_18">
     <path d="M 268.68 54.324375 
L 292.68 54.324375 
" style="fill:none;stroke:#6aaed6;stroke-linecap:square;stroke-width:3;"/>
    </g>
    <g id="line2d_19"/>
    <g id="text_15">
     <!-- $\sigma_W = $0.01 V路s$^{-1/2}$ -->
     <g transform="translate(302.28 58.524375)scale(0.12 -0.12)">
      <use transform="translate(0 0.765625)" xlink:href="#DejaVuSans-Oblique-3c3"/>
      <use transform="translate(63.378906 -15.640625)scale(0.7)" xlink:href="#DejaVuSans-Oblique-57"/>
      <use transform="translate(154.80957 0.765625)" xlink:href="#DejaVuSans-3d"/>
      <use transform="translate(258.081055 0.765625)" xlink:href="#DejaVuSans-30"/>
      <use transform="translate(321.704102 0.765625)" xlink:href="#DejaVuSans-2e"/>
      <use transform="translate(353.491211 0.765625)" xlink:href="#DejaVuSans-30"/>
      <use transform="translate(417.114258 0.765625)" xlink:href="#DejaVuSans-31"/>
      <use transform="translate(480.737305 0.765625)" xlink:href="#DejaVuSans-20"/>
      <use transform="translate(512.524414 0.765625)" xlink:href="#DejaVuSans-56"/>
      <use transform="translate(580.932617 0.765625)" xlink:href="#DejaVuSans-b7"/>
      <use transform="translate(612.719727 0.765625)" xlink:href="#DejaVuSans-73"/>
      <use transform="translate(665.776367 39.046875)scale(0.7)" xlink:href="#DejaVuSans-2212"/>
      <use transform="translate(724.428711 39.046875)scale(0.7)" xlink:href="#DejaVuSans-31"/>
      <use transform="translate(768.964844 39.046875)scale(0.7)" xlink:href="#DejaVuSans-2f"/>
      <use transform="translate(790.011328 39.046875)scale(0.7)" xlink:href="#DejaVuSans-32"/>
     </g>
    </g>
    <g id="line2d_20">
     <path d="M 268.68 73.284375 
L 292.68 73.284375 
" style="fill:none;stroke:#2070b4;stroke-linecap:square;stroke-width:3;"/>
    </g>
    <g id="line2d_21"/>
    <g id="text_16">
     <!-- $\sigma_W = $0.02 V路s$^{-1/2}$ -->
     <g transform="translate(302.28 77.484375)scale(0.12 -0.12)">
      <use transform="translate(0 0.765625)" xlink:href="#DejaVuSans-Oblique-3c3"/>
      <use transform="translate(63.378906 -15.640625)scale(0.7)" xlink:href="#DejaVuSans-Oblique-57"/>
      <use transform="translate(154.80957 0.765625)" xlink:href="#DejaVuSans-3d"/>
      <use transform="translate(258.081055 0.765625)" xlink:href="#DejaVuSans-30"/>
      <use transform="translate(321.704102 0.765625)" xlink:href="#DejaVuSans-2e"/>
      <use transform="translate(353.491211 0.765625)" xlink:href="#DejaVuSans-30"/>
      <use transform="translate(417.114258 0.765625)" xlink:href="#DejaVuSans-32"/>
      <use transform="translate(480.737305 0.765625)" xlink:href="#DejaVuSans-20"/>
      <use transform="translate(512.524414 0.765625)" xlink:href="#DejaVuSans-56"/>
      <use transform="translate(580.932617 0.765625)" xlink:href="#DejaVuSans-b7"/>
      <use transform="translate(612.719727 0.765625)" xlink:href="#DejaVuSans-73"/>
      <use transform="translate(665.776367 39.046875)scale(0.7)" xlink:href="#DejaVuSans-2212"/>
      <use transform="translate(724.428711 39.046875)scale(0.7)" xlink:href="#DejaVuSans-31"/>
      <use transform="translate(768.964844 39.046875)scale(0.7)" xlink:href="#DejaVuSans-2f"/>
      <use transform="translate(790.011328 39.046875)scale(0.7)" xlink:href="#DejaVuSans-32"/>
     </g>
    </g>
    <g id="line2d_22">
     <path d="M 268.68 92.244375 
L 292.68 92.244375 
" style="fill:none;stroke:#08306b;stroke-linecap:square;stroke-width:3;"/>
    </g>
    <g id="line2d_23"/>
    <g id="text_17">
     <!-- $\sigma_W = $0.04 V路s$^{-1/2}$ -->
     <g transform="translate(302.28 96.444375)scale(0.12 -0.12)">
      <use transform="translate(0 0.765625)" xlink:href="#DejaVuSans-Oblique-3c3"/>
      <use transform="translate(63.378906 -15.640625)scale(0.7)" xlink:href="#DejaVuSans-Oblique-57"/>
      <use transform="translate(154.80957 0.765625)" xlink:href="#DejaVuSans-3d"/>
      <use transform="translate(258.081055 0.765625)" xlink:href="#DejaVuSans-30"/>
      <use transform="translate(321.704102 0.765625)" xlink:href="#DejaVuSans-2e"/>
      <use transform="translate(353.491211 0.765625)" xlink:href="#DejaVuSans-30"/>
      <use transform="translate(417.114258 0.765625)" xlink:href="#DejaVuSans-34"/>
      <use transform="translate(480.737305 0.765625)" xlink:href="#DejaVuSans-20"/>
      <use transform="translate(512.524414 0.765625)" xlink:href="#DejaVuSans-56"/>
      <use transform="translate(580.932617 0.765625)" xlink:href="#DejaVuSans-b7"/>
      <use transform="translate(612.719727 0.765625)" xlink:href="#DejaVuSans-73"/>
      <use transform="translate(665.776367 39.046875)scale(0.7)" xlink:href="#DejaVuSans-2212"/>
      <use transform="translate(724.428711 39.046875)scale(0.7)" xlink:href="#DejaVuSans-31"/>
      <use transform="translate(768.964844 39.046875)scale(0.7)" xlink:href="#DejaVuSans-2f"/>
      <use transform="translate(790.011328 39.046875)scale(0.7)" xlink:href="#DejaVuSans-32"/>
     </g>
    </g>
   </g>
  </g>
 </g>
 <defs>
  <clipPath id="p26cc1ed9f2">
   <rect height="207.9" width="354.775" x="66.425" y="18.3"/>
  </clipPath>
 </defs>
</svg>
