<?xml version="1.0" encoding="utf-8" standalone="no"?>
<!DOCTYPE svg PUBLIC "-//W3C//DTD SVG 1.1//EN"
  "http://www.w3.org/Graphics/SVG/1.1/DTD/svg11.dtd">
<svg height="288pt" version="1.1" viewBox="0 0 432 288" width="432pt" xmlns="http://www.w3.org/2000/svg" xmlns:xlink="http://www.w3.org/1999/xlink">
 <metadata>
  <rdf:RDF xmlns:cc="http://creativecommons.org/ns#" xmlns:dc="http://purl.org/dc/elements/1.1/" xmlns:rdf="http://www.w3.org/1999/02/22-rdf-syntax-ns#">
   <cc:Work>
    <dc:type rdf:resource="http://purl.org/dc/dcmitype/StillImage"/>
    <dc:date>2022-09-22T12:21:58.253915</dc:date>
    <dc:format>image/svg+xml</dc:format>
    <dc:creator>
     <cc:Agent>
      <dc:title>Matplotlib v3.4.1, https://matplotlib.org/</dc:title>
     </cc:Agent>
    </dc:creator>
   </cc:Work>
  </rdf:RDF>
 </metadata>
 <defs>
  <style type="text/css">*{stroke-linecap:butt;stroke-linejoin:round;}</style>
 </defs>
 <g id="figure_1">
  <g id="patch_1">
   <path d="M 0 288 
L 432 288 
L 432 0 
L 0 0 
z
" style="fill:none;"/>
  </g>
  <g id="axes_1">
   <g id="patch_2">
    <path d="M 58.675 218.4 
L 414.105682 218.4 
L 414.105682 18.3 
L 58.675 18.3 
z
" style="fill:#ffffff;"/>
   </g>
   <g id="matplotlib.axis_1">
    <g id="xtick_1">
     <g id="line2d_1">
      <defs>
       <path d="M 0 0 
L 0 3.5 
" id="m854201d78f" style="stroke:#000000;stroke-width:0.8;"/>
      </defs>
      <g>
       <use style="stroke:#000000;stroke-width:0.8;" x="74.83094" xlink:href="#m854201d78f" y="218.4"/>
      </g>
     </g>
     <g id="text_1">
      <!-- 0.0 -->
      <g transform="translate(58.927815 240.596875)scale(0.2 -0.2)">
       <defs>
        <path d="M 2034 4250 
Q 1547 4250 1301 3770 
Q 1056 3291 1056 2328 
Q 1056 1369 1301 889 
Q 1547 409 2034 409 
Q 2525 409 2770 889 
Q 3016 1369 3016 2328 
Q 3016 3291 2770 3770 
Q 2525 4250 2034 4250 
z
M 2034 4750 
Q 2819 4750 3233 4129 
Q 3647 3509 3647 2328 
Q 3647 1150 3233 529 
Q 2819 -91 2034 -91 
Q 1250 -91 836 529 
Q 422 1150 422 2328 
Q 422 3509 836 4129 
Q 1250 4750 2034 4750 
z
" id="DejaVuSans-30" transform="scale(0.015625)"/>
        <path d="M 684 794 
L 1344 794 
L 1344 0 
L 684 0 
L 684 794 
z
" id="DejaVuSans-2e" transform="scale(0.015625)"/>
       </defs>
       <use xlink:href="#DejaVuSans-30"/>
       <use x="63.623047" xlink:href="#DejaVuSans-2e"/>
       <use x="95.410156" xlink:href="#DejaVuSans-30"/>
      </g>
     </g>
    </g>
    <g id="xtick_2">
     <g id="line2d_2">
      <g>
       <use style="stroke:#000000;stroke-width:0.8;" x="182.537207" xlink:href="#m854201d78f" y="218.4"/>
      </g>
     </g>
     <g id="text_2">
      <!-- 0.01 -->
      <g transform="translate(160.271582 240.596875)scale(0.2 -0.2)">
       <defs>
        <path d="M 794 531 
L 1825 531 
L 1825 4091 
L 703 3866 
L 703 4441 
L 1819 4666 
L 2450 4666 
L 2450 531 
L 3481 531 
L 3481 0 
L 794 0 
L 794 531 
z
" id="DejaVuSans-31" transform="scale(0.015625)"/>
       </defs>
       <use xlink:href="#DejaVuSans-30"/>
       <use x="63.623047" xlink:href="#DejaVuSans-2e"/>
       <use x="95.410156" xlink:href="#DejaVuSans-30"/>
       <use x="159.033203" xlink:href="#DejaVuSans-31"/>
      </g>
     </g>
    </g>
    <g id="xtick_3">
     <g id="line2d_3">
      <g>
       <use style="stroke:#000000;stroke-width:0.8;" x="290.243475" xlink:href="#m854201d78f" y="218.4"/>
      </g>
     </g>
     <g id="text_3">
      <!-- 0.03 -->
      <g transform="translate(267.97785 240.596875)scale(0.2 -0.2)">
       <defs>
        <path d="M 2597 2516 
Q 3050 2419 3304 2112 
Q 3559 1806 3559 1356 
Q 3559 666 3084 287 
Q 2609 -91 1734 -91 
Q 1441 -91 1130 -33 
Q 819 25 488 141 
L 488 750 
Q 750 597 1062 519 
Q 1375 441 1716 441 
Q 2309 441 2620 675 
Q 2931 909 2931 1356 
Q 2931 1769 2642 2001 
Q 2353 2234 1838 2234 
L 1294 2234 
L 1294 2753 
L 1863 2753 
Q 2328 2753 2575 2939 
Q 2822 3125 2822 3475 
Q 2822 3834 2567 4026 
Q 2313 4219 1838 4219 
Q 1578 4219 1281 4162 
Q 984 4106 628 3988 
L 628 4550 
Q 988 4650 1302 4700 
Q 1616 4750 1894 4750 
Q 2613 4750 3031 4423 
Q 3450 4097 3450 3541 
Q 3450 3153 3228 2886 
Q 3006 2619 2597 2516 
z
" id="DejaVuSans-33" transform="scale(0.015625)"/>
       </defs>
       <use xlink:href="#DejaVuSans-30"/>
       <use x="63.623047" xlink:href="#DejaVuSans-2e"/>
       <use x="95.410156" xlink:href="#DejaVuSans-30"/>
       <use x="159.033203" xlink:href="#DejaVuSans-33"/>
      </g>
     </g>
    </g>
    <g id="xtick_4">
     <g id="line2d_4">
      <g>
       <use style="stroke:#000000;stroke-width:0.8;" x="397.949742" xlink:href="#m854201d78f" y="218.4"/>
      </g>
     </g>
     <g id="text_4">
      <!-- 0.04 -->
      <g transform="translate(375.684117 240.596875)scale(0.2 -0.2)">
       <defs>
        <path d="M 2419 4116 
L 825 1625 
L 2419 1625 
L 2419 4116 
z
M 2253 4666 
L 3047 4666 
L 3047 1625 
L 3713 1625 
L 3713 1100 
L 3047 1100 
L 3047 0 
L 2419 0 
L 2419 1100 
L 313 1100 
L 313 1709 
L 2253 4666 
z
" id="DejaVuSans-34" transform="scale(0.015625)"/>
       </defs>
       <use xlink:href="#DejaVuSans-30"/>
       <use x="63.623047" xlink:href="#DejaVuSans-2e"/>
       <use x="95.410156" xlink:href="#DejaVuSans-30"/>
       <use x="159.033203" xlink:href="#DejaVuSans-34"/>
      </g>
     </g>
    </g>
    <g id="text_5">
     <!-- $\sigma_W$ (V·s$^{-1/2}$) -->
     <g transform="translate(173.690341 267.940938)scale(0.22 -0.22)">
      <defs>
       <path d="M 2219 3044 
Q 1744 3044 1422 2700 
Q 1081 2341 969 1747 
Q 844 1119 1044 756 
Q 1241 397 1706 397 
Q 2166 397 2503 759 
Q 2844 1122 2966 1747 
Q 3075 2319 2881 2700 
Q 2700 3044 2219 3044 
z
M 2309 3503 
L 4219 3500 
L 4106 2925 
L 3463 2925 
Q 3706 2438 3575 1747 
Q 3406 888 2884 400 
Q 2359 -91 1609 -91 
Q 856 -91 525 400 
Q 194 888 363 1747 
Q 528 2609 1050 3097 
Q 1484 3503 2309 3503 
z
" id="DejaVuSans-Oblique-3c3" transform="scale(0.015625)"/>
       <path d="M 616 4666 
L 1228 4666 
L 1453 697 
L 3213 4666 
L 3916 4666 
L 4147 697 
L 5888 4666 
L 6528 4666 
L 4453 0 
L 3659 0 
L 3444 3891 
L 1697 0 
L 903 0 
L 616 4666 
z
" id="DejaVuSans-Oblique-57" transform="scale(0.015625)"/>
       <path id="DejaVuSans-20" transform="scale(0.015625)"/>
       <path d="M 1984 4856 
Q 1566 4138 1362 3434 
Q 1159 2731 1159 2009 
Q 1159 1288 1364 580 
Q 1569 -128 1984 -844 
L 1484 -844 
Q 1016 -109 783 600 
Q 550 1309 550 2009 
Q 550 2706 781 3412 
Q 1013 4119 1484 4856 
L 1984 4856 
z
" id="DejaVuSans-28" transform="scale(0.015625)"/>
       <path d="M 1831 0 
L 50 4666 
L 709 4666 
L 2188 738 
L 3669 4666 
L 4325 4666 
L 2547 0 
L 1831 0 
z
" id="DejaVuSans-56" transform="scale(0.015625)"/>
       <path d="M 684 2619 
L 1344 2619 
L 1344 1825 
L 684 1825 
L 684 2619 
z
" id="DejaVuSans-b7" transform="scale(0.015625)"/>
       <path d="M 2834 3397 
L 2834 2853 
Q 2591 2978 2328 3040 
Q 2066 3103 1784 3103 
Q 1356 3103 1142 2972 
Q 928 2841 928 2578 
Q 928 2378 1081 2264 
Q 1234 2150 1697 2047 
L 1894 2003 
Q 2506 1872 2764 1633 
Q 3022 1394 3022 966 
Q 3022 478 2636 193 
Q 2250 -91 1575 -91 
Q 1294 -91 989 -36 
Q 684 19 347 128 
L 347 722 
Q 666 556 975 473 
Q 1284 391 1588 391 
Q 1994 391 2212 530 
Q 2431 669 2431 922 
Q 2431 1156 2273 1281 
Q 2116 1406 1581 1522 
L 1381 1569 
Q 847 1681 609 1914 
Q 372 2147 372 2553 
Q 372 3047 722 3315 
Q 1072 3584 1716 3584 
Q 2034 3584 2315 3537 
Q 2597 3491 2834 3397 
z
" id="DejaVuSans-73" transform="scale(0.015625)"/>
       <path d="M 678 2272 
L 4684 2272 
L 4684 1741 
L 678 1741 
L 678 2272 
z
" id="DejaVuSans-2212" transform="scale(0.015625)"/>
       <path d="M 1625 4666 
L 2156 4666 
L 531 -594 
L 0 -594 
L 1625 4666 
z
" id="DejaVuSans-2f" transform="scale(0.015625)"/>
       <path d="M 1228 531 
L 3431 531 
L 3431 0 
L 469 0 
L 469 531 
Q 828 903 1448 1529 
Q 2069 2156 2228 2338 
Q 2531 2678 2651 2914 
Q 2772 3150 2772 3378 
Q 2772 3750 2511 3984 
Q 2250 4219 1831 4219 
Q 1534 4219 1204 4116 
Q 875 4013 500 3803 
L 500 4441 
Q 881 4594 1212 4672 
Q 1544 4750 1819 4750 
Q 2544 4750 2975 4387 
Q 3406 4025 3406 3419 
Q 3406 3131 3298 2873 
Q 3191 2616 2906 2266 
Q 2828 2175 2409 1742 
Q 1991 1309 1228 531 
z
" id="DejaVuSans-32" transform="scale(0.015625)"/>
       <path d="M 513 4856 
L 1013 4856 
Q 1481 4119 1714 3412 
Q 1947 2706 1947 2009 
Q 1947 1309 1714 600 
Q 1481 -109 1013 -844 
L 513 -844 
Q 928 -128 1133 580 
Q 1338 1288 1338 2009 
Q 1338 2731 1133 3434 
Q 928 4138 513 4856 
z
" id="DejaVuSans-29" transform="scale(0.015625)"/>
      </defs>
      <use transform="translate(0 0.765625)" xlink:href="#DejaVuSans-Oblique-3c3"/>
      <use transform="translate(63.378906 -15.640625)scale(0.7)" xlink:href="#DejaVuSans-Oblique-57"/>
      <use transform="translate(135.327148 0.765625)" xlink:href="#DejaVuSans-20"/>
      <use transform="translate(167.114258 0.765625)" xlink:href="#DejaVuSans-28"/>
      <use transform="translate(206.12793 0.765625)" xlink:href="#DejaVuSans-56"/>
      <use transform="translate(274.536133 0.765625)" xlink:href="#DejaVuSans-b7"/>
      <use transform="translate(306.323242 0.765625)" xlink:href="#DejaVuSans-73"/>
      <use transform="translate(359.379883 39.046875)scale(0.7)" xlink:href="#DejaVuSans-2212"/>
      <use transform="translate(418.032227 39.046875)scale(0.7)" xlink:href="#DejaVuSans-31"/>
      <use transform="translate(462.568359 39.046875)scale(0.7)" xlink:href="#DejaVuSans-2f"/>
      <use transform="translate(483.614844 39.046875)scale(0.7)" xlink:href="#DejaVuSans-32"/>
      <use transform="translate(530.885352 0.765625)" xlink:href="#DejaVuSans-29"/>
     </g>
    </g>
   </g>
   <g id="matplotlib.axis_2">
    <g id="ytick_1">
     <g id="line2d_5">
      <defs>
       <path d="M 0 0 
L -3.5 0 
" id="m9b86767009" style="stroke:#000000;stroke-width:0.8;"/>
      </defs>
      <g>
       <use style="stroke:#000000;stroke-width:0.8;" x="58.675" xlink:href="#m9b86767009" y="210.528505"/>
      </g>
     </g>
     <g id="text_6">
      <!-- 0 -->
      <g transform="translate(38.95 218.126943)scale(0.2 -0.2)">
       <use xlink:href="#DejaVuSans-30"/>
      </g>
     </g>
    </g>
    <g id="ytick_2">
     <g id="line2d_6">
      <g>
       <use style="stroke:#000000;stroke-width:0.8;" x="58.675" xlink:href="#m9b86767009" y="162.471379"/>
      </g>
     </g>
     <g id="text_7">
      <!-- 1 -->
      <g transform="translate(38.95 170.069816)scale(0.2 -0.2)">
       <use xlink:href="#DejaVuSans-31"/>
      </g>
     </g>
    </g>
    <g id="ytick_3">
     <g id="line2d_7">
      <g>
       <use style="stroke:#000000;stroke-width:0.8;" x="58.675" xlink:href="#m9b86767009" y="114.414253"/>
      </g>
     </g>
     <g id="text_8">
      <!-- 2 -->
      <g transform="translate(38.95 122.01269)scale(0.2 -0.2)">
       <use xlink:href="#DejaVuSans-32"/>
      </g>
     </g>
    </g>
    <g id="ytick_4">
     <g id="line2d_8">
      <g>
       <use style="stroke:#000000;stroke-width:0.8;" x="58.675" xlink:href="#m9b86767009" y="66.357126"/>
      </g>
     </g>
     <g id="text_9">
      <!-- 3 -->
      <g transform="translate(38.95 73.955564)scale(0.2 -0.2)">
       <use xlink:href="#DejaVuSans-33"/>
      </g>
     </g>
    </g>
    <g id="ytick_5">
     <g id="line2d_9">
      <g>
       <use style="stroke:#000000;stroke-width:0.8;" x="58.675" xlink:href="#m9b86767009" y="18.3"/>
      </g>
     </g>
     <g id="text_10">
      <!-- 4 -->
      <g transform="translate(38.95 25.898437)scale(0.2 -0.2)">
       <use xlink:href="#DejaVuSans-34"/>
      </g>
     </g>
    </g>
    <g id="text_11">
     <!-- $I_m$ (bit/cycle) -->
     <g transform="translate(30.33 187.98)rotate(-90)scale(0.22 -0.22)">
      <defs>
       <path d="M 1081 4666 
L 1716 4666 
L 806 0 
L 172 0 
L 1081 4666 
z
" id="DejaVuSans-Oblique-49" transform="scale(0.015625)"/>
       <path d="M 5747 2113 
L 5338 0 
L 4763 0 
L 5166 2094 
Q 5191 2228 5203 2325 
Q 5216 2422 5216 2491 
Q 5216 2772 5059 2928 
Q 4903 3084 4622 3084 
Q 4203 3084 3875 2770 
Q 3547 2456 3450 1953 
L 3066 0 
L 2491 0 
L 2900 2094 
Q 2925 2209 2937 2307 
Q 2950 2406 2950 2484 
Q 2950 2769 2794 2926 
Q 2638 3084 2363 3084 
Q 1938 3084 1609 2770 
Q 1281 2456 1184 1953 
L 800 0 
L 225 0 
L 909 3500 
L 1484 3500 
L 1375 2956 
Q 1609 3263 1923 3423 
Q 2238 3584 2597 3584 
Q 2978 3584 3223 3384 
Q 3469 3184 3519 2828 
Q 3781 3197 4126 3390 
Q 4472 3584 4856 3584 
Q 5306 3584 5551 3325 
Q 5797 3066 5797 2591 
Q 5797 2488 5784 2364 
Q 5772 2241 5747 2113 
z
" id="DejaVuSans-Oblique-6d" transform="scale(0.015625)"/>
       <path d="M 3116 1747 
Q 3116 2381 2855 2742 
Q 2594 3103 2138 3103 
Q 1681 3103 1420 2742 
Q 1159 2381 1159 1747 
Q 1159 1113 1420 752 
Q 1681 391 2138 391 
Q 2594 391 2855 752 
Q 3116 1113 3116 1747 
z
M 1159 2969 
Q 1341 3281 1617 3432 
Q 1894 3584 2278 3584 
Q 2916 3584 3314 3078 
Q 3713 2572 3713 1747 
Q 3713 922 3314 415 
Q 2916 -91 2278 -91 
Q 1894 -91 1617 61 
Q 1341 213 1159 525 
L 1159 0 
L 581 0 
L 581 4863 
L 1159 4863 
L 1159 2969 
z
" id="DejaVuSans-62" transform="scale(0.015625)"/>
       <path d="M 603 3500 
L 1178 3500 
L 1178 0 
L 603 0 
L 603 3500 
z
M 603 4863 
L 1178 4863 
L 1178 4134 
L 603 4134 
L 603 4863 
z
" id="DejaVuSans-69" transform="scale(0.015625)"/>
       <path d="M 1172 4494 
L 1172 3500 
L 2356 3500 
L 2356 3053 
L 1172 3053 
L 1172 1153 
Q 1172 725 1289 603 
Q 1406 481 1766 481 
L 2356 481 
L 2356 0 
L 1766 0 
Q 1100 0 847 248 
Q 594 497 594 1153 
L 594 3053 
L 172 3053 
L 172 3500 
L 594 3500 
L 594 4494 
L 1172 4494 
z
" id="DejaVuSans-74" transform="scale(0.015625)"/>
       <path d="M 3122 3366 
L 3122 2828 
Q 2878 2963 2633 3030 
Q 2388 3097 2138 3097 
Q 1578 3097 1268 2742 
Q 959 2388 959 1747 
Q 959 1106 1268 751 
Q 1578 397 2138 397 
Q 2388 397 2633 464 
Q 2878 531 3122 666 
L 3122 134 
Q 2881 22 2623 -34 
Q 2366 -91 2075 -91 
Q 1284 -91 818 406 
Q 353 903 353 1747 
Q 353 2603 823 3093 
Q 1294 3584 2113 3584 
Q 2378 3584 2631 3529 
Q 2884 3475 3122 3366 
z
" id="DejaVuSans-63" transform="scale(0.015625)"/>
       <path d="M 2059 -325 
Q 1816 -950 1584 -1140 
Q 1353 -1331 966 -1331 
L 506 -1331 
L 506 -850 
L 844 -850 
Q 1081 -850 1212 -737 
Q 1344 -625 1503 -206 
L 1606 56 
L 191 3500 
L 800 3500 
L 1894 763 
L 2988 3500 
L 3597 3500 
L 2059 -325 
z
" id="DejaVuSans-79" transform="scale(0.015625)"/>
       <path d="M 603 4863 
L 1178 4863 
L 1178 0 
L 603 0 
L 603 4863 
z
" id="DejaVuSans-6c" transform="scale(0.015625)"/>
       <path d="M 3597 1894 
L 3597 1613 
L 953 1613 
Q 991 1019 1311 708 
Q 1631 397 2203 397 
Q 2534 397 2845 478 
Q 3156 559 3463 722 
L 3463 178 
Q 3153 47 2828 -22 
Q 2503 -91 2169 -91 
Q 1331 -91 842 396 
Q 353 884 353 1716 
Q 353 2575 817 3079 
Q 1281 3584 2069 3584 
Q 2775 3584 3186 3129 
Q 3597 2675 3597 1894 
z
M 3022 2063 
Q 3016 2534 2758 2815 
Q 2500 3097 2075 3097 
Q 1594 3097 1305 2825 
Q 1016 2553 972 2059 
L 3022 2063 
z
" id="DejaVuSans-65" transform="scale(0.015625)"/>
      </defs>
      <use transform="translate(0 0.015625)" xlink:href="#DejaVuSans-Oblique-49"/>
      <use transform="translate(29.492188 -16.390625)scale(0.7)" xlink:href="#DejaVuSans-Oblique-6d"/>
      <use transform="translate(100.415039 0.015625)" xlink:href="#DejaVuSans-20"/>
      <use transform="translate(132.202148 0.015625)" xlink:href="#DejaVuSans-28"/>
      <use transform="translate(171.21582 0.015625)" xlink:href="#DejaVuSans-62"/>
      <use transform="translate(234.692383 0.015625)" xlink:href="#DejaVuSans-69"/>
      <use transform="translate(262.475586 0.015625)" xlink:href="#DejaVuSans-74"/>
      <use transform="translate(301.68457 0.015625)" xlink:href="#DejaVuSans-2f"/>
      <use transform="translate(335.375977 0.015625)" xlink:href="#DejaVuSans-63"/>
      <use transform="translate(390.356445 0.015625)" xlink:href="#DejaVuSans-79"/>
      <use transform="translate(449.536133 0.015625)" xlink:href="#DejaVuSans-63"/>
      <use transform="translate(504.516602 0.015625)" xlink:href="#DejaVuSans-6c"/>
      <use transform="translate(532.299805 0.015625)" xlink:href="#DejaVuSans-65"/>
      <use transform="translate(593.823242 0.015625)" xlink:href="#DejaVuSans-29"/>
     </g>
    </g>
   </g>
   <g id="line2d_10">
    <path clip-path="url(#p77acf8f8c4)" d="M 74.83094 51.067942 
L 78.094766 51.067942 
L 81.358593 59.535495 
L 84.622419 74.284516 
L 87.886245 81.987203 
L 91.150071 85.559319 
L 94.413898 89.573444 
L 97.677724 91.671187 
L 100.94155 93.190183 
L 104.205377 94.480064 
L 107.469203 97.779738 
L 110.733029 100.743105 
L 113.996855 103.297665 
L 117.260682 106.287714 
L 120.524508 109.0549 
L 123.788334 111.55156 
L 127.052161 113.968466 
L 130.315987 116.407973 
L 133.579813 118.657636 
L 136.843639 120.515597 
L 140.107466 122.670761 
L 143.371292 124.144208 
L 146.635118 125.734177 
L 149.898945 127.812822 
L 153.162771 129.735042 
L 156.426597 131.543652 
L 159.690423 133.024507 
L 162.95425 134.879093 
L 166.218076 136.288318 
L 169.481902 137.781411 
L 172.745728 139.070375 
L 176.009555 140.508783 
L 179.273381 141.817374 
L 182.537207 143.171067 
L 185.801034 144.517223 
L 189.06486 145.750483 
L 192.328686 146.802944 
L 195.592512 147.953389 
L 198.856339 149.197059 
L 202.120165 150.07468 
L 205.383991 151.425263 
L 208.647818 152.456905 
L 211.911644 153.682134 
L 215.17547 154.721575 
L 218.439296 155.584575 
L 221.703123 156.7605 
L 224.966949 157.515025 
L 228.230775 158.419922 
L 231.494601 159.389643 
L 234.758428 160.071822 
L 238.022254 161.126475 
L 241.28608 161.921514 
L 244.549907 162.56213 
L 247.813733 163.404465 
L 251.077559 164.412662 
L 254.341385 165.295988 
L 257.605212 166.059416 
L 260.869038 166.821549 
L 264.132864 167.577695 
L 267.396691 168.243364 
L 270.660517 168.926659 
L 273.924343 169.797062 
L 277.188169 170.651502 
L 280.451996 171.426197 
L 283.715822 172.269819 
L 286.979648 173.07058 
L 290.243475 173.652698 
L 293.507301 174.110186 
L 296.771127 174.956394 
L 300.034953 175.590094 
L 303.29878 176.330914 
L 306.562606 176.766295 
L 309.826432 177.408462 
L 313.090258 178.201716 
L 316.354085 178.812791 
L 319.617911 179.508465 
L 322.881737 180.021783 
L 326.145564 180.648973 
L 329.40939 181.17858 
L 332.673216 181.66557 
L 335.937042 182.212673 
L 339.200869 182.825187 
L 342.464695 183.299764 
L 345.728521 183.889189 
L 348.992348 184.566413 
L 352.256174 185.197834 
L 355.52 185.644091 
L 358.783826 186.226998 
L 362.047653 186.661503 
L 365.311479 187.134888 
L 368.575305 187.637442 
L 371.839132 187.873426 
L 375.102958 188.426782 
L 378.366784 188.936005 
L 381.63061 189.438414 
L 384.894437 189.925422 
L 388.158263 190.432562 
L 391.422089 190.702182 
L 394.685915 191.144737 
L 397.949742 191.553736 
" style="fill:none;stroke:#c7e9c0;stroke-linecap:square;stroke-width:3;"/>
   </g>
   <g id="line2d_11">
    <path clip-path="url(#p77acf8f8c4)" d="M 74.83094 56.26538 
L 78.094766 68.919839 
L 81.358593 73.15758 
L 84.622419 73.330319 
L 87.886245 80.099022 
L 91.150071 94.171294 
L 94.413898 100.411717 
L 97.677724 105.261394 
L 100.94155 115.327194 
L 104.205377 118.826275 
L 107.469203 121.835207 
L 110.733029 124.616632 
L 113.996855 127.525882 
L 117.260682 130.404133 
L 120.524508 132.984985 
L 123.788334 136.972637 
L 127.052161 139.300217 
L 130.315987 141.245225 
L 133.579813 143.529323 
L 136.843639 145.277728 
L 140.107466 147.594377 
L 143.371292 149.643352 
L 146.635118 151.627093 
L 149.898945 153.122162 
L 153.162771 154.962522 
L 156.426597 156.512968 
L 159.690423 158.365056 
L 162.95425 160.209949 
L 166.218076 161.763247 
L 169.481902 163.069701 
L 172.745728 164.357685 
L 176.009555 166.072209 
L 179.273381 167.255386 
L 182.537207 168.326619 
L 185.801034 169.229375 
L 189.06486 170.456949 
L 192.328686 172.113535 
L 195.592512 172.876839 
L 198.856339 173.770782 
L 202.120165 174.728548 
L 205.383991 175.726852 
L 208.647818 176.195962 
L 211.911644 177.123166 
L 215.17547 178.421064 
L 218.439296 179.292322 
L 221.703123 180.079225 
L 224.966949 180.778859 
L 228.230775 181.395803 
L 231.494601 182.16233 
L 234.758428 182.834999 
L 238.022254 183.586792 
L 241.28608 184.079242 
L 244.549907 185.169224 
L 247.813733 185.791061 
L 251.077559 186.34461 
L 254.341385 187.079427 
L 257.605212 187.573 
L 260.869038 188.161894 
L 264.132864 188.749514 
L 267.396691 189.225383 
L 270.660517 189.790211 
L 273.924343 190.330771 
L 277.188169 190.740964 
L 280.451996 191.210462 
L 283.715822 191.680615 
L 286.979648 191.978055 
L 290.243475 192.41794 
L 293.507301 192.731095 
L 296.771127 192.968771 
L 300.034953 193.284985 
L 303.29878 193.861731 
L 306.562606 194.271798 
L 309.826432 194.666105 
L 313.090258 194.967473 
L 316.354085 195.303196 
L 319.617911 195.568575 
L 322.881737 195.880253 
L 326.145564 196.256784 
L 329.40939 196.52137 
L 332.673216 196.92499 
L 335.937042 197.089089 
L 339.200869 197.336059 
L 342.464695 197.659734 
L 345.728521 198.061774 
L 348.992348 198.2948 
L 352.256174 198.559467 
L 355.52 198.815723 
L 358.783826 199.178904 
L 362.047653 199.388726 
L 365.311479 199.51521 
L 368.575305 199.759334 
L 371.839132 199.993899 
L 375.102958 200.111044 
L 378.366784 200.224822 
L 381.63061 200.377952 
L 384.894437 200.517925 
L 388.158263 200.746984 
L 391.422089 200.934361 
L 394.685915 201.153105 
L 397.949742 201.281859 
" style="fill:none;stroke:#73c476;stroke-linecap:square;stroke-width:3;"/>
   </g>
   <g id="line2d_12">
    <path clip-path="url(#p77acf8f8c4)" d="M 74.83094 71.585624 
L 78.094766 73.938344 
L 81.358593 94.289793 
L 84.622419 112.284813 
L 87.886245 116.014139 
L 91.150071 123.993731 
L 94.413898 133.379259 
L 97.677724 140.605019 
L 100.94155 145.55356 
L 104.205377 153.619729 
L 107.469203 157.484617 
L 110.733029 163.388165 
L 113.996855 166.540101 
L 117.260682 169.954531 
L 120.524508 172.756349 
L 123.788334 175.818225 
L 127.052161 178.4442 
L 130.315987 180.886549 
L 133.579813 182.838043 
L 136.843639 184.603558 
L 140.107466 186.852521 
L 143.371292 188.471931 
L 146.635118 189.957566 
L 149.898945 191.09004 
L 153.162771 192.304868 
L 156.426597 193.493953 
L 159.690423 194.499118 
L 162.95425 195.693239 
L 166.218076 196.439283 
L 169.481902 197.257264 
L 172.745728 198.011945 
L 176.009555 198.865407 
L 179.273381 199.430182 
L 182.537207 200.297054 
L 185.801034 200.926804 
L 189.06486 201.542818 
L 192.328686 201.707052 
L 195.592512 202.218743 
L 198.856339 202.772491 
L 202.120165 203.065444 
L 205.383991 203.57107 
L 208.647818 203.937095 
L 211.911644 204.25533 
L 215.17547 204.626229 
L 218.439296 204.868569 
L 221.703123 205.113783 
L 224.966949 205.295381 
L 228.230775 205.55073 
L 231.494601 205.769776 
L 234.758428 205.973648 
L 238.022254 206.134674 
L 241.28608 206.256958 
L 244.549907 206.503332 
L 247.813733 206.739352 
L 251.077559 206.910737 
L 254.341385 207.078077 
L 257.605212 207.156013 
L 260.869038 207.223697 
L 264.132864 207.335027 
L 267.396691 207.555663 
L 270.660517 207.787524 
L 273.924343 207.734278 
L 277.188169 207.893522 
L 280.451996 208.016709 
L 283.715822 207.997811 
L 286.979648 208.104985 
L 290.243475 208.084265 
L 293.507301 208.23071 
L 296.771127 208.311894 
L 300.034953 208.362113 
L 303.29878 208.374163 
L 306.562606 208.423182 
L 309.826432 208.574253 
L 313.090258 208.588025 
L 316.354085 208.660428 
L 319.617911 208.697295 
L 322.881737 208.737001 
L 326.145564 208.753593 
L 329.40939 208.760509 
L 332.673216 208.811071 
L 335.937042 208.847125 
L 339.200869 208.903721 
L 342.464695 208.984353 
L 345.728521 209.081196 
L 348.992348 209.130437 
L 352.256174 209.130598 
L 355.52 209.174213 
L 358.783826 209.228553 
L 362.047653 209.235372 
L 365.311479 209.247428 
L 368.575305 209.295028 
L 371.839132 209.395582 
L 375.102958 209.408614 
L 378.366784 209.432035 
L 381.63061 209.468211 
L 384.894437 209.519171 
L 388.158263 209.552648 
L 391.422089 209.549002 
L 394.685915 209.544877 
L 397.949742 209.584148 
" style="fill:none;stroke:#228a44;stroke-linecap:square;stroke-width:3;"/>
   </g>
   <g id="line2d_13">
    <path clip-path="url(#p77acf8f8c4)" d="M 74.83094 51.133397 
L 78.094766 63.514244 
L 81.358593 88.411943 
L 84.622419 91.876486 
L 87.886245 115.152588 
L 91.150071 125.99674 
L 94.413898 135.994819 
L 97.677724 141.149593 
L 100.94155 148.152479 
L 104.205377 153.039435 
L 107.469203 159.599219 
L 110.733029 163.374511 
L 113.996855 167.655594 
L 117.260682 170.86248 
L 120.524508 174.873011 
L 123.788334 178.118706 
L 127.052161 182.186708 
L 130.315987 185.354048 
L 133.579813 188.839512 
L 136.843639 190.581643 
L 140.107466 193.01467 
L 143.371292 194.975149 
L 146.635118 196.9447 
L 149.898945 198.769397 
L 153.162771 200.210847 
L 156.426597 201.423537 
L 159.690423 202.545722 
L 162.95425 203.428338 
L 166.218076 204.591719 
L 169.481902 205.29567 
L 172.745728 205.93207 
L 176.009555 206.447957 
L 179.273381 206.925639 
L 182.537207 207.307193 
L 185.801034 207.760514 
L 189.06486 207.997841 
L 192.328686 208.150311 
L 195.592512 208.41769 
L 198.856339 208.578734 
L 202.120165 208.829236 
L 205.383991 208.933567 
L 208.647818 209.129379 
L 211.911644 209.289672 
L 215.17547 209.435668 
L 218.439296 209.54793 
L 221.703123 209.716008 
L 224.966949 209.789947 
L 228.230775 209.788845 
L 231.494601 209.866973 
L 234.758428 209.898803 
L 238.022254 209.88276 
L 241.28608 209.957866 
L 244.549907 210.011374 
L 247.813733 210.064275 
L 251.077559 210.060489 
L 254.341385 210.121375 
L 257.605212 210.075439 
L 260.869038 210.124831 
L 264.132864 210.104647 
L 267.396691 210.090789 
L 270.660517 210.137646 
L 273.924343 210.153102 
L 277.188169 210.200522 
L 280.451996 210.214674 
L 283.715822 210.246948 
L 286.979648 210.231492 
L 290.243475 210.208269 
L 293.507301 210.260594 
L 296.771127 210.294627 
L 300.034953 210.319842 
L 303.29878 210.324936 
L 306.562606 210.298663 
L 309.826432 210.275305 
L 313.090258 210.302516 
L 316.354085 210.243716 
L 319.617911 210.266847 
L 322.881737 210.282533 
L 326.145564 210.276112 
L 329.40939 210.299799 
L 332.673216 210.258828 
L 335.937042 210.286578 
L 339.200869 210.284971 
L 342.464695 210.315519 
L 345.728521 210.327709 
L 348.992348 210.340677 
L 352.256174 210.309205 
L 355.52 210.384414 
L 358.783826 210.350738 
L 362.047653 210.371224 
L 365.311479 210.348894 
L 368.575305 210.326983 
L 371.839132 210.355104 
L 375.102958 210.367963 
L 378.366784 210.3974 
L 381.63061 210.41009 
L 384.894437 210.431807 
L 388.158263 210.394657 
L 391.422089 210.382061 
L 394.685915 210.376 
L 397.949742 210.374452 
" style="fill:none;stroke:#00441b;stroke-linecap:square;stroke-width:3;"/>
   </g>
   <g id="line2d_14">
    <path clip-path="url(#p77acf8f8c4)" d="M 58.675 50.886187 
L 414.105682 50.886187 
" style="fill:none;stroke:#1f77b4;stroke-dasharray:5.55,2.4;stroke-dashoffset:0;stroke-width:1.5;"/>
   </g>
   <g id="patch_3">
    <path d="M 58.675 218.4 
L 58.675 18.3 
" style="fill:none;stroke:#000000;stroke-linecap:square;stroke-linejoin:miter;stroke-width:0.8;"/>
   </g>
   <g id="patch_4">
    <path d="M 58.675 218.4 
L 414.105682 218.4 
" style="fill:none;stroke:#000000;stroke-linecap:square;stroke-linejoin:miter;stroke-width:0.8;"/>
   </g>
   <g id="text_12">
    <!-- $-\log{({\frac{1}{M})}}$ -->
    <g transform="translate(83.173832 37.522851)scale(0.18 -0.18)">
     <defs>
      <path d="M 1959 3097 
Q 1497 3097 1228 2736 
Q 959 2375 959 1747 
Q 959 1119 1226 758 
Q 1494 397 1959 397 
Q 2419 397 2687 759 
Q 2956 1122 2956 1747 
Q 2956 2369 2687 2733 
Q 2419 3097 1959 3097 
z
M 1959 3584 
Q 2709 3584 3137 3096 
Q 3566 2609 3566 1747 
Q 3566 888 3137 398 
Q 2709 -91 1959 -91 
Q 1206 -91 779 398 
Q 353 888 353 1747 
Q 353 2609 779 3096 
Q 1206 3584 1959 3584 
z
" id="DejaVuSans-6f" transform="scale(0.015625)"/>
      <path d="M 2906 1791 
Q 2906 2416 2648 2759 
Q 2391 3103 1925 3103 
Q 1463 3103 1205 2759 
Q 947 2416 947 1791 
Q 947 1169 1205 825 
Q 1463 481 1925 481 
Q 2391 481 2648 825 
Q 2906 1169 2906 1791 
z
M 3481 434 
Q 3481 -459 3084 -895 
Q 2688 -1331 1869 -1331 
Q 1566 -1331 1297 -1286 
Q 1028 -1241 775 -1147 
L 775 -588 
Q 1028 -725 1275 -790 
Q 1522 -856 1778 -856 
Q 2344 -856 2625 -561 
Q 2906 -266 2906 331 
L 2906 616 
Q 2728 306 2450 153 
Q 2172 0 1784 0 
Q 1141 0 747 490 
Q 353 981 353 1791 
Q 353 2603 747 3093 
Q 1141 3584 1784 3584 
Q 2172 3584 2450 3431 
Q 2728 3278 2906 2969 
L 2906 3500 
L 3481 3500 
L 3481 434 
z
" id="DejaVuSans-67" transform="scale(0.015625)"/>
      <path d="M 1081 4666 
L 2028 4666 
L 2572 1522 
L 4378 4666 
L 5350 4666 
L 4441 0 
L 3828 0 
L 4622 4091 
L 2791 897 
L 2175 897 
L 1581 4103 
L 788 0 
L 172 0 
L 1081 4666 
z
" id="DejaVuSans-Oblique-4d" transform="scale(0.015625)"/>
     </defs>
     <use transform="translate(0 0.16875)" xlink:href="#DejaVuSans-2212"/>
     <use transform="translate(83.789062 0.16875)" xlink:href="#DejaVuSans-6c"/>
     <use transform="translate(111.572266 0.16875)" xlink:href="#DejaVuSans-6f"/>
     <use transform="translate(172.753906 0.16875)" xlink:href="#DejaVuSans-67"/>
     <use transform="translate(252.466145 0.16875)" xlink:href="#DejaVuSans-28"/>
     <use transform="translate(299.479817 43.965625)scale(0.7)" xlink:href="#DejaVuSans-31"/>
     <use transform="translate(291.479817 -38.31875)scale(0.7)" xlink:href="#DejaVuSans-Oblique-4d"/>
     <use transform="translate(364.375325 0.16875)" xlink:href="#DejaVuSans-29"/>
     <path d="M 291.479817 18.965625 
L 291.479817 25.215625 
L 351.875325 25.215625 
L 351.875325 18.965625 
L 291.479817 18.965625 
z
"/>
    </g>
   </g>
   <g id="legend_1">
    <g id="line2d_15">
     <path d="M 313.391932 91.040625 
L 337.391932 91.040625 
" style="fill:none;stroke:#c7e9c0;stroke-linecap:square;stroke-width:3;"/>
    </g>
    <g id="line2d_16"/>
    <g id="text_13">
     <!-- f = 1 Hz -->
     <g transform="translate(346.991932 95.240625)scale(0.12 -0.12)">
      <defs>
       <path d="M 2375 4863 
L 2375 4384 
L 1825 4384 
Q 1516 4384 1395 4259 
Q 1275 4134 1275 3809 
L 1275 3500 
L 2222 3500 
L 2222 3053 
L 1275 3053 
L 1275 0 
L 697 0 
L 697 3053 
L 147 3053 
L 147 3500 
L 697 3500 
L 697 3744 
Q 697 4328 969 4595 
Q 1241 4863 1831 4863 
L 2375 4863 
z
" id="DejaVuSans-66" transform="scale(0.015625)"/>
       <path d="M 678 2906 
L 4684 2906 
L 4684 2381 
L 678 2381 
L 678 2906 
z
M 678 1631 
L 4684 1631 
L 4684 1100 
L 678 1100 
L 678 1631 
z
" id="DejaVuSans-3d" transform="scale(0.015625)"/>
       <path d="M 628 4666 
L 1259 4666 
L 1259 2753 
L 3553 2753 
L 3553 4666 
L 4184 4666 
L 4184 0 
L 3553 0 
L 3553 2222 
L 1259 2222 
L 1259 0 
L 628 0 
L 628 4666 
z
" id="DejaVuSans-48" transform="scale(0.015625)"/>
       <path d="M 353 3500 
L 3084 3500 
L 3084 2975 
L 922 459 
L 3084 459 
L 3084 0 
L 275 0 
L 275 525 
L 2438 3041 
L 353 3041 
L 353 3500 
z
" id="DejaVuSans-7a" transform="scale(0.015625)"/>
      </defs>
      <use xlink:href="#DejaVuSans-66"/>
      <use x="35.205078" xlink:href="#DejaVuSans-20"/>
      <use x="66.992188" xlink:href="#DejaVuSans-3d"/>
      <use x="150.78125" xlink:href="#DejaVuSans-20"/>
      <use x="182.568359" xlink:href="#DejaVuSans-31"/>
      <use x="246.191406" xlink:href="#DejaVuSans-20"/>
      <use x="277.978516" xlink:href="#DejaVuSans-48"/>
      <use x="353.173828" xlink:href="#DejaVuSans-7a"/>
     </g>
    </g>
    <g id="line2d_17">
     <path d="M 313.391932 108.654375 
L 337.391932 108.654375 
" style="fill:none;stroke:#73c476;stroke-linecap:square;stroke-width:3;"/>
    </g>
    <g id="line2d_18"/>
    <g id="text_14">
     <!-- f = 5 Hz -->
     <g transform="translate(346.991932 112.854375)scale(0.12 -0.12)">
      <defs>
       <path d="M 691 4666 
L 3169 4666 
L 3169 4134 
L 1269 4134 
L 1269 2991 
Q 1406 3038 1543 3061 
Q 1681 3084 1819 3084 
Q 2600 3084 3056 2656 
Q 3513 2228 3513 1497 
Q 3513 744 3044 326 
Q 2575 -91 1722 -91 
Q 1428 -91 1123 -41 
Q 819 9 494 109 
L 494 744 
Q 775 591 1075 516 
Q 1375 441 1709 441 
Q 2250 441 2565 725 
Q 2881 1009 2881 1497 
Q 2881 1984 2565 2268 
Q 2250 2553 1709 2553 
Q 1456 2553 1204 2497 
Q 953 2441 691 2322 
L 691 4666 
z
" id="DejaVuSans-35" transform="scale(0.015625)"/>
      </defs>
      <use xlink:href="#DejaVuSans-66"/>
      <use x="35.205078" xlink:href="#DejaVuSans-20"/>
      <use x="66.992188" xlink:href="#DejaVuSans-3d"/>
      <use x="150.78125" xlink:href="#DejaVuSans-20"/>
      <use x="182.568359" xlink:href="#DejaVuSans-35"/>
      <use x="246.191406" xlink:href="#DejaVuSans-20"/>
      <use x="277.978516" xlink:href="#DejaVuSans-48"/>
      <use x="353.173828" xlink:href="#DejaVuSans-7a"/>
     </g>
    </g>
    <g id="line2d_19">
     <path d="M 313.391932 126.268125 
L 337.391932 126.268125 
" style="fill:none;stroke:#228a44;stroke-linecap:square;stroke-width:3;"/>
    </g>
    <g id="line2d_20"/>
    <g id="text_15">
     <!-- f = 15 Hz -->
     <g transform="translate(346.991932 130.468125)scale(0.12 -0.12)">
      <use xlink:href="#DejaVuSans-66"/>
      <use x="35.205078" xlink:href="#DejaVuSans-20"/>
      <use x="66.992188" xlink:href="#DejaVuSans-3d"/>
      <use x="150.78125" xlink:href="#DejaVuSans-20"/>
      <use x="182.568359" xlink:href="#DejaVuSans-31"/>
      <use x="246.191406" xlink:href="#DejaVuSans-35"/>
      <use x="309.814453" xlink:href="#DejaVuSans-20"/>
      <use x="341.601562" xlink:href="#DejaVuSans-48"/>
      <use x="416.796875" xlink:href="#DejaVuSans-7a"/>
     </g>
    </g>
    <g id="line2d_21">
     <path d="M 313.391932 143.881875 
L 337.391932 143.881875 
" style="fill:none;stroke:#00441b;stroke-linecap:square;stroke-width:3;"/>
    </g>
    <g id="line2d_22"/>
    <g id="text_16">
     <!-- f = 30 Hz -->
     <g transform="translate(346.991932 148.081875)scale(0.12 -0.12)">
      <use xlink:href="#DejaVuSans-66"/>
      <use x="35.205078" xlink:href="#DejaVuSans-20"/>
      <use x="66.992188" xlink:href="#DejaVuSans-3d"/>
      <use x="150.78125" xlink:href="#DejaVuSans-20"/>
      <use x="182.568359" xlink:href="#DejaVuSans-33"/>
      <use x="246.191406" xlink:href="#DejaVuSans-30"/>
      <use x="309.814453" xlink:href="#DejaVuSans-20"/>
      <use x="341.601562" xlink:href="#DejaVuSans-48"/>
      <use x="416.796875" xlink:href="#DejaVuSans-7a"/>
     </g>
    </g>
   </g>
  </g>
 </g>
 <defs>
  <clipPath id="p77acf8f8c4">
   <rect height="200.1" width="355.430682" x="58.675" y="18.3"/>
  </clipPath>
 </defs>
</svg>
