<?xml version="1.0" encoding="utf-8" standalone="no"?>
<!DOCTYPE svg PUBLIC "-//W3C//DTD SVG 1.1//EN"
  "http://www.w3.org/Graphics/SVG/1.1/DTD/svg11.dtd">
<svg height="288pt" version="1.1" viewBox="0 0 432 288" width="432pt" xmlns="http://www.w3.org/2000/svg" xmlns:xlink="http://www.w3.org/1999/xlink">
 <metadata>
  <rdf:RDF xmlns:cc="http://creativecommons.org/ns#" xmlns:dc="http://purl.org/dc/elements/1.1/" xmlns:rdf="http://www.w3.org/1999/02/22-rdf-syntax-ns#">
   <cc:Work>
    <dc:type rdf:resource="http://purl.org/dc/dcmitype/StillImage"/>
    <dc:date>2022-09-22T12:21:25.664816</dc:date>
    <dc:format>image/svg+xml</dc:format>
    <dc:creator>
     <cc:Agent>
      <dc:title>Matplotlib v3.4.1, https://matplotlib.org/</dc:title>
     </cc:Agent>
    </dc:creator>
   </cc:Work>
  </rdf:RDF>
 </metadata>
 <defs>
  <style type="text/css">*{stroke-linecap:butt;stroke-linejoin:round;}</style>
 </defs>
 <g id="figure_1">
  <g id="patch_1">
   <path d="M 0 288 
L 432 288 
L 432 0 
L 0 0 
z
" style="fill:none;"/>
  </g>
  <g id="axes_1">
   <g id="patch_2">
    <path d="M 83.3 226.2 
L 421.2 226.2 
L 421.2 18.3 
L 83.3 18.3 
z
" style="fill:#ffffff;"/>
   </g>
   <g id="matplotlib.axis_1">
    <g id="xtick_1">
     <g id="line2d_1">
      <defs>
       <path d="M 0 0 
L 0 3.5 
" id="mde69f5dab9" style="stroke:#000000;stroke-width:0.8;"/>
      </defs>
      <g>
       <use style="stroke:#000000;stroke-width:0.8;" x="92.390074" xlink:href="#mde69f5dab9" y="226.2"/>
      </g>
     </g>
     <g id="text_1">
      <!-- 0 -->
      <g transform="translate(86.027574 248.396875)scale(0.2 -0.2)">
       <defs>
        <path d="M 2034 4250 
Q 1547 4250 1301 3770 
Q 1056 3291 1056 2328 
Q 1056 1369 1301 889 
Q 1547 409 2034 409 
Q 2525 409 2770 889 
Q 3016 1369 3016 2328 
Q 3016 3291 2770 3770 
Q 2525 4250 2034 4250 
z
M 2034 4750 
Q 2819 4750 3233 4129 
Q 3647 3509 3647 2328 
Q 3647 1150 3233 529 
Q 2819 -91 2034 -91 
Q 1250 -91 836 529 
Q 422 1150 422 2328 
Q 422 3509 836 4129 
Q 1250 4750 2034 4750 
z
" id="DejaVuSans-30" transform="scale(0.015625)"/>
       </defs>
       <use xlink:href="#DejaVuSans-30"/>
      </g>
     </g>
    </g>
    <g id="xtick_2">
     <g id="line2d_2">
      <g>
       <use style="stroke:#000000;stroke-width:0.8;" x="155.080241" xlink:href="#mde69f5dab9" y="226.2"/>
      </g>
     </g>
     <g id="text_2">
      <!-- 10 -->
      <g transform="translate(142.355241 248.396875)scale(0.2 -0.2)">
       <defs>
        <path d="M 794 531 
L 1825 531 
L 1825 4091 
L 703 3866 
L 703 4441 
L 1819 4666 
L 2450 4666 
L 2450 531 
L 3481 531 
L 3481 0 
L 794 0 
L 794 531 
z
" id="DejaVuSans-31" transform="scale(0.015625)"/>
       </defs>
       <use xlink:href="#DejaVuSans-31"/>
       <use x="63.623047" xlink:href="#DejaVuSans-30"/>
      </g>
     </g>
    </g>
    <g id="xtick_3">
     <g id="line2d_3">
      <g>
       <use style="stroke:#000000;stroke-width:0.8;" x="217.770408" xlink:href="#mde69f5dab9" y="226.2"/>
      </g>
     </g>
     <g id="text_3">
      <!-- 20 -->
      <g transform="translate(205.045408 248.396875)scale(0.2 -0.2)">
       <defs>
        <path d="M 1228 531 
L 3431 531 
L 3431 0 
L 469 0 
L 469 531 
Q 828 903 1448 1529 
Q 2069 2156 2228 2338 
Q 2531 2678 2651 2914 
Q 2772 3150 2772 3378 
Q 2772 3750 2511 3984 
Q 2250 4219 1831 4219 
Q 1534 4219 1204 4116 
Q 875 4013 500 3803 
L 500 4441 
Q 881 4594 1212 4672 
Q 1544 4750 1819 4750 
Q 2544 4750 2975 4387 
Q 3406 4025 3406 3419 
Q 3406 3131 3298 2873 
Q 3191 2616 2906 2266 
Q 2828 2175 2409 1742 
Q 1991 1309 1228 531 
z
" id="DejaVuSans-32" transform="scale(0.015625)"/>
       </defs>
       <use xlink:href="#DejaVuSans-32"/>
       <use x="63.623047" xlink:href="#DejaVuSans-30"/>
      </g>
     </g>
    </g>
    <g id="xtick_4">
     <g id="line2d_4">
      <g>
       <use style="stroke:#000000;stroke-width:0.8;" x="280.460575" xlink:href="#mde69f5dab9" y="226.2"/>
      </g>
     </g>
     <g id="text_4">
      <!-- 30 -->
      <g transform="translate(267.735575 248.396875)scale(0.2 -0.2)">
       <defs>
        <path d="M 2597 2516 
Q 3050 2419 3304 2112 
Q 3559 1806 3559 1356 
Q 3559 666 3084 287 
Q 2609 -91 1734 -91 
Q 1441 -91 1130 -33 
Q 819 25 488 141 
L 488 750 
Q 750 597 1062 519 
Q 1375 441 1716 441 
Q 2309 441 2620 675 
Q 2931 909 2931 1356 
Q 2931 1769 2642 2001 
Q 2353 2234 1838 2234 
L 1294 2234 
L 1294 2753 
L 1863 2753 
Q 2328 2753 2575 2939 
Q 2822 3125 2822 3475 
Q 2822 3834 2567 4026 
Q 2313 4219 1838 4219 
Q 1578 4219 1281 4162 
Q 984 4106 628 3988 
L 628 4550 
Q 988 4650 1302 4700 
Q 1616 4750 1894 4750 
Q 2613 4750 3031 4423 
Q 3450 4097 3450 3541 
Q 3450 3153 3228 2886 
Q 3006 2619 2597 2516 
z
" id="DejaVuSans-33" transform="scale(0.015625)"/>
       </defs>
       <use xlink:href="#DejaVuSans-33"/>
       <use x="63.623047" xlink:href="#DejaVuSans-30"/>
      </g>
     </g>
    </g>
    <g id="xtick_5">
     <g id="line2d_5">
      <g>
       <use style="stroke:#000000;stroke-width:0.8;" x="343.150742" xlink:href="#mde69f5dab9" y="226.2"/>
      </g>
     </g>
     <g id="text_5">
      <!-- 40 -->
      <g transform="translate(330.425742 248.396875)scale(0.2 -0.2)">
       <defs>
        <path d="M 2419 4116 
L 825 1625 
L 2419 1625 
L 2419 4116 
z
M 2253 4666 
L 3047 4666 
L 3047 1625 
L 3713 1625 
L 3713 1100 
L 3047 1100 
L 3047 0 
L 2419 0 
L 2419 1100 
L 313 1100 
L 313 1709 
L 2253 4666 
z
" id="DejaVuSans-34" transform="scale(0.015625)"/>
       </defs>
       <use xlink:href="#DejaVuSans-34"/>
       <use x="63.623047" xlink:href="#DejaVuSans-30"/>
      </g>
     </g>
    </g>
    <g id="xtick_6">
     <g id="line2d_6">
      <g>
       <use style="stroke:#000000;stroke-width:0.8;" x="405.840909" xlink:href="#mde69f5dab9" y="226.2"/>
      </g>
     </g>
     <g id="text_6">
      <!-- 50 -->
      <g transform="translate(393.115909 248.396875)scale(0.2 -0.2)">
       <defs>
        <path d="M 691 4666 
L 3169 4666 
L 3169 4134 
L 1269 4134 
L 1269 2991 
Q 1406 3038 1543 3061 
Q 1681 3084 1819 3084 
Q 2600 3084 3056 2656 
Q 3513 2228 3513 1497 
Q 3513 744 3044 326 
Q 2575 -91 1722 -91 
Q 1428 -91 1123 -41 
Q 819 9 494 109 
L 494 744 
Q 775 591 1075 516 
Q 1375 441 1709 441 
Q 2250 441 2565 725 
Q 2881 1009 2881 1497 
Q 2881 1984 2565 2268 
Q 2250 2553 1709 2553 
Q 1456 2553 1204 2497 
Q 953 2441 691 2322 
L 691 4666 
z
" id="DejaVuSans-35" transform="scale(0.015625)"/>
       </defs>
       <use xlink:href="#DejaVuSans-35"/>
       <use x="63.623047" xlink:href="#DejaVuSans-30"/>
      </g>
     </g>
    </g>
    <g id="text_7">
     <!-- $f$ (Hz) -->
     <g transform="translate(224.95 271.753125)scale(0.2 -0.2)">
      <defs>
       <path d="M 3059 4863 
L 2969 4384 
L 2419 4384 
Q 2106 4384 1964 4261 
Q 1822 4138 1753 3809 
L 1691 3500 
L 2638 3500 
L 2553 3053 
L 1606 3053 
L 1013 0 
L 434 0 
L 1031 3053 
L 481 3053 
L 563 3500 
L 1113 3500 
L 1159 3744 
Q 1278 4363 1576 4613 
Q 1875 4863 2516 4863 
L 3059 4863 
z
" id="DejaVuSans-Oblique-66" transform="scale(0.015625)"/>
       <path id="DejaVuSans-20" transform="scale(0.015625)"/>
       <path d="M 1984 4856 
Q 1566 4138 1362 3434 
Q 1159 2731 1159 2009 
Q 1159 1288 1364 580 
Q 1569 -128 1984 -844 
L 1484 -844 
Q 1016 -109 783 600 
Q 550 1309 550 2009 
Q 550 2706 781 3412 
Q 1013 4119 1484 4856 
L 1984 4856 
z
" id="DejaVuSans-28" transform="scale(0.015625)"/>
       <path d="M 628 4666 
L 1259 4666 
L 1259 2753 
L 3553 2753 
L 3553 4666 
L 4184 4666 
L 4184 0 
L 3553 0 
L 3553 2222 
L 1259 2222 
L 1259 0 
L 628 0 
L 628 4666 
z
" id="DejaVuSans-48" transform="scale(0.015625)"/>
       <path d="M 353 3500 
L 3084 3500 
L 3084 2975 
L 922 459 
L 3084 459 
L 3084 0 
L 275 0 
L 275 525 
L 2438 3041 
L 353 3041 
L 353 3500 
z
" id="DejaVuSans-7a" transform="scale(0.015625)"/>
       <path d="M 513 4856 
L 1013 4856 
Q 1481 4119 1714 3412 
Q 1947 2706 1947 2009 
Q 1947 1309 1714 600 
Q 1481 -109 1013 -844 
L 513 -844 
Q 928 -128 1133 580 
Q 1338 1288 1338 2009 
Q 1338 2731 1133 3434 
Q 928 4138 513 4856 
z
" id="DejaVuSans-29" transform="scale(0.015625)"/>
      </defs>
      <use transform="translate(0 0.015625)" xlink:href="#DejaVuSans-Oblique-66"/>
      <use transform="translate(35.205078 0.015625)" xlink:href="#DejaVuSans-20"/>
      <use transform="translate(66.992188 0.015625)" xlink:href="#DejaVuSans-28"/>
      <use transform="translate(106.005859 0.015625)" xlink:href="#DejaVuSans-48"/>
      <use transform="translate(181.201172 0.015625)" xlink:href="#DejaVuSans-7a"/>
      <use transform="translate(233.691406 0.015625)" xlink:href="#DejaVuSans-29"/>
     </g>
    </g>
   </g>
   <g id="matplotlib.axis_2">
    <g id="ytick_1">
     <g id="line2d_7">
      <defs>
       <path d="M 0 0 
L -3.5 0 
" id="ma636b31e66" style="stroke:#000000;stroke-width:0.8;"/>
      </defs>
      <g>
       <use style="stroke:#000000;stroke-width:0.8;" x="83.3" xlink:href="#ma636b31e66" y="201.687153"/>
      </g>
     </g>
     <g id="text_8">
      <!-- 80 -->
      <g transform="translate(50.85 209.285591)scale(0.2 -0.2)">
       <defs>
        <path d="M 2034 2216 
Q 1584 2216 1326 1975 
Q 1069 1734 1069 1313 
Q 1069 891 1326 650 
Q 1584 409 2034 409 
Q 2484 409 2743 651 
Q 3003 894 3003 1313 
Q 3003 1734 2745 1975 
Q 2488 2216 2034 2216 
z
M 1403 2484 
Q 997 2584 770 2862 
Q 544 3141 544 3541 
Q 544 4100 942 4425 
Q 1341 4750 2034 4750 
Q 2731 4750 3128 4425 
Q 3525 4100 3525 3541 
Q 3525 3141 3298 2862 
Q 3072 2584 2669 2484 
Q 3125 2378 3379 2068 
Q 3634 1759 3634 1313 
Q 3634 634 3220 271 
Q 2806 -91 2034 -91 
Q 1263 -91 848 271 
Q 434 634 434 1313 
Q 434 1759 690 2068 
Q 947 2378 1403 2484 
z
M 1172 3481 
Q 1172 3119 1398 2916 
Q 1625 2713 2034 2713 
Q 2441 2713 2670 2916 
Q 2900 3119 2900 3481 
Q 2900 3844 2670 4047 
Q 2441 4250 2034 4250 
Q 1625 4250 1398 4047 
Q 1172 3844 1172 3481 
z
" id="DejaVuSans-38" transform="scale(0.015625)"/>
       </defs>
       <use xlink:href="#DejaVuSans-38"/>
       <use x="63.623047" xlink:href="#DejaVuSans-30"/>
      </g>
     </g>
    </g>
    <g id="ytick_2">
     <g id="line2d_8">
      <g>
       <use style="stroke:#000000;stroke-width:0.8;" x="83.3" xlink:href="#ma636b31e66" y="140.558102"/>
      </g>
     </g>
     <g id="text_9">
      <!-- 120 -->
      <g transform="translate(38.125 148.15654)scale(0.2 -0.2)">
       <use xlink:href="#DejaVuSans-31"/>
       <use x="63.623047" xlink:href="#DejaVuSans-32"/>
       <use x="127.246094" xlink:href="#DejaVuSans-30"/>
      </g>
     </g>
    </g>
    <g id="ytick_3">
     <g id="line2d_9">
      <g>
       <use style="stroke:#000000;stroke-width:0.8;" x="83.3" xlink:href="#ma636b31e66" y="79.429051"/>
      </g>
     </g>
     <g id="text_10">
      <!-- 160 -->
      <g transform="translate(38.125 87.027489)scale(0.2 -0.2)">
       <defs>
        <path d="M 2113 2584 
Q 1688 2584 1439 2293 
Q 1191 2003 1191 1497 
Q 1191 994 1439 701 
Q 1688 409 2113 409 
Q 2538 409 2786 701 
Q 3034 994 3034 1497 
Q 3034 2003 2786 2293 
Q 2538 2584 2113 2584 
z
M 3366 4563 
L 3366 3988 
Q 3128 4100 2886 4159 
Q 2644 4219 2406 4219 
Q 1781 4219 1451 3797 
Q 1122 3375 1075 2522 
Q 1259 2794 1537 2939 
Q 1816 3084 2150 3084 
Q 2853 3084 3261 2657 
Q 3669 2231 3669 1497 
Q 3669 778 3244 343 
Q 2819 -91 2113 -91 
Q 1303 -91 875 529 
Q 447 1150 447 2328 
Q 447 3434 972 4092 
Q 1497 4750 2381 4750 
Q 2619 4750 2861 4703 
Q 3103 4656 3366 4563 
z
" id="DejaVuSans-36" transform="scale(0.015625)"/>
       </defs>
       <use xlink:href="#DejaVuSans-31"/>
       <use x="63.623047" xlink:href="#DejaVuSans-36"/>
       <use x="127.246094" xlink:href="#DejaVuSans-30"/>
      </g>
     </g>
    </g>
    <g id="ytick_4">
     <g id="line2d_10">
      <g>
       <use style="stroke:#000000;stroke-width:0.8;" x="83.3" xlink:href="#ma636b31e66" y="18.3"/>
      </g>
     </g>
     <g id="text_11">
      <!-- 200 -->
      <g transform="translate(38.125 25.898437)scale(0.2 -0.2)">
       <use xlink:href="#DejaVuSans-32"/>
       <use x="63.623047" xlink:href="#DejaVuSans-30"/>
       <use x="127.246094" xlink:href="#DejaVuSans-30"/>
      </g>
     </g>
    </g>
    <g id="text_12">
     <!-- $I$ (pA) -->
     <g transform="translate(29.925 149.45)rotate(-90)scale(0.2 -0.2)">
      <defs>
       <path d="M 1081 4666 
L 1716 4666 
L 806 0 
L 172 0 
L 1081 4666 
z
" id="DejaVuSans-Oblique-49" transform="scale(0.015625)"/>
       <path d="M 1159 525 
L 1159 -1331 
L 581 -1331 
L 581 3500 
L 1159 3500 
L 1159 2969 
Q 1341 3281 1617 3432 
Q 1894 3584 2278 3584 
Q 2916 3584 3314 3078 
Q 3713 2572 3713 1747 
Q 3713 922 3314 415 
Q 2916 -91 2278 -91 
Q 1894 -91 1617 61 
Q 1341 213 1159 525 
z
M 3116 1747 
Q 3116 2381 2855 2742 
Q 2594 3103 2138 3103 
Q 1681 3103 1420 2742 
Q 1159 2381 1159 1747 
Q 1159 1113 1420 752 
Q 1681 391 2138 391 
Q 2594 391 2855 752 
Q 3116 1113 3116 1747 
z
" id="DejaVuSans-70" transform="scale(0.015625)"/>
       <path d="M 2188 4044 
L 1331 1722 
L 3047 1722 
L 2188 4044 
z
M 1831 4666 
L 2547 4666 
L 4325 0 
L 3669 0 
L 3244 1197 
L 1141 1197 
L 716 0 
L 50 0 
L 1831 4666 
z
" id="DejaVuSans-41" transform="scale(0.015625)"/>
      </defs>
      <use transform="translate(0 0.125)" xlink:href="#DejaVuSans-Oblique-49"/>
      <use transform="translate(29.492188 0.125)" xlink:href="#DejaVuSans-20"/>
      <use transform="translate(61.279297 0.125)" xlink:href="#DejaVuSans-28"/>
      <use transform="translate(100.292969 0.125)" xlink:href="#DejaVuSans-70"/>
      <use transform="translate(163.769531 0.125)" xlink:href="#DejaVuSans-41"/>
      <use transform="translate(232.177734 0.125)" xlink:href="#DejaVuSans-29"/>
     </g>
    </g>
   </g>
   <g id="line2d_11">
    <path clip-path="url(#p932ab718e0)" d="M 98.659091 209.196124 
L 104.928108 209.717208 
L 111.197124 208.819612 
L 117.466141 206.87545 
L 123.735158 203.541076 
L 130.004174 201.347997 
L 136.273191 196.623685 
L 142.542208 193.924268 
L 148.811224 190.812149 
L 155.080241 187.246319 
L 161.349258 183.747447 
L 167.618275 180.865947 
L 173.887291 177.894378 
L 180.156308 174.255909 
L 186.425325 170.750515 
L 192.694341 167.748011 
L 198.963358 164.41108 
L 205.232375 160.866635 
L 211.501391 157.197763 
L 217.770408 153.946436 
L 224.039425 149.94404 
L 230.308442 145.912927 
L 236.577458 142.571934 
L 242.846475 139.001812 
L 249.115492 135.598442 
L 255.384508 132.340131 
L 261.653525 128.409564 
L 267.922542 125.192562 
L 274.191558 121.201217 
L 280.460575 117.744563 
L 286.729592 113.398971 
L 292.998609 110.099309 
L 299.267625 106.121776 
L 305.536642 102.390307 
L 311.805659 99.172268 
L 318.074675 95.322828 
L 324.343692 91.903277 
L 330.612709 87.980415 
L 336.881725 83.930299 
L 343.150742 80.627543 
L 349.419759 76.490559 
L 355.688776 73.17759 
L 361.957792 69.685979 
L 368.226809 64.951774 
L 374.495826 61.974883 
L 380.764842 58.281521 
L 387.033859 54.052109 
L 393.302876 50.418766 
L 399.571892 46.83939 
L 405.840909 42.723237 
" style="fill:none;stroke:#8000ff;stroke-linecap:square;"/>
   </g>
   <g id="line2d_12">
    <path clip-path="url(#p932ab718e0)" d="M 98.659091 216.913996 
L 104.928108 215.185664 
L 111.197124 212.63824 
L 117.466141 209.617685 
L 123.735158 206.402895 
L 130.004174 203.153235 
L 136.273191 199.928832 
L 142.542208 196.735221 
L 148.811224 193.557193 
L 155.080241 190.376272 
L 161.349258 187.177387 
L 167.618275 183.950321 
L 173.887291 180.689134 
L 180.156308 177.39109 
L 186.425325 174.055636 
L 192.694341 170.683615 
L 198.963358 167.27669 
L 205.232375 163.836966 
L 211.501391 160.366736 
L 217.770408 156.868323 
L 224.039425 153.343987 
L 230.308442 149.795868 
L 236.577458 146.225963 
L 242.846475 142.636111 
L 249.115492 139.027996 
L 255.384508 135.403153 
L 261.653525 131.762974 
L 267.922542 128.108721 
L 274.191558 124.441537 
L 280.460575 120.762455 
L 286.729592 117.072412 
L 292.998609 113.372257 
L 299.267625 109.662757 
L 305.536642 105.944611 
L 311.805659 102.218452 
L 318.074675 98.484856 
L 324.343692 94.74435 
L 330.612709 90.997412 
L 336.881725 87.244479 
L 343.150742 83.485952 
L 349.419759 79.722197 
L 355.688776 75.953551 
L 361.957792 72.180323 
L 368.226809 68.402796 
L 374.495826 64.621233 
L 380.764842 60.835876 
L 387.033859 57.046947 
L 393.302876 53.254653 
L 399.571892 49.459184 
L 405.840909 45.660719 
" style="fill:none;stroke:#8000ff;stroke-linecap:square;stroke-opacity:0.3;stroke-width:4;"/>
   </g>
   <g id="line2d_13">
    <path clip-path="url(#p932ab718e0)" d="M 98.659091 181.188126 
L 104.928108 183.331606 
L 111.197124 182.772129 
L 117.466141 181.903712 
L 123.735158 181.102868 
L 130.004174 181.019415 
L 136.273191 179.059252 
L 142.542208 178.042449 
L 148.811224 174.908487 
L 155.080241 173.470707 
L 161.349258 170.609058 
L 167.618275 169.750033 
L 173.887291 166.949782 
L 180.156308 164.111375 
L 186.425325 161.407559 
L 192.694341 159.226704 
L 198.963358 155.718847 
L 205.232375 152.478083 
L 211.501391 150.555085 
L 217.770408 146.821069 
L 224.039425 143.28733 
L 230.308442 139.934539 
L 236.577458 137.793998 
L 242.846475 134.181037 
L 249.115492 131.592614 
L 255.384508 127.761049 
L 261.653525 123.948501 
L 267.922542 121.002496 
L 274.191558 117.62177 
L 280.460575 113.544032 
L 286.729592 109.768224 
L 292.998609 107.105394 
L 299.267625 103.730549 
L 305.536642 99.667029 
L 311.805659 96.088297 
L 318.074675 93.649373 
L 324.343692 88.834343 
L 330.612709 85.035511 
L 336.881725 81.551504 
L 343.150742 78.280052 
L 349.419759 75.194307 
L 355.688776 70.804673 
L 361.957792 68.227866 
L 368.226809 63.062387 
L 374.495826 59.29073 
L 380.764842 55.972011 
L 387.033859 52.115816 
L 393.302876 49.174202 
L 399.571892 45.077925 
L 405.840909 41.605735 
" style="fill:none;stroke:#00b5eb;stroke-linecap:square;"/>
   </g>
   <g id="line2d_14">
    <path clip-path="url(#p932ab718e0)" d="M 98.659091 189.713449 
L 104.928108 188.849283 
L 111.197124 187.575496 
L 117.466141 186.062878 
L 123.735158 184.438492 
L 130.004174 182.755185 
L 136.273191 181.010487 
L 142.542208 179.180052 
L 148.811224 177.239627 
L 155.080241 175.173468 
L 161.349258 172.975097 
L 167.618275 170.645238 
L 173.887291 168.189321 
L 180.156308 165.615438 
L 186.425325 162.932887 
L 192.694341 160.151256 
L 198.963358 157.279856 
L 205.232375 154.327433 
L 211.501391 151.302018 
L 217.770408 148.210889 
L 224.039425 145.060583 
L 230.308442 141.85694 
L 236.577458 138.605159 
L 242.846475 135.309864 
L 249.115492 131.975161 
L 255.384508 128.604702 
L 261.653525 125.201733 
L 267.922542 121.769146 
L 274.191558 118.309521 
L 280.460575 114.825161 
L 286.729592 111.31813 
L 292.998609 107.790277 
L 299.267625 104.243264 
L 305.536642 100.678588 
L 311.805659 97.097599 
L 318.074675 93.501517 
L 324.343692 89.891447 
L 330.612709 86.268393 
L 336.881725 82.633266 
L 343.150742 78.986897 
L 349.419759 75.330044 
L 355.688776 71.663399 
L 361.957792 67.987597 
L 368.226809 64.303219 
L 374.495826 60.6108 
L 380.764842 56.910832 
L 387.033859 53.203767 
L 393.302876 49.490023 
L 399.571892 45.769988 
L 405.840909 42.044019 
" style="fill:none;stroke:#00b5eb;stroke-linecap:square;stroke-opacity:0.3;stroke-width:4;"/>
   </g>
   <g id="line2d_15">
    <path clip-path="url(#p932ab718e0)" d="M 98.659091 152.687037 
L 104.928108 156.386415 
L 111.197124 158.77909 
L 117.466141 159.627019 
L 123.735158 159.950105 
L 130.004174 160.64521 
L 136.273191 161.256196 
L 142.542208 162.351162 
L 148.811224 163.301127 
L 155.080241 161.926478 
L 161.349258 160.653943 
L 167.618275 158.754173 
L 173.887291 156.294278 
L 180.156308 154.583371 
L 186.425325 152.185681 
L 192.694341 149.781544 
L 198.963358 147.359006 
L 205.232375 144.534054 
L 211.501391 141.764776 
L 217.770408 139.308967 
L 224.039425 136.415646 
L 230.308442 133.653583 
L 236.577458 130.522485 
L 242.846475 127.732179 
L 249.115492 124.964794 
L 255.384508 121.365612 
L 261.653525 119.457662 
L 267.922542 116.637565 
L 274.191558 113.257569 
L 280.460575 109.859873 
L 286.729592 106.453467 
L 292.998609 102.389739 
L 299.267625 99.628478 
L 305.536642 96.172343 
L 311.805659 91.866098 
L 318.074675 89.943291 
L 324.343692 86.127427 
L 330.612709 81.884973 
L 336.881725 78.706977 
L 343.150742 75.61104 
L 349.419759 72.092299 
L 355.688776 67.934572 
L 361.957792 64.403234 
L 368.226809 60.547173 
L 374.495826 57.979378 
L 380.764842 53.60029 
L 387.033859 50.069528 
L 393.302876 46.020384 
L 399.571892 43.187285 
L 405.840909 39.85864 
" style="fill:none;stroke:#80ffb4;stroke-linecap:square;"/>
   </g>
   <g id="line2d_16">
    <path clip-path="url(#p932ab718e0)" d="M 98.659091 162.512902 
L 104.928108 162.512902 
L 111.197124 162.512752 
L 117.466141 162.50807 
L 123.735158 162.474089 
L 130.004174 162.357135 
L 136.273191 162.092142 
L 142.542208 161.624882 
L 148.811224 160.922061 
L 155.080241 159.970664 
L 161.349258 158.772806 
L 167.618275 157.340154 
L 173.887291 155.689509 
L 180.156308 153.839786 
L 186.425325 151.810139 
L 192.694341 149.618897 
L 198.963358 147.283023 
L 205.232375 144.8179 
L 211.501391 142.2373 
L 217.770408 139.553454 
L 224.039425 136.777179 
L 230.308442 133.918011 
L 236.577458 130.984356 
L 242.846475 127.983617 
L 249.115492 124.922326 
L 255.384508 121.806251 
L 261.653525 118.640492 
L 267.922542 115.429572 
L 274.191558 112.177505 
L 280.460575 108.887867 
L 286.729592 105.563847 
L 292.998609 102.208297 
L 299.267625 98.823771 
L 305.536642 95.412565 
L 311.805659 91.976745 
L 318.074675 88.518177 
L 324.343692 85.038544 
L 330.612709 81.539374 
L 336.881725 78.022053 
L 343.150742 74.487842 
L 349.419759 70.93789 
L 355.688776 67.373247 
L 361.957792 63.794871 
L 368.226809 60.203642 
L 374.495826 56.600367 
L 380.764842 52.985787 
L 387.033859 49.360586 
L 393.302876 45.725394 
L 399.571892 42.080792 
L 405.840909 38.427318 
" style="fill:none;stroke:#80ffb4;stroke-linecap:square;stroke-opacity:0.3;stroke-width:4;"/>
   </g>
   <g id="line2d_17">
    <path clip-path="url(#p932ab718e0)" d="M 98.659091 120.246542 
L 104.928108 127.290146 
L 111.197124 131.678998 
L 117.466141 135.358306 
L 123.735158 138.714951 
L 130.004174 142.547128 
L 136.273191 144.339252 
L 142.542208 147.197736 
L 148.811224 148.266113 
L 155.080241 149.613359 
L 161.349258 151.169065 
L 167.618275 150.895761 
L 173.887291 150.164436 
L 180.156308 147.787605 
L 186.425325 145.771935 
L 192.694341 143.780474 
L 198.963358 140.819822 
L 205.232375 138.893502 
L 211.501391 135.253827 
L 217.770408 133.252789 
L 224.039425 129.626861 
L 230.308442 127.66591 
L 236.577458 125.157796 
L 242.846475 122.15215 
L 249.115492 120.312356 
L 255.384508 116.609361 
L 261.653525 113.172448 
L 267.922542 110.124424 
L 274.191558 107.001606 
L 280.460575 104.382081 
L 286.729592 99.526788 
L 292.998609 96.610169 
L 299.267625 94.738089 
L 305.536642 91.454681 
L 311.805659 87.32752 
L 318.074675 83.797367 
L 324.343692 80.149931 
L 330.612709 76.340438 
L 336.881725 74.097057 
L 343.150742 70.318088 
L 349.419759 67.901508 
L 355.688776 64.210375 
L 361.957792 59.688706 
L 368.226809 57.444065 
L 374.495826 53.583901 
L 380.764842 49.953118 
L 387.033859 46.089005 
L 393.302876 42.492891 
L 399.571892 38.465249 
L 405.840909 35.807256 
" style="fill:none;stroke:#ffb360;stroke-linecap:square;"/>
   </g>
   <g id="line2d_18">
    <path clip-path="url(#p932ab718e0)" d="M 98.659091 135.312355 
L 104.928108 136.176521 
L 111.197124 137.450008 
L 117.466141 138.953263 
L 123.735158 140.509686 
L 130.004174 141.959085 
L 136.273191 143.173797 
L 142.542208 144.069713 
L 148.811224 144.604495 
L 155.080241 144.76786 
L 161.349258 144.570515 
L 167.618275 144.03507 
L 173.887291 143.189696 
L 180.156308 142.064134 
L 186.425325 140.68739 
L 192.694341 139.086538 
L 198.963358 137.28619 
L 205.232375 135.308367 
L 211.501391 133.172582 
L 217.770408 130.89602 
L 224.039425 128.493775 
L 230.308442 125.979083 
L 236.577458 123.363552 
L 242.846475 120.65737 
L 249.115492 117.869491 
L 255.384508 115.0078 
L 261.653525 112.079251 
L 267.922542 109.089997 
L 274.191558 106.045489 
L 280.460575 102.950574 
L 286.729592 99.809565 
L 292.998609 96.626317 
L 299.267625 93.404278 
L 305.536642 90.146542 
L 311.805659 86.855892 
L 318.074675 83.534837 
L 324.343692 80.185641 
L 330.612709 76.810355 
L 336.881725 73.41084 
L 343.150742 69.988787 
L 349.419759 66.545737 
L 355.688776 63.083095 
L 361.957792 59.602145 
L 368.226809 56.104065 
L 374.495826 52.589933 
L 380.764842 49.060743 
L 387.033859 45.517406 
L 393.302876 41.960765 
L 399.571892 38.391596 
L 405.840909 34.810618 
" style="fill:none;stroke:#ffb360;stroke-linecap:square;stroke-opacity:0.3;stroke-width:4;"/>
   </g>
   <g id="line2d_19">
    <path clip-path="url(#p932ab718e0)" d="M 98.659091 100.626613 
L 104.928108 105.478631 
L 111.197124 110.340286 
L 117.466141 115.453362 
L 123.735158 120.26281 
L 130.004174 125.248048 
L 136.273191 129.039256 
L 142.542208 132.29415 
L 148.811224 135.26885 
L 155.080241 136.29708 
L 161.349258 137.209812 
L 167.618275 139.427201 
L 173.887291 139.898398 
L 180.156308 138.515449 
L 186.425325 137.167335 
L 192.694341 135.784598 
L 198.963358 134.022555 
L 205.232375 133.000252 
L 211.501391 130.241524 
L 217.770408 128.168592 
L 224.039425 125.607773 
L 230.308442 123.128755 
L 236.577458 120.870822 
L 242.846475 117.611603 
L 249.115492 115.096792 
L 255.384508 112.116949 
L 261.653525 109.052465 
L 267.922542 106.145038 
L 274.191558 103.270742 
L 280.460575 100.616294 
L 286.729592 97.641165 
L 292.998609 93.900098 
L 299.267625 91.069915 
L 305.536642 87.934203 
L 311.805659 84.307045 
L 318.074675 81.58009 
L 324.343692 78.151032 
L 330.612709 75.039791 
L 336.881725 70.8542 
L 343.150742 67.93522 
L 349.419759 64.732659 
L 355.688776 61.474449 
L 361.957792 57.94632 
L 368.226809 54.104178 
L 374.495826 50.132333 
L 380.764842 47.390312 
L 387.033859 43.908735 
L 393.302876 40.140371 
L 399.571892 36.363827 
L 405.840909 32.926663 
" style="fill:none;stroke:#ff0000;stroke-linecap:square;"/>
   </g>
   <g id="line2d_20">
    <path clip-path="url(#p932ab718e0)" d="M 98.659091 108.111808 
L 104.928108 109.84014 
L 111.197124 112.387264 
L 117.466141 115.398456 
L 123.735158 118.545284 
L 130.004174 121.561035 
L 136.273191 124.255452 
L 142.542208 126.514544 
L 148.811224 128.286928 
L 155.080241 129.565056 
L 161.349258 130.368225 
L 167.618275 130.729986 
L 173.887291 130.689883 
L 180.156308 130.288482 
L 186.425325 129.564641 
L 192.694341 128.554179 
L 198.963358 127.289356 
L 205.232375 125.798834 
L 211.501391 124.107864 
L 217.770408 122.238586 
L 224.039425 120.210371 
L 230.308442 118.040155 
L 236.577458 115.742749 
L 242.846475 113.331123 
L 249.115492 110.816656 
L 255.384508 108.209348 
L 261.653525 105.51801 
L 267.922542 102.750422 
L 274.191558 99.913474 
L 280.460575 97.01328 
L 286.729592 94.055283 
L 292.998609 91.044337 
L 299.267625 87.984785 
L 305.536642 84.880519 
L 311.805659 81.735039 
L 318.074675 78.551497 
L 324.343692 75.332737 
L 330.612709 72.081336 
L 336.881725 68.799627 
L 343.150742 65.489732 
L 349.419759 62.153584 
L 355.688776 58.792942 
L 361.957792 55.409419 
L 368.226809 52.004487 
L 374.495826 48.5795 
L 380.764842 45.135698 
L 387.033859 41.674226 
L 393.302876 38.196136 
L 399.571892 34.7024 
L 405.840909 31.193917 
" style="fill:none;stroke:#ff0000;stroke-linecap:square;stroke-opacity:0.3;stroke-width:4;"/>
   </g>
   <g id="patch_3">
    <path d="M 83.3 226.2 
L 83.3 18.3 
" style="fill:none;stroke:#000000;stroke-linecap:square;stroke-linejoin:miter;stroke-width:0.8;"/>
   </g>
   <g id="patch_4">
    <path d="M 83.3 226.2 
L 421.2 226.2 
" style="fill:none;stroke:#000000;stroke-linecap:square;stroke-linejoin:miter;stroke-width:0.8;"/>
   </g>
   <g id="legend_1">
    <g id="line2d_21">
     <path d="M 101.3 44.496875 
L 141.3 44.496875 
" style="fill:none;stroke:#000000;stroke-linecap:square;stroke-width:4;"/>
    </g>
    <g id="line2d_22"/>
    <g id="text_13">
     <!-- $I_s$ -->
     <g transform="translate(157.3 51.496875)scale(0.2 -0.2)">
      <defs>
       <path d="M 3200 3397 
L 3091 2853 
Q 2863 2978 2609 3040 
Q 2356 3103 2088 3103 
Q 1634 3103 1373 2948 
Q 1113 2794 1113 2528 
Q 1113 2219 1719 2053 
Q 1766 2041 1788 2034 
L 1972 1978 
Q 2547 1819 2739 1644 
Q 2931 1469 2931 1166 
Q 2931 609 2489 259 
Q 2047 -91 1331 -91 
Q 1053 -91 747 -37 
Q 441 16 72 128 
L 184 722 
Q 500 559 806 475 
Q 1113 391 1394 391 
Q 1816 391 2080 572 
Q 2344 753 2344 1031 
Q 2344 1331 1650 1516 
L 1591 1531 
L 1394 1581 
Q 956 1697 753 1886 
Q 550 2075 550 2369 
Q 550 2928 970 3256 
Q 1391 3584 2113 3584 
Q 2397 3584 2667 3537 
Q 2938 3491 3200 3397 
z
" id="DejaVuSans-Oblique-73" transform="scale(0.015625)"/>
      </defs>
      <use transform="translate(0 0.09375)" xlink:href="#DejaVuSans-Oblique-49"/>
      <use transform="translate(29.492188 -16.3125)scale(0.7)" xlink:href="#DejaVuSans-Oblique-73"/>
     </g>
    </g>
    <g id="line2d_23">
     <path d="M 101.3 73.853125 
L 141.3 73.853125 
" style="fill:none;stroke:#000000;stroke-linecap:square;"/>
    </g>
    <g id="line2d_24"/>
    <g id="text_14">
     <!-- $\langle I_{eff}\rangle$ -->
     <g transform="translate(157.3 80.853125)scale(0.2 -0.2)">
      <defs>
       <path d="M 572 2006 
L 1453 4856 
L 1984 4856 
L 1103 2006 
L 1984 -844 
L 1453 -844 
L 572 2006 
z
" id="DejaVuSans-27e8" transform="scale(0.015625)"/>
       <path d="M 3078 2063 
Q 3088 2113 3092 2166 
Q 3097 2219 3097 2272 
Q 3097 2653 2873 2875 
Q 2650 3097 2266 3097 
Q 1838 3097 1509 2826 
Q 1181 2556 1013 2059 
L 3078 2063 
z
M 3578 1613 
L 903 1613 
Q 884 1494 878 1425 
Q 872 1356 872 1306 
Q 872 872 1139 634 
Q 1406 397 1894 397 
Q 2269 397 2603 481 
Q 2938 566 3225 728 
L 3116 159 
Q 2806 34 2476 -28 
Q 2147 -91 1806 -91 
Q 1078 -91 686 257 
Q 294 606 294 1247 
Q 294 1794 489 2264 
Q 684 2734 1063 3103 
Q 1306 3334 1642 3459 
Q 1978 3584 2356 3584 
Q 2950 3584 3301 3228 
Q 3653 2872 3653 2272 
Q 3653 2128 3634 1964 
Q 3616 1800 3578 1613 
z
" id="DejaVuSans-Oblique-65" transform="scale(0.015625)"/>
       <path d="M 1925 2006 
L 1044 -844 
L 513 -844 
L 1394 2006 
L 513 4856 
L 1044 4856 
L 1925 2006 
z
" id="DejaVuSans-27e9" transform="scale(0.015625)"/>
      </defs>
      <use transform="translate(0 0.125)" xlink:href="#DejaVuSans-27e8"/>
      <use transform="translate(39.013672 0.125)" xlink:href="#DejaVuSans-Oblique-49"/>
      <use transform="translate(68.505859 -16.28125)scale(0.7)" xlink:href="#DejaVuSans-Oblique-65"/>
      <use transform="translate(111.572266 -16.28125)scale(0.7)" xlink:href="#DejaVuSans-Oblique-66"/>
      <use transform="translate(136.21582 -16.28125)scale(0.7)" xlink:href="#DejaVuSans-Oblique-66"/>
      <use transform="translate(163.59375 0.125)" xlink:href="#DejaVuSans-27e9"/>
     </g>
    </g>
   </g>
  </g>
 </g>
 <defs>
  <clipPath id="p932ab718e0">
   <rect height="207.9" width="337.9" x="83.3" y="18.3"/>
  </clipPath>
 </defs>
</svg>
