<?xml version="1.0" encoding="utf-8" standalone="no"?>
<!DOCTYPE svg PUBLIC "-//W3C//DTD SVG 1.1//EN"
  "http://www.w3.org/Graphics/SVG/1.1/DTD/svg11.dtd">
<svg height="288pt" version="1.1" viewBox="0 0 432 288" width="432pt" xmlns="http://www.w3.org/2000/svg" xmlns:xlink="http://www.w3.org/1999/xlink">
 <metadata>
  <rdf:RDF xmlns:cc="http://creativecommons.org/ns#" xmlns:dc="http://purl.org/dc/elements/1.1/" xmlns:rdf="http://www.w3.org/1999/02/22-rdf-syntax-ns#">
   <cc:Work>
    <dc:type rdf:resource="http://purl.org/dc/dcmitype/StillImage"/>
    <dc:date>2022-09-22T12:20:46.448511</dc:date>
    <dc:format>image/svg+xml</dc:format>
    <dc:creator>
     <cc:Agent>
      <dc:title>Matplotlib v3.4.1, https://matplotlib.org/</dc:title>
     </cc:Agent>
    </dc:creator>
   </cc:Work>
  </rdf:RDF>
 </metadata>
 <defs>
  <style type="text/css">*{stroke-linecap:butt;stroke-linejoin:round;}</style>
 </defs>
 <g id="figure_1">
  <g id="patch_1">
   <path d="M 0 288 
L 432 288 
L 432 0 
L 0 0 
z
" style="fill:none;"/>
  </g>
  <g id="axes_1">
   <g id="patch_2">
    <path d="M 60.175 226.2 
L 421.2 226.2 
L 421.2 18.3 
L 60.175 18.3 
z
" style="fill:#ffffff;"/>
   </g>
   <g id="matplotlib.axis_1">
    <g id="xtick_1">
     <g id="line2d_1">
      <defs>
       <path d="M 0 0 
L 0 3.5 
" id="m863e49bc10" style="stroke:#000000;stroke-width:0.8;"/>
      </defs>
      <g>
       <use style="stroke:#000000;stroke-width:0.8;" x="69.887175" xlink:href="#m863e49bc10" y="226.2"/>
      </g>
     </g>
     <g id="text_1">
      <!-- 0 -->
      <g transform="translate(63.524675 248.396875)scale(0.2 -0.2)">
       <defs>
        <path d="M 2034 4250 
Q 1547 4250 1301 3770 
Q 1056 3291 1056 2328 
Q 1056 1369 1301 889 
Q 1547 409 2034 409 
Q 2525 409 2770 889 
Q 3016 1369 3016 2328 
Q 3016 3291 2770 3770 
Q 2525 4250 2034 4250 
z
M 2034 4750 
Q 2819 4750 3233 4129 
Q 3647 3509 3647 2328 
Q 3647 1150 3233 529 
Q 2819 -91 2034 -91 
Q 1250 -91 836 529 
Q 422 1150 422 2328 
Q 422 3509 836 4129 
Q 1250 4750 2034 4750 
z
" id="DejaVuSans-30" transform="scale(0.015625)"/>
       </defs>
       <use xlink:href="#DejaVuSans-30"/>
      </g>
     </g>
    </g>
    <g id="xtick_2">
     <g id="line2d_2">
      <g>
       <use style="stroke:#000000;stroke-width:0.8;" x="136.867695" xlink:href="#m863e49bc10" y="226.2"/>
      </g>
     </g>
     <g id="text_2">
      <!-- 10 -->
      <g transform="translate(124.142695 248.396875)scale(0.2 -0.2)">
       <defs>
        <path d="M 794 531 
L 1825 531 
L 1825 4091 
L 703 3866 
L 703 4441 
L 1819 4666 
L 2450 4666 
L 2450 531 
L 3481 531 
L 3481 0 
L 794 0 
L 794 531 
z
" id="DejaVuSans-31" transform="scale(0.015625)"/>
       </defs>
       <use xlink:href="#DejaVuSans-31"/>
       <use x="63.623047" xlink:href="#DejaVuSans-30"/>
      </g>
     </g>
    </g>
    <g id="xtick_3">
     <g id="line2d_3">
      <g>
       <use style="stroke:#000000;stroke-width:0.8;" x="203.848214" xlink:href="#m863e49bc10" y="226.2"/>
      </g>
     </g>
     <g id="text_3">
      <!-- 20 -->
      <g transform="translate(191.123214 248.396875)scale(0.2 -0.2)">
       <defs>
        <path d="M 1228 531 
L 3431 531 
L 3431 0 
L 469 0 
L 469 531 
Q 828 903 1448 1529 
Q 2069 2156 2228 2338 
Q 2531 2678 2651 2914 
Q 2772 3150 2772 3378 
Q 2772 3750 2511 3984 
Q 2250 4219 1831 4219 
Q 1534 4219 1204 4116 
Q 875 4013 500 3803 
L 500 4441 
Q 881 4594 1212 4672 
Q 1544 4750 1819 4750 
Q 2544 4750 2975 4387 
Q 3406 4025 3406 3419 
Q 3406 3131 3298 2873 
Q 3191 2616 2906 2266 
Q 2828 2175 2409 1742 
Q 1991 1309 1228 531 
z
" id="DejaVuSans-32" transform="scale(0.015625)"/>
       </defs>
       <use xlink:href="#DejaVuSans-32"/>
       <use x="63.623047" xlink:href="#DejaVuSans-30"/>
      </g>
     </g>
    </g>
    <g id="xtick_4">
     <g id="line2d_4">
      <g>
       <use style="stroke:#000000;stroke-width:0.8;" x="270.828734" xlink:href="#m863e49bc10" y="226.2"/>
      </g>
     </g>
     <g id="text_4">
      <!-- 30 -->
      <g transform="translate(258.103734 248.396875)scale(0.2 -0.2)">
       <defs>
        <path d="M 2597 2516 
Q 3050 2419 3304 2112 
Q 3559 1806 3559 1356 
Q 3559 666 3084 287 
Q 2609 -91 1734 -91 
Q 1441 -91 1130 -33 
Q 819 25 488 141 
L 488 750 
Q 750 597 1062 519 
Q 1375 441 1716 441 
Q 2309 441 2620 675 
Q 2931 909 2931 1356 
Q 2931 1769 2642 2001 
Q 2353 2234 1838 2234 
L 1294 2234 
L 1294 2753 
L 1863 2753 
Q 2328 2753 2575 2939 
Q 2822 3125 2822 3475 
Q 2822 3834 2567 4026 
Q 2313 4219 1838 4219 
Q 1578 4219 1281 4162 
Q 984 4106 628 3988 
L 628 4550 
Q 988 4650 1302 4700 
Q 1616 4750 1894 4750 
Q 2613 4750 3031 4423 
Q 3450 4097 3450 3541 
Q 3450 3153 3228 2886 
Q 3006 2619 2597 2516 
z
" id="DejaVuSans-33" transform="scale(0.015625)"/>
       </defs>
       <use xlink:href="#DejaVuSans-33"/>
       <use x="63.623047" xlink:href="#DejaVuSans-30"/>
      </g>
     </g>
    </g>
    <g id="xtick_5">
     <g id="line2d_5">
      <g>
       <use style="stroke:#000000;stroke-width:0.8;" x="337.809253" xlink:href="#m863e49bc10" y="226.2"/>
      </g>
     </g>
     <g id="text_5">
      <!-- 40 -->
      <g transform="translate(325.084253 248.396875)scale(0.2 -0.2)">
       <defs>
        <path d="M 2419 4116 
L 825 1625 
L 2419 1625 
L 2419 4116 
z
M 2253 4666 
L 3047 4666 
L 3047 1625 
L 3713 1625 
L 3713 1100 
L 3047 1100 
L 3047 0 
L 2419 0 
L 2419 1100 
L 313 1100 
L 313 1709 
L 2253 4666 
z
" id="DejaVuSans-34" transform="scale(0.015625)"/>
       </defs>
       <use xlink:href="#DejaVuSans-34"/>
       <use x="63.623047" xlink:href="#DejaVuSans-30"/>
      </g>
     </g>
    </g>
    <g id="xtick_6">
     <g id="line2d_6">
      <g>
       <use style="stroke:#000000;stroke-width:0.8;" x="404.789773" xlink:href="#m863e49bc10" y="226.2"/>
      </g>
     </g>
     <g id="text_6">
      <!-- 50 -->
      <g transform="translate(392.064773 248.396875)scale(0.2 -0.2)">
       <defs>
        <path d="M 691 4666 
L 3169 4666 
L 3169 4134 
L 1269 4134 
L 1269 2991 
Q 1406 3038 1543 3061 
Q 1681 3084 1819 3084 
Q 2600 3084 3056 2656 
Q 3513 2228 3513 1497 
Q 3513 744 3044 326 
Q 2575 -91 1722 -91 
Q 1428 -91 1123 -41 
Q 819 9 494 109 
L 494 744 
Q 775 591 1075 516 
Q 1375 441 1709 441 
Q 2250 441 2565 725 
Q 2881 1009 2881 1497 
Q 2881 1984 2565 2268 
Q 2250 2553 1709 2553 
Q 1456 2553 1204 2497 
Q 953 2441 691 2322 
L 691 4666 
z
" id="DejaVuSans-35" transform="scale(0.015625)"/>
       </defs>
       <use xlink:href="#DejaVuSans-35"/>
       <use x="63.623047" xlink:href="#DejaVuSans-30"/>
      </g>
     </g>
    </g>
    <g id="text_7">
     <!-- $f$ (Hz) -->
     <g transform="translate(213.3875 271.753125)scale(0.2 -0.2)">
      <defs>
       <path d="M 3059 4863 
L 2969 4384 
L 2419 4384 
Q 2106 4384 1964 4261 
Q 1822 4138 1753 3809 
L 1691 3500 
L 2638 3500 
L 2553 3053 
L 1606 3053 
L 1013 0 
L 434 0 
L 1031 3053 
L 481 3053 
L 563 3500 
L 1113 3500 
L 1159 3744 
Q 1278 4363 1576 4613 
Q 1875 4863 2516 4863 
L 3059 4863 
z
" id="DejaVuSans-Oblique-66" transform="scale(0.015625)"/>
       <path id="DejaVuSans-20" transform="scale(0.015625)"/>
       <path d="M 1984 4856 
Q 1566 4138 1362 3434 
Q 1159 2731 1159 2009 
Q 1159 1288 1364 580 
Q 1569 -128 1984 -844 
L 1484 -844 
Q 1016 -109 783 600 
Q 550 1309 550 2009 
Q 550 2706 781 3412 
Q 1013 4119 1484 4856 
L 1984 4856 
z
" id="DejaVuSans-28" transform="scale(0.015625)"/>
       <path d="M 628 4666 
L 1259 4666 
L 1259 2753 
L 3553 2753 
L 3553 4666 
L 4184 4666 
L 4184 0 
L 3553 0 
L 3553 2222 
L 1259 2222 
L 1259 0 
L 628 0 
L 628 4666 
z
" id="DejaVuSans-48" transform="scale(0.015625)"/>
       <path d="M 353 3500 
L 3084 3500 
L 3084 2975 
L 922 459 
L 3084 459 
L 3084 0 
L 275 0 
L 275 525 
L 2438 3041 
L 353 3041 
L 353 3500 
z
" id="DejaVuSans-7a" transform="scale(0.015625)"/>
       <path d="M 513 4856 
L 1013 4856 
Q 1481 4119 1714 3412 
Q 1947 2706 1947 2009 
Q 1947 1309 1714 600 
Q 1481 -109 1013 -844 
L 513 -844 
Q 928 -128 1133 580 
Q 1338 1288 1338 2009 
Q 1338 2731 1133 3434 
Q 928 4138 513 4856 
z
" id="DejaVuSans-29" transform="scale(0.015625)"/>
      </defs>
      <use transform="translate(0 0.015625)" xlink:href="#DejaVuSans-Oblique-66"/>
      <use transform="translate(35.205078 0.015625)" xlink:href="#DejaVuSans-20"/>
      <use transform="translate(66.992188 0.015625)" xlink:href="#DejaVuSans-28"/>
      <use transform="translate(106.005859 0.015625)" xlink:href="#DejaVuSans-48"/>
      <use transform="translate(181.201172 0.015625)" xlink:href="#DejaVuSans-7a"/>
      <use transform="translate(233.691406 0.015625)" xlink:href="#DejaVuSans-29"/>
     </g>
    </g>
   </g>
   <g id="matplotlib.axis_2">
    <g id="ytick_1">
     <g id="line2d_7">
      <defs>
       <path d="M 0 0 
L -3.5 0 
" id="mcd23d64b7a" style="stroke:#000000;stroke-width:0.8;"/>
      </defs>
      <g>
       <use style="stroke:#000000;stroke-width:0.8;" x="60.175" xlink:href="#mcd23d64b7a" y="226.2"/>
      </g>
     </g>
     <g id="text_8">
      <!-- 0 -->
      <g transform="translate(40.45 233.798438)scale(0.2 -0.2)">
       <use xlink:href="#DejaVuSans-30"/>
      </g>
     </g>
    </g>
    <g id="ytick_2">
     <g id="line2d_8">
      <g>
       <use style="stroke:#000000;stroke-width:0.8;" x="60.175" xlink:href="#mcd23d64b7a" y="156.9"/>
      </g>
     </g>
     <g id="text_9">
      <!-- 1 -->
      <g transform="translate(40.45 164.498437)scale(0.2 -0.2)">
       <use xlink:href="#DejaVuSans-31"/>
      </g>
     </g>
    </g>
    <g id="ytick_3">
     <g id="line2d_9">
      <g>
       <use style="stroke:#000000;stroke-width:0.8;" x="60.175" xlink:href="#mcd23d64b7a" y="87.6"/>
      </g>
     </g>
     <g id="text_10">
      <!-- 2 -->
      <g transform="translate(40.45 95.198437)scale(0.2 -0.2)">
       <use xlink:href="#DejaVuSans-32"/>
      </g>
     </g>
    </g>
    <g id="ytick_4">
     <g id="line2d_10">
      <g>
       <use style="stroke:#000000;stroke-width:0.8;" x="60.175" xlink:href="#mcd23d64b7a" y="18.3"/>
      </g>
     </g>
     <g id="text_11">
      <!-- 3 -->
      <g transform="translate(40.45 25.898437)scale(0.2 -0.2)">
       <use xlink:href="#DejaVuSans-33"/>
      </g>
     </g>
    </g>
    <g id="text_12">
     <!-- $\langle\sigma_{\phi}\rangle_s$ -->
     <g transform="translate(30.25 145.35)rotate(-90)scale(0.2 -0.2)">
      <defs>
       <path d="M 572 2006 
L 1453 4856 
L 1984 4856 
L 1103 2006 
L 1984 -844 
L 1453 -844 
L 572 2006 
z
" id="DejaVuSans-27e8" transform="scale(0.015625)"/>
       <path d="M 2219 3044 
Q 1744 3044 1422 2700 
Q 1081 2341 969 1747 
Q 844 1119 1044 756 
Q 1241 397 1706 397 
Q 2166 397 2503 759 
Q 2844 1122 2966 1747 
Q 3075 2319 2881 2700 
Q 2700 3044 2219 3044 
z
M 2309 3503 
L 4219 3500 
L 4106 2925 
L 3463 2925 
Q 3706 2438 3575 1747 
Q 3406 888 2884 400 
Q 2359 -91 1609 -91 
Q 856 -91 525 400 
Q 194 888 363 1747 
Q 528 2609 1050 3097 
Q 1484 3503 2309 3503 
z
" id="DejaVuSans-Oblique-3c3" transform="scale(0.015625)"/>
       <path d="M 2991 4863 
L 2738 3572 
Q 3363 3572 3684 3094 
Q 4016 2606 3850 1747 
Q 3681 888 3159 400 
Q 2653 -78 2028 -78 
L 1784 -1331 
L 1213 -1331 
L 1456 -78 
Q 834 -78 509 400 
Q 178 888 347 1747 
Q 513 2606 1034 3094 
Q 1544 3572 2166 3572 
L 2419 4863 
L 2991 4863 
z
M 2128 434 
Q 2481 434 2784 756 
Q 3116 1116 3244 1747 
Q 3369 2372 3169 2738 
Q 2991 3059 2638 3059 
L 2128 434 
z
M 1556 434 
L 2066 3059 
Q 1716 3059 1413 2738 
Q 1072 2372 953 1747 
Q 834 1116 1028 756 
Q 1203 434 1556 434 
z
" id="DejaVuSans-Oblique-3d5" transform="scale(0.015625)"/>
       <path d="M 1925 2006 
L 1044 -844 
L 513 -844 
L 1394 2006 
L 513 4856 
L 1044 4856 
L 1925 2006 
z
" id="DejaVuSans-27e9" transform="scale(0.015625)"/>
       <path d="M 3200 3397 
L 3091 2853 
Q 2863 2978 2609 3040 
Q 2356 3103 2088 3103 
Q 1634 3103 1373 2948 
Q 1113 2794 1113 2528 
Q 1113 2219 1719 2053 
Q 1766 2041 1788 2034 
L 1972 1978 
Q 2547 1819 2739 1644 
Q 2931 1469 2931 1166 
Q 2931 609 2489 259 
Q 2047 -91 1331 -91 
Q 1053 -91 747 -37 
Q 441 16 72 128 
L 184 722 
Q 500 559 806 475 
Q 1113 391 1394 391 
Q 1816 391 2080 572 
Q 2344 753 2344 1031 
Q 2344 1331 1650 1516 
L 1591 1531 
L 1394 1581 
Q 956 1697 753 1886 
Q 550 2075 550 2369 
Q 550 2928 970 3256 
Q 1391 3584 2113 3584 
Q 2397 3584 2667 3537 
Q 2938 3491 3200 3397 
z
" id="DejaVuSans-Oblique-73" transform="scale(0.015625)"/>
      </defs>
      <use transform="translate(0 0.125)" xlink:href="#DejaVuSans-27e8"/>
      <use transform="translate(39.013672 0.125)" xlink:href="#DejaVuSans-Oblique-3c3"/>
      <use transform="translate(102.392578 -16.28125)scale(0.7)" xlink:href="#DejaVuSans-Oblique-3d5"/>
      <use transform="translate(151.303711 0.125)" xlink:href="#DejaVuSans-27e9"/>
      <use transform="translate(191.274414 -16.28125)scale(0.7)" xlink:href="#DejaVuSans-Oblique-73"/>
     </g>
    </g>
   </g>
   <g id="line2d_11">
    <path clip-path="url(#p54fa332ac3)" d="M 76.585227 217.629584 
L 83.283279 216.021818 
L 89.981331 215.639666 
L 96.679383 215.310245 
L 103.377435 214.98319 
L 110.075487 214.866774 
L 116.773539 213.687633 
L 123.471591 214.074947 
L 130.169643 212.121439 
L 136.867695 211.880555 
L 143.565747 211.164635 
L 150.263799 210.389865 
L 156.961851 208.053628 
L 163.659903 205.785809 
L 170.357955 205.321554 
L 177.056006 204.46723 
L 183.754058 203.40178 
L 190.45211 202.295423 
L 197.150162 200.590557 
L 203.848214 200.621834 
L 210.546266 199.158166 
L 217.244318 198.486129 
L 223.94237 197.965158 
L 230.640422 197.75287 
L 237.338474 195.080301 
L 244.036526 196.127708 
L 250.734578 194.979799 
L 257.43263 193.599371 
L 264.130682 192.271957 
L 270.828734 191.998694 
L 277.526786 192.258194 
L 284.224838 192.645266 
L 290.92289 191.363039 
L 297.620942 189.676238 
L 304.318994 190.535948 
L 311.017045 188.444613 
L 317.715097 189.402288 
L 324.413149 188.845061 
L 331.111201 186.91184 
L 337.809253 185.743344 
L 344.507305 188.334717 
L 351.205357 185.834371 
L 357.903409 187.062913 
L 364.601461 189.383611 
L 371.299513 182.34822 
L 377.997565 185.899531 
L 384.695617 184.199071 
L 391.393669 187.239649 
L 398.091721 184.753512 
L 404.789773 183.562411 
" style="fill:none;stroke:#c6dbef;stroke-linecap:square;stroke-width:3;"/>
   </g>
   <g id="line2d_12">
    <path clip-path="url(#p54fa332ac3)" d="M 76.585227 212.247977 
L 83.283279 209.379118 
L 89.981331 207.789014 
L 96.679383 206.061957 
L 103.377435 204.727908 
L 110.075487 204.355482 
L 116.773539 204.03379 
L 123.471591 202.395676 
L 130.169643 201.538385 
L 136.867695 199.903985 
L 143.565747 199.715498 
L 150.263799 197.64356 
L 156.961851 197.022731 
L 163.659903 193.601279 
L 170.357955 190.524073 
L 177.056006 189.731163 
L 183.754058 187.775981 
L 190.45211 187.143957 
L 197.150162 184.807914 
L 203.848214 182.965181 
L 210.546266 183.299295 
L 217.244318 180.767323 
L 223.94237 179.409825 
L 230.640422 178.919979 
L 237.338474 175.185753 
L 244.036526 175.12394 
L 250.734578 173.408738 
L 257.43263 171.997156 
L 264.130682 170.657612 
L 270.828734 170.384732 
L 277.526786 166.655639 
L 284.224838 169.989056 
L 290.92289 169.01551 
L 297.620942 165.444991 
L 304.318994 166.771953 
L 311.017045 167.048672 
L 317.715097 160.796965 
L 324.413149 162.29022 
L 331.111201 162.228694 
L 337.809253 160.987538 
L 344.507305 159.687365 
L 351.205357 159.49796 
L 357.903409 160.036959 
L 364.601461 156.705113 
L 371.299513 156.432167 
L 377.997565 155.899853 
L 384.695617 155.646841 
L 391.393669 155.286161 
L 398.091721 158.930324 
L 404.789773 156.069873 
" style="fill:none;stroke:#6aaed6;stroke-linecap:square;stroke-width:3;"/>
   </g>
   <g id="line2d_13">
    <path clip-path="url(#p54fa332ac3)" d="M 76.585227 204.467721 
L 83.283279 199.073082 
L 89.981331 195.066166 
L 96.679383 192.204246 
L 103.377435 190.012404 
L 110.075487 186.034343 
L 116.773539 186.228216 
L 123.471591 182.568903 
L 130.169643 180.146376 
L 136.867695 178.107105 
L 143.565747 174.597154 
L 150.263799 174.579384 
L 156.961851 173.82891 
L 163.659903 168.754445 
L 170.357955 167.793711 
L 177.056006 164.093499 
L 183.754058 163.448833 
L 190.45211 159.793975 
L 197.150162 157.821159 
L 203.848214 158.934118 
L 210.546266 158.000289 
L 217.244318 153.795815 
L 223.94237 151.644688 
L 230.640422 151.325442 
L 237.338474 149.420261 
L 244.036526 146.011863 
L 250.734578 147.408015 
L 257.43263 144.601973 
L 264.130682 146.004887 
L 270.828734 145.306953 
L 277.526786 141.432917 
L 284.224838 143.800862 
L 290.92289 143.061959 
L 297.620942 141.149074 
L 304.318994 142.127585 
L 311.017045 141.212912 
L 317.715097 139.10975 
L 324.413149 138.091703 
L 331.111201 138.700176 
L 337.809253 138.290063 
L 344.507305 136.664624 
L 351.205357 134.557015 
L 357.903409 135.26218 
L 364.601461 135.305859 
L 371.299513 134.930137 
L 377.997565 132.92986 
L 384.695617 132.583397 
L 391.393669 131.106491 
L 398.091721 130.800556 
L 404.789773 129.479879 
" style="fill:none;stroke:#2070b4;stroke-linecap:square;stroke-width:3;"/>
   </g>
   <g id="line2d_14">
    <path clip-path="url(#p54fa332ac3)" d="M 76.585227 198.997158 
L 83.283279 189.266027 
L 89.981331 182.509251 
L 96.679383 177.141769 
L 103.377435 172.210961 
L 110.075487 165.820418 
L 116.773539 164.029098 
L 123.471591 159.511891 
L 130.169643 155.037851 
L 136.867695 154.571288 
L 143.565747 150.438225 
L 150.263799 146.196753 
L 156.961851 147.816856 
L 163.659903 144.767707 
L 170.357955 140.776447 
L 177.056006 140.279656 
L 183.754058 139.3923 
L 190.45211 134.450333 
L 197.150162 133.941833 
L 203.848214 136.208523 
L 210.546266 131.942167 
L 217.244318 133.86841 
L 223.94237 132.851723 
L 230.640422 132.649687 
L 237.338474 129.706424 
L 244.036526 129.141773 
L 250.734578 129.712565 
L 257.43263 127.46238 
L 264.130682 128.877208 
L 270.828734 129.37217 
L 277.526786 128.162245 
L 284.224838 127.434081 
L 290.92289 127.289602 
L 297.620942 125.526535 
L 304.318994 126.494924 
L 311.017045 125.330498 
L 317.715097 124.288446 
L 324.413149 124.918738 
L 331.111201 123.530552 
L 337.809253 125.384072 
L 344.507305 124.365342 
L 351.205357 124.729818 
L 357.903409 123.458266 
L 364.601461 122.909961 
L 371.299513 127.025025 
L 377.997565 121.40574 
L 384.695617 123.315309 
L 391.393669 122.04254 
L 398.091721 124.385113 
L 404.789773 121.753211 
" style="fill:none;stroke:#08306b;stroke-linecap:square;stroke-width:3;"/>
   </g>
   <g id="patch_3">
    <path d="M 60.175 226.2 
L 60.175 18.3 
" style="fill:none;stroke:#000000;stroke-linecap:square;stroke-linejoin:miter;stroke-width:0.8;"/>
   </g>
   <g id="patch_4">
    <path d="M 60.175 226.2 
L 421.2 226.2 
" style="fill:none;stroke:#000000;stroke-linecap:square;stroke-linejoin:miter;stroke-width:0.8;"/>
   </g>
   <g id="legend_1">
    <g id="line2d_15">
     <path d="M 70.975 35.364375 
L 94.975 35.364375 
" style="fill:none;stroke:#c6dbef;stroke-linecap:square;stroke-width:3;"/>
    </g>
    <g id="line2d_16"/>
    <g id="text_13">
     <!-- $\sigma_W = $0.005 V路s$^{-1/2}$ -->
     <g transform="translate(104.575 39.564375)scale(0.12 -0.12)">
      <defs>
       <path d="M 616 4666 
L 1228 4666 
L 1453 697 
L 3213 4666 
L 3916 4666 
L 4147 697 
L 5888 4666 
L 6528 4666 
L 4453 0 
L 3659 0 
L 3444 3891 
L 1697 0 
L 903 0 
L 616 4666 
z
" id="DejaVuSans-Oblique-57" transform="scale(0.015625)"/>
       <path d="M 678 2906 
L 4684 2906 
L 4684 2381 
L 678 2381 
L 678 2906 
z
M 678 1631 
L 4684 1631 
L 4684 1100 
L 678 1100 
L 678 1631 
z
" id="DejaVuSans-3d" transform="scale(0.015625)"/>
       <path d="M 684 794 
L 1344 794 
L 1344 0 
L 684 0 
L 684 794 
z
" id="DejaVuSans-2e" transform="scale(0.015625)"/>
       <path d="M 1831 0 
L 50 4666 
L 709 4666 
L 2188 738 
L 3669 4666 
L 4325 4666 
L 2547 0 
L 1831 0 
z
" id="DejaVuSans-56" transform="scale(0.015625)"/>
       <path d="M 684 2619 
L 1344 2619 
L 1344 1825 
L 684 1825 
L 684 2619 
z
" id="DejaVuSans-b7" transform="scale(0.015625)"/>
       <path d="M 2834 3397 
L 2834 2853 
Q 2591 2978 2328 3040 
Q 2066 3103 1784 3103 
Q 1356 3103 1142 2972 
Q 928 2841 928 2578 
Q 928 2378 1081 2264 
Q 1234 2150 1697 2047 
L 1894 2003 
Q 2506 1872 2764 1633 
Q 3022 1394 3022 966 
Q 3022 478 2636 193 
Q 2250 -91 1575 -91 
Q 1294 -91 989 -36 
Q 684 19 347 128 
L 347 722 
Q 666 556 975 473 
Q 1284 391 1588 391 
Q 1994 391 2212 530 
Q 2431 669 2431 922 
Q 2431 1156 2273 1281 
Q 2116 1406 1581 1522 
L 1381 1569 
Q 847 1681 609 1914 
Q 372 2147 372 2553 
Q 372 3047 722 3315 
Q 1072 3584 1716 3584 
Q 2034 3584 2315 3537 
Q 2597 3491 2834 3397 
z
" id="DejaVuSans-73" transform="scale(0.015625)"/>
       <path d="M 678 2272 
L 4684 2272 
L 4684 1741 
L 678 1741 
L 678 2272 
z
" id="DejaVuSans-2212" transform="scale(0.015625)"/>
       <path d="M 1625 4666 
L 2156 4666 
L 531 -594 
L 0 -594 
L 1625 4666 
z
" id="DejaVuSans-2f" transform="scale(0.015625)"/>
      </defs>
      <use transform="translate(0 0.765625)" xlink:href="#DejaVuSans-Oblique-3c3"/>
      <use transform="translate(63.378906 -15.640625)scale(0.7)" xlink:href="#DejaVuSans-Oblique-57"/>
      <use transform="translate(154.80957 0.765625)" xlink:href="#DejaVuSans-3d"/>
      <use transform="translate(258.081055 0.765625)" xlink:href="#DejaVuSans-30"/>
      <use transform="translate(321.704102 0.765625)" xlink:href="#DejaVuSans-2e"/>
      <use transform="translate(353.491211 0.765625)" xlink:href="#DejaVuSans-30"/>
      <use transform="translate(417.114258 0.765625)" xlink:href="#DejaVuSans-30"/>
      <use transform="translate(480.737305 0.765625)" xlink:href="#DejaVuSans-35"/>
      <use transform="translate(544.360352 0.765625)" xlink:href="#DejaVuSans-20"/>
      <use transform="translate(576.147461 0.765625)" xlink:href="#DejaVuSans-56"/>
      <use transform="translate(644.555664 0.765625)" xlink:href="#DejaVuSans-b7"/>
      <use transform="translate(676.342773 0.765625)" xlink:href="#DejaVuSans-73"/>
      <use transform="translate(729.399414 39.046875)scale(0.7)" xlink:href="#DejaVuSans-2212"/>
      <use transform="translate(788.051758 39.046875)scale(0.7)" xlink:href="#DejaVuSans-31"/>
      <use transform="translate(832.587891 39.046875)scale(0.7)" xlink:href="#DejaVuSans-2f"/>
      <use transform="translate(853.634375 39.046875)scale(0.7)" xlink:href="#DejaVuSans-32"/>
     </g>
    </g>
    <g id="line2d_17">
     <path d="M 70.975 54.324375 
L 94.975 54.324375 
" style="fill:none;stroke:#6aaed6;stroke-linecap:square;stroke-width:3;"/>
    </g>
    <g id="line2d_18"/>
    <g id="text_14">
     <!-- $\sigma_W = $0.01 V路s$^{-1/2}$ -->
     <g transform="translate(104.575 58.524375)scale(0.12 -0.12)">
      <use transform="translate(0 0.765625)" xlink:href="#DejaVuSans-Oblique-3c3"/>
      <use transform="translate(63.378906 -15.640625)scale(0.7)" xlink:href="#DejaVuSans-Oblique-57"/>
      <use transform="translate(154.80957 0.765625)" xlink:href="#DejaVuSans-3d"/>
      <use transform="translate(258.081055 0.765625)" xlink:href="#DejaVuSans-30"/>
      <use transform="translate(321.704102 0.765625)" xlink:href="#DejaVuSans-2e"/>
      <use transform="translate(353.491211 0.765625)" xlink:href="#DejaVuSans-30"/>
      <use transform="translate(417.114258 0.765625)" xlink:href="#DejaVuSans-31"/>
      <use transform="translate(480.737305 0.765625)" xlink:href="#DejaVuSans-20"/>
      <use transform="translate(512.524414 0.765625)" xlink:href="#DejaVuSans-56"/>
      <use transform="translate(580.932617 0.765625)" xlink:href="#DejaVuSans-b7"/>
      <use transform="translate(612.719727 0.765625)" xlink:href="#DejaVuSans-73"/>
      <use transform="translate(665.776367 39.046875)scale(0.7)" xlink:href="#DejaVuSans-2212"/>
      <use transform="translate(724.428711 39.046875)scale(0.7)" xlink:href="#DejaVuSans-31"/>
      <use transform="translate(768.964844 39.046875)scale(0.7)" xlink:href="#DejaVuSans-2f"/>
      <use transform="translate(790.011328 39.046875)scale(0.7)" xlink:href="#DejaVuSans-32"/>
     </g>
    </g>
    <g id="line2d_19">
     <path d="M 70.975 73.284375 
L 94.975 73.284375 
" style="fill:none;stroke:#2070b4;stroke-linecap:square;stroke-width:3;"/>
    </g>
    <g id="line2d_20"/>
    <g id="text_15">
     <!-- $\sigma_W = $0.02 V路s$^{-1/2}$ -->
     <g transform="translate(104.575 77.484375)scale(0.12 -0.12)">
      <use transform="translate(0 0.765625)" xlink:href="#DejaVuSans-Oblique-3c3"/>
      <use transform="translate(63.378906 -15.640625)scale(0.7)" xlink:href="#DejaVuSans-Oblique-57"/>
      <use transform="translate(154.80957 0.765625)" xlink:href="#DejaVuSans-3d"/>
      <use transform="translate(258.081055 0.765625)" xlink:href="#DejaVuSans-30"/>
      <use transform="translate(321.704102 0.765625)" xlink:href="#DejaVuSans-2e"/>
      <use transform="translate(353.491211 0.765625)" xlink:href="#DejaVuSans-30"/>
      <use transform="translate(417.114258 0.765625)" xlink:href="#DejaVuSans-32"/>
      <use transform="translate(480.737305 0.765625)" xlink:href="#DejaVuSans-20"/>
      <use transform="translate(512.524414 0.765625)" xlink:href="#DejaVuSans-56"/>
      <use transform="translate(580.932617 0.765625)" xlink:href="#DejaVuSans-b7"/>
      <use transform="translate(612.719727 0.765625)" xlink:href="#DejaVuSans-73"/>
      <use transform="translate(665.776367 39.046875)scale(0.7)" xlink:href="#DejaVuSans-2212"/>
      <use transform="translate(724.428711 39.046875)scale(0.7)" xlink:href="#DejaVuSans-31"/>
      <use transform="translate(768.964844 39.046875)scale(0.7)" xlink:href="#DejaVuSans-2f"/>
      <use transform="translate(790.011328 39.046875)scale(0.7)" xlink:href="#DejaVuSans-32"/>
     </g>
    </g>
    <g id="line2d_21">
     <path d="M 70.975 92.244375 
L 94.975 92.244375 
" style="fill:none;stroke:#08306b;stroke-linecap:square;stroke-width:3;"/>
    </g>
    <g id="line2d_22"/>
    <g id="text_16">
     <!-- $\sigma_W = $0.04 V路s$^{-1/2}$ -->
     <g transform="translate(104.575 96.444375)scale(0.12 -0.12)">
      <use transform="translate(0 0.765625)" xlink:href="#DejaVuSans-Oblique-3c3"/>
      <use transform="translate(63.378906 -15.640625)scale(0.7)" xlink:href="#DejaVuSans-Oblique-57"/>
      <use transform="translate(154.80957 0.765625)" xlink:href="#DejaVuSans-3d"/>
      <use transform="translate(258.081055 0.765625)" xlink:href="#DejaVuSans-30"/>
      <use transform="translate(321.704102 0.765625)" xlink:href="#DejaVuSans-2e"/>
      <use transform="translate(353.491211 0.765625)" xlink:href="#DejaVuSans-30"/>
      <use transform="translate(417.114258 0.765625)" xlink:href="#DejaVuSans-34"/>
      <use transform="translate(480.737305 0.765625)" xlink:href="#DejaVuSans-20"/>
      <use transform="translate(512.524414 0.765625)" xlink:href="#DejaVuSans-56"/>
      <use transform="translate(580.932617 0.765625)" xlink:href="#DejaVuSans-b7"/>
      <use transform="translate(612.719727 0.765625)" xlink:href="#DejaVuSans-73"/>
      <use transform="translate(665.776367 39.046875)scale(0.7)" xlink:href="#DejaVuSans-2212"/>
      <use transform="translate(724.428711 39.046875)scale(0.7)" xlink:href="#DejaVuSans-31"/>
      <use transform="translate(768.964844 39.046875)scale(0.7)" xlink:href="#DejaVuSans-2f"/>
      <use transform="translate(790.011328 39.046875)scale(0.7)" xlink:href="#DejaVuSans-32"/>
     </g>
    </g>
   </g>
  </g>
 </g>
 <defs>
  <clipPath id="p54fa332ac3">
   <rect height="207.9" width="361.025" x="60.175" y="18.3"/>
  </clipPath>
 </defs>
</svg>
