<?xml version="1.0" encoding="utf-8" standalone="no"?>
<!DOCTYPE svg PUBLIC "-//W3C//DTD SVG 1.1//EN"
  "http://www.w3.org/Graphics/SVG/1.1/DTD/svg11.dtd">
<svg height="432pt" version="1.1" viewBox="0 0 576 432" width="576pt" xmlns="http://www.w3.org/2000/svg" xmlns:xlink="http://www.w3.org/1999/xlink">
 <metadata>
  <rdf:RDF xmlns:cc="http://creativecommons.org/ns#" xmlns:dc="http://purl.org/dc/elements/1.1/" xmlns:rdf="http://www.w3.org/1999/02/22-rdf-syntax-ns#">
   <cc:Work>
    <dc:type rdf:resource="http://purl.org/dc/dcmitype/StillImage"/>
    <dc:date>2022-09-22T11:54:13.507713</dc:date>
    <dc:format>image/svg+xml</dc:format>
    <dc:creator>
     <cc:Agent>
      <dc:title>Matplotlib v3.4.1, https://matplotlib.org/</dc:title>
     </cc:Agent>
    </dc:creator>
   </cc:Work>
  </rdf:RDF>
 </metadata>
 <defs>
  <style type="text/css">*{stroke-linecap:butt;stroke-linejoin:round;}</style>
 </defs>
 <g id="figure_1">
  <g id="patch_1">
   <path d="M 0 432 
L 576 432 
L 576 0 
L 0 0 
z
" style="fill:none;"/>
  </g>
  <g id="axes_1">
   <g id="patch_2">
    <path d="M 105.479687 356.2 
L 542.2 356.2 
L 542.2 10.8 
L 105.479687 10.8 
z
" style="fill:#ffffff;"/>
   </g>
   <g id="LineCollection_1">
    <path clip-path="url(#pac044963ac)" d="M 179.347603 340.5 
L 179.347603 26.5 
" style="fill:none;stroke:#ffa500;stroke-dasharray:5.55,2.4;stroke-dashoffset:0;stroke-width:1.5;"/>
   </g>
   <g id="LineCollection_2">
    <path clip-path="url(#pac044963ac)" d="M 430.417775 340.5 
L 430.417775 26.5 
" style="fill:none;stroke:#ffa500;stroke-dasharray:5.55,2.4;stroke-dashoffset:0;stroke-width:1.5;"/>
   </g>
   <g id="matplotlib.axis_1">
    <g id="xtick_1">
     <g id="line2d_1">
      <defs>
       <path d="M 0 0 
L 0 3.5 
" id="mf3cb89e72d" style="stroke:#000000;stroke-width:0.8;"/>
      </defs>
      <g>
       <use style="stroke:#000000;stroke-width:0.8;" x="105.479688" xlink:href="#mf3cb89e72d" y="356.2"/>
      </g>
     </g>
     <g id="text_1">
      <!-- 60 -->
      <g transform="translate(90.209688 381.43625)scale(0.24 -0.24)">
       <defs>
        <path d="M 2113 2584 
Q 1688 2584 1439 2293 
Q 1191 2003 1191 1497 
Q 1191 994 1439 701 
Q 1688 409 2113 409 
Q 2538 409 2786 701 
Q 3034 994 3034 1497 
Q 3034 2003 2786 2293 
Q 2538 2584 2113 2584 
z
M 3366 4563 
L 3366 3988 
Q 3128 4100 2886 4159 
Q 2644 4219 2406 4219 
Q 1781 4219 1451 3797 
Q 1122 3375 1075 2522 
Q 1259 2794 1537 2939 
Q 1816 3084 2150 3084 
Q 2853 3084 3261 2657 
Q 3669 2231 3669 1497 
Q 3669 778 3244 343 
Q 2819 -91 2113 -91 
Q 1303 -91 875 529 
Q 447 1150 447 2328 
Q 447 3434 972 4092 
Q 1497 4750 2381 4750 
Q 2619 4750 2861 4703 
Q 3103 4656 3366 4563 
z
" id="DejaVuSans-36" transform="scale(0.015625)"/>
        <path d="M 2034 4250 
Q 1547 4250 1301 3770 
Q 1056 3291 1056 2328 
Q 1056 1369 1301 889 
Q 1547 409 2034 409 
Q 2525 409 2770 889 
Q 3016 1369 3016 2328 
Q 3016 3291 2770 3770 
Q 2525 4250 2034 4250 
z
M 2034 4750 
Q 2819 4750 3233 4129 
Q 3647 3509 3647 2328 
Q 3647 1150 3233 529 
Q 2819 -91 2034 -91 
Q 1250 -91 836 529 
Q 422 1150 422 2328 
Q 422 3509 836 4129 
Q 1250 4750 2034 4750 
z
" id="DejaVuSans-30" transform="scale(0.015625)"/>
       </defs>
       <use xlink:href="#DejaVuSans-36"/>
       <use x="63.623047" xlink:href="#DejaVuSans-30"/>
      </g>
     </g>
    </g>
    <g id="xtick_2">
     <g id="line2d_2">
      <g>
       <use style="stroke:#000000;stroke-width:0.8;" x="192.82375" xlink:href="#mf3cb89e72d" y="356.2"/>
      </g>
     </g>
     <g id="text_2">
      <!-- 80 -->
      <g transform="translate(177.55375 381.43625)scale(0.24 -0.24)">
       <defs>
        <path d="M 2034 2216 
Q 1584 2216 1326 1975 
Q 1069 1734 1069 1313 
Q 1069 891 1326 650 
Q 1584 409 2034 409 
Q 2484 409 2743 651 
Q 3003 894 3003 1313 
Q 3003 1734 2745 1975 
Q 2488 2216 2034 2216 
z
M 1403 2484 
Q 997 2584 770 2862 
Q 544 3141 544 3541 
Q 544 4100 942 4425 
Q 1341 4750 2034 4750 
Q 2731 4750 3128 4425 
Q 3525 4100 3525 3541 
Q 3525 3141 3298 2862 
Q 3072 2584 2669 2484 
Q 3125 2378 3379 2068 
Q 3634 1759 3634 1313 
Q 3634 634 3220 271 
Q 2806 -91 2034 -91 
Q 1263 -91 848 271 
Q 434 634 434 1313 
Q 434 1759 690 2068 
Q 947 2378 1403 2484 
z
M 1172 3481 
Q 1172 3119 1398 2916 
Q 1625 2713 2034 2713 
Q 2441 2713 2670 2916 
Q 2900 3119 2900 3481 
Q 2900 3844 2670 4047 
Q 2441 4250 2034 4250 
Q 1625 4250 1398 4047 
Q 1172 3844 1172 3481 
z
" id="DejaVuSans-38" transform="scale(0.015625)"/>
       </defs>
       <use xlink:href="#DejaVuSans-38"/>
       <use x="63.623047" xlink:href="#DejaVuSans-30"/>
      </g>
     </g>
    </g>
    <g id="xtick_3">
     <g id="line2d_3">
      <g>
       <use style="stroke:#000000;stroke-width:0.8;" x="280.167813" xlink:href="#mf3cb89e72d" y="356.2"/>
      </g>
     </g>
     <g id="text_3">
      <!-- 100 -->
      <g transform="translate(257.262813 381.43625)scale(0.24 -0.24)">
       <defs>
        <path d="M 794 531 
L 1825 531 
L 1825 4091 
L 703 3866 
L 703 4441 
L 1819 4666 
L 2450 4666 
L 2450 531 
L 3481 531 
L 3481 0 
L 794 0 
L 794 531 
z
" id="DejaVuSans-31" transform="scale(0.015625)"/>
       </defs>
       <use xlink:href="#DejaVuSans-31"/>
       <use x="63.623047" xlink:href="#DejaVuSans-30"/>
       <use x="127.246094" xlink:href="#DejaVuSans-30"/>
      </g>
     </g>
    </g>
    <g id="xtick_4">
     <g id="line2d_4">
      <g>
       <use style="stroke:#000000;stroke-width:0.8;" x="367.511875" xlink:href="#mf3cb89e72d" y="356.2"/>
      </g>
     </g>
     <g id="text_4">
      <!-- 120 -->
      <g transform="translate(344.606875 381.43625)scale(0.24 -0.24)">
       <defs>
        <path d="M 1228 531 
L 3431 531 
L 3431 0 
L 469 0 
L 469 531 
Q 828 903 1448 1529 
Q 2069 2156 2228 2338 
Q 2531 2678 2651 2914 
Q 2772 3150 2772 3378 
Q 2772 3750 2511 3984 
Q 2250 4219 1831 4219 
Q 1534 4219 1204 4116 
Q 875 4013 500 3803 
L 500 4441 
Q 881 4594 1212 4672 
Q 1544 4750 1819 4750 
Q 2544 4750 2975 4387 
Q 3406 4025 3406 3419 
Q 3406 3131 3298 2873 
Q 3191 2616 2906 2266 
Q 2828 2175 2409 1742 
Q 1991 1309 1228 531 
z
" id="DejaVuSans-32" transform="scale(0.015625)"/>
       </defs>
       <use xlink:href="#DejaVuSans-31"/>
       <use x="63.623047" xlink:href="#DejaVuSans-32"/>
       <use x="127.246094" xlink:href="#DejaVuSans-30"/>
      </g>
     </g>
    </g>
    <g id="xtick_5">
     <g id="line2d_5">
      <g>
       <use style="stroke:#000000;stroke-width:0.8;" x="454.855937" xlink:href="#mf3cb89e72d" y="356.2"/>
      </g>
     </g>
     <g id="text_5">
      <!-- 140 -->
      <g transform="translate(431.950938 381.43625)scale(0.24 -0.24)">
       <defs>
        <path d="M 2419 4116 
L 825 1625 
L 2419 1625 
L 2419 4116 
z
M 2253 4666 
L 3047 4666 
L 3047 1625 
L 3713 1625 
L 3713 1100 
L 3047 1100 
L 3047 0 
L 2419 0 
L 2419 1100 
L 313 1100 
L 313 1709 
L 2253 4666 
z
" id="DejaVuSans-34" transform="scale(0.015625)"/>
       </defs>
       <use xlink:href="#DejaVuSans-31"/>
       <use x="63.623047" xlink:href="#DejaVuSans-34"/>
       <use x="127.246094" xlink:href="#DejaVuSans-30"/>
      </g>
     </g>
    </g>
    <g id="xtick_6">
     <g id="line2d_6">
      <g>
       <use style="stroke:#000000;stroke-width:0.8;" x="542.2" xlink:href="#mf3cb89e72d" y="356.2"/>
      </g>
     </g>
     <g id="text_6">
      <!-- 160 -->
      <g transform="translate(519.295 381.43625)scale(0.24 -0.24)">
       <use xlink:href="#DejaVuSans-31"/>
       <use x="63.623047" xlink:href="#DejaVuSans-36"/>
       <use x="127.246094" xlink:href="#DejaVuSans-30"/>
      </g>
     </g>
    </g>
    <g id="text_7">
     <!-- $I_s$ (pA) -->
     <g transform="translate(283.409844 410.1875)scale(0.26 -0.26)">
      <defs>
       <path d="M 1081 4666 
L 1716 4666 
L 806 0 
L 172 0 
L 1081 4666 
z
" id="DejaVuSans-Oblique-49" transform="scale(0.015625)"/>
       <path d="M 3200 3397 
L 3091 2853 
Q 2863 2978 2609 3040 
Q 2356 3103 2088 3103 
Q 1634 3103 1373 2948 
Q 1113 2794 1113 2528 
Q 1113 2219 1719 2053 
Q 1766 2041 1788 2034 
L 1972 1978 
Q 2547 1819 2739 1644 
Q 2931 1469 2931 1166 
Q 2931 609 2489 259 
Q 2047 -91 1331 -91 
Q 1053 -91 747 -37 
Q 441 16 72 128 
L 184 722 
Q 500 559 806 475 
Q 1113 391 1394 391 
Q 1816 391 2080 572 
Q 2344 753 2344 1031 
Q 2344 1331 1650 1516 
L 1591 1531 
L 1394 1581 
Q 956 1697 753 1886 
Q 550 2075 550 2369 
Q 550 2928 970 3256 
Q 1391 3584 2113 3584 
Q 2397 3584 2667 3537 
Q 2938 3491 3200 3397 
z
" id="DejaVuSans-Oblique-73" transform="scale(0.015625)"/>
       <path id="DejaVuSans-20" transform="scale(0.015625)"/>
       <path d="M 1984 4856 
Q 1566 4138 1362 3434 
Q 1159 2731 1159 2009 
Q 1159 1288 1364 580 
Q 1569 -128 1984 -844 
L 1484 -844 
Q 1016 -109 783 600 
Q 550 1309 550 2009 
Q 550 2706 781 3412 
Q 1013 4119 1484 4856 
L 1984 4856 
z
" id="DejaVuSans-28" transform="scale(0.015625)"/>
       <path d="M 1159 525 
L 1159 -1331 
L 581 -1331 
L 581 3500 
L 1159 3500 
L 1159 2969 
Q 1341 3281 1617 3432 
Q 1894 3584 2278 3584 
Q 2916 3584 3314 3078 
Q 3713 2572 3713 1747 
Q 3713 922 3314 415 
Q 2916 -91 2278 -91 
Q 1894 -91 1617 61 
Q 1341 213 1159 525 
z
M 3116 1747 
Q 3116 2381 2855 2742 
Q 2594 3103 2138 3103 
Q 1681 3103 1420 2742 
Q 1159 2381 1159 1747 
Q 1159 1113 1420 752 
Q 1681 391 2138 391 
Q 2594 391 2855 752 
Q 3116 1113 3116 1747 
z
" id="DejaVuSans-70" transform="scale(0.015625)"/>
       <path d="M 2188 4044 
L 1331 1722 
L 3047 1722 
L 2188 4044 
z
M 1831 4666 
L 2547 4666 
L 4325 0 
L 3669 0 
L 3244 1197 
L 1141 1197 
L 716 0 
L 50 0 
L 1831 4666 
z
" id="DejaVuSans-41" transform="scale(0.015625)"/>
       <path d="M 513 4856 
L 1013 4856 
Q 1481 4119 1714 3412 
Q 1947 2706 1947 2009 
Q 1947 1309 1714 600 
Q 1481 -109 1013 -844 
L 513 -844 
Q 928 -128 1133 580 
Q 1338 1288 1338 2009 
Q 1338 2731 1133 3434 
Q 928 4138 513 4856 
z
" id="DejaVuSans-29" transform="scale(0.015625)"/>
      </defs>
      <use transform="translate(0 0.125)" xlink:href="#DejaVuSans-Oblique-49"/>
      <use transform="translate(29.492188 -16.28125)scale(0.7)" xlink:href="#DejaVuSans-Oblique-73"/>
      <use transform="translate(68.696289 0.125)" xlink:href="#DejaVuSans-20"/>
      <use transform="translate(100.483398 0.125)" xlink:href="#DejaVuSans-28"/>
      <use transform="translate(139.49707 0.125)" xlink:href="#DejaVuSans-70"/>
      <use transform="translate(202.973633 0.125)" xlink:href="#DejaVuSans-41"/>
      <use transform="translate(271.381836 0.125)" xlink:href="#DejaVuSans-29"/>
     </g>
    </g>
   </g>
   <g id="matplotlib.axis_2">
    <g id="ytick_1">
     <g id="line2d_7">
      <defs>
       <path d="M 0 0 
L -3.5 0 
" id="med75c45502" style="stroke:#000000;stroke-width:0.8;"/>
      </defs>
      <g>
       <use style="stroke:#000000;stroke-width:0.8;" x="105.479687" xlink:href="#med75c45502" y="340.5"/>
      </g>
     </g>
     <g id="text_8">
      <!-- $0$ -->
      <g transform="translate(83.119687 349.618125)scale(0.24 -0.24)">
       <use transform="translate(0 0.78125)" xlink:href="#DejaVuSans-30"/>
      </g>
     </g>
    </g>
    <g id="ytick_2">
     <g id="line2d_8">
      <g>
       <use style="stroke:#000000;stroke-width:0.8;" x="105.479687" xlink:href="#med75c45502" y="277.7"/>
      </g>
     </g>
     <g id="text_9">
      <!-- $\pi/4$ -->
      <g transform="translate(60.559687 286.818125)scale(0.24 -0.24)">
       <defs>
        <path d="M 584 3500 
L 3938 3500 
L 3825 2925 
L 3384 2925 
L 2966 775 
Q 2922 550 2981 450 
Q 3038 353 3209 353 
Q 3256 353 3325 363 
Q 3397 369 3419 372 
L 3338 -44 
Q 3222 -84 3103 -103 
Q 2981 -122 2866 -122 
Q 2491 -122 2388 81 
Q 2284 288 2391 838 
L 2797 2925 
L 1506 2925 
L 938 0 
L 350 0 
L 919 2925 
L 472 2925 
L 584 3500 
z
" id="DejaVuSans-Oblique-3c0" transform="scale(0.015625)"/>
        <path d="M 1625 4666 
L 2156 4666 
L 531 -594 
L 0 -594 
L 1625 4666 
z
" id="DejaVuSans-2f" transform="scale(0.015625)"/>
       </defs>
       <use transform="translate(0 0.09375)" xlink:href="#DejaVuSans-Oblique-3c0"/>
       <use transform="translate(60.205078 0.09375)" xlink:href="#DejaVuSans-2f"/>
       <use transform="translate(93.896484 0.09375)" xlink:href="#DejaVuSans-34"/>
      </g>
     </g>
    </g>
    <g id="ytick_3">
     <g id="line2d_9">
      <g>
       <use style="stroke:#000000;stroke-width:0.8;" x="105.479687" xlink:href="#med75c45502" y="214.9"/>
      </g>
     </g>
     <g id="text_10">
      <!-- $\pi/2$ -->
      <g transform="translate(61.519687 224.018125)scale(0.24 -0.24)">
       <use transform="translate(0 0.78125)" xlink:href="#DejaVuSans-Oblique-3c0"/>
       <use transform="translate(60.205078 0.78125)" xlink:href="#DejaVuSans-2f"/>
       <use transform="translate(90.271484 0.78125)" xlink:href="#DejaVuSans-32"/>
      </g>
     </g>
    </g>
    <g id="ytick_4">
     <g id="line2d_10">
      <g>
       <use style="stroke:#000000;stroke-width:0.8;" x="105.479687" xlink:href="#med75c45502" y="152.1"/>
      </g>
     </g>
     <g id="text_11">
      <!-- $3\pi/4$ -->
      <g transform="translate(45.199687 161.218125)scale(0.24 -0.24)">
       <defs>
        <path d="M 2597 2516 
Q 3050 2419 3304 2112 
Q 3559 1806 3559 1356 
Q 3559 666 3084 287 
Q 2609 -91 1734 -91 
Q 1441 -91 1130 -33 
Q 819 25 488 141 
L 488 750 
Q 750 597 1062 519 
Q 1375 441 1716 441 
Q 2309 441 2620 675 
Q 2931 909 2931 1356 
Q 2931 1769 2642 2001 
Q 2353 2234 1838 2234 
L 1294 2234 
L 1294 2753 
L 1863 2753 
Q 2328 2753 2575 2939 
Q 2822 3125 2822 3475 
Q 2822 3834 2567 4026 
Q 2313 4219 1838 4219 
Q 1578 4219 1281 4162 
Q 984 4106 628 3988 
L 628 4550 
Q 988 4650 1302 4700 
Q 1616 4750 1894 4750 
Q 2613 4750 3031 4423 
Q 3450 4097 3450 3541 
Q 3450 3153 3228 2886 
Q 3006 2619 2597 2516 
z
" id="DejaVuSans-33" transform="scale(0.015625)"/>
       </defs>
       <use transform="translate(0 0.78125)" xlink:href="#DejaVuSans-33"/>
       <use transform="translate(63.623047 0.78125)" xlink:href="#DejaVuSans-Oblique-3c0"/>
       <use transform="translate(123.828125 0.78125)" xlink:href="#DejaVuSans-2f"/>
       <use transform="translate(157.519531 0.78125)" xlink:href="#DejaVuSans-34"/>
      </g>
     </g>
    </g>
    <g id="ytick_5">
     <g id="line2d_11">
      <g>
       <use style="stroke:#000000;stroke-width:0.8;" x="105.479687" xlink:href="#med75c45502" y="89.3"/>
      </g>
     </g>
     <g id="text_12">
      <!-- $\pi$ -->
      <g transform="translate(83.839687 98.418125)scale(0.24 -0.24)">
       <use transform="translate(0 0.3125)" xlink:href="#DejaVuSans-Oblique-3c0"/>
      </g>
     </g>
    </g>
    <g id="text_13">
     <!-- $\phi$ (rad) -->
     <g transform="translate(35.739687 227.96)rotate(-90)scale(0.26 -0.26)">
      <defs>
       <path d="M 2991 4863 
L 2738 3572 
Q 3363 3572 3684 3094 
Q 4016 2606 3850 1747 
Q 3681 888 3159 400 
Q 2653 -78 2028 -78 
L 1784 -1331 
L 1213 -1331 
L 1456 -78 
Q 834 -78 509 400 
Q 178 888 347 1747 
Q 513 2606 1034 3094 
Q 1544 3572 2166 3572 
L 2419 4863 
L 2991 4863 
z
M 2128 434 
Q 2481 434 2784 756 
Q 3116 1116 3244 1747 
Q 3369 2372 3169 2738 
Q 2991 3059 2638 3059 
L 2128 434 
z
M 1556 434 
L 2066 3059 
Q 1716 3059 1413 2738 
Q 1072 2372 953 1747 
Q 834 1116 1028 756 
Q 1203 434 1556 434 
z
" id="DejaVuSans-Oblique-3d5" transform="scale(0.015625)"/>
       <path d="M 2631 2963 
Q 2534 3019 2420 3045 
Q 2306 3072 2169 3072 
Q 1681 3072 1420 2755 
Q 1159 2438 1159 1844 
L 1159 0 
L 581 0 
L 581 3500 
L 1159 3500 
L 1159 2956 
Q 1341 3275 1631 3429 
Q 1922 3584 2338 3584 
Q 2397 3584 2469 3576 
Q 2541 3569 2628 3553 
L 2631 2963 
z
" id="DejaVuSans-72" transform="scale(0.015625)"/>
       <path d="M 2194 1759 
Q 1497 1759 1228 1600 
Q 959 1441 959 1056 
Q 959 750 1161 570 
Q 1363 391 1709 391 
Q 2188 391 2477 730 
Q 2766 1069 2766 1631 
L 2766 1759 
L 2194 1759 
z
M 3341 1997 
L 3341 0 
L 2766 0 
L 2766 531 
Q 2569 213 2275 61 
Q 1981 -91 1556 -91 
Q 1019 -91 701 211 
Q 384 513 384 1019 
Q 384 1609 779 1909 
Q 1175 2209 1959 2209 
L 2766 2209 
L 2766 2266 
Q 2766 2663 2505 2880 
Q 2244 3097 1772 3097 
Q 1472 3097 1187 3025 
Q 903 2953 641 2809 
L 641 3341 
Q 956 3463 1253 3523 
Q 1550 3584 1831 3584 
Q 2591 3584 2966 3190 
Q 3341 2797 3341 1997 
z
" id="DejaVuSans-61" transform="scale(0.015625)"/>
       <path d="M 2906 2969 
L 2906 4863 
L 3481 4863 
L 3481 0 
L 2906 0 
L 2906 525 
Q 2725 213 2448 61 
Q 2172 -91 1784 -91 
Q 1150 -91 751 415 
Q 353 922 353 1747 
Q 353 2572 751 3078 
Q 1150 3584 1784 3584 
Q 2172 3584 2448 3432 
Q 2725 3281 2906 2969 
z
M 947 1747 
Q 947 1113 1208 752 
Q 1469 391 1925 391 
Q 2381 391 2643 752 
Q 2906 1113 2906 1747 
Q 2906 2381 2643 2742 
Q 2381 3103 1925 3103 
Q 1469 3103 1208 2742 
Q 947 2381 947 1747 
z
" id="DejaVuSans-64" transform="scale(0.015625)"/>
      </defs>
      <use transform="translate(0 0.015625)" xlink:href="#DejaVuSans-Oblique-3d5"/>
      <use transform="translate(65.966797 0.015625)" xlink:href="#DejaVuSans-20"/>
      <use transform="translate(97.753906 0.015625)" xlink:href="#DejaVuSans-28"/>
      <use transform="translate(136.767578 0.015625)" xlink:href="#DejaVuSans-72"/>
      <use transform="translate(177.880859 0.015625)" xlink:href="#DejaVuSans-61"/>
      <use transform="translate(239.160156 0.015625)" xlink:href="#DejaVuSans-64"/>
      <use transform="translate(302.636719 0.015625)" xlink:href="#DejaVuSans-29"/>
     </g>
    </g>
   </g>
   <g id="LineCollection_3">
    <path clip-path="url(#pac044963ac)" d="M 236.495781 340.5 
L 236.495781 26.5 
" style="fill:none;stroke:#000000;stroke-dasharray:1.48,0.64;stroke-dashoffset:0;stroke-width:0.4;"/>
   </g>
   <g id="LineCollection_4">
    <path clip-path="url(#pac044963ac)" d="M 306.371031 340.5 
L 306.371031 26.5 
" style="fill:none;stroke:#000000;stroke-dasharray:1.48,0.64;stroke-dashoffset:0;stroke-width:0.4;"/>
   </g>
   <g id="LineCollection_5">
    <path clip-path="url(#pac044963ac)" d="M 358.777469 340.5 
L 358.777469 26.5 
" style="fill:none;stroke:#000000;stroke-dasharray:1.48,0.64;stroke-dashoffset:0;stroke-width:0.4;"/>
   </g>
   <g id="LineCollection_6">
    <path clip-path="url(#pac044963ac)" d="M 411.183906 340.5 
L 411.183906 26.5 
" style="fill:none;stroke:#000000;stroke-dasharray:1.48,0.64;stroke-dashoffset:0;stroke-width:0.4;"/>
   </g>
   <g id="line2d_12">
    <path clip-path="url(#pac044963ac)" d="M 179.347603 73.706464 
L 182.740443 77.939219 
L 186.133283 81.799447 
L 189.526123 85.378228 
L 192.918963 88.735335 
L 196.311803 91.912501 
L 199.704644 94.940238 
L 203.097484 97.841657 
L 206.490324 100.634772 
L 209.883164 103.333951 
L 213.276004 105.950882 
L 216.668844 108.49523 
L 220.061685 110.975103 
L 223.454525 113.397391 
L 226.847365 115.768011 
L 230.240205 118.092096 
L 233.633045 120.374142 
L 237.025885 122.618116 
L 240.418726 124.82755 
L 243.811566 127.005605 
L 247.204406 129.155134 
L 250.597246 131.278726 
L 253.990086 133.378746 
L 257.382926 135.457365 
L 260.775767 137.51659 
L 264.168607 139.558283 
L 267.561447 141.584184 
L 270.954287 143.595927 
L 274.347127 145.595053 
L 277.739967 147.583024 
L 281.132808 149.561236 
L 284.525648 151.531025 
L 287.918488 153.493679 
L 291.311328 155.450446 
L 294.704168 157.402542 
L 298.097008 159.351157 
L 301.489849 161.29746 
L 304.882689 163.242612 
L 308.275529 165.187763 
L 311.668369 167.134066 
L 315.061209 169.082681 
L 318.454049 171.034777 
L 321.84689 172.991544 
L 325.23973 174.954198 
L 328.63257 176.923987 
L 332.02541 178.902199 
L 335.41825 180.890171 
L 338.81109 182.889297 
L 342.203931 184.901039 
L 345.596771 186.926941 
L 348.989611 188.968633 
L 352.382451 191.027858 
L 355.775291 193.106477 
L 359.168131 195.206497 
L 362.560971 197.330089 
L 365.953812 199.479618 
L 369.346652 201.657673 
L 372.739492 203.867107 
L 376.132332 206.111081 
L 379.525172 208.393127 
L 382.918012 210.717212 
L 386.310853 213.087832 
L 389.703693 215.51012 
L 393.096533 217.989993 
L 396.489373 220.534341 
L 399.882213 223.151272 
L 403.275053 225.850451 
L 406.667894 228.643566 
L 410.060734 231.544985 
L 413.453574 234.572722 
L 416.846414 237.749888 
L 420.239254 241.106995 
L 423.632094 244.685776 
L 427.024935 248.546005 
L 430.417775 252.778759 
" style="fill:none;stroke:#000000;stroke-linecap:square;stroke-width:3;"/>
   </g>
   <g id="patch_3">
    <path d="M 105.479687 356.2 
L 105.479687 10.8 
" style="fill:none;stroke:#000000;stroke-linecap:square;stroke-linejoin:miter;stroke-width:0.8;"/>
   </g>
   <g id="patch_4">
    <path d="M 105.479688 356.2 
L 542.2 356.2 
" style="fill:none;stroke:#000000;stroke-linecap:square;stroke-linejoin:miter;stroke-width:0.8;"/>
   </g>
   <g id="PathCollection_1">
    <defs>
     <path d="M 0 1.581139 
C 0.419323 1.581139 0.821528 1.41454 1.118034 1.118034 
C 1.41454 0.821528 1.581139 0.419323 1.581139 0 
C 1.581139 -0.419323 1.41454 -0.821528 1.118034 -1.118034 
C 0.821528 -1.41454 0.419323 -1.581139 0 -1.581139 
C -0.419323 -1.581139 -0.821528 -1.41454 -1.118034 -1.118034 
C -1.41454 -0.821528 -1.581139 -0.419323 -1.581139 0 
C -1.581139 0.419323 -1.41454 0.821528 -1.118034 1.118034 
C -0.821528 1.41454 -0.419323 1.581139 0 1.581139 
z
" id="m9bf47e76bc" style="stroke:#ffa500;stroke-opacity:0.7;"/>
    </defs>
    <g clip-path="url(#pac044963ac)">
     <use style="fill:#ffa500;fill-opacity:0.7;stroke:#ffa500;stroke-opacity:0.7;" x="179.347603" xlink:href="#m9bf47e76bc" y="73.832064"/>
     <use style="fill:#ffa500;fill-opacity:0.7;stroke:#ffa500;stroke-opacity:0.7;" x="182.740443" xlink:href="#m9bf47e76bc" y="78.064819"/>
     <use style="fill:#ffa500;fill-opacity:0.7;stroke:#ffa500;stroke-opacity:0.7;" x="186.133283" xlink:href="#m9bf47e76bc" y="81.925047"/>
     <use style="fill:#ffa500;fill-opacity:0.7;stroke:#ffa500;stroke-opacity:0.7;" x="189.526123" xlink:href="#m9bf47e76bc" y="85.503828"/>
     <use style="fill:#ffa500;fill-opacity:0.7;stroke:#ffa500;stroke-opacity:0.7;" x="192.918963" xlink:href="#m9bf47e76bc" y="88.860935"/>
     <use style="fill:#ffa500;fill-opacity:0.7;stroke:#ffa500;stroke-opacity:0.7;" x="196.311803" xlink:href="#m9bf47e76bc" y="92.038101"/>
     <use style="fill:#ffa500;fill-opacity:0.7;stroke:#ffa500;stroke-opacity:0.7;" x="199.704644" xlink:href="#m9bf47e76bc" y="95.065838"/>
     <use style="fill:#ffa500;fill-opacity:0.7;stroke:#ffa500;stroke-opacity:0.7;" x="203.097484" xlink:href="#m9bf47e76bc" y="97.967257"/>
     <use style="fill:#ffa500;fill-opacity:0.7;stroke:#ffa500;stroke-opacity:0.7;" x="206.490324" xlink:href="#m9bf47e76bc" y="100.760372"/>
     <use style="fill:#ffa500;fill-opacity:0.7;stroke:#ffa500;stroke-opacity:0.7;" x="209.883164" xlink:href="#m9bf47e76bc" y="103.459551"/>
     <use style="fill:#ffa500;fill-opacity:0.7;stroke:#ffa500;stroke-opacity:0.7;" x="213.276004" xlink:href="#m9bf47e76bc" y="106.076482"/>
     <use style="fill:#ffa500;fill-opacity:0.7;stroke:#ffa500;stroke-opacity:0.7;" x="216.668844" xlink:href="#m9bf47e76bc" y="108.62083"/>
     <use style="fill:#ffa500;fill-opacity:0.7;stroke:#ffa500;stroke-opacity:0.7;" x="220.061685" xlink:href="#m9bf47e76bc" y="111.100703"/>
     <use style="fill:#ffa500;fill-opacity:0.7;stroke:#ffa500;stroke-opacity:0.7;" x="223.454525" xlink:href="#m9bf47e76bc" y="113.397391"/>
     <use style="fill:#ffa500;fill-opacity:0.7;stroke:#ffa500;stroke-opacity:0.7;" x="226.847365" xlink:href="#m9bf47e76bc" y="115.768011"/>
     <use style="fill:#ffa500;fill-opacity:0.7;stroke:#ffa500;stroke-opacity:0.7;" x="230.240205" xlink:href="#m9bf47e76bc" y="118.092096"/>
     <use style="fill:#ffa500;fill-opacity:0.7;stroke:#ffa500;stroke-opacity:0.7;" x="233.633045" xlink:href="#m9bf47e76bc" y="120.374142"/>
     <use style="fill:#ffa500;fill-opacity:0.7;stroke:#ffa500;stroke-opacity:0.7;" x="237.025885" xlink:href="#m9bf47e76bc" y="122.618116"/>
     <use style="fill:#ffa500;fill-opacity:0.7;stroke:#ffa500;stroke-opacity:0.7;" x="240.418726" xlink:href="#m9bf47e76bc" y="124.32515"/>
     <use style="fill:#ffa500;fill-opacity:0.7;stroke:#ffa500;stroke-opacity:0.7;" x="243.811566" xlink:href="#m9bf47e76bc" y="126.628805"/>
     <use style="fill:#ffa500;fill-opacity:0.7;stroke:#ffa500;stroke-opacity:0.7;" x="247.204406" xlink:href="#m9bf47e76bc" y="128.778334"/>
     <use style="fill:#ffa500;fill-opacity:0.7;stroke:#ffa500;stroke-opacity:0.7;" x="250.597246" xlink:href="#m9bf47e76bc" y="130.901926"/>
     <use style="fill:#ffa500;fill-opacity:0.7;stroke:#ffa500;stroke-opacity:0.7;" x="253.990086" xlink:href="#m9bf47e76bc" y="133.127546"/>
     <use style="fill:#ffa500;fill-opacity:0.7;stroke:#ffa500;stroke-opacity:0.7;" x="257.382926" xlink:href="#m9bf47e76bc" y="135.206165"/>
     <use style="fill:#ffa500;fill-opacity:0.7;stroke:#ffa500;stroke-opacity:0.7;" x="260.775767" xlink:href="#m9bf47e76bc" y="137.26539"/>
     <use style="fill:#ffa500;fill-opacity:0.7;stroke:#ffa500;stroke-opacity:0.7;" x="264.168607" xlink:href="#m9bf47e76bc" y="139.307083"/>
     <use style="fill:#ffa500;fill-opacity:0.7;stroke:#ffa500;stroke-opacity:0.7;" x="267.561447" xlink:href="#m9bf47e76bc" y="141.332984"/>
     <use style="fill:#ffa500;fill-opacity:0.7;stroke:#ffa500;stroke-opacity:0.7;" x="270.954287" xlink:href="#m9bf47e76bc" y="143.344727"/>
     <use style="fill:#ffa500;fill-opacity:0.7;stroke:#ffa500;stroke-opacity:0.7;" x="274.347127" xlink:href="#m9bf47e76bc" y="145.343853"/>
     <use style="fill:#ffa500;fill-opacity:0.7;stroke:#ffa500;stroke-opacity:0.7;" x="277.739967" xlink:href="#m9bf47e76bc" y="147.331824"/>
     <use style="fill:#ffa500;fill-opacity:0.7;stroke:#ffa500;stroke-opacity:0.7;" x="281.132808" xlink:href="#m9bf47e76bc" y="149.310036"/>
     <use style="fill:#ffa500;fill-opacity:0.7;stroke:#ffa500;stroke-opacity:0.7;" x="284.525648" xlink:href="#m9bf47e76bc" y="151.279825"/>
     <use style="fill:#ffa500;fill-opacity:0.7;stroke:#ffa500;stroke-opacity:0.7;" x="287.918488" xlink:href="#m9bf47e76bc" y="153.242479"/>
     <use style="fill:#ffa500;fill-opacity:0.7;stroke:#ffa500;stroke-opacity:0.7;" x="291.311328" xlink:href="#m9bf47e76bc" y="155.199246"/>
     <use style="fill:#ffa500;fill-opacity:0.7;stroke:#ffa500;stroke-opacity:0.7;" x="294.704168" xlink:href="#m9bf47e76bc" y="157.151342"/>
     <use style="fill:#ffa500;fill-opacity:0.7;stroke:#ffa500;stroke-opacity:0.7;" x="298.097008" xlink:href="#m9bf47e76bc" y="159.099957"/>
     <use style="fill:#ffa500;fill-opacity:0.7;stroke:#ffa500;stroke-opacity:0.7;" x="301.489849" xlink:href="#m9bf47e76bc" y="161.04626"/>
     <use style="fill:#ffa500;fill-opacity:0.7;stroke:#ffa500;stroke-opacity:0.7;" x="304.882689" xlink:href="#m9bf47e76bc" y="161.609812"/>
     <use style="fill:#ffa500;fill-opacity:0.7;stroke:#ffa500;stroke-opacity:0.7;" x="308.275529" xlink:href="#m9bf47e76bc" y="163.806163"/>
     <use style="fill:#ffa500;fill-opacity:0.7;stroke:#ffa500;stroke-opacity:0.7;" x="311.668369" xlink:href="#m9bf47e76bc" y="165.878066"/>
     <use style="fill:#ffa500;fill-opacity:0.7;stroke:#ffa500;stroke-opacity:0.7;" x="315.061209" xlink:href="#m9bf47e76bc" y="167.826681"/>
     <use style="fill:#ffa500;fill-opacity:0.7;stroke:#ffa500;stroke-opacity:0.7;" x="318.454049" xlink:href="#m9bf47e76bc" y="169.904377"/>
     <use style="fill:#ffa500;fill-opacity:0.7;stroke:#ffa500;stroke-opacity:0.7;" x="321.84689" xlink:href="#m9bf47e76bc" y="171.861144"/>
     <use style="fill:#ffa500;fill-opacity:0.7;stroke:#ffa500;stroke-opacity:0.7;" x="325.23973" xlink:href="#m9bf47e76bc" y="173.823798"/>
     <use style="fill:#ffa500;fill-opacity:0.7;stroke:#ffa500;stroke-opacity:0.7;" x="328.63257" xlink:href="#m9bf47e76bc" y="175.919187"/>
     <use style="fill:#ffa500;fill-opacity:0.7;stroke:#ffa500;stroke-opacity:0.7;" x="332.02541" xlink:href="#m9bf47e76bc" y="177.897399"/>
     <use style="fill:#ffa500;fill-opacity:0.7;stroke:#ffa500;stroke-opacity:0.7;" x="335.41825" xlink:href="#m9bf47e76bc" y="179.885371"/>
     <use style="fill:#ffa500;fill-opacity:0.7;stroke:#ffa500;stroke-opacity:0.7;" x="338.81109" xlink:href="#m9bf47e76bc" y="181.884497"/>
     <use style="fill:#ffa500;fill-opacity:0.7;stroke:#ffa500;stroke-opacity:0.7;" x="342.203931" xlink:href="#m9bf47e76bc" y="183.896239"/>
     <use style="fill:#ffa500;fill-opacity:0.7;stroke:#ffa500;stroke-opacity:0.7;" x="345.596771" xlink:href="#m9bf47e76bc" y="185.922141"/>
     <use style="fill:#ffa500;fill-opacity:0.7;stroke:#ffa500;stroke-opacity:0.7;" x="348.989611" xlink:href="#m9bf47e76bc" y="187.963833"/>
     <use style="fill:#ffa500;fill-opacity:0.7;stroke:#ffa500;stroke-opacity:0.7;" x="352.382451" xlink:href="#m9bf47e76bc" y="190.023058"/>
     <use style="fill:#ffa500;fill-opacity:0.7;stroke:#ffa500;stroke-opacity:0.7;" x="355.775291" xlink:href="#m9bf47e76bc" y="192.101677"/>
     <use style="fill:#ffa500;fill-opacity:0.7;stroke:#ffa500;stroke-opacity:0.7;" x="359.168131" xlink:href="#m9bf47e76bc" y="194.201697"/>
     <use style="fill:#ffa500;fill-opacity:0.7;stroke:#ffa500;stroke-opacity:0.7;" x="362.560971" xlink:href="#m9bf47e76bc" y="193.059689"/>
     <use style="fill:#ffa500;fill-opacity:0.7;stroke:#ffa500;stroke-opacity:0.7;" x="365.953812" xlink:href="#m9bf47e76bc" y="195.586018"/>
     <use style="fill:#ffa500;fill-opacity:0.7;stroke:#ffa500;stroke-opacity:0.7;" x="369.346652" xlink:href="#m9bf47e76bc" y="197.889673"/>
     <use style="fill:#ffa500;fill-opacity:0.7;stroke:#ffa500;stroke-opacity:0.7;" x="372.739492" xlink:href="#m9bf47e76bc" y="200.224707"/>
     <use style="fill:#ffa500;fill-opacity:0.7;stroke:#ffa500;stroke-opacity:0.7;" x="376.132332" xlink:href="#m9bf47e76bc" y="202.594281"/>
     <use style="fill:#ffa500;fill-opacity:0.7;stroke:#ffa500;stroke-opacity:0.7;" x="379.525172" xlink:href="#m9bf47e76bc" y="205.001927"/>
     <use style="fill:#ffa500;fill-opacity:0.7;stroke:#ffa500;stroke-opacity:0.7;" x="382.918012" xlink:href="#m9bf47e76bc" y="207.326012"/>
     <use style="fill:#ffa500;fill-opacity:0.7;stroke:#ffa500;stroke-opacity:0.7;" x="386.310853" xlink:href="#m9bf47e76bc" y="209.696632"/>
     <use style="fill:#ffa500;fill-opacity:0.7;stroke:#ffa500;stroke-opacity:0.7;" x="389.703693" xlink:href="#m9bf47e76bc" y="212.11892"/>
     <use style="fill:#ffa500;fill-opacity:0.7;stroke:#ffa500;stroke-opacity:0.7;" x="393.096533" xlink:href="#m9bf47e76bc" y="214.598793"/>
     <use style="fill:#ffa500;fill-opacity:0.7;stroke:#ffa500;stroke-opacity:0.7;" x="396.489373" xlink:href="#m9bf47e76bc" y="217.143141"/>
     <use style="fill:#ffa500;fill-opacity:0.7;stroke:#ffa500;stroke-opacity:0.7;" x="399.882213" xlink:href="#m9bf47e76bc" y="219.760072"/>
     <use style="fill:#ffa500;fill-opacity:0.7;stroke:#ffa500;stroke-opacity:0.7;" x="403.275053" xlink:href="#m9bf47e76bc" y="222.333651"/>
     <use style="fill:#ffa500;fill-opacity:0.7;stroke:#ffa500;stroke-opacity:0.7;" x="406.667894" xlink:href="#m9bf47e76bc" y="225.001166"/>
     <use style="fill:#ffa500;fill-opacity:0.7;stroke:#ffa500;stroke-opacity:0.7;" x="410.060734" xlink:href="#m9bf47e76bc" y="218.859385"/>
     <use style="fill:#ffa500;fill-opacity:0.7;stroke:#ffa500;stroke-opacity:0.7;" x="413.453574" xlink:href="#m9bf47e76bc" y="222.640722"/>
     <use style="fill:#ffa500;fill-opacity:0.7;stroke:#ffa500;stroke-opacity:0.7;" x="416.846414" xlink:href="#m9bf47e76bc" y="226.069088"/>
     <use style="fill:#ffa500;fill-opacity:0.7;stroke:#ffa500;stroke-opacity:0.7;" x="420.239254" xlink:href="#m9bf47e76bc" y="229.426195"/>
     <use style="fill:#ffa500;fill-opacity:0.7;stroke:#ffa500;stroke-opacity:0.7;" x="423.632094" xlink:href="#m9bf47e76bc" y="232.879376"/>
     <use style="fill:#ffa500;fill-opacity:0.7;stroke:#ffa500;stroke-opacity:0.7;" x="427.024935" xlink:href="#m9bf47e76bc" y="236.237205"/>
     <use style="fill:#ffa500;fill-opacity:0.7;stroke:#ffa500;stroke-opacity:0.7;" x="430.417775" xlink:href="#m9bf47e76bc" y="239.841959"/>
    </g>
   </g>
   <g id="legend_1">
    <g id="line2d_13">
     <path d="M 445.945391 54.266875 
L 485.945391 54.266875 
" style="fill:none;stroke:#000000;stroke-linecap:square;stroke-width:3;"/>
    </g>
    <g id="line2d_14"/>
    <g id="text_14">
     <!-- Th. -->
     <g transform="translate(501.945391 61.266875)scale(0.2 -0.2)">
      <defs>
       <path d="M -19 4666 
L 3928 4666 
L 3928 4134 
L 2272 4134 
L 2272 0 
L 1638 0 
L 1638 4134 
L -19 4134 
L -19 4666 
z
" id="DejaVuSans-54" transform="scale(0.015625)"/>
       <path d="M 3513 2113 
L 3513 0 
L 2938 0 
L 2938 2094 
Q 2938 2591 2744 2837 
Q 2550 3084 2163 3084 
Q 1697 3084 1428 2787 
Q 1159 2491 1159 1978 
L 1159 0 
L 581 0 
L 581 4863 
L 1159 4863 
L 1159 2956 
Q 1366 3272 1645 3428 
Q 1925 3584 2291 3584 
Q 2894 3584 3203 3211 
Q 3513 2838 3513 2113 
z
" id="DejaVuSans-68" transform="scale(0.015625)"/>
       <path d="M 684 794 
L 1344 794 
L 1344 0 
L 684 0 
L 684 794 
z
" id="DejaVuSans-2e" transform="scale(0.015625)"/>
      </defs>
      <use xlink:href="#DejaVuSans-54"/>
      <use x="61.083984" xlink:href="#DejaVuSans-68"/>
      <use x="124.462891" xlink:href="#DejaVuSans-2e"/>
     </g>
    </g>
    <g id="PathCollection_2">
     <defs>
      <path d="M 0 4.743416 
C 1.257969 4.743416 2.464584 4.24362 3.354102 3.354102 
C 4.24362 2.464584 4.743416 1.257969 4.743416 0 
C 4.743416 -1.257969 4.24362 -2.464584 3.354102 -3.354102 
C 2.464584 -4.24362 1.257969 -4.743416 0 -4.743416 
C -1.257969 -4.743416 -2.464584 -4.24362 -3.354102 -3.354102 
C -4.24362 -2.464584 -4.743416 -1.257969 -4.743416 0 
C -4.743416 1.257969 -4.24362 2.464584 -3.354102 3.354102 
C -2.464584 4.24362 -1.257969 4.743416 0 4.743416 
z
" id="m32f1b4fd61" style="stroke:#ffa500;stroke-opacity:0.7;"/>
     </defs>
     <g>
      <use style="fill:#ffa500;fill-opacity:0.7;stroke:#ffa500;stroke-opacity:0.7;" x="465.945391" xlink:href="#m32f1b4fd61" y="85.373125"/>
     </g>
    </g>
    <g id="text_15">
     <!-- Sim. -->
     <g transform="translate(501.945391 90.623125)scale(0.2 -0.2)">
      <defs>
       <path d="M 3425 4513 
L 3425 3897 
Q 3066 4069 2747 4153 
Q 2428 4238 2131 4238 
Q 1616 4238 1336 4038 
Q 1056 3838 1056 3469 
Q 1056 3159 1242 3001 
Q 1428 2844 1947 2747 
L 2328 2669 
Q 3034 2534 3370 2195 
Q 3706 1856 3706 1288 
Q 3706 609 3251 259 
Q 2797 -91 1919 -91 
Q 1588 -91 1214 -16 
Q 841 59 441 206 
L 441 856 
Q 825 641 1194 531 
Q 1563 422 1919 422 
Q 2459 422 2753 634 
Q 3047 847 3047 1241 
Q 3047 1584 2836 1778 
Q 2625 1972 2144 2069 
L 1759 2144 
Q 1053 2284 737 2584 
Q 422 2884 422 3419 
Q 422 4038 858 4394 
Q 1294 4750 2059 4750 
Q 2388 4750 2728 4690 
Q 3069 4631 3425 4513 
z
" id="DejaVuSans-53" transform="scale(0.015625)"/>
       <path d="M 603 3500 
L 1178 3500 
L 1178 0 
L 603 0 
L 603 3500 
z
M 603 4863 
L 1178 4863 
L 1178 4134 
L 603 4134 
L 603 4863 
z
" id="DejaVuSans-69" transform="scale(0.015625)"/>
       <path d="M 3328 2828 
Q 3544 3216 3844 3400 
Q 4144 3584 4550 3584 
Q 5097 3584 5394 3201 
Q 5691 2819 5691 2113 
L 5691 0 
L 5113 0 
L 5113 2094 
Q 5113 2597 4934 2840 
Q 4756 3084 4391 3084 
Q 3944 3084 3684 2787 
Q 3425 2491 3425 1978 
L 3425 0 
L 2847 0 
L 2847 2094 
Q 2847 2600 2669 2842 
Q 2491 3084 2119 3084 
Q 1678 3084 1418 2786 
Q 1159 2488 1159 1978 
L 1159 0 
L 581 0 
L 581 3500 
L 1159 3500 
L 1159 2956 
Q 1356 3278 1631 3431 
Q 1906 3584 2284 3584 
Q 2666 3584 2933 3390 
Q 3200 3197 3328 2828 
z
" id="DejaVuSans-6d" transform="scale(0.015625)"/>
      </defs>
      <use xlink:href="#DejaVuSans-53"/>
      <use x="63.476562" xlink:href="#DejaVuSans-69"/>
      <use x="91.259766" xlink:href="#DejaVuSans-6d"/>
      <use x="188.671875" xlink:href="#DejaVuSans-2e"/>
     </g>
    </g>
   </g>
  </g>
 </g>
 <defs>
  <clipPath id="pac044963ac">
   <rect height="345.4" width="436.720313" x="105.479687" y="10.8"/>
  </clipPath>
 </defs>
</svg>
