<?xml version="1.0" encoding="utf-8" standalone="no"?>
<!DOCTYPE svg PUBLIC "-//W3C//DTD SVG 1.1//EN"
  "http://www.w3.org/Graphics/SVG/1.1/DTD/svg11.dtd">
<svg height="288pt" version="1.1" viewBox="0 0 432 288" width="432pt" xmlns="http://www.w3.org/2000/svg" xmlns:xlink="http://www.w3.org/1999/xlink">
 <metadata>
  <rdf:RDF xmlns:cc="http://creativecommons.org/ns#" xmlns:dc="http://purl.org/dc/elements/1.1/" xmlns:rdf="http://www.w3.org/1999/02/22-rdf-syntax-ns#">
   <cc:Work>
    <dc:type rdf:resource="http://purl.org/dc/dcmitype/StillImage"/>
    <dc:date>2022-09-22T12:21:45.990071</dc:date>
    <dc:format>image/svg+xml</dc:format>
    <dc:creator>
     <cc:Agent>
      <dc:title>Matplotlib v3.4.1, https://matplotlib.org/</dc:title>
     </cc:Agent>
    </dc:creator>
   </cc:Work>
  </rdf:RDF>
 </metadata>
 <defs>
  <style type="text/css">*{stroke-linecap:butt;stroke-linejoin:round;}</style>
 </defs>
 <g id="figure_1">
  <g id="patch_1">
   <path d="M 0 288 
L 432 288 
L 432 0 
L 0 0 
z
" style="fill:none;"/>
  </g>
  <g id="axes_1">
   <g id="patch_2">
    <path d="M 66.425 222 
L 414.105682 222 
L 414.105682 18.3 
L 66.425 18.3 
z
" style="fill:#ffffff;"/>
   </g>
   <g id="matplotlib.axis_1">
    <g id="xtick_1">
     <g id="line2d_1">
      <defs>
       <path d="M 0 0 
L 0 3.5 
" id="me66d6f01cd" style="stroke:#000000;stroke-width:0.8;"/>
      </defs>
      <g>
       <use style="stroke:#000000;stroke-width:0.8;" x="82.228667" xlink:href="#me66d6f01cd" y="222"/>
      </g>
     </g>
     <g id="text_1">
      <!-- 0.0 -->
      <g transform="translate(66.325542 244.196875)scale(0.2 -0.2)">
       <defs>
        <path d="M 2034 4250 
Q 1547 4250 1301 3770 
Q 1056 3291 1056 2328 
Q 1056 1369 1301 889 
Q 1547 409 2034 409 
Q 2525 409 2770 889 
Q 3016 1369 3016 2328 
Q 3016 3291 2770 3770 
Q 2525 4250 2034 4250 
z
M 2034 4750 
Q 2819 4750 3233 4129 
Q 3647 3509 3647 2328 
Q 3647 1150 3233 529 
Q 2819 -91 2034 -91 
Q 1250 -91 836 529 
Q 422 1150 422 2328 
Q 422 3509 836 4129 
Q 1250 4750 2034 4750 
z
" id="DejaVuSans-30" transform="scale(0.015625)"/>
        <path d="M 684 794 
L 1344 794 
L 1344 0 
L 684 0 
L 684 794 
z
" id="DejaVuSans-2e" transform="scale(0.015625)"/>
       </defs>
       <use xlink:href="#DejaVuSans-30"/>
       <use x="63.623047" xlink:href="#DejaVuSans-2e"/>
       <use x="95.410156" xlink:href="#DejaVuSans-30"/>
      </g>
     </g>
    </g>
    <g id="xtick_2">
     <g id="line2d_2">
      <g>
       <use style="stroke:#000000;stroke-width:0.8;" x="187.58645" xlink:href="#me66d6f01cd" y="222"/>
      </g>
     </g>
     <g id="text_2">
      <!-- 0.01 -->
      <g transform="translate(165.320825 244.196875)scale(0.2 -0.2)">
       <defs>
        <path d="M 794 531 
L 1825 531 
L 1825 4091 
L 703 3866 
L 703 4441 
L 1819 4666 
L 2450 4666 
L 2450 531 
L 3481 531 
L 3481 0 
L 794 0 
L 794 531 
z
" id="DejaVuSans-31" transform="scale(0.015625)"/>
       </defs>
       <use xlink:href="#DejaVuSans-30"/>
       <use x="63.623047" xlink:href="#DejaVuSans-2e"/>
       <use x="95.410156" xlink:href="#DejaVuSans-30"/>
       <use x="159.033203" xlink:href="#DejaVuSans-31"/>
      </g>
     </g>
    </g>
    <g id="xtick_3">
     <g id="line2d_3">
      <g>
       <use style="stroke:#000000;stroke-width:0.8;" x="292.944232" xlink:href="#me66d6f01cd" y="222"/>
      </g>
     </g>
     <g id="text_3">
      <!-- 0.03 -->
      <g transform="translate(270.678607 244.196875)scale(0.2 -0.2)">
       <defs>
        <path d="M 2597 2516 
Q 3050 2419 3304 2112 
Q 3559 1806 3559 1356 
Q 3559 666 3084 287 
Q 2609 -91 1734 -91 
Q 1441 -91 1130 -33 
Q 819 25 488 141 
L 488 750 
Q 750 597 1062 519 
Q 1375 441 1716 441 
Q 2309 441 2620 675 
Q 2931 909 2931 1356 
Q 2931 1769 2642 2001 
Q 2353 2234 1838 2234 
L 1294 2234 
L 1294 2753 
L 1863 2753 
Q 2328 2753 2575 2939 
Q 2822 3125 2822 3475 
Q 2822 3834 2567 4026 
Q 2313 4219 1838 4219 
Q 1578 4219 1281 4162 
Q 984 4106 628 3988 
L 628 4550 
Q 988 4650 1302 4700 
Q 1616 4750 1894 4750 
Q 2613 4750 3031 4423 
Q 3450 4097 3450 3541 
Q 3450 3153 3228 2886 
Q 3006 2619 2597 2516 
z
" id="DejaVuSans-33" transform="scale(0.015625)"/>
       </defs>
       <use xlink:href="#DejaVuSans-30"/>
       <use x="63.623047" xlink:href="#DejaVuSans-2e"/>
       <use x="95.410156" xlink:href="#DejaVuSans-30"/>
       <use x="159.033203" xlink:href="#DejaVuSans-33"/>
      </g>
     </g>
    </g>
    <g id="xtick_4">
     <g id="line2d_4">
      <g>
       <use style="stroke:#000000;stroke-width:0.8;" x="398.302014" xlink:href="#me66d6f01cd" y="222"/>
      </g>
     </g>
     <g id="text_4">
      <!-- 0.04 -->
      <g transform="translate(376.036389 244.196875)scale(0.2 -0.2)">
       <defs>
        <path d="M 2419 4116 
L 825 1625 
L 2419 1625 
L 2419 4116 
z
M 2253 4666 
L 3047 4666 
L 3047 1625 
L 3713 1625 
L 3713 1100 
L 3047 1100 
L 3047 0 
L 2419 0 
L 2419 1100 
L 313 1100 
L 313 1709 
L 2253 4666 
z
" id="DejaVuSans-34" transform="scale(0.015625)"/>
       </defs>
       <use xlink:href="#DejaVuSans-30"/>
       <use x="63.623047" xlink:href="#DejaVuSans-2e"/>
       <use x="95.410156" xlink:href="#DejaVuSans-30"/>
       <use x="159.033203" xlink:href="#DejaVuSans-34"/>
      </g>
     </g>
    </g>
    <g id="text_5">
     <!-- $\sigma_W$ (V·s$^{-1/2}$) -->
     <g transform="translate(183.265341 269.796875)scale(0.2 -0.2)">
      <defs>
       <path d="M 2219 3044 
Q 1744 3044 1422 2700 
Q 1081 2341 969 1747 
Q 844 1119 1044 756 
Q 1241 397 1706 397 
Q 2166 397 2503 759 
Q 2844 1122 2966 1747 
Q 3075 2319 2881 2700 
Q 2700 3044 2219 3044 
z
M 2309 3503 
L 4219 3500 
L 4106 2925 
L 3463 2925 
Q 3706 2438 3575 1747 
Q 3406 888 2884 400 
Q 2359 -91 1609 -91 
Q 856 -91 525 400 
Q 194 888 363 1747 
Q 528 2609 1050 3097 
Q 1484 3503 2309 3503 
z
" id="DejaVuSans-Oblique-3c3" transform="scale(0.015625)"/>
       <path d="M 616 4666 
L 1228 4666 
L 1453 697 
L 3213 4666 
L 3916 4666 
L 4147 697 
L 5888 4666 
L 6528 4666 
L 4453 0 
L 3659 0 
L 3444 3891 
L 1697 0 
L 903 0 
L 616 4666 
z
" id="DejaVuSans-Oblique-57" transform="scale(0.015625)"/>
       <path id="DejaVuSans-20" transform="scale(0.015625)"/>
       <path d="M 1984 4856 
Q 1566 4138 1362 3434 
Q 1159 2731 1159 2009 
Q 1159 1288 1364 580 
Q 1569 -128 1984 -844 
L 1484 -844 
Q 1016 -109 783 600 
Q 550 1309 550 2009 
Q 550 2706 781 3412 
Q 1013 4119 1484 4856 
L 1984 4856 
z
" id="DejaVuSans-28" transform="scale(0.015625)"/>
       <path d="M 1831 0 
L 50 4666 
L 709 4666 
L 2188 738 
L 3669 4666 
L 4325 4666 
L 2547 0 
L 1831 0 
z
" id="DejaVuSans-56" transform="scale(0.015625)"/>
       <path d="M 684 2619 
L 1344 2619 
L 1344 1825 
L 684 1825 
L 684 2619 
z
" id="DejaVuSans-b7" transform="scale(0.015625)"/>
       <path d="M 2834 3397 
L 2834 2853 
Q 2591 2978 2328 3040 
Q 2066 3103 1784 3103 
Q 1356 3103 1142 2972 
Q 928 2841 928 2578 
Q 928 2378 1081 2264 
Q 1234 2150 1697 2047 
L 1894 2003 
Q 2506 1872 2764 1633 
Q 3022 1394 3022 966 
Q 3022 478 2636 193 
Q 2250 -91 1575 -91 
Q 1294 -91 989 -36 
Q 684 19 347 128 
L 347 722 
Q 666 556 975 473 
Q 1284 391 1588 391 
Q 1994 391 2212 530 
Q 2431 669 2431 922 
Q 2431 1156 2273 1281 
Q 2116 1406 1581 1522 
L 1381 1569 
Q 847 1681 609 1914 
Q 372 2147 372 2553 
Q 372 3047 722 3315 
Q 1072 3584 1716 3584 
Q 2034 3584 2315 3537 
Q 2597 3491 2834 3397 
z
" id="DejaVuSans-73" transform="scale(0.015625)"/>
       <path d="M 678 2272 
L 4684 2272 
L 4684 1741 
L 678 1741 
L 678 2272 
z
" id="DejaVuSans-2212" transform="scale(0.015625)"/>
       <path d="M 1625 4666 
L 2156 4666 
L 531 -594 
L 0 -594 
L 1625 4666 
z
" id="DejaVuSans-2f" transform="scale(0.015625)"/>
       <path d="M 1228 531 
L 3431 531 
L 3431 0 
L 469 0 
L 469 531 
Q 828 903 1448 1529 
Q 2069 2156 2228 2338 
Q 2531 2678 2651 2914 
Q 2772 3150 2772 3378 
Q 2772 3750 2511 3984 
Q 2250 4219 1831 4219 
Q 1534 4219 1204 4116 
Q 875 4013 500 3803 
L 500 4441 
Q 881 4594 1212 4672 
Q 1544 4750 1819 4750 
Q 2544 4750 2975 4387 
Q 3406 4025 3406 3419 
Q 3406 3131 3298 2873 
Q 3191 2616 2906 2266 
Q 2828 2175 2409 1742 
Q 1991 1309 1228 531 
z
" id="DejaVuSans-32" transform="scale(0.015625)"/>
       <path d="M 513 4856 
L 1013 4856 
Q 1481 4119 1714 3412 
Q 1947 2706 1947 2009 
Q 1947 1309 1714 600 
Q 1481 -109 1013 -844 
L 513 -844 
Q 928 -128 1133 580 
Q 1338 1288 1338 2009 
Q 1338 2731 1133 3434 
Q 928 4138 513 4856 
z
" id="DejaVuSans-29" transform="scale(0.015625)"/>
      </defs>
      <use transform="translate(0 0.765625)" xlink:href="#DejaVuSans-Oblique-3c3"/>
      <use transform="translate(63.378906 -15.640625)scale(0.7)" xlink:href="#DejaVuSans-Oblique-57"/>
      <use transform="translate(135.327148 0.765625)" xlink:href="#DejaVuSans-20"/>
      <use transform="translate(167.114258 0.765625)" xlink:href="#DejaVuSans-28"/>
      <use transform="translate(206.12793 0.765625)" xlink:href="#DejaVuSans-56"/>
      <use transform="translate(274.536133 0.765625)" xlink:href="#DejaVuSans-b7"/>
      <use transform="translate(306.323242 0.765625)" xlink:href="#DejaVuSans-73"/>
      <use transform="translate(359.379883 39.046875)scale(0.7)" xlink:href="#DejaVuSans-2212"/>
      <use transform="translate(418.032227 39.046875)scale(0.7)" xlink:href="#DejaVuSans-31"/>
      <use transform="translate(462.568359 39.046875)scale(0.7)" xlink:href="#DejaVuSans-2f"/>
      <use transform="translate(483.614844 39.046875)scale(0.7)" xlink:href="#DejaVuSans-32"/>
      <use transform="translate(530.885352 0.765625)" xlink:href="#DejaVuSans-29"/>
     </g>
    </g>
   </g>
   <g id="matplotlib.axis_2">
    <g id="ytick_1">
     <g id="line2d_5">
      <defs>
       <path d="M 0 0 
L -3.5 0 
" id="m73de1e1165" style="stroke:#000000;stroke-width:0.8;"/>
      </defs>
      <g>
       <use style="stroke:#000000;stroke-width:0.8;" x="66.425" xlink:href="#m73de1e1165" y="213.13698"/>
      </g>
     </g>
     <g id="text_6">
      <!-- 0 -->
      <g transform="translate(46.7 220.735418)scale(0.2 -0.2)">
       <use xlink:href="#DejaVuSans-30"/>
      </g>
     </g>
    </g>
    <g id="ytick_2">
     <g id="line2d_6">
      <g>
       <use style="stroke:#000000;stroke-width:0.8;" x="66.425" xlink:href="#m73de1e1165" y="164.427735"/>
      </g>
     </g>
     <g id="text_7">
      <!-- 5 -->
      <g transform="translate(46.7 172.026173)scale(0.2 -0.2)">
       <defs>
        <path d="M 691 4666 
L 3169 4666 
L 3169 4134 
L 1269 4134 
L 1269 2991 
Q 1406 3038 1543 3061 
Q 1681 3084 1819 3084 
Q 2600 3084 3056 2656 
Q 3513 2228 3513 1497 
Q 3513 744 3044 326 
Q 2575 -91 1722 -91 
Q 1428 -91 1123 -41 
Q 819 9 494 109 
L 494 744 
Q 775 591 1075 516 
Q 1375 441 1709 441 
Q 2250 441 2565 725 
Q 2881 1009 2881 1497 
Q 2881 1984 2565 2268 
Q 2250 2553 1709 2553 
Q 1456 2553 1204 2497 
Q 953 2441 691 2322 
L 691 4666 
z
" id="DejaVuSans-35" transform="scale(0.015625)"/>
       </defs>
       <use xlink:href="#DejaVuSans-35"/>
      </g>
     </g>
    </g>
    <g id="ytick_3">
     <g id="line2d_7">
      <g>
       <use style="stroke:#000000;stroke-width:0.8;" x="66.425" xlink:href="#m73de1e1165" y="115.71849"/>
      </g>
     </g>
     <g id="text_8">
      <!-- 10 -->
      <g transform="translate(33.975 123.316928)scale(0.2 -0.2)">
       <use xlink:href="#DejaVuSans-31"/>
       <use x="63.623047" xlink:href="#DejaVuSans-30"/>
      </g>
     </g>
    </g>
    <g id="ytick_4">
     <g id="line2d_8">
      <g>
       <use style="stroke:#000000;stroke-width:0.8;" x="66.425" xlink:href="#m73de1e1165" y="67.009245"/>
      </g>
     </g>
     <g id="text_9">
      <!-- 15 -->
      <g transform="translate(33.975 74.607683)scale(0.2 -0.2)">
       <use xlink:href="#DejaVuSans-31"/>
       <use x="63.623047" xlink:href="#DejaVuSans-35"/>
      </g>
     </g>
    </g>
    <g id="ytick_5">
     <g id="line2d_9">
      <g>
       <use style="stroke:#000000;stroke-width:0.8;" x="66.425" xlink:href="#m73de1e1165" y="18.3"/>
      </g>
     </g>
     <g id="text_10">
      <!-- 20 -->
      <g transform="translate(33.975 25.898437)scale(0.2 -0.2)">
       <use xlink:href="#DejaVuSans-32"/>
       <use x="63.623047" xlink:href="#DejaVuSans-30"/>
      </g>
     </g>
    </g>
    <g id="text_11">
     <!-- $\sigma_I$ -->
     <g transform="translate(25.815625 128.85)rotate(-90)scale(0.2 -0.2)">
      <defs>
       <path d="M 1081 4666 
L 1716 4666 
L 806 0 
L 172 0 
L 1081 4666 
z
" id="DejaVuSans-Oblique-49" transform="scale(0.015625)"/>
      </defs>
      <use transform="translate(0 0.265625)" xlink:href="#DejaVuSans-Oblique-3c3"/>
      <use transform="translate(63.378906 -16.140625)scale(0.7)" xlink:href="#DejaVuSans-Oblique-49"/>
     </g>
    </g>
   </g>
   <g id="line2d_10">
    <path clip-path="url(#pa56c0bc5d3)" d="M 82.228667 213.13698 
L 88.679144 207.252661 
L 95.12962 201.050217 
L 101.580097 194.654456 
L 108.030573 190.466635 
L 114.48105 186.109042 
L 120.931526 181.956387 
L 127.382003 178.920118 
L 133.832479 175.573838 
L 140.282956 171.778784 
L 146.733432 167.613092 
L 153.183909 162.934904 
L 159.634385 158.022123 
L 166.084861 154.417856 
L 172.535338 149.961725 
L 178.985814 146.136414 
L 185.436291 143.619369 
L 191.886767 139.186402 
L 198.337244 135.195763 
L 204.78772 132.298708 
L 211.238197 129.256739 
L 217.688673 127.175822 
L 224.13915 124.150454 
L 230.589626 121.734831 
L 237.040103 119.830169 
L 243.490579 118.830497 
L 249.941056 117.381803 
L 256.391532 114.609449 
L 262.842009 112.411187 
L 269.292485 110.859195 
L 275.742962 108.307912 
L 282.193438 106.480076 
L 288.643914 106.840814 
L 295.094391 104.720683 
L 301.544867 105.26303 
L 307.995344 103.631633 
L 314.44582 102.968295 
L 320.896297 102.320804 
L 327.346773 101.397597 
L 333.79725 101.150571 
L 340.247726 102.441019 
L 346.698203 102.401023 
L 353.148679 102.287924 
L 359.599156 103.681707 
L 366.049632 102.81181 
L 372.500109 103.815622 
L 378.950585 104.117214 
L 385.401062 104.332033 
L 391.851538 104.23066 
L 398.302014 102.936027 
" style="fill:none;stroke:#c7e9c0;stroke-linecap:square;stroke-width:3;"/>
   </g>
   <g id="line2d_11">
    <path clip-path="url(#pa56c0bc5d3)" d="M 82.228667 212.463257 
L 88.679144 207.589045 
L 95.12962 202.160394 
L 101.580097 196.805248 
L 108.030573 191.739245 
L 114.48105 185.873407 
L 120.931526 180.32397 
L 127.382003 174.816199 
L 133.832479 169.971724 
L 140.282956 164.504053 
L 146.733432 159.609203 
L 153.183909 154.578422 
L 159.634385 148.56302 
L 166.084861 143.042893 
L 172.535338 139.270552 
L 178.985814 134.553027 
L 185.436291 131.217544 
L 191.886767 127.438323 
L 198.337244 123.058487 
L 204.78772 119.616005 
L 211.238197 114.861246 
L 217.688673 111.523785 
L 224.13915 107.805534 
L 230.589626 102.678066 
L 237.040103 97.308805 
L 243.490579 91.150344 
L 249.941056 88.062587 
L 256.391532 85.888482 
L 262.842009 81.914005 
L 269.292485 79.387627 
L 275.742962 75.36167 
L 282.193438 72.908562 
L 288.643914 69.993673 
L 295.094391 67.281627 
L 301.544867 65.176 
L 307.995344 62.105963 
L 314.44582 61.192365 
L 320.896297 57.960435 
L 327.346773 57.118229 
L 333.79725 54.854936 
L 340.247726 52.080389 
L 346.698203 49.555732 
L 353.148679 47.456933 
L 359.599156 45.772807 
L 366.049632 44.110922 
L 372.500109 42.386973 
L 378.950585 41.970333 
L 385.401062 39.935369 
L 391.851538 36.988398 
L 398.302014 35.876589 
" style="fill:none;stroke:#73c476;stroke-linecap:square;stroke-width:3;"/>
   </g>
   <g id="line2d_12">
    <path clip-path="url(#pa56c0bc5d3)" d="M 82.228667 208.364371 
L 88.679144 204.434343 
L 95.12962 200.111176 
L 101.580097 194.842323 
L 108.030573 189.494264 
L 114.48105 185.685072 
L 120.931526 181.813844 
L 127.382003 177.794685 
L 133.832479 173.539207 
L 140.282956 169.184289 
L 146.733432 165.039301 
L 153.183909 162.446205 
L 159.634385 156.502521 
L 166.084861 154.015947 
L 172.535338 149.520936 
L 178.985814 146.314601 
L 185.436291 142.854593 
L 191.886767 140.561687 
L 198.337244 136.441086 
L 204.78772 133.398137 
L 211.238197 129.964968 
L 217.688673 126.758707 
L 224.13915 123.156517 
L 230.589626 120.965595 
L 237.040103 117.48374 
L 243.490579 113.167213 
L 249.941056 110.684028 
L 256.391532 107.441222 
L 262.842009 106.458157 
L 269.292485 105.003431 
L 275.742962 101.969576 
L 282.193438 99.626395 
L 288.643914 97.278614 
L 295.094391 95.302054 
L 301.544867 93.674423 
L 307.995344 92.115574 
L 314.44582 87.556033 
L 320.896297 86.084332 
L 327.346773 83.784576 
L 333.79725 82.313914 
L 340.247726 79.841354 
L 346.698203 79.921288 
L 353.148679 77.888796 
L 359.599156 77.555582 
L 366.049632 78.562388 
L 372.500109 75.62395 
L 378.950585 72.101291 
L 385.401062 71.592702 
L 391.851538 71.427531 
L 398.302014 70.461893 
" style="fill:none;stroke:#228a44;stroke-linecap:square;stroke-width:3;"/>
   </g>
   <g id="line2d_13">
    <path clip-path="url(#pa56c0bc5d3)" d="M 82.228667 212.962801 
L 88.679144 209.742848 
L 95.12962 205.668652 
L 101.580097 200.735368 
L 108.030573 196.353155 
L 114.48105 191.899667 
L 120.931526 187.893484 
L 127.382003 184.695176 
L 133.832479 180.620021 
L 140.282956 176.427328 
L 146.733432 172.671844 
L 153.183909 168.994811 
L 159.634385 167.03951 
L 166.084861 164.916518 
L 172.535338 163.136085 
L 178.985814 160.104893 
L 185.436291 158.274185 
L 191.886767 154.543039 
L 198.337244 152.348353 
L 204.78772 150.885165 
L 211.238197 149.01481 
L 217.688673 146.89365 
L 224.13915 145.626667 
L 230.589626 144.774867 
L 237.040103 142.623641 
L 243.490579 140.639786 
L 249.941056 140.456741 
L 256.391532 140.125169 
L 262.842009 138.4397 
L 269.292485 136.939987 
L 275.742962 135.834652 
L 282.193438 135.352912 
L 288.643914 134.177761 
L 295.094391 134.255441 
L 301.544867 134.180722 
L 307.995344 133.245815 
L 314.44582 132.587322 
L 320.896297 130.854328 
L 327.346773 129.967356 
L 333.79725 129.726813 
L 340.247726 128.70276 
L 346.698203 128.632532 
L 353.148679 128.56922 
L 359.599156 128.160988 
L 366.049632 126.820527 
L 372.500109 126.115422 
L 378.950585 126.063455 
L 385.401062 126.176152 
L 391.851538 126.223052 
L 398.302014 126.357633 
" style="fill:none;stroke:#00441b;stroke-linecap:square;stroke-width:3;"/>
   </g>
   <g id="patch_3">
    <path d="M 66.425 222 
L 66.425 18.3 
" style="fill:none;stroke:#000000;stroke-linecap:square;stroke-linejoin:miter;stroke-width:0.8;"/>
   </g>
   <g id="patch_4">
    <path d="M 66.425 222 
L 414.105682 222 
" style="fill:none;stroke:#000000;stroke-linecap:square;stroke-linejoin:miter;stroke-width:0.8;"/>
   </g>
   <g id="legend_1">
    <g id="line2d_14">
     <path d="M 77.225 34.018125 
L 101.225 34.018125 
" style="fill:none;stroke:#c7e9c0;stroke-linecap:square;stroke-width:3;"/>
    </g>
    <g id="line2d_15"/>
    <g id="text_12">
     <!-- f = 1 Hz -->
     <g transform="translate(110.825 38.218125)scale(0.12 -0.12)">
      <defs>
       <path d="M 2375 4863 
L 2375 4384 
L 1825 4384 
Q 1516 4384 1395 4259 
Q 1275 4134 1275 3809 
L 1275 3500 
L 2222 3500 
L 2222 3053 
L 1275 3053 
L 1275 0 
L 697 0 
L 697 3053 
L 147 3053 
L 147 3500 
L 697 3500 
L 697 3744 
Q 697 4328 969 4595 
Q 1241 4863 1831 4863 
L 2375 4863 
z
" id="DejaVuSans-66" transform="scale(0.015625)"/>
       <path d="M 678 2906 
L 4684 2906 
L 4684 2381 
L 678 2381 
L 678 2906 
z
M 678 1631 
L 4684 1631 
L 4684 1100 
L 678 1100 
L 678 1631 
z
" id="DejaVuSans-3d" transform="scale(0.015625)"/>
       <path d="M 628 4666 
L 1259 4666 
L 1259 2753 
L 3553 2753 
L 3553 4666 
L 4184 4666 
L 4184 0 
L 3553 0 
L 3553 2222 
L 1259 2222 
L 1259 0 
L 628 0 
L 628 4666 
z
" id="DejaVuSans-48" transform="scale(0.015625)"/>
       <path d="M 353 3500 
L 3084 3500 
L 3084 2975 
L 922 459 
L 3084 459 
L 3084 0 
L 275 0 
L 275 525 
L 2438 3041 
L 353 3041 
L 353 3500 
z
" id="DejaVuSans-7a" transform="scale(0.015625)"/>
      </defs>
      <use xlink:href="#DejaVuSans-66"/>
      <use x="35.205078" xlink:href="#DejaVuSans-20"/>
      <use x="66.992188" xlink:href="#DejaVuSans-3d"/>
      <use x="150.78125" xlink:href="#DejaVuSans-20"/>
      <use x="182.568359" xlink:href="#DejaVuSans-31"/>
      <use x="246.191406" xlink:href="#DejaVuSans-20"/>
      <use x="277.978516" xlink:href="#DejaVuSans-48"/>
      <use x="353.173828" xlink:href="#DejaVuSans-7a"/>
     </g>
    </g>
    <g id="line2d_16">
     <path d="M 77.225 51.631875 
L 101.225 51.631875 
" style="fill:none;stroke:#73c476;stroke-linecap:square;stroke-width:3;"/>
    </g>
    <g id="line2d_17"/>
    <g id="text_13">
     <!-- f = 5 Hz -->
     <g transform="translate(110.825 55.831875)scale(0.12 -0.12)">
      <use xlink:href="#DejaVuSans-66"/>
      <use x="35.205078" xlink:href="#DejaVuSans-20"/>
      <use x="66.992188" xlink:href="#DejaVuSans-3d"/>
      <use x="150.78125" xlink:href="#DejaVuSans-20"/>
      <use x="182.568359" xlink:href="#DejaVuSans-35"/>
      <use x="246.191406" xlink:href="#DejaVuSans-20"/>
      <use x="277.978516" xlink:href="#DejaVuSans-48"/>
      <use x="353.173828" xlink:href="#DejaVuSans-7a"/>
     </g>
    </g>
    <g id="line2d_18">
     <path d="M 77.225 69.245625 
L 101.225 69.245625 
" style="fill:none;stroke:#228a44;stroke-linecap:square;stroke-width:3;"/>
    </g>
    <g id="line2d_19"/>
    <g id="text_14">
     <!-- f = 15 Hz -->
     <g transform="translate(110.825 73.445625)scale(0.12 -0.12)">
      <use xlink:href="#DejaVuSans-66"/>
      <use x="35.205078" xlink:href="#DejaVuSans-20"/>
      <use x="66.992188" xlink:href="#DejaVuSans-3d"/>
      <use x="150.78125" xlink:href="#DejaVuSans-20"/>
      <use x="182.568359" xlink:href="#DejaVuSans-31"/>
      <use x="246.191406" xlink:href="#DejaVuSans-35"/>
      <use x="309.814453" xlink:href="#DejaVuSans-20"/>
      <use x="341.601562" xlink:href="#DejaVuSans-48"/>
      <use x="416.796875" xlink:href="#DejaVuSans-7a"/>
     </g>
    </g>
    <g id="line2d_20">
     <path d="M 77.225 86.859375 
L 101.225 86.859375 
" style="fill:none;stroke:#00441b;stroke-linecap:square;stroke-width:3;"/>
    </g>
    <g id="line2d_21"/>
    <g id="text_15">
     <!-- f = 30 Hz -->
     <g transform="translate(110.825 91.059375)scale(0.12 -0.12)">
      <use xlink:href="#DejaVuSans-66"/>
      <use x="35.205078" xlink:href="#DejaVuSans-20"/>
      <use x="66.992188" xlink:href="#DejaVuSans-3d"/>
      <use x="150.78125" xlink:href="#DejaVuSans-20"/>
      <use x="182.568359" xlink:href="#DejaVuSans-33"/>
      <use x="246.191406" xlink:href="#DejaVuSans-30"/>
      <use x="309.814453" xlink:href="#DejaVuSans-20"/>
      <use x="341.601562" xlink:href="#DejaVuSans-48"/>
      <use x="416.796875" xlink:href="#DejaVuSans-7a"/>
     </g>
    </g>
   </g>
  </g>
 </g>
 <defs>
  <clipPath id="pa56c0bc5d3">
   <rect height="203.7" width="347.680682" x="66.425" y="18.3"/>
  </clipPath>
 </defs>
</svg>
